<svg xmlns="http://www.w3.org/2000/svg" width="150" height="150" viewBox="0 0 150 150"><defs><style>.a{fill:none;}.b{fill:#ccd8dc;}.c{fill:#ebf3f6;}.d{fill:#dfeaed;}.e{fill:#e0121b;}</style></defs><rect class="a" width="150" height="150"/><path class="b" d="M140.27,75A66.415,66.415,0,1,1,73.86,8.58,66.415,66.415,0,0,1,140.27,75Z"/><path class="c" d="M144.2,75A66.415,66.415,0,1,1,77.79,8.58,66.415,66.415,0,0,1,144.2,75Z"/><path class="d" d="M133.31,75A55.52,55.52,0,1,1,77.79,19.48,55.524,55.524,0,0,1,133.31,75Z"/><path class="e" d="M53.76,74.9,69.02,94.61a3.842,3.842,0,0,0,6.06,0l26.74-34.56a3.827,3.827,0,0,0-6.05-4.69L72.04,86.03,59.81,70.23a3.821,3.821,0,0,0-6.05,4.67Z"/></svg>