<svg xmlns="http://www.w3.org/2000/svg" width="150" height="150" viewBox="0 0 150 150"><defs><style>.a{fill:#ccd8dc;}.b{fill:#ebf3f6;}.c{fill:#dfeaed;}.d{fill:#e0121b;}.e{fill:none;}</style></defs><path class="a" d="M9.86,114.31C3.64,125,8.67,133.75,21.04,133.75H125.97c12.37,0,17.41-8.74,11.19-19.44L84.81,24.27c-6.22-10.69-16.39-10.69-22.61,0Z"/><path class="b" d="M13.99,114.31C7.77,125,12.81,133.75,25.18,133.75H130.11c12.37,0,17.41-8.74,11.19-19.44L88.95,24.27c-6.22-10.69-16.39-10.69-22.61,0Z"/><path class="c" d="M27.42,124.46c-4.22,0-5.94-2.95-3.82-6.56L73.78,32.61c2.12-3.61,5.59-3.61,7.71,0l50.18,85.29c2.12,3.61.4,6.56-3.82,6.56Z"/><circle class="d" cx="4.13" cy="4.13" r="4.13" transform="translate(73.51 102.53)"/><path class="d" d="M77.64,56.06h0a4.131,4.131,0,0,0-4.13,4.13V93.77a4.13,4.13,0,0,0,8.26,0V60.2A4.121,4.121,0,0,0,77.64,56.06Z"/><rect class="e" width="150" height="150"/></svg>