<svg xmlns="http://www.w3.org/2000/svg" width="40" height="40" viewBox="0 0 40 40"><defs><style>.a{fill:none;}.b,.c{fill:#6f6f6f;}.b{stroke:#707070;stroke-width:0.5px;}</style></defs><g transform="translate(10079 289)"><rect class="a" width="40" height="40" transform="translate(-10079 -289)"/><g transform="translate(-11145.5 -3076)"><path class="b" d="M76.369,18.83V4.482a.35.35,0,0,0-.569-.273L74.123,5.55,72.445,4.209a.35.35,0,0,0-.438,0L70.33,5.55,68.653,4.209a.35.35,0,0,0-.438,0L66.537,5.55,64.86,4.209a.35.35,0,0,0-.438,0L62.745,5.55,61.068,4.209a.35.35,0,0,0-.568.273V31.989a.35.35,0,0,0,.569.273l1.678-1.342,1.678,1.342a.35.35,0,0,0,.438,0l1.678-1.342,1.677,1.342a.35.35,0,0,0,.438,0l1.692-1.354A7.35,7.35,0,1,0,76.369,18.83Zm-7.934,12.71L66.758,30.2a.35.35,0,0,0-.438,0l-1.678,1.342L62.965,30.2a.35.35,0,0,0-.438,0L61.2,31.261V5.21l1.327,1.062a.35.35,0,0,0,.438,0L64.642,4.93l1.677,1.342a.35.35,0,0,0,.438,0L68.434,4.93l1.677,1.342a.35.35,0,0,0,.438,0L72.227,4.93,73.9,6.272a.35.35,0,0,0,.438,0L75.67,5.21V18.825a7.335,7.335,0,0,0-5.154,2.412,4.019,4.019,0,0,0-.562.7,7.336,7.336,0,0,0-.035,8.416Zm7.526,1.281a6.651,6.651,0,1,1,6.651-6.651,6.651,6.651,0,0,1-6.651,6.651Z" transform="translate(1015 2787.868)"/><path class="b" d="M277.714,321.553a.35.35,0,0,0-.477,0L274.611,324a.35.35,0,0,0,.477.513l2.037-1.9v5.545a.35.35,0,0,0,.7,0v-5.545l2.037,1.9a.35.35,0,0,0,.477-.513Z" transform="translate(813.486 2489.055)"/><path class="c" d="M97.418,354.894h.008a.717.717,0,1,0,.008-1.434l-3.07-.033-1.231-.013h-.007a.717.717,0,1,0-.008,1.434l1.231.013h0a1.121,1.121,0,0,1,.794.339c.026.026.05.053.072.081l-2.1-.022h-.008a.717.717,0,1,0-.008,1.434l2.1.023c-.024.028-.048.054-.074.08a1.121,1.121,0,0,1-.789.322h-.013l-1.231-.013h-.007a.717.717,0,0,0-.5,1.233l3.045,2.94a.717.717,0,1,0,1-1.032l-1.8-1.74a2.565,2.565,0,0,0,1.962-1.772l.61.007h.008a.717.717,0,0,0,.008-1.434l-.61-.007a2.548,2.548,0,0,0-.156-.413Z" transform="translate(987.991 2443.964)"/></g></g></svg>