<svg width="28" height="34" viewBox="0 0 28 34" fill="none" xmlns="http://www.w3.org/2000/svg">
<path d="M4.00005 8.44828V32C4.00005 32.5523 4.44776 33 5.00005 33H26.42C26.9723 33 27.42 32.5523 27.42 32V2C27.42 1.44772 26.9723 1 26.42 1H9.5M4.00005 8.44828L9.5 1M4.00005 8.44828H9.5V1" stroke="#525252"/>
<path d="M0 16C0 15.4477 0.447715 15 1 15H23C23.5523 15 24 15.4477 24 16V26C24 26.5523 23.5523 27 23 27H1C0.447716 27 0 26.5523 0 26V16Z" fill="#0070E0"/>
<path d="M9.47159 20.0739H8.58523C8.55114 19.8845 8.48769 19.7178 8.39489 19.5739C8.30208 19.4299 8.18845 19.3078 8.05398 19.2074C7.91951 19.107 7.76894 19.0312 7.60227 18.9801C7.4375 18.929 7.26231 18.9034 7.0767 18.9034C6.74148 18.9034 6.44129 18.9877 6.17614 19.1562C5.91288 19.3248 5.70455 19.572 5.55114 19.8977C5.39962 20.2235 5.32386 20.6212 5.32386 21.0909C5.32386 21.5644 5.39962 21.964 5.55114 22.2898C5.70455 22.6155 5.91383 22.8617 6.17898 23.0284C6.44413 23.1951 6.74242 23.2784 7.07386 23.2784C7.25758 23.2784 7.43182 23.2538 7.59659 23.2045C7.76326 23.1534 7.91383 23.0786 8.0483 22.9801C8.18277 22.8816 8.2964 22.7614 8.3892 22.6193C8.4839 22.4754 8.54924 22.3106 8.58523 22.125L9.47159 22.1278C9.42424 22.4138 9.33239 22.6771 9.19602 22.9176C9.06155 23.1562 8.88826 23.3627 8.67614 23.5369C8.46591 23.7093 8.22538 23.8428 7.95455 23.9375C7.68371 24.0322 7.38826 24.0795 7.06818 24.0795C6.56439 24.0795 6.11553 23.9602 5.72159 23.7216C5.32765 23.4811 5.01705 23.1373 4.78977 22.6903C4.56439 22.2434 4.4517 21.7102 4.4517 21.0909C4.4517 20.4697 4.56534 19.9366 4.79261 19.4915C5.01989 19.0445 5.33049 18.7017 5.72443 18.4631C6.11837 18.2225 6.56629 18.1023 7.06818 18.1023C7.37689 18.1023 7.66477 18.1468 7.93182 18.2358C8.20076 18.3229 8.44223 18.4517 8.65625 18.6222C8.87027 18.7907 9.04735 18.9972 9.1875 19.2415C9.32765 19.4839 9.42235 19.7614 9.47159 20.0739ZM13.6953 19.7102C13.665 19.4413 13.54 19.233 13.3203 19.0852C13.1006 18.9356 12.8241 18.8608 12.4908 18.8608C12.2521 18.8608 12.0457 18.8987 11.8714 18.9744C11.6972 19.0483 11.5618 19.1506 11.4652 19.2812C11.3705 19.41 11.3232 19.5568 11.3232 19.7216C11.3232 19.8598 11.3554 19.9792 11.4197 20.0795C11.486 20.1799 11.5722 20.2642 11.6783 20.3324C11.7862 20.3987 11.9018 20.4545 12.0249 20.5C12.148 20.5436 12.2663 20.5795 12.38 20.608L12.9482 20.7557C13.1338 20.8011 13.3241 20.8627 13.5192 20.9403C13.7143 21.018 13.8951 21.1203 14.0618 21.2472C14.2285 21.3741 14.3629 21.5312 14.4652 21.7188C14.5694 21.9062 14.6214 22.1307 14.6214 22.392C14.6214 22.7216 14.5362 23.0142 14.3658 23.2699C14.1972 23.5256 13.9519 23.7273 13.63 23.875C13.3099 24.0227 12.9226 24.0966 12.468 24.0966C12.0324 24.0966 11.6555 24.0275 11.3374 23.8892C11.0192 23.7509 10.7701 23.5549 10.5902 23.3011C10.4103 23.0455 10.3108 22.7424 10.2919 22.392H11.1726C11.1896 22.6023 11.2578 22.7775 11.3771 22.9176C11.4983 23.0559 11.6527 23.1591 11.8402 23.2273C12.0296 23.2936 12.237 23.3267 12.4624 23.3267C12.7105 23.3267 12.9311 23.2879 13.1243 23.2102C13.3194 23.1307 13.4728 23.0208 13.5845 22.8807C13.6963 22.7386 13.7521 22.5729 13.7521 22.3835C13.7521 22.2112 13.7029 22.0701 13.6044 21.9602C13.5078 21.8504 13.3762 21.7595 13.2095 21.6875C13.0447 21.6155 12.8582 21.5521 12.6499 21.4972L11.9624 21.3097C11.4964 21.1828 11.1271 20.9962 10.8544 20.75C10.5836 20.5038 10.4482 20.178 10.4482 19.7727C10.4482 19.4375 10.5391 19.1449 10.7209 18.8949C10.9027 18.6449 11.1489 18.4508 11.4595 18.3125C11.7701 18.1723 12.1205 18.1023 12.5107 18.1023C12.9046 18.1023 13.2521 18.1714 13.5533 18.3097C13.8563 18.4479 14.0949 18.6383 14.2692 18.8807C14.4434 19.1212 14.5343 19.3977 14.5419 19.7102H13.6953ZM16.179 18.1818L17.7983 22.9205H17.8636L19.483 18.1818H20.4318L18.3381 24H17.3239L15.2301 18.1818H16.179Z" fill="#FAFAFA"/>
</svg>
