<svg xmlns="http://www.w3.org/2000/svg" width="10" height="11.667" viewBox="0 0 10 11.667">
  <g id="Group_29505" data-name="Group 29505" transform="translate(-379.059 -312.8)">
    <path id="Path_23546" data-name="Path 23546" d="M8.636,3.449A.452.452,0,0,1,9.091,3h1.818a.449.449,0,1,1,0,.9H9.091A.452.452,0,0,1,8.636,3.449ZM15,4.795a.452.452,0,0,1-.455.449h-.455v8.077a1.357,1.357,0,0,1-1.364,1.346H7.273a1.357,1.357,0,0,1-1.364-1.346V5.244H5.455a.449.449,0,1,1,0-.9h9.091A.452.452,0,0,1,15,4.795Zm-1.818.449H6.818v8.077a.452.452,0,0,0,.455.449h5.455a.452.452,0,0,0,.455-.449ZM8.636,12.423a.452.452,0,0,0,.455-.449V7.038a.455.455,0,0,0-.909,0v4.936A.452.452,0,0,0,8.636,12.423Zm2.727,0a.452.452,0,0,0,.455-.449V7.038a.455.455,0,0,0-.909,0v4.936A.452.452,0,0,0,11.364,12.423Z" transform="translate(374.059 309.8)" fill="#0070e0"/>
  </g>
</svg>
