<svg xmlns="http://www.w3.org/2000/svg" width="20" height="20" viewBox="0 0 20 20"><defs><style>.a{fill:none;}.b{fill:#0070e0;}</style></defs><path class="a" d="M0,0H20V20H0Z"/><path class="b" d="M23.19,13.8a.33.33,0,0,0-.079-.115l-2.326-2.331a.416.416,0,0,0-.25-.113.406.406,0,0,0-.3.113L18.888,12.7l-6.337,6.35,0,.006a.376.376,0,0,0-.078.078.317.317,0,0,0-.052.1l-1.167,3.481a.38.38,0,0,0,.218.48.286.286,0,0,0,.272.01l3.474-1.169c.016-.006.03-.013.044-.02a.4.4,0,0,0,.169-.091l6.337-6.35,1.349-1.352A.366.366,0,0,0,23.19,13.8Zm-4.028-.273.859.861.921.923-5.791,5.8-1.78-1.784ZM12.23,22.23l.721-2.15,1.425,1.428Zm9.259-7.469-1.78-1.784.8-.8,1.78,1.784Z" transform="translate(-7.229 -7.238)"/></svg>