<svg xmlns="http://www.w3.org/2000/svg" width="87" height="87" viewBox="0 0 87 87"><defs><style>.a{fill:none;}.b{fill:#e0b780;}.c{fill:#feeed8;}.d{fill:#fedeb2;}.e{fill:#fc9303;stroke:rgba(0,0,0,0);stroke-miterlimit:10;}</style></defs><g transform="translate(-831.874 -3613.777)"><rect class="a" width="87" height="87" transform="translate(831.874 3613.777)"/><g transform="translate(826.874 3613.777)"><path class="b" d="M911.674,3656.377a42,42,0,1,1-42-42A41.977,41.977,0,0,1,911.674,3656.377Z" transform="translate(-819.674 -3611.377)"/><path class="c" d="M916.274,3656.377a42,42,0,1,1-42-42A41.977,41.977,0,0,1,916.274,3656.377Z" transform="translate(-827.274 -3614.377)"/><path class="d" d="M908.174,3657.777a32.5,32.5,0,1,1-32.5-32.5A32.5,32.5,0,0,1,908.174,3657.777Z" transform="translate(-828.174 -3616.277)"/></g><g transform="translate(864.99 3693.801)"><path class="e" d="M-14234.779-3736.022a1.337,1.337,0,0,1-1.337-1.337,1.335,1.335,0,0,1,1.337-1.336h.3c.015-.455.037-.917.089-1.382a16.225,16.225,0,0,1,2.359-6.917,13.51,13.51,0,0,1,2.943-3.37c.544-.44,1.679-1.354,1.66-1.788-.006-.109-.169-.4-.752-.787a14.047,14.047,0,0,1-5.466-7.342,16.5,16.5,0,0,1-.922-5.07h-.215a1.335,1.335,0,0,1-1.337-1.337,1.335,1.335,0,0,1,1.337-1.334h25.162a1.337,1.337,0,0,1,1.337,1.334,1.338,1.338,0,0,1-1.337,1.337h-.217a16.472,16.472,0,0,1-.92,5.07,14.058,14.058,0,0,1-5.467,7.342c-.584.39-.748.678-.753.787-.02.434,1.116,1.348,1.662,1.788a13.484,13.484,0,0,1,2.941,3.37,16.2,16.2,0,0,1,2.36,6.917c.051.465.074.927.09,1.382h.3a1.338,1.338,0,0,1,1.337,1.336,1.339,1.339,0,0,1-1.337,1.337Zm3.3-25.02a11.861,11.861,0,0,0,4.579,6.2,3.373,3.373,0,0,1,1.767,2.587c.073,1.592-1.359,2.748-2.509,3.675a11.162,11.162,0,0,0-2.438,2.8,13.967,13.967,0,0,0-2.027,5.95c-.039.367-.061.744-.073,1.133h19.971c-.014-.388-.034-.765-.075-1.135a13.924,13.924,0,0,0-2.023-5.948,11.182,11.182,0,0,0-2.438-2.8c-1.15-.927-2.582-2.083-2.512-3.675a3.388,3.388,0,0,1,1.767-2.587,11.87,11.87,0,0,0,4.582-6.2,14.086,14.086,0,0,0,.789-4.309h-20.148A14,14,0,0,0-14231.482-3761.042Zm3.448,20.8a.686.686,0,0,1-.665-.861l0-.007a11.158,11.158,0,0,1,2.219-4.351c.914-1.061,2.293-2.342,3.734-2.527a4.5,4.5,0,0,1,2.922.792,10.051,10.051,0,0,1,3.912,4.925c.134.375.242.76.354,1.158a.689.689,0,0,1-.664.868v0Zm5.556-9.623a.507.507,0,0,1,.509-.509.507.507,0,0,1,.508.509.508.508,0,0,1-.508.508A.508.508,0,0,1-14222.479-3749.866Zm-.357-1.833a.715.715,0,0,1,.714-.714.713.713,0,0,1,.712.714.711.711,0,0,1-.712.712A.713.713,0,0,1-14222.836-3751.7Zm.584-1.287a1.241,1.241,0,0,1-1.139-.785,9.288,9.288,0,0,0-.271-1.2,5.759,5.759,0,0,0-2.265-2.635,10.153,10.153,0,0,1-3.9-5.324l-.008-.019a.454.454,0,0,1,.513-.592,39.391,39.391,0,0,0,14.241.013.451.451,0,0,1,.511.59l0,.008a10.161,10.161,0,0,1-3.9,5.324,6.036,6.036,0,0,0-2.071,2.207,4.286,4.286,0,0,0-.376,1.04c-.069.307-.016.676-.226.937a1.374,1.374,0,0,1-1.024.435Z" transform="translate(14232 3713.999)"/></g></g></svg>