<svg xmlns="http://www.w3.org/2000/svg" width="400" height="225" viewBox="0 0 400 225"><path fill="#ececec" fill-rule="evenodd" d="M0.000 112.500 L 0.000 225.000 200.000 225.000 L 400.000 225.000 400.000 112.500 L 400.000 0.000 200.000 0.000 L 0.000 0.000 0.000 112.500 M53.538 85.069 L 54.471 85.313 54.412 87.083 C 54.324 89.673,54.462 89.517,52.342 89.417 C 48.015 89.211,46.488 90.737,46.294 95.467 L 46.193 97.917 49.451 97.917 L 52.708 97.917 52.708 100.000 L 52.708 102.083 49.479 102.083 L 46.250 102.083 46.250 115.104 L 46.250 128.125 43.646 128.125 L 41.042 128.125 41.042 115.104 L 41.042 102.083 38.638 102.083 L 36.235 102.083 36.295 100.052 L 36.354 98.021 38.698 97.962 L 41.042 97.903 41.045 95.566 C 41.055 87.738,46.437 83.216,53.538 85.069 M125.208 112.500 C 125.208 136.991,125.172 140.208,124.896 140.208 C 124.620 140.208,124.583 136.991,124.583 112.500 C 124.583 88.009,124.620 84.792,124.896 84.792 C 125.172 84.792,125.208 88.009,125.208 112.500 M179.479 85.409 C 201.351 90.107,211.428 111.218,199.514 127.378 C 186.572 144.933,156.218 144.337,144.281 126.293 C 132.898 109.089,144.802 88.343,168.021 84.922 C 169.857 84.651,177.456 84.974,179.479 85.409 M219.805 101.702 L 222.522 97.708 226.157 97.708 C 228.156 97.708,229.792 97.761,229.792 97.826 C 229.792 97.891,228.334 99.869,226.553 102.223 C 223.509 106.245,223.332 106.529,223.609 106.949 C 223.771 107.195,225.374 109.505,227.172 112.083 L 230.440 116.771 226.418 116.828 C 223.163 116.874,222.357 116.829,222.188 116.593 C 222.073 116.433,220.901 114.368,219.583 112.005 L 217.188 107.709 217.131 112.292 L 217.075 116.875 213.744 116.875 L 210.413 116.875 210.467 105.069 L 210.521 93.264 213.750 92.187 L 216.979 91.111 217.034 98.404 L 217.089 105.696 219.805 101.702 M262.408 97.708 L 264.805 97.708 264.746 100.052 L 264.688 102.396 262.344 102.455 L 260.000 102.514 260.012 106.101 C 260.034 112.262,260.292 112.805,263.133 112.676 L 264.737 112.604 264.854 114.687 C 264.999 117.281,265.172 117.145,261.600 117.252 C 254.584 117.463,253.478 116.188,253.370 107.760 L 253.302 102.500 251.443 102.500 L 249.583 102.500 249.583 100.104 L 249.583 97.708 251.458 97.708 L 253.333 97.708 253.333 95.637 C 253.333 94.347,253.420 93.512,253.564 93.424 C 253.691 93.345,255.168 92.788,256.845 92.185 L 259.896 91.088 259.953 94.398 L 260.010 97.708 262.408 97.708 M297.102 101.634 L 299.725 97.813 303.404 97.756 C 305.428 97.724,307.083 97.741,307.083 97.793 C 307.083 97.844,305.711 99.698,304.033 101.912 C 302.355 104.126,300.893 106.080,300.783 106.254 C 300.631 106.497,301.420 107.773,304.132 111.671 L 307.679 116.771 303.698 116.828 C 301.397 116.860,299.635 116.801,299.521 116.688 C 299.413 116.579,298.211 114.491,296.850 112.048 L 294.376 107.604 294.375 112.240 L 294.375 116.875 290.938 116.875 L 287.500 116.875 287.500 105.221 C 287.500 97.441,287.571 93.522,287.715 93.433 C 287.833 93.360,289.356 92.803,291.100 92.194 L 294.271 91.087 294.375 98.272 L 294.479 105.456 297.102 101.634 M278.260 97.278 C 283.879 98.343,284.915 100.244,285.082 109.792 C 285.141 113.172,285.251 116.195,285.327 116.510 L 285.465 117.083 282.333 117.083 L 279.200 117.083 279.051 115.691 L 278.902 114.298 278.149 115.143 C 274.861 118.832,267.891 118.003,266.041 113.703 C 263.755 108.388,268.715 104.135,276.598 104.653 C 278.808 104.798,279.001 104.609,278.120 103.165 C 277.080 101.459,272.117 101.232,269.094 102.751 C 268.095 103.254,268.187 103.420,268.011 100.796 L 267.862 98.570 268.566 98.277 C 270.955 97.284,275.709 96.794,278.260 97.278 M242.450 97.605 C 247.779 98.862,250.943 103.455,250.199 108.854 C 248.711 119.648,230.988 120.456,228.227 109.856 C 226.159 101.915,233.588 95.516,242.450 97.605 M104.275 98.004 C 106.386 98.734,108.156 100.471,109.031 102.672 C 109.891 104.833,109.985 106.274,109.993 117.448 L 110.000 128.125 107.396 128.125 L 104.792 128.125 104.785 118.281 C 104.778 107.585,104.665 105.901,103.853 104.410 C 101.834 100.703,95.340 101.271,92.451 105.406 L 91.667 106.529 91.667 117.327 L 91.667 128.125 89.063 128.125 L 86.458 128.125 86.458 113.014 L 86.458 97.903 88.906 97.962 L 91.354 98.021 91.413 99.792 L 91.472 101.563 92.677 100.417 C 95.480 97.749,100.514 96.702,104.275 98.004 M65.757 107.396 C 67.631 112.552,69.165 116.880,69.165 117.014 C 69.169 117.640,66.590 124.602,66.450 124.345 C 66.193 123.873,57.024 98.889,56.921 98.379 L 56.824 97.904 59.587 97.963 L 62.351 98.021 65.757 107.396 M82.292 97.989 C 82.292 98.063,70.906 131.084,70.334 132.669 C 68.504 137.736,65.677 140.104,61.458 140.104 C 58.170 140.104,58.333 140.229,58.333 137.715 L 58.333 135.625 60.156 135.623 C 64.470 135.618,63.909 136.653,71.063 115.499 C 74.267 106.024,76.938 98.192,76.998 98.094 C 77.099 97.930,82.292 97.827,82.292 97.989 M156.587 98.346 C 145.323 101.138,145.781 122.792,157.179 126.299 C 163.656 128.292,167.759 125.773,175.903 114.800 C 180.830 108.163,183.009 106.557,187.073 106.569 C 189.671 106.577,190.661 106.933,192.263 108.431 C 193.246 109.350,196.250 109.921,196.250 109.189 C 196.250 105.130,191.354 99.456,186.958 98.419 C 180.827 96.974,177.331 99.084,170.228 108.518 C 165.602 114.662,163.740 116.666,161.717 117.677 C 155.675 120.700,149.072 116.117,151.231 110.400 C 153.151 105.316,160.182 104.163,168.073 107.638 C 168.274 107.727,168.333 107.132,168.333 105.039 L 168.333 102.325 167.135 101.253 C 164.287 98.704,159.958 97.511,156.587 98.346 M237.500 102.317 C 233.976 103.723,234.219 111.513,237.815 112.415 C 241.054 113.228,243.230 111.169,243.228 107.292 C 243.226 103.333,240.623 101.072,237.500 102.317 M274.271 108.527 C 271.517 109.191,271.149 112.008,273.725 112.702 C 275.901 113.288,278.542 111.327,278.542 109.125 C 278.542 108.363,276.268 108.045,274.271 108.527 M192.544 116.454 C 189.448 120.050,183.973 120.535,178.045 117.739 L 175.833 116.696 175.833 118.684 C 175.833 123.505,182.033 127.722,187.604 126.690 C 192.040 125.868,196.412 120.378,196.457 115.573 C 196.458 115.487,195.779 115.417,194.948 115.417 L 193.438 115.417 192.544 116.454 M244.839 125.299 L 244.896 128.932 246.667 127.287 C 248.108 125.949,248.563 125.641,249.115 125.634 C 250.082 125.621,250.006 125.741,247.808 127.697 L 245.830 129.456 246.505 130.197 C 246.876 130.604,247.930 131.711,248.846 132.656 L 250.512 134.375 249.686 134.375 C 248.908 134.375,248.740 134.249,246.836 132.240 L 244.813 130.104 244.802 132.240 L 244.792 134.375 244.167 134.375 L 243.542 134.375 243.542 128.021 L 243.542 121.667 244.162 121.667 L 244.782 121.667 244.839 125.299 M281.042 124.185 L 281.042 126.704 281.673 126.173 C 282.842 125.189,284.804 125.249,285.774 126.299 C 286.460 127.041,286.664 128.212,286.666 131.406 L 286.667 134.375 286.042 134.375 L 285.417 134.375 285.416 131.302 C 285.416 126.934,284.679 125.767,282.569 126.798 C 281.277 127.429,281.042 128.152,281.042 131.510 L 281.042 134.375 280.417 134.375 L 279.792 134.375 279.792 128.021 L 279.792 121.667 280.417 121.667 L 281.042 121.667 281.042 124.185 M308.958 128.021 L 308.958 134.375 308.418 134.375 C 308.057 134.375,307.842 134.240,307.771 133.968 C 307.666 133.567,307.657 133.567,307.094 133.984 C 304.001 136.270,300.600 132.255,301.914 127.869 C 302.593 125.604,305.331 124.704,307.077 126.173 L 307.708 126.704 307.708 124.324 C 307.708 121.764,307.736 121.667,308.472 121.667 L 308.958 121.667 308.958 128.021 M358.172 125.324 L 358.229 128.981 360.092 127.303 C 361.692 125.862,362.059 125.626,362.696 125.629 L 363.438 125.633 361.354 127.592 L 359.271 129.551 361.510 131.810 C 363.996 134.318,364.031 134.375,363.076 134.375 C 362.501 134.375,362.093 134.066,360.264 132.243 L 358.125 130.112 358.125 132.257 L 358.125 134.403 357.552 134.337 L 356.979 134.271 356.924 128.232 C 356.863 121.570,356.853 121.667,357.593 121.667 L 358.115 121.667 358.172 125.324 M290.313 122.708 C 290.313 123.349,290.243 123.446,289.740 123.503 C 289.196 123.566,289.167 123.525,289.167 122.708 C 289.167 121.892,289.196 121.851,289.740 121.913 C 290.243 121.971,290.313 122.068,290.313 122.708 M211.667 125.049 L 211.667 127.598 214.222 125.049 C 216.576 122.700,216.838 122.500,217.555 122.500 C 218.572 122.500,218.723 122.279,215.573 125.387 L 212.813 128.110 215.781 131.089 C 219.068 134.387,219.060 134.375,217.998 134.375 C 217.307 134.375,217.026 134.148,214.466 131.510 L 211.686 128.646 211.676 131.510 L 211.667 134.375 211.042 134.375 L 210.417 134.375 210.417 128.438 L 210.417 122.500 211.042 122.500 L 211.667 122.500 211.667 125.049 M260.705 127.511 C 261.837 130.263,262.804 132.473,262.854 132.424 C 262.904 132.374,263.860 130.144,264.978 127.469 L 267.011 122.604 267.933 122.604 L 268.854 122.604 268.854 128.438 L 268.854 134.271 268.181 134.336 L 267.507 134.401 267.452 129.405 L 267.396 124.408 265.400 129.339 C 262.697 136.018,262.978 136.026,260.134 129.193 L 258.021 124.115 257.965 129.245 L 257.909 134.375 257.288 134.375 L 256.667 134.375 256.667 128.438 L 256.667 122.500 257.656 122.504 L 258.646 122.507 260.705 127.511 M334.601 122.738 C 336.863 123.416,337.408 126.349,335.545 127.817 C 335.128 128.145,335.013 128.330,335.221 128.331 C 336.140 128.338,337.185 130.243,336.969 131.518 C 336.649 133.413,334.886 134.375,331.733 134.375 L 330.000 134.375 330.000 128.438 L 330.000 122.500 331.903 122.500 C 332.950 122.500,334.164 122.607,334.601 122.738 M231.458 124.468 L 231.458 125.602 232.448 125.666 C 234.015 125.766,234.061 126.667,232.499 126.667 L 231.428 126.667 231.495 129.809 C 231.571 133.363,231.705 133.671,233.063 133.416 C 234.063 133.228,234.107 134.263,233.109 134.483 C 230.817 134.986,230.333 134.222,230.242 129.958 L 230.172 126.667 229.342 126.667 C 228.142 126.667,228.219 125.765,229.427 125.665 C 230.201 125.600,230.208 125.592,230.208 124.685 C 230.208 124.034,230.313 123.710,230.573 123.558 C 231.304 123.132,231.458 123.291,231.458 124.468 M331.458 125.625 L 331.458 127.500 332.615 127.500 C 334.547 127.500,335.208 126.968,335.208 125.415 C 335.208 124.231,334.509 123.750,332.784 123.750 L 331.458 123.750 331.458 125.625 M225.007 125.624 C 228.655 126.637,228.589 133.409,224.921 134.396 C 222.047 135.170,219.706 133.196,219.706 130.000 C 219.706 126.723,222.037 124.798,225.007 125.624 M240.165 125.975 C 241.045 126.628,241.225 127.488,241.238 131.108 L 241.250 134.403 240.685 134.337 C 240.289 134.291,240.078 134.115,239.977 133.750 C 239.898 133.464,239.824 133.338,239.812 133.471 C 239.690 134.900,235.640 134.772,234.887 133.316 C 233.743 131.103,235.285 129.293,238.548 129.020 C 239.891 128.907,240.000 128.862,240.000 128.417 C 240.000 126.848,238.862 126.246,236.865 126.757 C 235.304 127.157,235.417 127.162,235.417 126.692 C 235.417 125.519,238.850 125.000,240.165 125.975 M276.415 125.975 C 277.295 126.628,277.475 127.488,277.488 131.108 L 277.500 134.403 276.935 134.337 C 276.539 134.291,276.328 134.115,276.227 133.750 C 276.148 133.464,276.074 133.338,276.062 133.471 C 275.940 134.900,271.890 134.772,271.137 133.316 C 269.993 131.103,271.535 129.293,274.798 129.020 C 276.141 128.907,276.250 128.862,276.250 128.417 C 276.250 126.848,275.112 126.246,273.115 126.757 C 271.554 127.157,271.667 127.162,271.667 126.692 C 271.667 125.519,275.100 125.000,276.415 125.975 M298.107 125.782 C 299.384 126.435,299.583 127.139,299.583 131.000 L 299.583 134.403 299.010 134.337 L 298.438 134.271 298.333 130.906 C 298.203 126.708,297.645 125.870,295.556 126.743 C 294.340 127.251,294.095 127.986,293.997 131.418 L 293.911 134.398 293.362 134.334 L 292.813 134.271 292.756 129.948 L 292.700 125.625 293.329 125.625 C 293.872 125.625,293.958 125.701,293.958 126.182 L 293.958 126.739 294.427 126.299 C 295.407 125.379,296.908 125.168,298.107 125.782 M315.521 126.118 C 315.521 126.660,315.449 126.720,314.748 126.763 C 313.096 126.863,312.708 127.775,312.708 131.556 L 312.708 134.375 312.083 134.375 L 311.458 134.375 311.458 130.208 C 311.458 127.917,311.435 125.971,311.406 125.885 C 311.378 125.799,311.612 125.700,311.927 125.663 C 312.450 125.603,312.500 125.658,312.501 126.288 L 312.502 126.979 312.970 126.429 C 313.990 125.227,315.521 125.041,315.521 126.118 M321.838 125.979 C 322.841 126.721,322.994 127.336,323.087 130.990 L 323.174 134.375 322.524 134.375 C 321.965 134.375,321.875 134.301,321.875 133.836 L 321.875 133.296 321.244 133.827 C 319.613 135.199,317.000 134.599,316.438 132.724 C 315.796 130.579,317.692 128.958,320.844 128.958 C 321.659 128.958,321.667 128.951,321.667 128.157 C 321.667 126.517,320.479 126.162,317.760 126.989 C 317.361 127.111,317.292 127.055,317.292 126.612 C 317.292 125.493,320.566 125.038,321.838 125.979 M344.220 125.923 C 345.132 126.521,345.282 127.168,345.373 130.885 L 345.459 134.375 344.813 134.375 C 344.257 134.375,344.167 134.300,344.167 133.836 L 344.167 133.296 343.536 133.827 C 341.909 135.196,339.257 134.591,338.758 132.738 C 338.190 130.627,339.638 129.241,342.649 129.013 L 344.201 128.896 344.065 128.146 C 343.787 126.611,341.997 126.054,340.249 126.958 L 339.583 127.302 339.583 126.678 C 339.583 125.554,342.846 125.023,344.220 125.923 M352.910 125.782 C 354.269 126.467,354.479 127.157,354.479 130.938 L 354.479 134.271 353.928 134.335 L 353.378 134.398 353.297 131.105 C 353.195 126.910,352.615 125.976,350.538 126.661 C 349.269 127.080,349.076 127.629,348.958 131.146 L 348.854 134.271 348.281 134.337 L 347.708 134.403 347.708 130.222 C 347.708 127.923,347.685 125.971,347.656 125.885 C 347.628 125.799,347.862 125.700,348.177 125.663 C 348.699 125.603,348.750 125.658,348.750 126.283 L 348.750 126.968 349.089 126.483 C 349.805 125.462,351.616 125.129,352.910 125.782 M290.313 130.000 L 290.313 134.271 289.740 134.337 L 289.167 134.403 289.167 130.000 L 289.167 125.597 289.740 125.663 L 290.313 125.729 290.313 130.000 M222.723 126.823 C 219.551 128.441,221.144 134.434,224.455 133.341 C 227.035 132.490,227.180 127.799,224.659 126.746 C 223.775 126.376,223.585 126.384,222.723 126.823 M304.441 126.755 C 302.302 127.711,302.499 132.540,304.708 133.313 C 306.360 133.890,307.542 132.741,307.672 130.429 C 307.838 127.498,306.410 125.874,304.441 126.755 M331.250 130.938 L 331.250 133.125 332.486 133.125 C 334.661 133.125,335.625 132.465,335.625 130.977 C 335.625 129.479,334.523 128.754,332.240 128.751 L 331.250 128.750 331.250 130.938 M237.996 130.193 C 235.767 130.558,235.021 132.753,236.912 133.381 C 238.424 133.883,239.715 132.894,239.932 131.068 L 240.058 130.000 239.456 130.026 C 239.125 130.040,238.468 130.115,237.996 130.193 M274.246 130.193 C 271.989 130.562,271.274 132.754,273.202 133.394 C 274.704 133.893,275.963 132.910,276.182 131.068 L 276.308 130.000 275.706 130.026 C 275.375 130.040,274.718 130.115,274.246 130.193 M319.602 130.226 C 317.568 130.625,316.920 132.677,318.624 133.325 C 320.186 133.919,321.667 132.800,321.667 131.026 C 321.667 129.872,321.579 129.838,319.602 130.226 M341.894 130.226 C 339.859 130.625,339.211 132.677,340.915 133.325 C 342.524 133.937,343.761 133.019,344.066 130.990 L 344.214 130.000 343.513 130.023 C 343.128 130.035,342.399 130.127,341.894 130.226 " class="colorfbfbfb svgShape"/><path fill="#053d75" fill-rule="evenodd" d="M49.060 85.008 C 43.640 85.717,41.074 89.368,41.048 96.406 L 41.042 98.125 38.750 98.125 L 36.458 98.125 36.458 100.104 L 36.458 102.083 38.750 102.083 L 41.042 102.083 41.042 115.104 L 41.042 128.125 43.646 128.125 L 46.250 128.125 46.250 115.104 L 46.250 102.083 49.375 102.083 L 52.500 102.083 52.500 100.104 L 52.500 98.125 49.375 98.125 L 46.250 98.125 46.250 95.755 C 46.250 90.899,47.731 89.240,52.011 89.301 L 54.126 89.331 54.274 87.460 C 54.450 85.234,54.472 85.263,52.489 85.006 C 50.757 84.781,50.798 84.781,49.060 85.008 M124.792 112.500 C 124.792 130.833,124.862 140.208,125.000 140.208 C 125.138 140.208,125.208 130.833,125.208 112.500 C 125.208 94.167,125.138 84.792,125.000 84.792 C 124.862 84.792,124.792 94.167,124.792 112.500 M168.333 85.011 C 142.337 88.244,131.031 114.194,148.335 130.911 C 167.905 149.818,204.375 137.836,204.375 112.500 C 204.375 95.951,186.988 82.690,168.333 85.011 M175.833 96.370 L 175.833 101.491 176.676 100.769 C 183.574 94.865,194.689 99.278,196.165 108.509 L 196.303 109.375 194.748 109.375 C 193.228 109.375,193.174 109.357,192.347 108.571 C 189.929 106.270,186.501 105.879,183.156 107.522 C 180.539 108.807,175.833 114.116,175.833 115.783 L 175.833 116.598 177.656 117.461 C 184.151 120.538,189.932 119.978,192.795 115.995 L 193.360 115.208 194.909 115.208 L 196.458 115.208 196.458 115.810 C 196.458 116.141,196.218 117.240,195.925 118.252 C 193.033 128.233,183.005 130.050,176.502 121.771 L 175.847 120.938 175.840 126.359 L 175.833 131.780 172.233 132.973 C 170.253 133.630,168.566 134.167,168.483 134.167 C 168.401 134.167,168.333 131.878,168.333 129.081 L 168.333 123.995 166.993 124.894 C 157.782 131.071,147.026 122.588,148.328 110.174 C 149.513 98.876,158.676 94.340,166.923 100.968 L 168.325 102.094 168.381 97.887 L 168.438 93.680 171.979 92.482 C 173.927 91.822,175.591 91.275,175.677 91.266 C 175.763 91.257,175.833 93.554,175.833 96.370 M97.651 97.826 C 95.770 98.282,94.246 99.107,92.820 100.441 L 91.508 101.668 91.360 99.897 L 91.213 98.125 88.835 98.125 L 86.458 98.125 86.458 113.125 L 86.458 128.125 88.958 128.125 L 91.458 128.125 91.458 117.437 L 91.458 106.748 92.059 105.801 C 95.132 100.955,102.184 100.398,104.192 104.842 L 104.688 105.938 104.748 117.031 L 104.809 128.125 107.300 128.125 L 109.792 128.125 109.788 117.031 C 109.784 105.005,109.722 104.195,108.643 102.031 C 106.856 98.449,102.290 96.702,97.651 97.826 M57.278 99.213 C 58.041 101.395,66.475 124.253,66.542 124.319 C 66.579 124.357,67.177 122.727,67.870 120.696 L 69.129 117.005 65.733 107.617 L 62.337 98.229 59.615 98.171 L 56.893 98.113 57.278 99.213 M158.229 105.757 C 150.477 106.955,148.134 114.707,154.569 117.868 C 158.528 119.812,163.151 117.833,167.152 112.481 L 168.333 110.900 168.333 109.395 L 168.333 107.891 167.005 107.288 C 164.404 106.109,160.434 105.416,158.229 105.757 M243.681 121.806 C 243.604 121.882,243.542 124.694,243.542 128.056 L 243.542 134.167 244.063 134.167 L 244.583 134.167 244.583 132.035 L 244.583 129.903 246.722 132.035 C 248.611 133.917,248.946 134.167,249.583 134.167 L 250.305 134.167 248.017 131.860 L 245.729 129.553 247.708 127.698 C 249.618 125.909,249.665 125.844,249.044 125.839 C 248.526 125.834,248.038 126.164,246.544 127.529 L 244.688 129.225 244.631 125.446 C 244.573 121.598,244.431 121.055,243.681 121.806 M279.939 121.797 C 279.858 121.878,279.792 124.694,279.792 128.056 L 279.792 134.167 280.417 134.167 L 281.042 134.167 281.042 131.334 C 281.042 127.533,281.587 126.458,283.514 126.458 C 285.177 126.458,285.417 127.035,285.417 131.031 L 285.417 134.167 285.938 134.167 L 286.458 134.167 286.458 130.931 C 286.458 127.285,286.261 126.482,285.235 125.951 C 284.136 125.383,282.634 125.520,281.785 126.266 L 281.055 126.907 280.996 124.339 C 280.937 121.758,280.655 121.081,279.939 121.797 M307.917 124.307 L 307.917 126.948 307.448 126.521 C 304.118 123.488,300.093 128.156,302.254 132.544 C 303.202 134.469,305.663 135.061,307.180 133.728 L 307.917 133.082 307.917 133.624 C 307.917 134.064,308.015 134.167,308.438 134.167 L 308.958 134.167 308.958 127.917 L 308.958 121.667 308.438 121.667 L 307.917 121.667 307.917 124.307 M357.083 127.917 L 357.083 134.167 357.604 134.167 L 358.125 134.167 358.134 132.031 L 358.143 129.896 360.165 132.036 C 361.983 133.959,362.261 134.175,362.913 134.171 L 363.639 134.167 361.351 131.865 L 359.063 129.563 359.896 128.806 C 360.354 128.389,361.274 127.550,361.939 126.941 L 363.149 125.833 362.480 125.833 C 361.934 125.833,361.472 126.143,359.968 127.518 L 358.125 129.202 358.125 125.434 L 358.125 121.667 357.604 121.667 L 357.083 121.667 357.083 127.917 M289.167 122.813 C 289.167 123.451,289.231 123.542,289.688 123.542 C 290.144 123.542,290.208 123.451,290.208 122.813 C 290.208 122.174,290.144 122.083,289.688 122.083 C 289.231 122.083,289.167 122.174,289.167 122.813 M210.417 128.319 L 210.417 134.167 211.042 134.167 L 211.667 134.167 211.667 131.331 L 211.667 128.495 214.427 131.351 C 217.031 134.045,217.228 134.203,217.897 134.135 L 218.606 134.063 215.686 131.043 L 212.767 128.024 215.602 125.272 L 218.438 122.519 217.705 122.510 C 217.041 122.501,216.732 122.741,214.372 125.108 L 211.771 127.717 211.667 125.160 L 211.563 122.604 210.990 122.538 L 210.417 122.472 210.417 128.319 M256.806 122.639 C 256.729 122.715,256.667 125.340,256.667 128.472 L 256.667 134.167 257.288 134.167 L 257.909 134.167 257.965 129.012 L 258.021 123.857 260.141 128.960 C 262.989 135.816,262.701 135.809,265.399 129.090 L 267.396 124.118 267.452 129.142 L 267.507 134.167 268.129 134.167 L 268.750 134.167 268.750 128.333 L 268.750 122.500 267.949 122.500 L 267.148 122.500 265.309 126.927 C 264.298 129.362,263.336 131.678,263.173 132.073 C 262.806 132.962,262.936 133.180,260.917 128.294 C 258.276 121.905,258.604 122.500,257.717 122.500 C 257.292 122.500,256.882 122.563,256.806 122.639 M330.156 122.615 C 330.070 122.704,330.000 125.340,330.000 128.472 L 330.000 134.167 332.143 134.167 C 333.952 134.167,334.432 134.093,335.216 133.698 C 337.323 132.635,337.460 129.413,335.435 128.517 C 334.671 128.178,334.645 128.082,335.244 127.810 C 337.017 127.004,336.917 123.895,335.090 123.028 C 334.276 122.642,330.438 122.321,330.156 122.615 M230.781 123.558 C 230.512 123.715,230.417 124.040,230.417 124.802 L 230.417 125.833 229.583 125.833 C 228.889 125.833,228.750 125.903,228.750 126.250 C 228.750 126.596,228.889 126.667,229.569 126.667 L 230.389 126.667 230.455 130.083 C 230.534 134.183,230.622 134.375,232.428 134.375 C 233.451 134.375,233.542 134.336,233.542 133.896 C 233.542 133.476,233.456 133.427,232.846 133.498 C 231.584 133.646,231.458 133.310,231.458 129.777 L 231.458 126.667 232.396 126.667 C 233.194 126.667,233.333 126.605,233.333 126.250 C 233.333 125.895,233.194 125.833,232.396 125.833 L 231.458 125.833 231.458 124.583 C 231.458 123.292,231.397 123.199,230.781 123.558 M334.261 123.837 C 336.727 124.867,335.287 127.708,332.298 127.708 L 331.250 127.708 331.250 125.625 L 331.250 123.542 332.403 123.542 C 333.036 123.542,333.873 123.674,334.261 123.837 M221.969 125.918 C 219.034 127.196,219.066 132.859,222.015 134.091 C 225.358 135.488,228.349 132.644,227.549 128.829 C 226.993 126.177,224.436 124.843,221.969 125.918 M236.302 125.848 C 235.781 126.006,235.625 126.170,235.625 126.558 C 235.625 127.052,235.639 127.056,236.347 126.760 C 238.304 125.943,240.000 126.669,240.000 128.324 L 240.000 129.167 238.802 129.168 C 236.396 129.170,234.966 130.003,234.672 131.573 C 234.191 134.138,237.606 135.423,239.740 133.479 L 240.208 133.052 240.208 133.610 C 240.208 134.048,240.308 134.167,240.677 134.167 C 241.146 134.167,241.314 129.699,240.933 127.377 C 240.696 125.934,238.453 125.193,236.302 125.848 M272.552 125.848 C 272.031 126.006,271.875 126.170,271.875 126.558 C 271.875 127.052,271.889 127.056,272.597 126.760 C 274.554 125.943,276.250 126.669,276.250 128.324 L 276.250 129.167 275.052 129.168 C 272.646 129.170,271.216 130.003,270.922 131.573 C 270.441 134.138,273.856 135.423,275.990 133.479 L 276.458 133.052 276.458 133.610 C 276.458 134.048,276.558 134.167,276.927 134.167 C 277.396 134.167,277.564 129.699,277.183 127.377 C 276.946 125.934,274.703 125.193,272.552 125.848 M295.000 125.969 C 294.714 126.174,294.318 126.532,294.122 126.764 C 293.770 127.180,293.764 127.176,293.757 126.510 C 293.751 125.975,293.663 125.833,293.333 125.833 C 292.931 125.833,292.917 125.972,292.917 130.000 L 292.917 134.167 293.438 134.167 L 293.958 134.167 293.958 131.452 C 293.958 127.757,294.592 126.458,296.396 126.458 C 298.173 126.458,298.542 127.279,298.542 131.243 L 298.542 134.167 299.063 134.167 L 299.583 134.167 299.582 131.198 C 299.581 127.876,299.408 126.966,298.639 126.244 C 297.924 125.571,295.782 125.410,295.000 125.969 M313.684 125.858 C 313.475 125.979,313.124 126.375,312.903 126.737 L 312.502 127.396 312.501 126.615 C 312.500 125.920,312.442 125.833,311.979 125.833 L 311.458 125.833 311.458 130.000 L 311.458 134.167 311.956 134.167 C 312.451 134.167,312.453 134.158,312.539 131.302 C 312.651 127.563,313.084 126.667,314.778 126.667 C 315.320 126.667,315.417 126.588,315.417 126.146 C 315.417 125.568,314.456 125.409,313.684 125.858 M318.073 125.867 C 317.668 126.015,317.500 126.221,317.500 126.569 C 317.500 127.051,317.517 127.055,318.222 126.760 C 320.122 125.966,321.635 126.556,321.816 128.162 L 321.924 129.120 320.285 129.203 C 317.618 129.338,316.458 130.211,316.458 132.084 C 316.458 134.310,319.729 135.271,321.450 133.550 L 321.875 133.125 321.875 133.646 C 321.875 134.063,321.979 134.167,322.396 134.167 L 322.917 134.167 322.917 130.931 C 322.917 127.285,322.719 126.482,321.693 125.951 C 320.985 125.585,318.974 125.538,318.073 125.867 M340.365 125.867 C 339.960 126.015,339.792 126.221,339.792 126.569 C 339.792 127.051,339.808 127.055,340.514 126.760 C 342.471 125.943,344.167 126.669,344.167 128.324 L 344.167 129.167 342.889 129.167 C 340.145 129.167,338.854 130.076,338.854 132.010 C 338.854 134.456,341.871 135.333,343.906 133.479 L 344.375 133.052 344.375 133.610 C 344.375 134.028,344.479 134.167,344.792 134.167 C 345.387 134.167,345.431 128.049,344.843 126.878 C 344.254 125.703,342.127 125.223,340.365 125.867 M350.081 125.829 C 349.839 125.927,349.440 126.262,349.195 126.573 L 348.750 127.140 348.750 126.486 C 348.750 125.929,348.674 125.833,348.229 125.833 L 347.708 125.833 347.708 130.000 L 347.708 134.167 348.229 134.167 L 348.750 134.167 348.751 131.615 C 348.753 127.088,350.443 125.068,352.645 126.961 L 353.229 127.463 353.296 130.815 L 353.362 134.167 353.869 134.167 L 354.375 134.167 354.375 131.035 C 354.375 126.228,353.055 124.628,350.081 125.829 M289.167 130.000 L 289.167 134.167 289.688 134.167 L 290.208 134.167 290.208 130.000 L 290.208 125.833 289.688 125.833 L 289.167 125.833 289.167 130.000 M225.121 126.851 C 227.631 128.382,226.574 133.540,223.750 133.540 C 222.030 133.540,220.965 132.186,220.965 130.000 C 220.965 127.189,223.066 125.598,225.121 126.851 M306.832 127.043 C 308.820 128.900,307.875 133.542,305.509 133.542 C 303.757 133.542,302.917 132.394,302.917 130.000 C 302.917 126.948,305.025 125.356,306.832 127.043 M334.745 129.168 C 337.149 130.634,335.461 133.328,332.135 133.332 L 331.250 133.333 331.250 131.042 L 331.250 128.750 332.656 128.751 C 333.694 128.751,334.241 128.861,334.745 129.168 M240.000 131.063 C 240.000 131.993,239.912 132.213,239.292 132.833 C 237.632 134.493,235.165 133.234,235.969 131.139 C 236.179 130.592,237.688 130.010,238.906 130.005 L 240.000 130.000 240.000 131.063 M276.250 131.063 C 276.250 131.993,276.162 132.213,275.542 132.833 C 273.882 134.493,271.415 133.234,272.219 131.139 C 272.429 130.592,273.938 130.010,275.156 130.005 L 276.250 130.000 276.250 131.063 M321.875 130.736 C 321.875 133.106,319.484 134.503,317.988 133.007 C 316.619 131.638,318.090 130.065,320.781 130.019 L 321.875 130.000 321.875 130.736 M344.167 130.844 C 344.167 133.022,341.929 134.392,340.398 133.152 C 338.817 131.872,340.360 130.065,343.073 130.019 L 344.167 130.000 344.167 130.844 " class="color053d75 svgShape"/><path fill="#ec1d25" fill-rule="evenodd" d="M171.979 92.482 L 168.438 93.681 168.383 102.295 L 168.329 110.910 171.051 107.278 C 172.548 105.280,174.236 103.164,174.803 102.575 L 175.833 101.503 175.833 96.377 C 175.833 93.557,175.763 91.257,175.677 91.266 C 175.591 91.275,173.927 91.822,171.979 92.482 M213.490 92.325 L 210.417 93.368 210.417 105.122 L 210.417 116.875 213.746 116.875 L 217.076 116.875 217.132 112.185 L 217.188 107.496 219.791 112.185 L 222.394 116.875 226.398 116.875 L 230.401 116.875 226.848 111.762 C 224.894 108.950,223.343 106.525,223.402 106.372 C 223.460 106.220,224.706 104.513,226.169 102.579 C 227.633 100.645,229.058 98.758,229.336 98.385 L 229.841 97.708 226.223 97.716 L 222.604 97.724 219.896 101.707 L 217.188 105.690 217.133 98.470 C 217.090 92.892,217.019 91.254,216.820 91.266 C 216.678 91.275,215.180 91.752,213.490 92.325 M256.512 92.369 L 253.545 93.438 253.543 95.573 L 253.542 97.708 251.563 97.708 L 249.583 97.708 249.583 100.000 L 249.583 102.292 251.437 102.292 L 253.291 102.292 253.378 107.448 C 253.521 115.852,254.562 117.193,260.938 117.184 C 265.005 117.178,265.354 116.820,264.661 113.356 L 264.530 112.702 263.240 112.834 C 260.360 113.129,260.000 112.434,260.000 106.569 L 260.000 102.292 262.292 102.292 L 264.583 102.292 264.583 100.000 L 264.583 97.708 262.292 97.708 L 260.000 97.708 260.000 94.479 C 260.000 92.021,259.938 91.256,259.740 91.275 C 259.596 91.289,258.144 91.782,256.512 92.369 M290.782 92.369 L 287.710 93.438 287.709 105.156 L 287.708 116.875 291.038 116.875 L 294.367 116.875 294.423 112.240 L 294.479 107.604 297.055 112.240 L 299.632 116.875 303.566 116.875 C 305.730 116.875,307.500 116.826,307.500 116.767 C 307.500 116.677,301.143 107.452,300.604 106.759 C 300.472 106.589,304.685 100.729,306.923 97.969 C 307.091 97.762,306.382 97.708,303.504 97.708 L 299.874 97.708 297.177 101.667 L 294.479 105.625 294.424 98.438 C 294.382 92.880,294.311 91.256,294.112 91.275 C 293.970 91.288,292.472 91.781,290.782 92.369 M273.229 97.306 C 272.313 97.407,270.813 97.703,269.896 97.964 L 268.229 98.438 268.170 100.703 C 268.115 102.799,268.138 102.960,268.482 102.848 C 268.687 102.782,269.417 102.516,270.104 102.258 C 273.201 101.093,277.478 101.673,278.353 103.377 C 279.129 104.888,279.103 104.904,275.990 104.829 C 269.002 104.661,265.218 107.242,265.693 111.851 C 266.251 117.251,273.821 119.382,277.865 115.277 L 279.167 113.955 279.167 115.415 L 279.167 116.875 282.149 116.875 L 285.132 116.875 285.065 112.760 C 284.892 102.298,284.869 102.113,283.460 100.208 C 281.750 97.896,277.867 96.794,273.229 97.306 M236.146 97.622 C 230.548 98.872,227.361 103.342,228.139 108.854 C 229.813 120.718,249.433 119.883,250.153 107.917 C 250.584 100.760,243.945 95.881,236.146 97.622 M76.972 98.385 C 76.918 98.529,74.294 106.272,71.139 115.594 C 67.985 124.915,65.228 132.884,65.014 133.302 C 64.127 135.031,62.818 135.712,60.365 135.722 L 58.542 135.729 58.542 137.743 L 58.542 139.757 59.594 139.983 C 63.938 140.914,67.348 138.919,69.554 134.154 C 70.207 132.744,82.083 98.712,82.083 98.252 C 82.083 97.985,77.074 98.116,76.972 98.385 M240.254 102.093 C 244.380 103.238,244.432 111.419,240.320 112.526 C 236.989 113.423,234.475 110.659,234.862 106.522 C 235.173 103.188,237.453 101.315,240.254 102.093 M278.749 108.698 C 278.744 110.121,277.426 112.081,276.100 112.636 C 272.700 114.059,270.076 110.247,273.413 108.732 C 274.645 108.173,278.751 108.146,278.749 108.698 M174.676 116.614 C 173.214 118.610,170.810 121.473,169.474 122.809 L 168.333 123.949 168.333 129.058 C 168.333 131.868,168.401 134.167,168.483 134.167 C 168.566 134.167,170.253 133.630,172.233 132.973 L 175.833 131.780 175.833 123.494 C 175.833 118.937,175.805 115.208,175.769 115.208 C 175.734 115.208,175.242 115.841,174.676 116.614 " class="colorec1d25 svgShape"/><path fill="#8ba6c2" fill-rule="evenodd" d="M51.719 84.935 C 51.919 84.988,52.247 84.988,52.448 84.935 C 52.648 84.883,52.484 84.840,52.083 84.840 C 51.682 84.840,51.518 84.883,51.719 84.935 M124.684 112.500 C 124.684 127.797,124.709 134.055,124.740 126.406 C 124.770 118.758,124.770 106.242,124.740 98.594 C 124.709 90.945,124.684 97.203,124.684 112.500 M168.802 84.935 C 169.003 84.988,169.331 84.988,169.531 84.935 C 169.732 84.883,169.568 84.840,169.167 84.840 C 168.766 84.840,168.602 84.883,168.802 84.935 M175.052 84.935 C 175.253 84.988,175.581 84.988,175.781 84.935 C 175.982 84.883,175.818 84.840,175.417 84.840 C 175.016 84.840,174.852 84.883,175.052 84.935 M54.223 88.333 C 54.223 88.849,54.264 89.060,54.314 88.802 C 54.363 88.544,54.363 88.122,54.314 87.865 C 54.264 87.607,54.223 87.818,54.223 88.333 M51.097 89.316 C 51.413 89.364,51.882 89.363,52.138 89.313 C 52.395 89.264,52.135 89.225,51.563 89.226 C 50.990 89.228,50.780 89.268,51.097 89.316 M41.090 93.542 C 41.090 93.943,41.133 94.107,41.185 93.906 C 41.238 93.706,41.238 93.378,41.185 93.177 C 41.133 92.977,41.090 93.141,41.090 93.542 M147.807 94.427 L 146.354 95.938 147.865 94.485 C 148.695 93.686,149.375 93.006,149.375 92.974 C 149.375 92.822,149.156 93.024,147.807 94.427 M196.667 94.479 C 197.289 95.109,197.845 95.625,197.902 95.625 C 197.960 95.625,197.497 95.109,196.875 94.479 C 196.253 93.849,195.697 93.333,195.639 93.333 C 195.582 93.333,196.044 93.849,196.667 94.479 M36.339 98.194 C 36.281 98.346,36.264 99.307,36.303 100.329 L 36.373 102.188 36.415 100.163 L 36.458 98.139 38.802 98.072 L 41.146 98.006 38.796 97.961 C 37.001 97.927,36.420 97.982,36.339 98.194 M49.315 98.072 L 52.485 98.136 52.553 100.162 L 52.621 102.188 52.665 100.052 L 52.708 97.917 49.427 97.963 L 46.146 98.009 49.315 98.072 M57.708 98.055 C 59.962 98.207,62.454 98.216,62.364 98.073 C 62.311 97.987,61.030 97.934,59.519 97.954 C 58.007 97.975,57.193 98.020,57.708 98.055 M88.842 98.069 L 91.227 98.138 91.311 98.966 L 91.395 99.795 91.375 98.908 L 91.354 98.021 88.906 98.010 L 86.458 98.000 88.842 98.069 M158.594 98.068 C 159.023 98.113,159.727 98.113,160.156 98.068 C 160.586 98.023,160.234 97.987,159.375 97.987 C 158.516 97.987,158.164 98.023,158.594 98.068 M107.083 99.896 C 107.472 100.297,107.837 100.625,107.894 100.625 C 107.952 100.625,107.680 100.297,107.292 99.896 C 106.903 99.495,106.538 99.167,106.481 99.167 C 106.423 99.167,106.695 99.495,107.083 99.896 M92.386 100.677 L 91.563 101.563 92.448 100.739 C 93.271 99.973,93.429 99.792,93.271 99.792 C 93.237 99.792,92.839 100.190,92.386 100.677 M109.889 117.292 C 109.889 123.307,109.915 125.768,109.948 122.760 C 109.980 119.753,109.980 114.831,109.948 111.823 C 109.915 108.815,109.889 111.276,109.889 117.292 M91.555 117.396 C 91.555 123.354,91.582 125.762,91.614 122.746 C 91.647 119.730,91.647 114.855,91.614 111.912 C 91.582 108.970,91.555 111.438,91.555 117.396 M104.632 107.292 C 104.632 107.693,104.675 107.857,104.727 107.656 C 104.779 107.456,104.779 107.128,104.727 106.927 C 104.675 106.727,104.632 106.891,104.632 107.292 M152.591 108.177 L 151.979 108.854 152.656 108.242 C 153.029 107.906,153.333 107.601,153.333 107.565 C 153.333 107.404,153.161 107.546,152.591 108.177 M179.886 109.844 L 179.063 110.729 179.948 109.906 C 180.771 109.140,180.929 108.958,180.771 108.958 C 180.737 108.958,180.339 109.357,179.886 109.844 M140.048 110.625 C 140.048 111.026,140.091 111.190,140.144 110.990 C 140.196 110.789,140.196 110.461,140.144 110.260 C 140.091 110.060,140.048 110.224,140.048 110.625 M204.452 112.500 C 204.452 113.703,204.487 114.195,204.529 113.594 C 204.571 112.992,204.571 112.008,204.529 111.406 C 204.487 110.805,204.452 111.297,204.452 112.500 M148.182 112.083 C 148.182 112.599,148.222 112.810,148.272 112.552 C 148.322 112.294,148.322 111.872,148.272 111.615 C 148.222 111.357,148.182 111.568,148.182 112.083 M140.048 114.375 C 140.048 114.776,140.091 114.940,140.144 114.740 C 140.196 114.539,140.196 114.211,140.144 114.010 C 140.091 113.810,140.048 113.974,140.048 114.375 M193.098 115.573 C 192.848 115.893,192.852 115.907,193.134 115.687 C 193.311 115.549,194.155 115.404,195.009 115.364 L 196.563 115.291 194.973 115.250 C 193.675 115.216,193.332 115.275,193.098 115.573 M157.344 118.691 C 157.659 118.739,158.174 118.739,158.490 118.691 C 158.805 118.643,158.547 118.604,157.917 118.604 C 157.286 118.604,157.029 118.643,157.344 118.691 M244.670 125.417 C 244.670 127.536,244.701 128.404,244.739 127.344 C 244.776 126.284,244.776 124.549,244.739 123.490 C 244.701 122.430,244.670 123.297,244.670 125.417 M289.727 122.024 C 290.034 122.081,290.211 122.293,290.268 122.669 C 290.343 123.174,290.349 123.167,290.332 122.604 C 290.316 122.087,290.222 121.976,289.792 121.959 C 289.364 121.943,289.352 121.954,289.727 122.024 M307.789 124.375 C 307.789 125.807,307.822 126.393,307.863 125.677 C 307.903 124.961,307.903 123.789,307.863 123.073 C 307.822 122.357,307.789 122.943,307.789 124.375 M356.974 128.021 L 356.979 134.271 357.555 134.296 C 358.075 134.319,358.081 134.313,357.610 134.231 L 357.089 134.140 357.030 127.955 L 356.970 121.771 356.974 128.021 M214.164 125.156 L 211.563 127.813 214.219 125.211 C 216.686 122.795,216.969 122.500,216.820 122.500 C 216.789 122.500,215.594 123.695,214.164 125.156 M178.116 123.594 C 178.627 124.138,179.072 124.583,179.106 124.583 C 179.262 124.583,179.097 124.396,178.177 123.533 L 177.188 122.604 178.116 123.594 M268.799 128.372 L 268.750 134.140 268.073 134.224 L 267.396 134.308 268.079 134.342 C 269.001 134.387,268.973 134.592,268.906 128.226 L 268.847 122.604 268.799 128.372 M230.347 123.681 C 230.271 123.757,230.208 124.220,230.208 124.710 C 230.208 125.588,230.198 125.601,229.427 125.665 C 228.783 125.718,228.641 125.812,228.618 126.201 C 228.595 126.594,228.606 126.602,228.685 126.253 C 228.759 125.922,228.947 125.833,229.579 125.833 L 230.378 125.833 230.449 124.687 C 230.489 124.057,230.513 123.541,230.503 123.541 C 230.494 123.542,230.424 123.604,230.347 123.681 M331.250 125.625 L 331.250 127.708 332.448 127.670 L 333.646 127.631 332.552 127.555 L 331.458 127.478 331.458 125.625 L 331.458 123.771 332.656 123.696 L 333.854 123.620 332.552 123.581 L 331.250 123.542 331.250 125.625 M335.261 125.521 C 335.263 125.979,335.306 126.142,335.356 125.883 C 335.406 125.624,335.404 125.249,335.351 125.050 C 335.299 124.850,335.259 125.063,335.261 125.521 M223.281 125.564 C 223.539 125.613,223.961 125.613,224.219 125.564 C 224.477 125.514,224.266 125.473,223.750 125.473 C 223.234 125.473,223.023 125.514,223.281 125.564 M237.763 125.566 C 238.080 125.614,238.549 125.613,238.805 125.563 C 239.061 125.514,238.802 125.475,238.229 125.476 C 237.656 125.478,237.447 125.518,237.763 125.566 M274.013 125.566 C 274.330 125.614,274.799 125.613,275.055 125.563 C 275.311 125.514,275.052 125.475,274.479 125.476 C 273.906 125.478,273.697 125.518,274.013 125.566 M283.284 125.564 C 283.543 125.614,283.918 125.612,284.117 125.560 C 284.316 125.508,284.104 125.467,283.646 125.469 C 283.188 125.472,283.025 125.514,283.284 125.564 M296.198 125.564 C 296.456 125.613,296.878 125.613,297.135 125.564 C 297.393 125.514,297.182 125.473,296.667 125.473 C 296.151 125.473,295.940 125.514,296.198 125.564 M304.742 125.564 C 305.001 125.614,305.376 125.612,305.575 125.560 C 305.775 125.508,305.563 125.467,305.104 125.469 C 304.646 125.472,304.483 125.514,304.742 125.564 M314.813 125.536 C 315.392 125.642,315.450 125.719,315.369 126.271 C 315.314 126.645,315.354 126.813,315.469 126.697 C 315.914 126.253,315.542 125.522,314.844 125.469 L 314.167 125.417 314.813 125.536 M319.531 125.564 C 319.789 125.613,320.211 125.613,320.469 125.564 C 320.727 125.514,320.516 125.473,320.000 125.473 C 319.484 125.473,319.273 125.514,319.531 125.564 M341.823 125.564 C 342.081 125.613,342.503 125.613,342.760 125.564 C 343.018 125.514,342.807 125.473,342.292 125.473 C 341.776 125.473,341.565 125.514,341.823 125.564 M350.990 125.564 C 351.247 125.613,351.669 125.613,351.927 125.564 C 352.185 125.514,351.974 125.473,351.458 125.473 C 350.943 125.473,350.732 125.514,350.990 125.564 M232.331 125.771 C 233.031 125.831,233.331 125.955,233.393 126.209 C 233.453 126.459,233.472 126.441,233.458 126.146 C 233.441 125.790,233.284 125.726,232.396 125.708 L 231.354 125.687 232.331 125.771 M248.001 126.094 C 247.605 126.562,247.605 126.562,248.037 126.198 C 248.275 125.997,248.732 125.833,249.052 125.833 C 249.577 125.833,249.606 125.869,249.348 126.198 C 249.089 126.528,249.097 126.536,249.427 126.277 C 249.979 125.844,249.867 125.625,249.095 125.625 C 248.629 125.625,248.267 125.780,248.001 126.094 M289.740 125.775 C 290.207 125.861,290.208 125.872,290.208 130.000 C 290.208 134.128,290.207 134.139,289.740 134.225 C 289.332 134.300,289.338 134.308,289.792 134.291 L 290.313 134.271 290.313 130.000 L 290.313 125.729 289.792 125.709 C 289.338 125.692,289.332 125.700,289.740 125.775 M292.756 129.948 L 292.813 134.271 293.333 134.291 C 293.787 134.308,293.793 134.300,293.385 134.225 C 292.700 134.099,292.636 125.833,293.320 125.833 C 293.621 125.833,293.740 126.002,293.789 126.493 C 293.850 127.116,293.872 127.131,294.167 126.766 C 294.347 126.542,294.369 126.444,294.219 126.535 C 294.038 126.644,293.958 126.529,293.958 126.158 C 293.958 125.704,293.865 125.625,293.329 125.625 L 292.700 125.625 292.756 129.948 M311.377 125.796 C 311.319 125.889,311.548 125.926,311.886 125.876 C 312.224 125.827,312.500 125.750,312.500 125.706 C 312.500 125.547,311.481 125.629,311.377 125.796 M347.627 125.796 C 347.569 125.889,347.798 125.926,348.136 125.876 C 348.474 125.827,348.750 125.750,348.750 125.706 C 348.750 125.547,347.731 125.629,347.627 125.796 M362.242 125.772 C 362.501 125.822,362.876 125.820,363.075 125.768 C 363.275 125.716,363.063 125.675,362.604 125.678 C 362.146 125.680,361.983 125.723,362.242 125.772 M339.632 126.667 C 339.632 127.068,339.675 127.232,339.727 127.031 C 339.779 126.831,339.779 126.503,339.727 126.302 C 339.675 126.102,339.632 126.266,339.632 126.667 M230.292 129.688 C 230.292 131.406,230.324 132.082,230.363 131.188 C 230.403 130.295,230.402 128.889,230.363 128.063 C 230.323 127.238,230.291 127.969,230.292 129.688 M213.216 127.552 L 212.604 128.229 213.281 127.617 C 213.912 127.047,214.054 126.875,213.893 126.875 C 213.857 126.875,213.553 127.180,213.216 127.552 M245.716 128.177 L 245.104 128.854 245.781 128.242 C 246.412 127.672,246.554 127.500,246.393 127.500 C 246.357 127.500,246.053 127.805,245.716 128.177 M241.125 130.729 C 241.125 132.448,241.158 133.123,241.197 132.230 C 241.236 131.337,241.236 129.931,241.196 129.105 C 241.157 128.280,241.125 129.010,241.125 130.729 M277.375 130.729 C 277.375 132.448,277.408 133.123,277.447 132.230 C 277.486 131.337,277.486 129.931,277.446 129.105 C 277.407 128.280,277.375 129.010,277.375 130.729 M321.667 128.322 C 321.667 128.915,321.628 128.939,320.573 129.013 L 319.479 129.090 320.677 129.128 L 321.875 129.167 321.875 128.438 C 321.875 128.036,321.828 127.708,321.771 127.708 C 321.714 127.708,321.667 127.985,321.667 128.322 M286.458 131.132 L 286.458 134.139 285.885 134.226 C 285.352 134.307,285.359 134.315,285.990 134.344 L 286.667 134.375 286.667 131.250 C 286.667 129.531,286.620 128.125,286.563 128.125 C 286.505 128.125,286.458 129.478,286.458 131.132 M298.429 131.146 L 298.438 134.271 298.958 134.291 C 299.400 134.308,299.409 134.298,299.016 134.226 C 298.566 134.142,298.551 134.054,298.486 131.080 L 298.420 128.021 298.429 131.146 M345.208 131.146 C 345.208 133.993,345.185 134.167,344.806 134.167 C 344.526 134.167,344.376 133.991,344.316 133.594 C 344.235 133.061,344.227 133.068,344.198 133.698 C 344.169 134.318,344.219 134.375,344.792 134.375 L 345.417 134.375 345.417 131.250 C 345.417 129.531,345.370 128.125,345.313 128.125 C 345.255 128.125,345.208 129.484,345.208 131.146 M354.420 131.184 L 354.375 134.139 353.802 134.226 L 353.229 134.313 353.809 134.344 C 354.581 134.385,354.606 134.272,354.531 131.031 L 354.466 128.229 354.420 131.184 M359.683 128.963 L 359.079 129.593 361.343 131.864 L 363.608 134.135 362.898 134.222 L 362.188 134.308 362.969 134.342 C 364.050 134.388,364.027 134.347,361.519 131.831 L 359.288 129.593 359.891 128.963 C 360.223 128.617,360.448 128.333,360.390 128.333 C 360.333 128.333,360.015 128.617,359.683 128.963 M211.667 128.607 C 211.667 128.643,211.971 128.947,212.344 129.284 L 213.021 129.896 212.409 129.219 C 211.839 128.588,211.667 128.446,211.667 128.607 M322.917 131.340 L 322.917 134.139 322.344 134.226 C 321.811 134.307,321.818 134.315,322.448 134.344 L 323.125 134.375 323.125 131.458 C 323.125 129.854,323.078 128.542,323.021 128.542 C 322.964 128.542,322.917 129.801,322.917 131.340 M348.795 131.392 L 348.750 134.139 348.177 134.226 L 347.604 134.313 348.184 134.344 C 348.952 134.385,348.983 134.255,348.906 131.238 L 348.840 128.646 348.795 131.392 M146.250 129.016 C 146.250 129.047,146.977 129.774,147.865 130.630 L 149.479 132.188 147.922 130.573 C 146.476 129.073,146.250 128.863,146.250 129.016 M238.385 129.108 C 238.701 129.155,239.216 129.155,239.531 129.108 C 239.846 129.060,239.589 129.021,238.958 129.021 C 238.328 129.021,238.070 129.060,238.385 129.108 M274.635 129.108 C 274.951 129.155,275.466 129.155,275.781 129.108 C 276.096 129.060,275.839 129.021,275.208 129.021 C 274.578 129.021,274.320 129.060,274.635 129.108 M307.771 130.000 C 307.771 130.630,307.810 130.888,307.858 130.573 C 307.905 130.258,307.905 129.742,307.858 129.427 C 307.810 129.112,307.771 129.370,307.771 130.000 M342.452 129.109 C 342.826 129.156,343.389 129.155,343.702 129.107 C 344.015 129.060,343.708 129.022,343.021 129.023 C 342.333 129.024,342.077 129.063,342.452 129.109 M312.500 131.653 L 312.500 134.139 311.927 134.226 C 311.394 134.307,311.401 134.315,312.031 134.344 L 312.708 134.375 312.708 131.771 C 312.708 130.339,312.661 129.167,312.604 129.167 C 312.547 129.167,312.500 130.285,312.500 131.653 M196.660 130.573 L 195.521 131.771 196.719 130.632 C 197.832 129.574,198.012 129.375,197.857 129.375 C 197.825 129.375,197.286 129.914,196.660 130.573 M219.632 130.000 C 219.632 130.401,219.675 130.565,219.727 130.365 C 219.779 130.164,219.779 129.836,219.727 129.635 C 219.675 129.435,219.632 129.599,219.632 130.000 M220.882 130.000 C 220.882 130.401,220.925 130.565,220.977 130.365 C 221.029 130.164,221.029 129.836,220.977 129.635 C 220.925 129.435,220.882 129.599,220.882 130.000 M245.833 129.649 C 245.833 129.684,246.138 129.989,246.510 130.326 L 247.188 130.938 246.576 130.260 C 246.005 129.629,245.833 129.488,245.833 129.649 M244.583 132.069 L 244.583 134.139 244.010 134.226 C 243.477 134.307,243.484 134.315,244.115 134.344 L 244.792 134.375 244.792 132.188 C 244.792 130.984,244.745 130.000,244.688 130.000 C 244.630 130.000,244.583 130.931,244.583 132.069 M321.723 130.833 C 321.723 131.349,321.764 131.560,321.814 131.302 C 321.863 131.044,321.863 130.622,321.814 130.365 C 321.764 130.107,321.723 130.318,321.723 130.833 M359.167 131.146 C 359.789 131.776,360.345 132.292,360.402 132.292 C 360.460 132.292,359.997 131.776,359.375 131.146 C 358.753 130.516,358.197 130.000,358.139 130.000 C 358.082 130.000,358.544 130.516,359.167 131.146 M217.905 133.385 L 218.623 134.167 217.917 134.167 C 217.439 134.167,217.004 133.981,216.574 133.594 L 215.938 133.021 216.549 133.698 C 217.036 134.236,217.324 134.375,217.956 134.375 C 218.947 134.375,218.949 134.222,217.969 133.322 L 217.188 132.604 217.905 133.385 M248.114 133.594 C 248.735 134.270,248.946 134.370,249.676 134.340 L 250.521 134.305 249.688 134.222 C 249.119 134.166,248.623 133.929,248.125 133.476 L 247.396 132.813 248.114 133.594 M240.084 133.750 C 240.100 134.168,240.217 134.276,240.680 134.296 C 241.181 134.318,241.189 134.310,240.744 134.232 C 240.423 134.175,240.202 133.972,240.149 133.685 C 240.079 133.311,240.068 133.323,240.084 133.750 M276.334 133.750 C 276.350 134.168,276.467 134.276,276.930 134.296 C 277.431 134.318,277.439 134.310,276.994 134.232 C 276.673 134.175,276.452 133.972,276.399 133.685 C 276.329 133.311,276.318 133.323,276.334 133.750 M307.292 133.677 C 306.915 134.105,306.893 134.165,307.213 133.896 C 307.640 133.538,307.659 133.540,307.767 133.950 C 307.848 134.263,308.034 134.367,308.470 134.344 L 309.063 134.313 308.502 134.227 C 308.087 134.164,307.925 134.005,307.877 133.614 L 307.813 133.086 307.292 133.677 M331.719 133.274 C 332.034 133.322,332.549 133.322,332.865 133.274 C 333.180 133.226,332.922 133.187,332.292 133.187 C 331.661 133.187,331.404 133.226,331.719 133.274 M262.220 134.219 C 262.273 134.305,262.540 134.375,262.813 134.375 C 263.085 134.375,263.352 134.305,263.405 134.219 C 263.458 134.133,263.192 134.063,262.813 134.063 C 262.433 134.063,262.167 134.133,262.220 134.219 M210.677 134.310 C 210.878 134.363,211.206 134.363,211.406 134.310 C 211.607 134.258,211.443 134.215,211.042 134.215 C 210.641 134.215,210.477 134.258,210.677 134.310 M256.927 134.310 C 257.128 134.363,257.456 134.363,257.656 134.310 C 257.857 134.258,257.693 134.215,257.292 134.215 C 256.891 134.215,256.727 134.258,256.927 134.310 M280.052 134.310 C 280.253 134.363,280.581 134.363,280.781 134.310 C 280.982 134.258,280.818 134.215,280.417 134.215 C 280.016 134.215,279.852 134.258,280.052 134.310 M330.885 134.320 C 331.430 134.363,332.320 134.363,332.865 134.320 C 333.409 134.277,332.964 134.242,331.875 134.242 C 330.786 134.242,330.341 134.277,330.885 134.320 M223.281 134.522 C 223.539 134.572,223.961 134.572,224.219 134.522 C 224.477 134.472,224.266 134.432,223.750 134.432 C 223.234 134.432,223.023 134.472,223.281 134.522 M232.034 134.522 C 232.293 134.572,232.668 134.570,232.867 134.518 C 233.066 134.466,232.854 134.425,232.396 134.428 C 231.938 134.430,231.775 134.473,232.034 134.522 M236.823 134.522 C 237.081 134.572,237.503 134.572,237.760 134.522 C 238.018 134.472,237.807 134.432,237.292 134.432 C 236.776 134.432,236.565 134.472,236.823 134.522 M273.073 134.522 C 273.331 134.572,273.753 134.572,274.010 134.522 C 274.268 134.472,274.057 134.432,273.542 134.432 C 273.026 134.432,272.815 134.472,273.073 134.522 M304.740 134.522 C 304.997 134.572,305.419 134.572,305.677 134.522 C 305.935 134.472,305.724 134.432,305.208 134.432 C 304.693 134.432,304.482 134.472,304.740 134.522 M318.698 134.522 C 318.956 134.572,319.378 134.572,319.635 134.522 C 319.893 134.472,319.682 134.432,319.167 134.432 C 318.651 134.432,318.440 134.472,318.698 134.522 M340.990 134.522 C 341.247 134.572,341.669 134.572,341.927 134.522 C 342.185 134.472,341.974 134.432,341.458 134.432 C 340.943 134.432,340.732 134.472,340.990 134.522 " class="color8ba6c2 svgShape"/><path fill="#f69ca1" fill-rule="evenodd" d="M253.410 95.625 C 253.410 96.828,253.445 97.320,253.487 96.719 C 253.529 96.117,253.529 95.133,253.487 94.531 C 253.445 93.930,253.410 94.422,253.410 95.625 M287.597 105.208 C 287.597 111.682,287.624 114.331,287.656 111.094 C 287.688 107.857,287.688 102.560,287.656 99.323 C 287.624 96.086,287.597 98.734,287.597 105.208 M273.700 97.231 C 273.959 97.281,274.334 97.279,274.534 97.226 C 274.733 97.174,274.521 97.134,274.063 97.136 C 273.604 97.138,273.441 97.181,273.700 97.231 M276.719 97.227 C 276.919 97.279,277.247 97.279,277.448 97.227 C 277.648 97.175,277.484 97.132,277.083 97.132 C 276.682 97.132,276.518 97.175,276.719 97.227 M264.627 99.941 L 264.583 102.278 262.240 102.344 L 259.896 102.411 262.246 102.455 C 265.015 102.508,264.831 102.706,264.739 99.778 L 264.671 97.604 264.627 99.941 M77.011 98.073 C 76.958 98.159,78.125 98.229,79.603 98.229 C 81.082 98.229,82.292 98.159,82.292 98.073 C 82.292 97.987,81.125 97.917,79.700 97.917 C 78.274 97.917,77.064 97.987,77.011 98.073 M268.002 98.619 C 267.942 98.775,267.923 99.408,267.960 100.025 L 268.028 101.146 268.128 99.739 C 268.230 98.323,268.204 98.093,268.002 98.619 M230.508 100.469 L 229.896 101.146 230.573 100.534 C 230.945 100.197,231.250 99.893,231.250 99.857 C 231.250 99.696,231.078 99.838,230.508 100.469 M238.700 102.022 C 238.959 102.072,239.334 102.070,239.534 102.018 C 239.733 101.966,239.521 101.925,239.063 101.928 C 238.604 101.930,238.441 101.973,238.700 102.022 M250.469 102.445 C 251.013 102.488,251.904 102.488,252.448 102.445 C 252.992 102.402,252.547 102.367,251.458 102.367 C 250.370 102.367,249.924 102.402,250.469 102.445 M278.491 104.479 C 278.436 104.766,278.472 105.000,278.571 105.000 C 278.669 105.000,278.750 104.766,278.750 104.479 C 278.750 104.193,278.714 103.958,278.670 103.958 C 278.626 103.958,278.545 104.193,278.491 104.479 M274.427 104.736 C 274.971 104.779,275.862 104.779,276.406 104.736 C 276.951 104.694,276.505 104.658,275.417 104.658 C 274.328 104.658,273.883 104.694,274.427 104.736 M227.965 106.250 C 227.965 106.651,228.008 106.815,228.060 106.615 C 228.113 106.414,228.113 106.086,228.060 105.885 C 228.008 105.685,227.965 105.849,227.965 106.250 M234.858 107.292 C 234.858 108.036,234.896 108.341,234.942 107.969 C 234.989 107.596,234.989 106.987,234.942 106.615 C 234.896 106.242,234.858 106.547,234.858 107.292 M278.164 108.474 C 278.358 108.526,278.556 108.772,278.605 109.023 C 278.678 109.399,278.698 109.378,278.722 108.906 C 278.745 108.436,278.666 108.338,278.281 108.358 C 277.949 108.375,277.915 108.409,278.164 108.474 M271.928 110.729 C 271.930 111.188,271.973 111.350,272.022 111.091 C 272.072 110.832,272.070 110.457,272.018 110.258 C 271.966 110.059,271.925 110.271,271.928 110.729 M238.698 112.647 C 238.956 112.697,239.378 112.697,239.635 112.647 C 239.893 112.597,239.682 112.557,239.167 112.557 C 238.651 112.557,238.440 112.597,238.698 112.647 M264.532 113.021 C 264.587 113.307,264.668 113.542,264.712 113.542 C 264.756 113.542,264.792 113.307,264.792 113.021 C 264.792 112.734,264.711 112.500,264.612 112.500 C 264.514 112.500,264.478 112.734,264.532 113.021 M262.138 112.858 C 262.455 112.906,262.924 112.904,263.180 112.855 C 263.436 112.806,263.177 112.766,262.604 112.768 C 262.031 112.769,261.822 112.810,262.138 112.858 M230.625 114.271 C 231.014 114.672,231.379 115.000,231.436 115.000 C 231.493 115.000,231.222 114.672,230.833 114.271 C 230.445 113.870,230.080 113.542,230.022 113.542 C 229.965 113.542,230.236 113.870,230.625 114.271 M285.057 114.583 C 285.057 115.099,285.097 115.310,285.147 115.052 C 285.197 114.794,285.197 114.372,285.147 114.115 C 285.097 113.857,285.057 114.068,285.057 114.583 M278.723 114.311 C 278.557 114.516,278.541 114.601,278.685 114.515 C 278.854 114.413,278.959 114.615,279.015 115.152 C 279.090 115.877,279.099 115.861,279.132 114.948 C 279.170 113.852,279.137 113.801,278.723 114.311 M264.820 116.181 C 264.804 116.543,264.674 116.888,264.531 116.945 C 264.327 117.028,264.329 117.054,264.538 117.067 C 264.881 117.088,265.058 116.621,264.941 116.005 C 264.869 115.627,264.842 115.665,264.820 116.181 M285.208 116.557 C 285.208 116.811,284.674 116.875,282.135 116.928 L 279.063 116.991 282.240 117.037 C 285.293 117.082,285.417 117.067,285.417 116.667 C 285.417 116.438,285.370 116.250,285.313 116.250 C 285.255 116.250,285.208 116.388,285.208 116.557 M272.027 117.442 C 272.396 117.488,273.053 117.489,273.485 117.444 C 273.917 117.399,273.615 117.361,272.813 117.360 C 272.010 117.359,271.657 117.396,272.027 117.442 M58.425 137.706 C 58.436 139.640,58.480 139.895,58.806 139.924 C 59.050 139.946,59.070 139.925,58.865 139.861 C 58.625 139.785,58.540 139.292,58.485 137.642 L 58.413 135.521 58.425 137.706 M59.844 135.774 C 60.159 135.822,60.674 135.822,60.990 135.774 C 61.305 135.726,61.047 135.687,60.417 135.687 C 59.786 135.687,59.529 135.726,59.844 135.774 " class="colorf69ca1 svgShape"/></svg>