<svg xmlns="http://www.w3.org/2000/svg" xmlns:xlink="http://www.w3.org/1999/xlink" width="64" height="64" viewBox="0 0 64 64"><defs><style>.a{fill:none;}.b{fill:#cbd8dc;}.c{fill:#eaf2f5;}.d{fill:#e2edf0;}.e{clip-path:url(#a);}.f{fill:#0070e0;}</style><clipPath id="a"><path class="a" d="M106.116,12.01l5.768,6.012V19l-5.853-.261Z" transform="translate(-106.03 -12.01)"/></clipPath></defs><rect class="a" width="64" height="64"/><path class="b" d="M66.35,19.124a.137.137,0,0,1-.034-.039Q65.006,17.8,63.7,16.474a.227.227,0,0,1-.043-.026c-.141-.15-.291-.287-.428-.428H31.761A2.257,2.257,0,0,0,29.5,18.277V65.99a2.257,2.257,0,0,0,2.261,2.261H64.509a2.257,2.257,0,0,0,2.257-2.257V19.467A5.347,5.347,0,0,0,66.35,19.124Z" transform="translate(-16.868 -9.16)"/><path class="c" d="M33.47,14.025V62.231a2.021,2.021,0,0,0,2.021,2.008H68.71a2.021,2.021,0,0,0,2.025-2.021l-.351-38.927V17.96l-1.833-.373c0-1.118-.565-.6-1.683-.6l.655-.745L64.621,12H35.5a2.021,2.021,0,0,0-2.034,2.025Z" transform="translate(-19.138 -6.862)"/><rect class="d" width="29.562" height="2.98" rx="1.49" transform="translate(18.202 42.862)"/><rect class="d" width="29.562" height="2.98" rx="1.49" transform="translate(18.202 48.857)"/><g class="e" transform="translate(45.401 5.143)"><rect class="b" width="7.78" height="7.994" rx="3.89" transform="translate(0.009 -1.948)"/></g><circle class="d" cx="14.079" cy="14.079" r="14.079" transform="translate(18.883 10.662)"/><g transform="translate(25 16)"><path class="a" d="M0,0H16V16H0Z"/><g transform="translate(1.333 1.333)"><path class="f" d="M2,15.267v3.6a.605.605,0,0,0,.2.467.605.605,0,0,0,.467.2h12a.63.63,0,0,0,.667-.667v-3.6a.668.668,0,0,0-.667-.667.63.63,0,0,0-.667.667V18.2H3.333V15.267a.668.668,0,0,0-.667-.667A.717.717,0,0,0,2,15.267Z" transform="translate(-2 -6.2)"/><path class="f" d="M11.553,10.467V2.733a.733.733,0,1,0-1.467,0v7.8H8.82a.359.359,0,0,0-.267.6l2,1.933a.4.4,0,0,0,.533,0l2-1.933a.359.359,0,0,0-.267-.6H11.553Z" transform="translate(-4.153 -2)"/></g></g></svg>