<svg width="28" height="34" viewBox="0 0 28 34" fill="none" xmlns="http://www.w3.org/2000/svg">
<path d="M4.00005 8.44828V32C4.00005 32.5523 4.44776 33 5.00005 33H26.42C26.9723 33 27.42 32.5523 27.42 32V2C27.42 1.44772 26.9723 1 26.42 1H9.5M4.00005 8.44828L9.5 1M4.00005 8.44828H9.5V1" stroke="#525252"/>
<path d="M0 16C0 15.4477 0.447715 15 1 15H23C23.5523 15 24 15.4477 24 16V26C24 26.5523 23.5523 27 23 27H1C0.447716 27 0 26.5523 0 26V16Z" fill="#0070E0"/>
<path d="M4.35227 18.9375V18.1818H8.85511V18.9375H7.03977V24H6.16477V18.9375H4.35227ZM10.4609 18.1818L11.853 20.4574H11.8984L13.2905 18.1818H14.3075L12.495 21.0909L14.3189 24H13.2962L11.8984 21.7557H11.853L10.4553 24H9.43253L11.2876 21.0909L9.44389 18.1818H10.4609ZM14.8913 18.9375V18.1818H19.3942V18.9375H17.5788V24H16.7038V18.9375H14.8913Z" fill="#FAFAFA"/>
</svg>
