<svg width="28" height="34" viewBox="0 0 28 34" fill="none" xmlns="http://www.w3.org/2000/svg">
<path d="M4.00005 8.44828V31C4.00005 32.1046 4.89548 33 6.00005 33H25.42C26.5246 33 27.42 32.1046 27.42 31V3C27.42 1.89543 26.5246 1 25.42 1H11.2491M4.00005 8.44828L11.2491 1M4.00005 8.44828H10.2491C10.8014 8.44828 11.2491 8.00056 11.2491 7.44828V1" stroke="#525252"/>
<path d="M0 16C0 15.4477 0.447715 15 1 15H23C23.5523 15 24 15.4477 24 16V26C24 26.5523 23.5523 27 23 27H1C0.447716 27 0 26.5523 0 26V16Z" fill="#0070E0"/>
<path d="M5.25 18.1818L6.64205 20.4574H6.6875L8.07955 18.1818H9.09659L7.28409 21.0909L9.10795 24H8.08523L6.6875 21.7557H6.64205L5.24432 24H4.22159L6.0767 21.0909L4.23295 18.1818H5.25ZM9.96733 24V18.1818H10.8452V23.2443H13.4815V24H9.96733ZM17.6562 19.7102C17.6259 19.4413 17.5009 19.233 17.2812 19.0852C17.0616 18.9356 16.785 18.8608 16.4517 18.8608C16.2131 18.8608 16.0066 18.8987 15.8324 18.9744C15.6581 19.0483 15.5227 19.1506 15.4261 19.2812C15.3314 19.41 15.2841 19.5568 15.2841 19.7216C15.2841 19.8598 15.3163 19.9792 15.3807 20.0795C15.447 20.1799 15.5331 20.2642 15.6392 20.3324C15.7472 20.3987 15.8627 20.4545 15.9858 20.5C16.1089 20.5436 16.2273 20.5795 16.3409 20.608L16.9091 20.7557C17.0947 20.8011 17.285 20.8627 17.4801 20.9403C17.6752 21.018 17.8561 21.1203 18.0227 21.2472C18.1894 21.3741 18.3239 21.5312 18.4261 21.7188C18.5303 21.9062 18.5824 22.1307 18.5824 22.392C18.5824 22.7216 18.4972 23.0142 18.3267 23.2699C18.1581 23.5256 17.9129 23.7273 17.5909 23.875C17.2708 24.0227 16.8835 24.0966 16.429 24.0966C15.9934 24.0966 15.6165 24.0275 15.2983 23.8892C14.9801 23.7509 14.7311 23.5549 14.5511 23.3011C14.3712 23.0455 14.2718 22.7424 14.2528 22.392H15.1335C15.1506 22.6023 15.2188 22.7775 15.3381 22.9176C15.4593 23.0559 15.6136 23.1591 15.8011 23.2273C15.9905 23.2936 16.1979 23.3267 16.4233 23.3267C16.6714 23.3267 16.892 23.2879 17.0852 23.2102C17.2803 23.1307 17.4337 23.0208 17.5455 22.8807C17.6572 22.7386 17.7131 22.5729 17.7131 22.3835C17.7131 22.2112 17.6638 22.0701 17.5653 21.9602C17.4688 21.8504 17.3371 21.7595 17.1705 21.6875C17.0057 21.6155 16.8191 21.5521 16.6108 21.4972L15.9233 21.3097C15.4574 21.1828 15.0881 20.9962 14.8153 20.75C14.5445 20.5038 14.4091 20.178 14.4091 19.7727C14.4091 19.4375 14.5 19.1449 14.6818 18.8949C14.8636 18.6449 15.1098 18.4508 15.4205 18.3125C15.7311 18.1723 16.0814 18.1023 16.4716 18.1023C16.8655 18.1023 17.2131 18.1714 17.5142 18.3097C17.8172 18.4479 18.0559 18.6383 18.2301 18.8807C18.4044 19.1212 18.4953 19.3977 18.5028 19.7102H17.6562Z" fill="#FAFAFA"/>
</svg>
