<svg xmlns="http://www.w3.org/2000/svg" width="28.418" height="32" viewBox="0 0 28.418 32"><defs><style>.a{fill:#525252;}.b{fill:#0070e0;}.c{fill:#fafafa;font-size:8px;font-family:Roboto-Medium, Roboto;font-weight:500;}</style></defs><g transform="translate(-279 -412)"><path class="a" d="M36.642,4.333H22.154a.7.7,0,0,0-.147.016l-.036.011a.665.665,0,0,0-.1.035c-.015.007-.029.016-.043.023a.735.735,0,0,0-.08.048c-.015.011-.029.023-.043.036a.7.7,0,0,0-.064.06c-.006.006-.013.011-.019.017l-5.789,6.807a.7.7,0,0,0-.167.452V33.889a2.447,2.447,0,0,0,2.444,2.444H36.641a2.447,2.447,0,0,0,2.444-2.444V6.777A2.446,2.446,0,0,0,36.642,4.333ZM21.456,6.93v4.225H17.863ZM37.689,33.889a1.049,1.049,0,0,1-1.047,1.047H18.111a1.049,1.049,0,0,1-1.047-1.047V12.551h5.09a.7.7,0,0,0,.7-.7V5.729H36.642a1.049,1.049,0,0,1,1.047,1.047Z" transform="translate(268.333 407.667)"/><rect class="b" width="24" height="12" rx="2" transform="translate(279 426)"/><text class="c" transform="translate(281 435)"><tspan x="0" y="0">XLSX</tspan></text></g></svg>