<svg xmlns="http://www.w3.org/2000/svg" width="80" height="80" viewBox="0 0 80 80">
  <g id="Group_21806" data-name="Group 21806" transform="translate(-1059 -1123)">
    <rect id="Rectangle_20528" data-name="Rectangle 20528" width="80" height="80" transform="translate(1059 1123)" fill="none"/>
    <g id="Group_21805" data-name="Group 21805">
      <path id="Path_21632" data-name="Path 21632" d="M11.544,68.7c-3.243,5.573-.613,10.133,5.835,10.133H72.1c6.453,0,9.077-4.56,5.835-10.133l-27.3-46.955c-3.243-5.573-8.549-5.573-11.792,0Z" transform="translate(1054.261 1114.804)" fill="#ececec" stroke="#cfcfcf" stroke-width="0.3"/>
      <path id="Path_21633" data-name="Path 21633" d="M24.056,85.967c-2.491,0-3.5-1.721-2.25-3.817l29.6-49.661c1.249-2.1,3.3-2.1,4.548,0l29.6,49.661c1.249,2.1.235,3.817-2.25,3.817Z" transform="translate(1045.321 1104.359)" fill="#fff" stroke="#cfcfcf" stroke-width="0.3"/>
      <path id="Path_22086" data-name="Path 22086" d="M23.324,72.037c-1.837,0-2.585-1.286-1.659-2.851l21.828-37.1c.921-1.57,2.433-1.57,3.354,0l21.828,37.1c.921,1.57.173,2.851-1.659,2.851Z" transform="translate(1053.83 1112.665)" fill="#ececec"/>
      <ellipse id="Ellipse_1758" data-name="Ellipse 1758" cx="1.546" cy="1.546" rx="1.546" ry="1.546" transform="translate(1097.454 1174.539)" fill="#fff"/>
      <path id="Path_22087" data-name="Path 22087" d="M72.506,56.48h0a1.547,1.547,0,0,0-1.546,1.546V70.591a1.546,1.546,0,0,0,3.092,0V58.026A1.547,1.547,0,0,0,72.506,56.48Z" transform="translate(1026.494 1100.672)" fill="#fff"/>
    </g>
  </g>
</svg>
