<svg xmlns="http://www.w3.org/2000/svg" width="150" height="150" viewBox="0 0 150 150"><defs><style>.a{fill:#ccd8dc;}.b{fill:#ebf3f6;}.c{fill:#e0121b;}.d{fill:#a8b7ba;}.e{fill:none;}</style></defs><path class="a" d="M138.1,134.88H14.23A5.33,5.33,0,0,1,9,129.52V25.75a5.33,5.33,0,0,1,5.27-5.37H138.1a5.33,5.33,0,0,1,5.27,5.37V129.52A5.33,5.33,0,0,1,138.1,134.88Z"/><rect class="b" width="131.58" height="116.58" rx="5.27" transform="translate(12.43 18.3)"/><rect class="a" width="113.92" height="86.08" rx="3.38" transform="translate(21.25 40.28)"/><rect class="b" width="30.56" height="30.88" rx="2.88" transform="translate(97.27 52.95)"/><rect class="b" width="30.88" height="30.88" rx="2.88" transform="translate(62.42 52.95)"/><path class="c" d="M125,118.36H99.83A2.89,2.89,0,0,1,97,115.48V90.67a2.89,2.89,0,0,1,2.88-2.88H125a2.89,2.89,0,0,1,2.88,2.88v24.81a2.89,2.89,0,0,1-2.88,2.88Z"/><rect class="b" width="30.88" height="30.57" rx="2.88" transform="translate(62.42 87.79)"/><rect class="b" width="30.83" height="30.83" rx="2.88" transform="translate(27.7 87.79)"/><path class="d" d="M24.93,34.84a3.68,3.68,0,1,1,3.67-3.67A3.68,3.68,0,0,1,24.93,34.84Z"/><path class="c" d="M39.64,34.84h0a3.6,3.6,0,0,1-3.6-3.6V12.7a3.6,3.6,0,0,1,7.2,0V31.24A3.6,3.6,0,0,1,39.64,34.84Z"/><path class="d" d="M131.51,34.84a3.68,3.68,0,1,0-3.68-3.67A3.68,3.68,0,0,0,131.51,34.84Z"/><path class="c" d="M116.79,34.84h0a3.6,3.6,0,0,0,3.6-3.6V12.7a3.6,3.6,0,1,0-7.2,0V31.24a3.6,3.6,0,0,0,3.6,3.6Z"/><path class="b" d="M119.82,96.57h-3.44a4.52,4.52,0,0,0-.9-2.11h0l-.16-.16h4.5a1.15,1.15,0,1,0,0-2.29H105.19a1.15,1.15,0,1,0,0,2.29h3.91a9.11,9.11,0,0,1,2.62.35,3.69,3.69,0,0,1,1.88,1.19h0a2.27,2.27,0,0,1,.38.74h-8.79a1.15,1.15,0,1,0,0,2.29h8.58a4.86,4.86,0,0,1-.82,1.33,4.4,4.4,0,0,1-2.2,1.33,10.789,10.789,0,0,1-3,.34h-.74a1.17,1.17,0,0,0-1.09.63,1.13,1.13,0,0,0,.13,1.22L115,114.59a1.19,1.19,0,0,0,1.65.18,1.12,1.12,0,0,0,.19-1.6l-7.42-9.09a10.76,10.76,0,0,0,2-.37,6.75,6.75,0,0,0,3.33-2,7.06,7.06,0,0,0,1.49-2.81h3.59a1.15,1.15,0,1,0,0-2.29Z"/><rect class="e" width="150" height="150"/><rect class="e" width="150" height="150"/></svg>