<svg xmlns="http://www.w3.org/2000/svg" width="150" height="150" viewBox="0 0 150 150"><defs><style>.a{fill:#ebf3f6;}.b{fill:#ccd8dc;}.c{fill:#dfeaed;}.d{fill:#e0121b;}.e{fill:none;}</style></defs><path class="a" d="M117.92,15.69a20.6,20.6,0,0,1,.77-5.58C104.44,7.83,85.46,5.83,75,5.83c-10.14,0-28.27,1.88-42.34,4.07a20.88,20.88,0,0,1,.83,5.79c0,11.63-9.73,21.13-22,21.69,1.5,19.2,6.76,45.29,13,59.38,10.27,23.33,45.79,43.85,50.5,47.48,4.7-3.63,40.22-24.15,50.49-47.48,6.21-14.11,11.48-40.28,13-59.48C126.91,36.08,117.92,26.87,117.92,15.69Z"/><path class="b" d="M75,14.69A283.139,283.139,0,0,0,43.14,17.3c-1.42,12.61-10.05,23.22-22,28A266.985,266.985,0,0,0,26,72.73a136.62,136.62,0,0,0,6.88,22.19c7.23,16.43,30.5,32.74,42.08,40.45h0V14.69Z"/><path class="c" d="M108.34,17.5C95.6,15.83,82.49,14.7,75,14.69V135.35c11.6-7.73,34.82-24,42.05-40.43a137.252,137.252,0,0,0,6.88-22.19,265.77,265.77,0,0,0,5-28C117.71,39.68,109.77,29.48,108.34,17.5Z"/><path class="d" d="M53,70.83,68.25,90.55a3.83,3.83,0,0,0,6,0L101.05,56A3.83,3.83,0,0,0,95,51.31L71.28,82,59.05,66.15a3.82,3.82,0,0,0-6,4.68Z"/><rect class="e" width="150" height="150"/></svg>