<svg xmlns="http://www.w3.org/2000/svg" width="150" height="150" viewBox="0 0 150 150"><defs><style>.a{fill:none;}.b{fill:#d60013;}.c{fill:#cad7db;}.d{fill:#eaf2f5;}.e{fill:#dee9ec;}.f{fill:#df0f1b;}</style></defs><g transform="translate(227.967 59)"><rect class="a" width="150" height="150" transform="translate(-227.967 -59)"/><path class="b" d="M-88.072,28.7h-14.611a2.59,2.59,0,0,1-2.591-2.59,2.591,2.591,0,0,1,2.591-2.591h14.611a2.59,2.59,0,0,1,2.59,2.591A2.589,2.589,0,0,1-88.072,28.7Z"/><path class="b" d="M-203.25,28.7h-14.611a2.589,2.589,0,0,1-2.59-2.59,2.59,2.59,0,0,1,2.59-2.591h14.611a2.591,2.591,0,0,1,2.591,2.591A2.59,2.59,0,0,1-203.25,28.7Z"/><path class="b" d="M-150.2-38.611-150.214-24a2.591,2.591,0,0,1-2.594,2.588,2.591,2.591,0,0,1-2.587-2.594l.017-14.61a2.589,2.589,0,0,1,2.593-2.588A2.592,2.592,0,0,1-150.2-38.611Z"/><path class="b" d="M-105.07-18.021-115.447-7.735a2.591,2.591,0,0,1-3.664-.016,2.591,2.591,0,0,1,.016-3.664L-108.718-21.7a2.591,2.591,0,0,1,3.664.016A2.591,2.591,0,0,1-105.07-18.021Z"/><path class="b" d="M-200.777-18.021-190.4-7.735a2.59,2.59,0,0,0,3.663-.016,2.59,2.59,0,0,0-.016-3.664L-197.129-21.7a2.591,2.591,0,0,0-3.664.016A2.591,2.591,0,0,0-200.777-18.021Z"/><path class="c" d="M-196.681,53.776h.648V24.633a40.49,40.49,0,0,1,40.476-40.476,40.49,40.49,0,0,1,40.476,40.476V53.776h.648a9.96,9.96,0,0,1,9.714,9.715v6.8a2.9,2.9,0,0,1-2.914,2.914h-95.848a2.9,2.9,0,0,1-2.914-2.914v-6.8A9.96,9.96,0,0,1-196.681,53.776Z"/><path class="d" d="M-194.091,53.776h.648V24.633a40.49,40.49,0,0,1,40.476-40.476A40.491,40.491,0,0,1-112.49,24.633V53.776h.648a9.961,9.961,0,0,1,9.714,9.715v6.8a2.9,2.9,0,0,1-2.914,2.914h-95.849a2.9,2.9,0,0,1-2.914-2.914v-6.8A9.96,9.96,0,0,1-194.091,53.776Z"/><path class="e" d="M-187.938,53.776h70.267V24.633c0-19.1-15.867-34.971-35.3-34.971a35.032,35.032,0,0,0-34.971,34.971Z"/><path class="e" d="M-111.842,59.281h-82.249a4.287,4.287,0,0,0-4.209,4.21V67.7h90.667V63.491A4.287,4.287,0,0,0-111.842,59.281Z"/><path class="f" d="M-152.807,35.089a4.448,4.448,0,0,0-4.445,4.447,4.45,4.45,0,0,0,4.445,4.453,4.45,4.45,0,0,0,4.45-4.453A4.449,4.449,0,0,0-152.807,35.089Z"/><path class="f" d="M-152.807,2.868a4.448,4.448,0,0,0-4.445,4.446c0,.132.026.251.036.376h-.022l1.774,21.542h.014a2.664,2.664,0,0,0,2.644,2.447,2.662,2.662,0,0,0,2.648-2.447h.015L-148.37,7.69h-.023c.011-.125.036-.244.036-.376A4.449,4.449,0,0,0-152.807,2.868Z"/></g></svg>