<svg xmlns="http://www.w3.org/2000/svg" width="80" height="80" viewBox="0 0 80 80"><defs><style>.a{fill:#ccd8dc;}.b{fill:#ebf3f6;}.c{fill:#dfeaed;}.d{fill:#e0121b;}.e{fill:none;}</style></defs><path class="a" d="M78.278,44A35.424,35.424,0,1,1,42.856,8.58,35.424,35.424,0,0,1,78.278,44Z" transform="translate(-3.467 -4.004)"/><path class="b" d="M82.208,44A35.424,35.424,0,1,1,46.786,8.58,35.424,35.424,0,0,1,82.208,44Z" transform="translate(-5.301 -4.004)"/><path class="c" d="M81.482,49.086A29.616,29.616,0,1,1,51.868,19.47,29.616,29.616,0,0,1,81.482,49.086Z" transform="translate(-10.383 -9.086)"/><path class="d" d="M77.695,51.453H72.362a7.392,7.392,0,0,0-1.4-3.376h0c-.069-.091-.149-.176-.224-.267h6.96a1.824,1.824,0,1,0,0-3.643H54.98a1.824,1.824,0,0,0,0,3.643h6.08a13.835,13.835,0,0,1,4.064.571,5.744,5.744,0,0,1,2.928,1.883h0a3.733,3.733,0,0,1,.592,1.189H54.98a1.824,1.824,0,0,0,0,3.643H68.314a7.717,7.717,0,0,1-1.275,2.133,6.827,6.827,0,0,1-3.419,2.133,16.186,16.186,0,0,1-4.6.533H57.882A1.819,1.819,0,0,0,56.4,62.85l13.787,17.3a1.824,1.824,0,1,0,2.854-2.272L61.519,63.4a16.416,16.416,0,0,0,3.125-.576,10.507,10.507,0,0,0,5.163-3.253,11.5,11.5,0,0,0,2.32-4.475h5.568a1.824,1.824,0,1,0,0-3.643Z" transform="translate(-24.852 -20.61)"/><rect class="e" width="80" height="80"/></svg>