<svg xmlns="http://www.w3.org/2000/svg" width="150" height="150" viewBox="0 0 150 150"><defs><style>.a{fill:#ebf3f6;}.b{fill:#ccd8dc;}.c{fill:#e0121b;}.d{fill:none;}</style></defs><path class="a" d="M143.82,92l.38-32.29-16.12-1.65a54.68,54.68,0,0,0-2.94-7.35l10.52-12.34L113.1,15.27,100.53,25.5a54.35,54.35,0,0,0-7.26-3.12L92,6.21,75,6V42.76h.39A32.29,32.29,0,0,1,75,107.31v36.75l15.32.18L92,128.11a55,55,0,0,0,7.34-2.93l12.34,10.52,23.11-22.57-10.23-12.57a55.82,55.82,0,0,0,3.12-7.27Z"/><path class="b" d="M74.61,107.32A32.281,32.281,0,0,1,75,42.76V6L59.68,5.83,58,22a56,56,0,0,0-7.31,2.93L38.34,14.37,15.23,36.93,25.45,49.52a55.319,55.319,0,0,0-3.1,7.24L6.18,58.06,5.8,90.35,21.93,92a55.13,55.13,0,0,0,2.92,7.31L14.34,111.69,36.9,134.8l12.59-10.23a54.791,54.791,0,0,0,7.25,3.12L58,143.85l17,.21V107.31Z"/><path class="c" d="M75,36.55a38.39,38.39,0,1,0,38.39,38.39A38.39,38.39,0,0,0,75,36.55Zm0,67h-.34A28.65,28.65,0,0,1,75,46.3h.35A28.65,28.65,0,0,1,75,103.58Z"/><path class="c" d="M75,84a9,9,0,1,1,9-9A9,9,0,0,1,75,84Z"/><rect class="d" width="150" height="150"/></svg>