<svg xmlns="http://www.w3.org/2000/svg" xmlns:xlink="http://www.w3.org/1999/xlink" width="150" height="150" viewBox="0 0 150 150"><defs><style>.a{fill:none;}.b{fill:#e0121b;}.c{fill:#ebf3f6;}.d{clip-path:url(#a);}.e{fill:#ccd8dc;}.f{fill:#dfeaed;}</style><clipPath id="a"><path class="a" d="M88.65,18.17c.78-1.31,1.65-2.7,3.32-2.7a3.14,3.14,0,0,1,3.13,3.14v89.55a3.14,3.14,0,0,1-3.13,3.13c-2,0-3.08-1.72-4.25-3.07-3.91-4.52-9.84-7.5-15.18-10a144.112,144.112,0,0,0-23.2-8.15q-10.08-2.68-20.33-4.51-4.365-.795-8.77-1.41l-.08-36.48A112.56,112.56,0,0,0,52.9,43.14,74.65,74.65,0,0,0,74.54,32.66a58.88,58.88,0,0,0,9.65-8.46,40.779,40.779,0,0,0,4-5.25C88.34,18.7,88.49,18.43,88.65,18.17Z" transform="translate(-20.16 -15.47)"/></clipPath></defs><rect class="a" width="150" height="150"/><path class="b" d="M19.7,73.85H36a10.47,10.47,0,0,0,0-20.93H19.7a10.47,10.47,0,0,0,0,20.93Z" transform="translate(94.3)"/><path class="c" d="M88.65,18.17c.78-1.31,1.65-2.7,3.32-2.7a3.14,3.14,0,0,1,3.13,3.14v89.55a3.14,3.14,0,0,1-3.13,3.13c-2,0-3.08-1.72-4.25-3.07-3.91-4.52-9.84-7.5-15.18-10a144.112,144.112,0,0,0-23.2-8.15q-10.08-2.68-20.33-4.51-4.365-.795-8.77-1.41l-.08-36.48A112.56,112.56,0,0,0,52.9,43.14,74.65,74.65,0,0,0,74.54,32.66a58.88,58.88,0,0,0,9.65-8.46,40.779,40.779,0,0,0,4-5.25C88.34,18.7,88.49,18.43,88.65,18.17Z" transform="translate(34.74)"/><g class="d" transform="translate(54.9 15.47)"><rect class="e" width="151.13" height="70.9" transform="translate(-51.53 47.91)"/></g><rect class="b" width="43.66" height="43.66" rx="10.83" transform="translate(9.23 45.01)"/><rect class="c" width="22.13" height="46.87" rx="8.71" transform="translate(29.48 87.66)"/><rect class="f" width="31.29" height="60.78" rx="3.78" transform="translate(24.9 34.75)"/><rect class="a" width="150" height="150"/></svg>