<svg xmlns="http://www.w3.org/2000/svg" width="150" height="150" viewBox="0 0 150 150"><defs><style>.a{fill:#ebf3f6;}.b{fill:#ccd8dc;}.c{fill:#e0121b;}.d{fill:#fff;}.e{fill:none;}</style></defs><path class="a" d="M141.81,86.87a9.61,9.61,0,0,0-9.06-9.59,9.61,9.61,0,0,0-3.53-18.56H95.79s8-15,4.86-27.21c-2-7.69-5.72-14.07-14.48-15S84,29.17,81.86,36.44c-2.58,8.91-19.12,16.33-25.9,26a13.38,13.38,0,0,1-9.45,5.87v57.47s9.93,3.73,13.79,5.63c3.55,1.74,8.89,2.11,8.89,2.11H121.1A9.62,9.62,0,0,0,124.7,115H126a9.61,9.61,0,0,0,3.6-18.53h2.57A9.62,9.62,0,0,0,141.81,86.87Z"/><path class="b" d="M141.81,86.87H144a11.78,11.78,0,0,0-11.109-11.76l-.121,2.17.79,2a11.78,11.78,0,0,0-4.32-22.75H95.79V58.7l1.92,1c.05-.16,5.81-10.76,5.85-22a26.6,26.6,0,0,0-.81-6.73,27.21,27.21,0,0,0-5.15-10.9,16.42,16.42,0,0,0-11.2-5.73l-1.05-.06a6.39,6.39,0,0,0-2.89.62A5.34,5.34,0,0,0,79.83,18a11.05,11.05,0,0,0-.54,3.76c0,3.54.86,7.64.84,11a11.38,11.38,0,0,1-.35,3.14h0a14.43,14.43,0,0,1-3.66,5.57c-2.83,3-6.94,6-11,9.22S57,57.25,54.18,61.23A11.86,11.86,0,0,1,49,65.49a11.7,11.7,0,0,1-1.93.59l-.52.08h-.11a2.18,2.18,0,0,0-2.06,2.17V125.8a2.17,2.17,0,0,0,1.41,2s2.47.93,5.42,2.09,6.39,2.57,8.18,3.46a25,25,0,0,0,6.37,1.9c1.88.32,3.28.42,3.33.42H121.1A11.79,11.79,0,0,0,125.51,113l-.81,2v2.17H126a11.78,11.78,0,0,0,4.42-22.71l-.82,2v2.17h2.57A11.79,11.79,0,0,0,144,86.87h-4.34a7.47,7.47,0,0,1-7.45,7.45h-2.57a2.17,2.17,0,0,0-.81,4.18A7.44,7.44,0,0,1,126,112.84h-1.3a2.18,2.18,0,0,0-.82,4.19,7.45,7.45,0,0,1-2.78,14.35H69.19v2.17l.15-2.17-.8-.08a24.65,24.65,0,0,1-7.28-1.81c-2.07-1-5.51-2.42-8.51-3.6s-5.48-2.11-5.48-2.12l-.76,2h2.17V68.34H46.51l.11,2.17a13,13,0,0,0,4-1,16.08,16.08,0,0,0,7.14-5.78c3.06-4.41,8.75-8.66,14.09-12.86a74.669,74.669,0,0,0,7.42-6.45A18.5,18.5,0,0,0,84,37h0a16.3,16.3,0,0,0,.53-4.35c0-3.92-.87-8.1-.85-10.95a5.48,5.48,0,0,1,.45-2.65l.32-.3a2,2,0,0,1,.95-.17h.59a12,12,0,0,1,8.35,4.22,22.94,22.94,0,0,1,4.26,9.18,22.34,22.34,0,0,1,.67,5.64A42.75,42.75,0,0,1,96.6,51.36c-.68,1.9-1.35,3.48-1.86,4.58-.25.55-.46,1-.6,1.26l-.21.42a2.16,2.16,0,0,0,1.91,3.19h33.43A7.44,7.44,0,0,1,132,75.26a2.17,2.17,0,0,0,.67,4.19,7.44,7.44,0,0,1,7,7.42Z"/><path class="c" d="M44,63.27H9.7A3.68,3.68,0,0,0,6,67v61.84a3.68,3.68,0,0,0,3.68,3.68H44a3.68,3.68,0,0,0,3.68-3.68V67A3.68,3.68,0,0,0,44,63.27Z"/><path class="d" d="M26.85,124.11a8.71,8.71,0,1,1,6.165-2.548,8.72,8.72,0,0,1-6.165,2.548Z"/><path class="b" d="M133.69,75.22H93.21a2.18,2.18,0,0,0,0,4.35h40.48a2.18,2.18,0,0,0,0-4.35"/><path class="b" d="M134.64,94.44H94.16a2.18,2.18,0,1,0,0,4.35h40.48a2.18,2.18,0,0,0,0-4.35"/><path class="b" d="M128.1,112.54H93.21a2.17,2.17,0,1,0,0,4.34H128.1a2.17,2.17,0,1,0,0-4.34"/><rect class="e" width="150" height="150"/></svg>