<svg id="Netbanking_Icons_Add_on_Card_copy_5" data-name="Netbanking Icons_Add on Card copy 5" xmlns="http://www.w3.org/2000/svg" width="48" height="48" viewBox="0 0 48 48">
  <rect id="Rectangle_1036" data-name="Rectangle 1036" width="48" height="48" fill="none"/>
  <rect id="Rectangle_1037" data-name="Rectangle 1037" width="48" height="48" fill="none"/>
  <rect id="Rectangle_1038" data-name="Rectangle 1038" width="4.029" height="5.097" rx="2.014" transform="translate(9.995 38.112)" fill="#dee9ec"/>
  <rect id="Rectangle_1039" data-name="Rectangle 1039" width="26.952" height="6.323" rx="3.161" transform="translate(10.996 36.886)" fill="#dee9ec"/>
  <path id="Path_2285" data-name="Path 2285" d="M34.977,122.747c-.536.1-1.174.346-.59.924l-.038.427-1.793-.321-.815-2.213,2.942-2.213.9,2.7h0A.741.741,0,0,1,34.977,122.747Z" transform="translate(-21.558 -81.065)" fill="#cad7db"/>
  <path id="Path_2286" data-name="Path 2286" d="M31.855,126.659s-.212,1.347,3.32,1.347l23.766-.212a1.283,1.283,0,0,1-1.222.751H32.789a1.892,1.892,0,0,1-1.6-2.053c.132-1.793-.045-.205-.045-.205Z" transform="translate(-21.151 -85.336)" fill="#cad7db"/>
  <path id="Path_2287" data-name="Path 2287" d="M40.83,19.35V51.858a1.36,1.36,0,0,0,1.357,1.363H64.5a1.36,1.36,0,0,0,1.357-1.363V19.35A1.36,1.36,0,0,0,64.5,18H42.187a1.36,1.36,0,0,0-1.341,1.142A1.671,1.671,0,0,0,40.83,19.35Z" transform="translate(-27.733 -12.226)" fill="#eaf2f5"/>
  <rect id="Rectangle_1040" data-name="Rectangle 1040" width="12.873" height="5.633" rx="2.816" transform="translate(18.111 18.268)" fill="#df0f1b"/>
  <rect id="Rectangle_1041" data-name="Rectangle 1041" width="7.801" height="7.801" rx="3.901" transform="translate(25.204 17.184)" fill="#cad7db"/>
  <rect id="Rectangle_1042" data-name="Rectangle 1042" width="20.649" height="2.008" rx="1.004" transform="translate(15.234 31.173)" fill="#dee9ec"/>
  <rect id="Rectangle_1043" data-name="Rectangle 1043" width="20.649" height="2.008" rx="1.004" transform="translate(15.234 35.215)" fill="#dee9ec"/>
  <path id="Path_2288" data-name="Path 2288" d="M35.189,16.2a2.612,2.612,0,0,0-4.029.176V51.39s2.014-2.5,4.029,0Z" transform="translate(-21.165 -10.395)" fill="#e0121b"/>
  <path id="Path_2289" data-name="Path 2289" d="M35.189,16.225a2.57,2.57,0,0,0-4.029.18V51.348a.449.449,0,0,0,.709.372,2.1,2.1,0,0,1,2.611-.051.449.449,0,0,0,.709-.372Z" transform="translate(-21.164 -10.397)" fill="#e0121b"/>
</svg>
