<?xml version="1.0" encoding="UTF-8"?>
<svg xmlns="http://www.w3.org/2000/svg" xmlns:xlink="http://www.w3.org/1999/xlink" width="30px" height="30px" viewBox="0 0 30 30" version="1.1">
<defs>
<clipPath id="clip1">
  <path d="M 7.800781 7.800781 L 22.199219 7.800781 L 22.199219 22.199219 L 7.800781 22.199219 Z M 7.800781 7.800781 "/>
</clipPath>
</defs>
<g id="surface1">
<path style=" stroke:none;fill-rule:nonzero;fill:rgb(77.647059%,89.411765%,97.647059%);fill-opacity:1;" d="M 28.75 15 C 28.75 22.59375 22.59375 28.75 15 28.75 C 7.40625 28.75 1.25 22.59375 1.25 15 C 1.25 7.40625 7.40625 1.25 15 1.25 C 22.59375 1.25 28.75 7.40625 28.75 15 Z M 28.75 15 "/>
<g clip-path="url(#clip1)" clip-rule="nonzero">
<path style=" stroke:none;fill-rule:nonzero;fill:rgb(27.843137%,43.529412%,79.215686%);fill-opacity:1;" d="M 7.972656 22.027344 C 8.207031 22.257812 8.585938 22.257812 8.816406 22.027344 L 21 9.839844 L 21 14.398438 C 21 14.730469 21.269531 14.996094 21.601562 14.996094 C 21.929688 14.996094 22.199219 14.730469 22.199219 14.398438 L 22.199219 8.398438 C 22.199219 8.242188 22.136719 8.085938 22.023438 7.972656 C 21.914062 7.863281 21.757812 7.800781 21.601562 7.800781 L 15.601562 7.800781 C 15.269531 7.800781 15.003906 8.070312 15.003906 8.398438 C 15.003906 8.730469 15.269531 9 15.601562 9 L 20.160156 9 L 7.972656 21.183594 C 7.742188 21.417969 7.742188 21.792969 7.972656 22.027344 Z M 7.972656 22.027344 "/>
</g>
</g>
</svg>
