<svg xmlns="http://www.w3.org/2000/svg" width="24" height="24" viewBox="0 0 24 24"><defs><style>.a{fill:rgba(252,147,3,0.2);}.b{fill:#fc9303;}</style></defs><g transform="translate(-6914 -1875)"><circle class="a" cx="12" cy="12" r="12" transform="translate(6914 1875)"/><path class="b" d="M-2057-2370a12.01,12.01,0,0,1,12-12,12.01,12.01,0,0,1,12,12,12.011,12.011,0,0,1-12,12A12.01,12.01,0,0,1-2057-2370Zm1.456,0A10.534,10.534,0,0,0-2045-2359.456,10.534,10.534,0,0,0-2034.455-2370,10.534,10.534,0,0,0-2045-2380.544,10.534,10.534,0,0,0-2055.544-2370Zm14.619,4.88h-8.15a.789.789,0,0,1-.725-.827.8.8,0,0,1,.725-.827h8.15a.8.8,0,0,1,.725.827.79.79,0,0,1-.719.827Zm-1.542-8.306a1.3,1.3,0,0,1,1.291-1.292,1.3,1.3,0,0,1,1.291,1.292,1.3,1.3,0,0,1-1.291,1.292A1.3,1.3,0,0,1-2042.466-2373.427Zm-7.6.025a1.277,1.277,0,0,1,1.267-1.267,1.277,1.277,0,0,1,1.267,1.267,1.277,1.277,0,0,1-1.267,1.267A1.277,1.277,0,0,1-2050.066-2373.4Z" transform="translate(8971 4257)"/></g></svg>