<svg id="Netbanking_Icons-30" data-name="Netbanking Icons-30" xmlns="http://www.w3.org/2000/svg" xmlns:xlink="http://www.w3.org/1999/xlink" width="150" height="150" viewBox="0 0 150 150">
  <defs>
    <clipPath id="clip-path">
      <path id="Path_1247" data-name="Path 1247" d="M106.23,12.01,119.7,26.05v2.29l-13.67-.61Z" fill="none"/>
    </clipPath>
  </defs>
  <rect id="Rectangle_478" data-name="Rectangle 478" width="150" height="150" fill="none"/>
  <path id="Path_1245" data-name="Path 1245" d="M115.56,23.27a.32.32,0,0,1-.08-.09q-3.06-3-6.1-6.1a.53.53,0,0,1-.1-.06c-.33-.35-.68-.67-1-1H34.78a5.27,5.27,0,0,0-5.28,5.27V132.72A5.27,5.27,0,0,0,34.78,138h76.48a5.27,5.27,0,0,0,5.27-5.27V24.07a12.491,12.491,0,0,0-.97-.8Z" fill="#cbd8dc"/>
  <path id="Path_1246" data-name="Path 1246" d="M33.47,16.73V129.31A4.72,4.72,0,0,0,38.19,134h77.58a4.72,4.72,0,0,0,4.73-4.72l-.82-90.91V25.92l-4.28-.87c0-2.61-1.32-1.4-3.93-1.4L113,21.91,106.22,12h-68a4.72,4.72,0,0,0-4.75,4.73Z" fill="#eaf2f5"/>
  <rect id="Rectangle_479" data-name="Rectangle 479" width="69.04" height="6.96" rx="3.48" transform="translate(42.51 100.1)" fill="#dee9ec"/>
  <rect id="Rectangle_480" data-name="Rectangle 480" width="69.04" height="6.96" rx="3.48" transform="translate(42.51 114.1)" fill="#dee9ec"/>
  <g id="Group_21451" data-name="Group 21451" clip-path="url(#clip-path)">
    <rect id="Rectangle_481" data-name="Rectangle 481" width="18.17" height="18.67" rx="5.2" transform="translate(106.05 7.46)" fill="#cbd8dc"/>
  </g>
  <circle id="Ellipse_1611" data-name="Ellipse 1611" cx="32.88" cy="32.88" r="32.88" transform="translate(44 24.999)" fill="#dee9ec"/>
  <rect id="Rectangle_482" data-name="Rectangle 482" width="150" height="150" fill="none"/>
  <path id="Path_1273" data-name="Path 1273" d="M89.22,54.74H83.46A7.94,7.94,0,0,0,82,51.1h0c-.07-.1-.16-.19-.24-.29h7.51a2,2,0,0,0,0-3.93H64.75a2,2,0,1,0,0,3.93h6.54a14.91,14.91,0,0,1,4.38.61,6.18,6.18,0,0,1,3.15,2h0a3.76,3.76,0,0,1,.64,1.28H64.75a2,2,0,1,0,0,3.92H79.1a8.31,8.31,0,0,1-1.38,2.28A7.35,7.35,0,0,1,74,63.22a17.74,17.74,0,0,1-5,.59H67.77A2,2,0,0,0,66.26,67L81.13,85.65A1.964,1.964,0,0,0,84.2,83.2L71.79,67.61A18.131,18.131,0,0,0,75.16,67a11.4,11.4,0,0,0,5.56-3.51,12.18,12.18,0,0,0,2.49-4.82h6a2,2,0,1,0,0-3.92Z" transform="translate(-0.352 -8.846)" fill="#df0f1b"/>
</svg>
