<svg xmlns="http://www.w3.org/2000/svg" width="48" height="48" viewBox="0 0 48 48">
  <g id="Group_68060" data-name="Group 68060" transform="translate(-322.083 -2757.876)">
    <rect id="Rectangle_82" data-name="Rectangle 82" width="48" height="48" transform="translate(322.083 2757.876)" fill="none"/>
    <g id="Group_205" data-name="Group 205" transform="translate(324.323 2767.796)">
      <path id="Path_564" data-name="Path 564" d="M372.411,2791.34a2.417,2.417,0,0,0-2.4-2.4l-38.464-.064a2.445,2.445,0,0,0-2.432,2.4l-.032,22.208a2.417,2.417,0,0,0,2.4,2.4l38.464.064a2.424,2.424,0,0,0,2.432-2.4Z" transform="translate(-329.083 -2788.876)" fill="#c1cfd4"/>
      <path id="Path_565" data-name="Path 565" d="M374.519,2791.34a2.4,2.4,0,0,0-2.4-2.4l-38.3-.064a2.4,2.4,0,0,0-2.4,2.4l-.032,22.208a2.417,2.417,0,0,0,2.4,2.4l38.3.064a2.4,2.4,0,0,0,2.4-2.4Z" transform="translate(-330.647 -2788.876)" fill="#e6f0f4"/>
      <path id="Path_566" data-name="Path 566" d="M338.643,2855.876H345.4a.96.96,0,1,1,0,1.92h-6.752a.943.943,0,0,1-.96-.96A.963.963,0,0,1,338.643,2855.876Z" transform="translate(-334.931 -2834.436)" fill="#d60013"/>
      <path id="Path_567" data-name="Path 567" d="M368.943,2855.876H375.7a.96.96,0,1,1,0,1.92h-6.752a.943.943,0,0,1-.96-.96A.963.963,0,0,1,368.943,2855.876Z" transform="translate(-355.535 -2834.436)" fill="#d60013"/>
      <path id="Path_568" data-name="Path 568" d="M399.243,2855.876h6.752a.96.96,0,1,1,0,1.92h-6.752a.96.96,0,1,1,0-1.92Z" transform="translate(-376.139 -2834.436)" fill="#d60013"/>
      <path id="Path_569" data-name="Path 569" d="M339.836,2799.876H350.62a1.065,1.065,0,0,1,1.056,1.056v2.048a1.065,1.065,0,0,1-1.056,1.056H339.836a1.065,1.065,0,0,1-1.056-1.056v-2.048A1.026,1.026,0,0,1,339.836,2799.876Z" transform="translate(-335.676 -2796.356)" fill="#c1cfd4"/>
      <path id="Path_570" data-name="Path 570" d="M429.543,2855.876H436.3a.96.96,0,0,1,0,1.92h-6.752a.943.943,0,0,1-.96-.96A.963.963,0,0,1,429.543,2855.876Z" transform="translate(-396.743 -2834.436)" fill="#d60013"/>
      <path id="Path_571" data-name="Path 571" d="M414.623,2799.876a7.84,7.84,0,1,1-7.84,7.84A7.853,7.853,0,0,1,414.623,2799.876Z" transform="translate(-381.919 -2796.356)" fill="#d8e6e9"/>
      <path id="Path_572" data-name="Path 572" d="M429.787,2834.476a.7.7,0,1,1-.7.7A.69.69,0,0,1,429.787,2834.476Z" transform="translate(-397.083 -2819.884)" fill="#d60013"/>
      <path id="Path_573" data-name="Path 573" d="M429.787,2809.876h0a.71.71,0,0,0-.7.7v5.664a.684.684,0,0,0,.736.64.663.663,0,0,0,.64-.64v-5.664a.664.664,0,0,0-.672-.7Z" transform="translate(-397.083 -2803.156)" fill="#d60013"/>
    </g>
  </g>
</svg>
