<?xml version="1.0" encoding="UTF-8"?>
<svg xmlns="http://www.w3.org/2000/svg" xmlns:xlink="http://www.w3.org/1999/xlink" width="18pt" height="18pt" viewBox="0 0 18 18" version="1.1">
<g id="surface1">
<path style=" stroke:none;fill-rule:nonzero;fill:rgb(57.647059%,57.647059%,57.647059%);fill-opacity:1;" d="M 15 3 L 14.175781 3 L 14.175781 2.25 C 14.175781 1.835938 13.839844 1.5 13.425781 1.5 C 13.011719 1.5 12.675781 1.835938 12.675781 2.25 L 12.675781 3 L 5.175781 3 L 5.175781 2.25 C 5.1875 2.046875 5.113281 1.851562 4.96875 1.707031 C 4.824219 1.5625 4.628906 1.488281 4.425781 1.5 C 4.222656 1.488281 4.023438 1.5625 3.882812 1.707031 C 3.738281 1.851562 3.664062 2.046875 3.675781 2.25 L 3.675781 3 L 3 3 C 2.199219 2.996094 1.535156 3.625 1.5 4.425781 L 1.5 14.925781 C 1.503906 15.753906 2.171875 16.421875 3 16.425781 L 15 16.425781 C 15.828125 16.421875 16.496094 15.753906 16.5 14.925781 L 16.5 4.425781 C 16.464844 3.625 15.800781 2.996094 15 3 Z M 15 4.5 L 15 6.75 L 3 6.75 L 3 4.5 Z M 3 15 L 3 9 L 15 9 L 15 15 Z M 3 15 "/>
</g>
</svg>
