<svg xmlns="http://www.w3.org/2000/svg" width="48" height="48" viewBox="0 0 48 48">
  <g id="Group_67407" data-name="Group 67407" transform="translate(-322.083 -2273.974)">
    <g id="Group_67409" data-name="Group 67409" transform="matrix(0.946, -0.326, 0.326, 0.946, 327.419, 2285.801)">
      <rect id="Rectangle_144" data-name="Rectangle 144" width="18.86" height="32.059" rx="2" transform="translate(0 18.86) rotate(-90)" fill="#dfeaed" stroke="#cbd8dc" stroke-width="1"/>
      <ellipse id="Ellipse_30" data-name="Ellipse 30" cx="5.397" cy="5.923" rx="5.397" ry="5.923" transform="translate(17.77 3.486)" fill="#cbd8dc"/>
      <path id="Path_851" data-name="Path 851" d="M7.643,2.271H5.974a2.292,2.292,0,0,0-.417-1.052h0l-.067-.083H7.66A.568.568,0,0,0,7.66,0H.568a.568.568,0,0,0,0,1.135H2.459a4.174,4.174,0,0,1,1.252.179,1.77,1.77,0,0,1,.906.584h0a1.106,1.106,0,0,1,.184.372H.568a.568.568,0,0,0,0,1.135H4.717a2.542,2.542,0,0,1-.417.66,2.158,2.158,0,0,1-1.064.66A5.234,5.234,0,0,1,1.8,4.892H1.444a.564.564,0,0,0-.526.313.568.568,0,0,0,.1.6l4.3,5.4a.568.568,0,1,0,.889-.705L2.622,5.994a5.731,5.731,0,0,0,.956-.159A3.339,3.339,0,0,0,5.2,4.8a3.561,3.561,0,0,0,.722-1.394H7.656a.568.568,0,1,0,0-1.135Z" transform="translate(4.337 3.907)" fill="#cbd8dc"/>
    </g>
    <g id="Group_176" data-name="Group 176" transform="translate(336.579 2287.638)">
      <path id="Path_474" data-name="Path 474" d="M386.747,2336.392v-.832s6.656-4.768,7.264-9.216c.16-1.216.608-2.688.032-3.872-.64-1.248-2.3-2.3-3.392-3.168-.128-.1-1.728-1.312-1.856-1.088-.9,1.856-1.44,4.1,1.312,5.184a.831.831,0,0,1,.064,1.568s-18.784,5.5-20.512,7.616l-.576,5.408H387Z" transform="translate(-368.539 -2317.704)" fill="#e6f0f4"/>
      <path id="Path_475" data-name="Path 475" d="M385.8,2335.362h.48v-.832h-.48l.288.384a34.237,34.237,0,0,0,3.488-2.976,20.876,20.876,0,0,0,2.528-3.04,8.787,8.787,0,0,0,1.472-3.52,16.965,16.965,0,0,0,.32-2.56,3.53,3.53,0,0,0-.352-1.6,6.271,6.271,0,0,0-1.664-1.888c-.64-.544-1.344-1.024-1.856-1.44l-.1-.064c-.192-.128-.544-.384-.9-.64a4.821,4.821,0,0,0-.544-.32c-.1-.032-.16-.1-.256-.128a1.146,1.146,0,0,0-.32-.064.759.759,0,0,0-.256.064.656.656,0,0,0-.256.256,7.1,7.1,0,0,0-.768,2.784,3.1,3.1,0,0,0,.544,1.76,3.886,3.886,0,0,0,1.824,1.28.574.574,0,0,1,.224.16.346.346,0,0,1,.1.224.192.192,0,0,1-.032.128.577.577,0,0,1-.224.16l.224.416-.1-.416s-4.7,1.376-9.632,3.008c-2.464.832-4.992,1.728-7.008,2.56q-1.536.624-2.592,1.152a5.167,5.167,0,0,0-.9.544,2.473,2.473,0,0,0-.608.544l-.1.1-.672,6.08h19.008l-.352-2.176-.544.064-.48.1.16,1.056h-16.8l.512-4.864-.48-.064.384.288a2.2,2.2,0,0,1,.416-.352,19.288,19.288,0,0,1,1.792-.96c2.72-1.216,7.232-2.784,11.072-4,1.92-.608,3.68-1.152,4.96-1.536l1.5-.448.544-.16h.032l.032-.032a1.41,1.41,0,0,0,.576-.48,1.152,1.152,0,0,0,.192-.64,1.229,1.229,0,0,0-.288-.8,1.366,1.366,0,0,0-.64-.48,2.991,2.991,0,0,1-1.376-.96,1.977,1.977,0,0,1-.352-1.184,6.265,6.265,0,0,1,.672-2.4l-.384-.192.192.384a.373.373,0,0,0,.192-.192l-.384-.192.192.384-.16-.352v.416a.238.238,0,0,0,.16-.032l-.16-.352v.192l-.064.192h.064v-.192l-.064.192c.032,0,.064.032.1.032.288.16.576.352.864.544a2,2,0,0,1,.384.288l.192.128c.576.448,1.248.928,1.856,1.44a5.078,5.078,0,0,1,1.408,1.568,2.877,2.877,0,0,1,.256,1.152,19.683,19.683,0,0,1-.32,2.4,7.422,7.422,0,0,1-1.312,3.1,23.177,23.177,0,0,1-3.648,4.064c-.608.512-1.12.96-1.5,1.248l-.448.352-.128.1-.032.032-.192.16v1.152Z" transform="translate(-367.587 -2316.674)" fill="#c1cfd4"/>
      <path id="Path_476" data-name="Path 476" d="M386.807,2373.5v9.664a1.011,1.011,0,0,1-1.024,1.024H368.407a1.011,1.011,0,0,1-1.024-1.024h0V2373.5a1.011,1.011,0,0,1,1.024-1.024h17.376A1.011,1.011,0,0,1,386.807,2373.5Z" transform="translate(-367.383 -2354.618)" fill="#d60013"/>
      <path id="Path_477" data-name="Path 477" d="M374.683,2385.538a2.448,2.448,0,1,0,2.432-2.464,2.418,2.418,0,0,0-2.432,2.464Z" transform="translate(-372.347 -2361.826)" fill="#fff"/>
      <path id="Path_478" data-name="Path 478" d="M412.724,2345.574a3.906,3.906,0,0,0-1.248,3.264" transform="translate(-397.331 -2336.326)" fill="#e6f0f4"/>
      <path id="Path_479" data-name="Path 479" d="M411.355,2344.256a4.772,4.772,0,0,0-.736.864,4.138,4.138,0,0,0-.736,2.208,4.329,4.329,0,0,0,.064.64.527.527,0,0,0,.576.384h0a.477.477,0,0,0,.352-.576,2.111,2.111,0,0,1-.032-.448,3.066,3.066,0,0,1,.576-1.664c.128-.192.256-.352.384-.512l.128-.128.032-.032a.464.464,0,0,0,0-.672.419.419,0,0,0-.608-.064Z" transform="translate(-396.283 -2335.361)" fill="#c1cfd4"/>
    </g>
    <rect id="Rectangle_69" data-name="Rectangle 69" width="48" height="48" transform="translate(322.083 2273.974)" fill="none"/>
  </g>
</svg>
