<svg xmlns="http://www.w3.org/2000/svg" width="48" height="48" viewBox="0 0 48 48">
  <g id="Group_22851" data-name="Group 22851" transform="translate(-76.696 -2276.596)">
    <g id="Group_174" data-name="Group 174" transform="translate(76.696 2276.596)">
      <g id="Group_173" data-name="Group 173" transform="translate(5.817 4.288)">
        <path id="Path_456" data-name="Path 456" d="M100.468,2315.06l-4.032-12.032a1.516,1.516,0,0,1,.96-1.92l28.352-9.472a1.516,1.516,0,0,1,1.92.96l4.032,12.032a1.516,1.516,0,0,1-.96,1.92l-28.352,9.472A1.515,1.515,0,0,1,100.468,2315.06Z" transform="translate(-95.885 -2291.06)" fill="#d8e7eb"/>
        <path id="Path_457" data-name="Path 457" d="M99.456,2314l.448-.16L95.872,2301.8a1.136,1.136,0,0,1-.064-.32,1.038,1.038,0,0,1,.7-.992l28.384-9.472a1.129,1.129,0,0,1,.32-.064,1.07,1.07,0,0,1,.992.7l4,12.032a1.139,1.139,0,0,1,.064.32,1.069,1.069,0,0,1-.7.992l-28.352,9.472a1.146,1.146,0,0,1-.32.064,1.07,1.07,0,0,1-.992-.7l-.448.16-.48.128a2.028,2.028,0,0,0,1.92,1.376,2.057,2.057,0,0,0,.64-.1l28.352-9.472a1.988,1.988,0,0,0,1.376-1.888,2.065,2.065,0,0,0-.1-.64l-4.032-12.032a2.028,2.028,0,0,0-1.92-1.376,2.072,2.072,0,0,0-.64.1l-28.32,9.472a2,2,0,0,0-1.28,2.528l4,12.032Z" transform="translate(-94.873 -2289.996)" fill="#c1cfd4"/>
        <path id="Path_458" data-name="Path 458" d="M114.3,2320.252l-6.88,2.3a1.235,1.235,0,1,0,.8,2.336l6.88-2.3a1.239,1.239,0,0,0,.768-1.568A1.227,1.227,0,0,0,114.3,2320.252Z" transform="translate(-102.837 -2310.524)" fill="#c1cfd4"/>
        <path id="Path_459" data-name="Path 459" d="M138.92,2324.952l-24,8a1.235,1.235,0,1,0,.8,2.336l24-8a1.227,1.227,0,0,0,.768-1.568A1.24,1.24,0,0,0,138.92,2324.952Z" transform="translate(-107.937 -2313.72)" fill="#c1cfd4"/>
        <path id="Path_460" data-name="Path 460" d="M135.12,2313.552l-24,8a1.235,1.235,0,0,0,.8,2.336l24-8a1.235,1.235,0,1,0-.8-2.336Z" transform="translate(-105.353 -2305.968)" fill="#c1cfd4"/>
        <path id="Path_461" data-name="Path 461" d="M140.66,2339.013v-.832s6.688-4.768,7.264-9.216c.16-1.216.64-2.688.032-3.872-.64-1.248-2.3-2.3-3.392-3.168-.128-.1-1.728-1.312-1.856-1.088-.9,1.856-1.44,4.1,1.312,5.184a.838.838,0,0,1,.1,1.568s-18.784,5.376-20.512,7.488l-.608,5.536h17.92Z" transform="translate(-113.997 -2310.949)" fill="#e6f0f4"/>
        <path id="Path_462" data-name="Path 462" d="M139.64,2337.984h.48v-.832h-.48l.288.384a30.751,30.751,0,0,0,3.456-2.976,20.914,20.914,0,0,0,2.528-3.04,8.791,8.791,0,0,0,1.472-3.52,22.384,22.384,0,0,0,.32-2.56,3.53,3.53,0,0,0-.352-1.6,6.271,6.271,0,0,0-1.664-1.888c-.64-.544-1.344-1.024-1.856-1.44l-.064-.064.064.064-.1-.064c-.192-.128-.544-.384-.9-.64a3.024,3.024,0,0,0-.544-.32c-.1-.032-.16-.1-.256-.128a1.137,1.137,0,0,0-.32-.064.753.753,0,0,0-.256.064.657.657,0,0,0-.256.256,7.1,7.1,0,0,0-.768,2.784,3.093,3.093,0,0,0,.544,1.76,3.886,3.886,0,0,0,1.824,1.28.574.574,0,0,1,.224.16.346.346,0,0,1,.1.224.192.192,0,0,1-.032.128.574.574,0,0,1-.224.16l.224.416-.1-.416s-4.7,1.344-9.632,2.944c-2.464.832-4.992,1.7-7.008,2.5q-1.536.624-2.592,1.152a8.141,8.141,0,0,0-.9.512,2.474,2.474,0,0,0-.608.544l-.1.1-.672,6.208H140.5l-.352-2.176-.512.1-.48.064.16,1.056H122.552l.544-4.992-.48-.064.384.288a2.055,2.055,0,0,1,.416-.32,13.6,13.6,0,0,1,1.792-.928,113.016,113.016,0,0,1,11.072-3.936c1.92-.608,3.68-1.12,4.928-1.5l1.5-.448.544-.16h.032l.032-.032a1.411,1.411,0,0,0,.576-.48,1.154,1.154,0,0,0,.192-.64,1.229,1.229,0,0,0-.288-.8,1.364,1.364,0,0,0-.64-.48,2.993,2.993,0,0,1-1.376-.96,1.979,1.979,0,0,1-.352-1.184,6.58,6.58,0,0,1,.672-2.432l-.384-.192.192.384a.373.373,0,0,0,.192-.192l-.384-.192.192.384-.16-.352v.416a.241.241,0,0,0,.16-.032l-.16-.352v.192l-.064.192h.064v-.192l-.064.192c.032,0,.064.032.1.032.288.16.576.352.864.544a1.994,1.994,0,0,1,.384.288c.1.1.192.128.192.16l.064.064-.064-.064c.576.448,1.248.928,1.856,1.44a5.075,5.075,0,0,1,1.408,1.568,2.876,2.876,0,0,1,.256,1.152,19.674,19.674,0,0,1-.32,2.4,7.42,7.42,0,0,1-1.312,3.1,23.171,23.171,0,0,1-3.648,4.064,16.859,16.859,0,0,1-1.5,1.248l-.448.352-.128.1-.032.032-.192.128v1.152Z" transform="translate(-112.977 -2309.92)" fill="#c1cfd4"/>
        <path id="Path_463" data-name="Path 463" d="M140.752,2376.117v9.664a1.011,1.011,0,0,1-1.024,1.024H122.32a1.011,1.011,0,0,1-1.024-1.024v-9.664a1.011,1.011,0,0,1,1.024-1.024H139.7A1.018,1.018,0,0,1,140.752,2376.117Z" transform="translate(-112.841 -2347.861)" fill="#d60013"/>
        <path id="Path_464" data-name="Path 464" d="M128.6,2388.158a2.448,2.448,0,1,0,2.432-2.464,2.458,2.458,0,0,0-2.432,2.464Z" transform="translate(-117.805 -2355.071)" fill="#fff"/>
        <path id="Path_465" data-name="Path 465" d="M166.736,2348.2a3.9,3.9,0,0,0-1.248,3.264" transform="translate(-142.857 -2329.572)" fill="#e6f0f4"/>
        <path id="Path_466" data-name="Path 466" d="M165.368,2346.878a4.775,4.775,0,0,0-.736.864,4.14,4.14,0,0,0-.736,2.208,4.334,4.334,0,0,0,.064.64.526.526,0,0,0,.576.384.507.507,0,0,0,.384-.576,2.11,2.11,0,0,1-.032-.448,3.316,3.316,0,0,1,.544-1.664c.128-.192.256-.352.384-.512l.128-.128.032-.032a.464.464,0,0,0,0-.672A.421.421,0,0,0,165.368,2346.878Z" transform="translate(-141.809 -2328.606)" fill="#c1cfd4"/>
      </g>
      <rect id="Rectangle_68" data-name="Rectangle 68" width="48" height="48" transform="translate(0)" fill="none"/>
    </g>
  </g>
</svg>
