<svg width="152" height="152" viewBox="0 0 152 152" fill="none" xmlns="http://www.w3.org/2000/svg">
<g clip-path="url(#clip0_24_133)">
<path d="M73.0265 12.3152C55.3406 12.3152 38.3788 19.34 25.8718 31.8447C13.3647 44.3493 6.33667 61.3097 6.33331 78.9957C6.33331 80.237 6.37131 81.4688 6.43781 82.6912L19.1045 118.221C24.9772 126.307 32.5939 132.967 41.3904 137.708C50.1869 142.45 59.9376 145.152 69.92 145.613L90.9245 143.26C106.452 138.927 119.884 129.118 128.738 115.647C137.591 102.176 141.266 85.9536 139.083 69.9819C136.9 54.0103 129.006 39.3696 116.863 28.7682C104.719 18.1668 89.1467 12.3221 73.0265 12.3152V12.3152Z" fill="#FFEFF1"/>
<path d="M11.2512 81.4657C11.0045 81.0373 10.818 80.5769 10.697 80.0977L7.72033 81.8172C7.26918 82.0791 6.83549 82.3699 6.422 82.688C7.11743 95.5074 11.5175 107.85 19.0887 118.218C22.1164 118.961 25.314 118.507 28.0155 116.951L30.9922 115.232C30.6373 114.888 30.3315 114.497 30.0833 114.07L11.2512 81.4657Z" fill="#FF4155"/>
<path d="M21.66 99.4777L11.2512 81.4689C11.0045 81.0405 10.818 80.5801 10.697 80.1008L7.72033 81.8203C7.2692 82.0823 6.83551 82.3731 6.422 82.6911C6.84703 90.4515 8.63275 98.0767 11.6977 105.219L21.66 99.4777Z" fill="#E80054"/>
<path d="M27.3061 104.756L14.9941 111.869C15.752 113.205 16.5553 114.513 17.404 115.792L29.6115 108.746C29.8852 108.602 30.127 108.403 30.3223 108.163C30.5176 107.923 30.6624 107.646 30.7481 107.348C30.8337 107.05 30.8585 106.739 30.8209 106.431C30.7832 106.124 30.684 105.827 30.529 105.559C30.3741 105.291 30.1667 105.057 29.9191 104.871C29.6716 104.685 29.3891 104.551 29.0885 104.476C28.7879 104.402 28.4754 104.389 28.1697 104.438C27.864 104.487 27.5714 104.598 27.3093 104.763L27.3061 104.756Z" fill="#FF7186"/>
<path d="M26.6538 98.8094C26.3485 98.2808 25.8457 97.8951 25.256 97.7371C24.6663 97.5791 24.038 97.6619 23.5093 97.9671L11.5425 104.877C12.142 106.3 12.7901 107.697 13.4868 109.069L25.8115 101.954C26.3401 101.649 26.7258 101.146 26.8838 100.556C27.0417 99.9665 26.959 99.3381 26.6538 98.8094V98.8094Z" fill="#FF7186"/>
<path d="M8.09081 94.2243L18.0183 88.4926C18.2921 88.3479 18.5338 88.1495 18.7291 87.9092C18.9244 87.6689 19.0693 87.3917 19.1549 87.0941C19.2406 86.7965 19.2653 86.4848 19.2277 86.1774C19.1901 85.87 19.0908 85.5734 18.9359 85.3053C18.7809 85.0372 18.5735 84.8031 18.326 84.6171C18.0785 84.431 17.796 84.2967 17.4954 84.2224C17.1948 84.148 16.8823 84.1351 16.5765 84.1843C16.2708 84.2335 15.9782 84.344 15.7161 84.5089L7.14081 89.4489C7.39414 91.0618 7.70447 92.6537 8.07181 94.2243H8.09081Z" fill="#FF4155"/>
<path d="M22.6955 92.1121C22.3902 91.5835 21.8874 91.1978 21.2977 91.0398C20.708 90.8819 20.0797 90.9646 19.551 91.2698L8.91101 97.4226C9.3459 98.9363 9.83146 100.428 10.3677 101.897L21.8532 95.2661C22.1162 95.1149 22.3467 94.9133 22.5315 94.6727C22.7163 94.4321 22.8518 94.1574 22.9301 93.8643C23.0083 93.5712 23.0279 93.2655 22.9877 92.9648C22.9474 92.6641 22.8481 92.3743 22.6955 92.1121V92.1121Z" fill="#FF4155"/>
<path d="M71.8548 123.51L73.9068 122.325C74.3249 122.084 74.6914 121.763 74.9853 121.38C75.2793 120.996 75.4949 120.559 75.6199 120.093C75.7448 119.626 75.7767 119.14 75.7137 118.661C75.6507 118.183 75.494 117.721 75.2526 117.303C75.0112 116.885 74.6898 116.518 74.3068 116.224C73.9237 115.93 73.4866 115.715 73.0202 115.59C72.5538 115.465 72.0674 115.433 71.5887 115.496C71.11 115.559 70.6484 115.716 70.2303 115.957L65.3916 118.75C67.5323 120.194 69.6888 121.784 71.8548 123.51Z" fill="#FF4155"/>
<path d="M67.8901 131.391C65.9983 129.861 64.7424 127.682 64.3662 125.278C63.99 122.873 64.5202 120.415 65.854 118.38C63.5423 116.828 61.256 115.45 59.0298 114.263L46.8033 121.321C46.9289 122.147 47.242 122.932 47.7185 123.617C52.0214 129.683 57.0695 135.185 62.7443 139.992C65.1193 142.035 67.5196 143.916 69.9073 145.616C70.9428 145.664 71.9814 145.692 73.0296 145.692C76.5492 145.692 80.0635 145.416 83.5398 144.866L67.8901 131.391Z" fill="#D3DCFB"/>
<path d="M67.8901 131.391C65.9983 129.861 64.7424 127.682 64.3662 125.278C63.99 122.873 64.5202 120.415 65.854 118.38C63.5423 116.828 61.256 115.45 59.0298 114.263L46.8033 121.321C46.9289 122.147 47.242 122.932 47.7185 123.617C52.0214 129.683 57.0695 135.185 62.7443 139.992C62.4695 138.656 62.7045 137.265 63.4029 136.093C64.1014 134.921 65.2129 134.053 66.5189 133.659C67.3681 133.331 68.0965 132.751 68.6058 131.996L67.8901 131.391Z" fill="#BEC8F7"/>
<path d="M90.9086 143.26C90.7437 142.774 90.5124 142.314 90.2215 141.892C85.9185 135.826 80.8704 130.324 75.1956 125.517C72.1295 122.872 68.9029 120.418 65.5341 118.17C64.1098 120.203 63.5108 122.701 63.8582 125.158C64.2057 127.616 65.4737 129.849 67.4056 131.407L83.1123 144.929C85.7421 144.529 88.3456 143.972 90.9086 143.26Z" fill="#E9EFFF"/>
<path d="M69.2328 130.416C69.9706 125.919 75.1956 125.517 75.1956 125.517C72.1295 122.872 68.9029 120.418 65.5341 118.17C64.1098 120.203 63.5108 122.701 63.8582 125.158C64.2057 127.616 65.4736 129.849 67.4056 131.407L68.4063 132.268C68.834 131.731 69.1183 131.093 69.2328 130.416Z" fill="#D3DCFB"/>
<path d="M59.7201 102.464L36.6035 115.805L39.4281 120.701C40.0736 121.81 41.1318 122.62 42.3717 122.952C43.6117 123.284 44.9327 123.112 46.0465 122.474L61.1863 113.734C62.2965 113.089 63.1063 112.031 63.4386 110.791C63.7709 109.551 63.5987 108.229 62.9596 107.116L60.1096 102.201C59.9988 102.29 59.8626 102.382 59.7201 102.464Z" fill="#BEC8F7"/>
<path d="M54.7453 117.458C53.8003 117.385 52.8833 117.103 52.0605 116.633C51.2378 116.162 50.5298 115.515 49.9877 114.737C49.4456 113.96 49.083 113.072 48.9261 112.137C48.7691 111.202 48.8218 110.244 49.0802 109.332L48.5291 108.924L36.613 115.802L39.4377 120.697C40.0831 121.807 41.1413 122.616 42.3812 122.949C43.6212 123.281 44.9422 123.109 46.056 122.471L54.7453 117.458Z" fill="#A5B5F2"/>
<path d="M63.6722 47.9497C57.8787 54.6137 51.0324 60.2832 43.4055 64.7331L60.6638 94.6264C68.3276 90.2386 76.6587 87.1364 85.3258 85.4431L63.6722 47.9497Z" fill="#E80054"/>
<path d="M63.2352 48.4499L84.6703 85.5728C97.2838 83.0932 110.246 82.9612 122.908 85.1833L82.6912 15.5166C78.2864 27.5975 71.6907 38.7621 63.2352 48.4499V48.4499Z" fill="#FF4155"/>
<path d="M63.6722 47.9497C57.8787 54.6136 51.0324 60.2832 43.4055 64.733L52.4431 80.389C59.9842 76.0293 67.0779 70.9381 73.6218 65.189L63.6722 47.9497Z" fill="#CC0053"/>
<path d="M82.6912 15.5293C78.2863 27.6102 71.6906 38.7748 63.2352 48.4626L73.131 65.6038C77.6914 61.6372 81.9862 57.3751 85.9877 52.8453C87.2498 51.4215 88.8325 50.3181 90.605 49.6263C92.3775 48.9345 94.2891 48.6741 96.1821 48.8665C98.0751 49.0588 99.8952 49.6986 101.492 50.7328C103.089 51.7671 104.418 53.1663 105.368 54.815L82.6912 15.5293Z" fill="#E80054"/>
<path d="M112.828 35.6408L105.026 38.9119L113.804 54.1119L120.542 49.0073C122.224 48.0383 121.853 44.2573 119.719 40.5586C117.585 36.8599 114.51 34.6718 112.828 35.6408Z" fill="#BEC8F7"/>
<path d="M113.218 51.832C112.72 50.9689 112.411 50.0098 112.312 49.0183C112.213 48.0268 112.326 47.0255 112.643 46.0809C112.96 45.1363 113.475 44.2701 114.153 43.5397C114.831 42.8093 115.656 42.2314 116.574 41.8443L119.703 40.5238C117.569 36.86 114.5 34.675 112.828 35.6408L105.026 38.9088L113.804 54.1088L114.31 53.7256L113.218 51.832Z" fill="#A5B5F2"/>
<path d="M137.639 66.082L131.154 62.339C130.887 62.1905 130.653 61.9903 130.464 61.7502C130.275 61.5102 130.136 61.235 130.055 60.9407C129.974 60.6464 129.952 60.3388 129.991 60.036C130.029 59.7331 130.128 59.441 130.28 59.1766C130.433 58.9122 130.637 58.6808 130.88 58.4959C131.123 58.3109 131.4 58.1762 131.696 58.0995C131.991 58.0228 132.299 58.0056 132.601 58.049C132.903 58.0924 133.194 58.1954 133.456 58.3522L139.941 62.0952C140.46 62.4055 140.836 62.9073 140.988 63.4923C141.14 64.0773 141.055 64.6986 140.753 65.222C140.451 65.7454 139.955 66.129 139.372 66.2899C138.79 66.4508 138.167 66.3761 137.639 66.082V66.082Z" fill="#73C3F9"/>
<path d="M143.406 49.134H135.916C135.607 49.1455 135.299 49.0945 135.01 48.984C134.72 48.8736 134.457 48.706 134.234 48.4912C134.011 48.2765 133.834 48.0189 133.712 47.7341C133.591 47.4493 133.529 47.1429 133.529 46.8334C133.529 46.5239 133.591 46.2176 133.712 45.9327C133.834 45.6479 134.011 45.3904 134.234 45.1756C134.457 44.9609 134.72 44.7933 135.01 44.6828C135.299 44.5724 135.607 44.5214 135.916 44.5328H143.406C143.715 44.5214 144.023 44.5724 144.312 44.6828C144.602 44.7933 144.866 44.9609 145.088 45.1756C145.311 45.3904 145.489 45.6479 145.61 45.9327C145.731 46.2176 145.793 46.5239 145.793 46.8334C145.793 47.1429 145.731 47.4493 145.61 47.7341C145.489 48.0189 145.311 48.2765 145.088 48.4912C144.866 48.706 144.602 48.8736 144.312 48.984C144.023 49.0945 143.715 49.1455 143.406 49.134Z" fill="#73C3F9"/>
<path d="M130.305 34.4755C130 33.9468 129.917 33.3185 130.075 32.7289C130.233 32.1392 130.619 31.6364 131.147 31.331L137.633 27.588C137.895 27.4231 138.187 27.3126 138.493 27.2634C138.799 27.2142 139.111 27.2271 139.412 27.3015C139.713 27.3758 139.995 27.5101 140.243 27.6961C140.49 27.8822 140.698 28.1163 140.853 28.3844C141.007 28.6525 141.107 28.9491 141.144 29.2565C141.182 29.5638 141.157 29.8756 141.072 30.1732C140.986 30.4708 140.841 30.748 140.646 30.9883C140.451 31.2286 140.209 31.427 139.935 31.5717L133.45 35.3147C132.921 35.6202 132.293 35.7034 131.704 35.546C131.114 35.3887 130.611 35.0036 130.305 34.4755V34.4755Z" fill="#73C3F9"/>
<path d="M121.258 25.4283C120.729 25.123 120.344 24.6202 120.186 24.0305C120.028 23.4408 120.11 22.8125 120.416 22.2838L124.159 15.7985C124.303 15.5247 124.502 15.2829 124.742 15.0876C124.982 14.8923 125.26 14.7475 125.557 14.6619C125.855 14.5762 126.166 14.5515 126.474 14.5891C126.781 14.6267 127.078 14.726 127.346 14.8809C127.614 15.0359 127.848 15.2433 128.034 15.4908C128.22 15.7383 128.355 16.0208 128.429 16.3214C128.503 16.622 128.516 16.9345 128.467 17.2402C128.418 17.546 128.307 17.8386 128.142 18.1006L124.399 24.586C124.248 24.848 124.047 25.0778 123.808 25.262C123.568 25.4462 123.294 25.5813 123.002 25.6595C122.71 25.7378 122.405 25.7576 122.105 25.718C121.805 25.6783 121.517 25.5799 121.255 25.4283H121.258Z" fill="#73C3F9"/>
<path d="M108.899 22.1161C108.288 22.1161 107.702 21.8736 107.271 21.4418C106.839 21.0101 106.596 20.4245 106.596 19.814V12.328C106.585 12.0187 106.636 11.7102 106.746 11.4211C106.857 11.132 107.024 10.8681 107.239 10.6452C107.454 10.4223 107.711 10.245 107.996 10.1239C108.281 10.0028 108.587 9.94043 108.897 9.94043C109.206 9.94043 109.513 10.0028 109.798 10.1239C110.082 10.245 110.34 10.4223 110.555 10.6452C110.77 10.8681 110.937 11.132 111.048 11.4211C111.158 11.7102 111.209 12.0187 111.197 12.328V19.8171C111.197 20.4266 110.954 21.0109 110.523 21.4418C110.092 21.8728 109.508 22.1153 108.899 22.1161Z" fill="#73C3F9"/>
<path d="M130.28 89.6326C129.248 90.2281 128.022 90.3896 126.871 90.0814C125.72 89.7732 124.739 89.0206 124.143 87.9891L80.8766 13.0531C80.5815 12.542 80.3901 11.9778 80.3131 11.3927C80.2361 10.8076 80.275 10.2131 80.4278 9.64306C80.7363 8.49186 81.4895 7.51035 82.5217 6.91448C83.5539 6.3186 84.7805 6.15717 85.9317 6.46568C87.0829 6.77419 88.0644 7.52738 88.6603 8.55956L131.923 83.4956C132.519 84.5274 132.68 85.7535 132.372 86.9043C132.064 88.0551 131.311 89.0365 130.28 89.6326V89.6326Z" fill="#E9EFFF"/>
<path d="M107.154 49.5267C107.961 49.061 108.883 48.8316 109.815 48.8646C110.747 48.8977 111.65 49.1918 112.423 49.7135L88.6729 8.54687C88.077 7.51469 87.0956 6.7615 85.9444 6.45298C84.7932 6.14447 83.5666 6.30591 82.5344 6.90178C81.5022 7.49766 80.749 8.47916 80.4405 9.63037C80.132 10.7816 80.2935 12.0082 80.8893 13.0404L104.696 54.2767C104.612 53.3322 104.799 52.3832 105.236 51.5417C105.674 50.7001 106.342 50.001 107.163 49.5267H107.154Z" fill="#D3DCFB"/>
<path d="M17.4356 71.6775L12.6635 74.4325C12.0484 74.7855 11.5091 75.2566 11.0766 75.8187C10.6441 76.3807 10.3269 77.0227 10.1433 77.7078C9.95965 78.3928 9.9132 79.1074 10.0066 79.8104C10.1 80.5135 10.3314 81.1911 10.6875 81.8045L29.507 114.402C29.86 115.017 30.3311 115.557 30.8932 115.989C31.4552 116.422 32.0972 116.739 32.7823 116.922C33.4673 117.106 34.1819 117.152 34.8849 117.059C35.588 116.966 36.2656 116.734 36.879 116.378L41.6511 113.623L17.4356 71.6775Z" fill="#D3DCFB"/>
<path d="M35.8213 61.063L16.8593 72.0101L41.0748 113.956L60.0368 103.009C60.6519 102.656 61.1912 102.185 61.6237 101.622C62.0562 101.06 62.3734 100.418 62.557 99.7333C62.7406 99.0483 62.7871 98.3337 62.6937 97.6307C62.6003 96.9276 62.3689 96.25 62.0128 95.6366L43.1933 63.0389C42.8403 62.4238 42.3692 61.8845 41.8071 61.452C41.245 61.0195 40.603 60.7024 39.918 60.5187C39.233 60.3351 38.5184 60.2887 37.8154 60.3821C37.1123 60.4755 36.4347 60.7069 35.8213 61.063V61.063Z" fill="#E9EFFF"/>
<path d="M17.4356 71.6775L12.6635 74.4325C12.0484 74.7855 11.5091 75.2566 11.0766 75.8187C10.6441 76.3807 10.3269 77.0227 10.1433 77.7078C9.95965 78.3928 9.9132 79.1074 10.0066 79.8104C10.1 80.5135 10.3314 81.1911 10.6875 81.8045L20.8905 99.4776C20.3304 97.8132 20.3148 96.0136 20.846 94.3397C21.3772 92.6658 22.4276 91.2045 23.845 90.1676L27.0465 88.3246L17.4356 71.6775Z" fill="#BEC8F7"/>
<path d="M43.1933 63.0389C42.8403 62.4238 42.3692 61.8845 41.8071 61.452C41.245 61.0195 40.603 60.7024 39.918 60.5187C39.233 60.3351 38.5184 60.2887 37.8154 60.3821C37.1123 60.4755 36.4347 60.7069 35.8213 61.063L16.8593 72.0101L26.4701 88.6573C31.2201 85.9245 41.0716 80.272 44.5201 78.372C45.9249 77.7013 47.5086 77.5017 49.0358 77.803C50.5631 78.1042 51.9524 78.8901 52.9973 80.044L43.1933 63.0389Z" fill="#D3DCFB"/>
</g>
<defs>
<clipPath id="clip0_24_133">
<rect width="152" height="152" fill="white"/>
</clipPath>
</defs>
</svg>
