<svg xmlns="http://www.w3.org/2000/svg" width="24" height="24" viewBox="0 0 24 24"><defs><style>.a{fill:none;}.b{fill:#939393;}</style></defs><rect class="a" width="24" height="24"/><path class="b" d="M-3604.362-2203.83a.655.655,0,0,1-.639-.639.655.655,0,0,1,.639-.638h.638v-12.979a1.907,1.907,0,0,1,1.915-1.914h7.659a1.906,1.906,0,0,1,1.914,1.914v3.746a1.7,1.7,0,0,1,.639-.128h3.4a1.907,1.907,0,0,1,1.914,1.915v7.447h.639a.654.654,0,0,1,.638.638.654.654,0,0,1-.638.639Zm12.127-8.724v7.447h4.681v-7.447a.654.654,0,0,0-.638-.638h-3.4A.655.655,0,0,0-3592.235-2212.553Zm-10.213-5.532v12.979h8.936v-12.979a.654.654,0,0,0-.638-.638h-7.659A.655.655,0,0,0-3602.447-2218.086Zm5.277,9.788a1.065,1.065,0,0,1,1.064-1.064,1.064,1.064,0,0,1,1.064,1.064,1.063,1.063,0,0,1-1.064,1.064A1.064,1.064,0,0,1-3597.171-2208.3Zm-3.745,0a1.065,1.065,0,0,1,1.064-1.064,1.064,1.064,0,0,1,1.064,1.064,1.063,1.063,0,0,1-1.064,1.064A1.064,1.064,0,0,1-3600.916-2208.3Zm3.745-3.575a1.065,1.065,0,0,1,1.064-1.064,1.064,1.064,0,0,1,1.064,1.064,1.063,1.063,0,0,1-1.064,1.064A1.064,1.064,0,0,1-3597.171-2211.873Zm-3.745,0a1.065,1.065,0,0,1,1.064-1.064,1.064,1.064,0,0,1,1.064,1.064,1.063,1.063,0,0,1-1.064,1.064A1.064,1.064,0,0,1-3600.916-2211.873Zm3.745-3.574a1.064,1.064,0,0,1,1.064-1.063,1.063,1.063,0,0,1,1.064,1.063,1.064,1.064,0,0,1-1.064,1.064A1.064,1.064,0,0,1-3597.171-2215.447Zm-3.745,0a1.064,1.064,0,0,1,1.064-1.063,1.063,1.063,0,0,1,1.064,1.063,1.063,1.063,0,0,1-1.064,1.064A1.064,1.064,0,0,1-3600.916-2215.447Z" transform="translate(3607 2224)"/></svg>