<svg xmlns="http://www.w3.org/2000/svg" width="24" height="24" viewBox="0 0 24 24"><defs><style>.a{fill:none;}.b{fill:#939393;}</style></defs><rect class="a" width="24" height="24"/><path class="b" d="M1.625,17.43a1.627,1.627,0,0,1-.861-.247,1.728,1.728,0,0,1-.674-.854A2.453,2.453,0,0,1,0,15.453a12.033,12.033,0,0,1,.079-1.9A5,5,0,0,1,3.717,9.591q.1-.027.2-.049a4.516,4.516,0,0,1-.691-.874A4.389,4.389,0,0,1,2.9,4.808a4.621,4.621,0,0,1,.314-.656,4.823,4.823,0,0,1,.429-.595A4.409,4.409,0,0,1,8.454,2.248a4.354,4.354,0,0,1,1.153.614,4.659,4.659,0,0,1,.545.469,5.1,5.1,0,0,1,.456.556A4.358,4.358,0,0,1,11.4,6.4a.732.732,0,0,1,0,.085,5.265,5.265,0,0,1-.067.678,4.274,4.274,0,0,1-1.253,2.381l.137.031a5,5,0,0,1,3.7,3.92A11.112,11.112,0,0,1,14,15.411a2.882,2.882,0,0,1-.065.848,1.656,1.656,0,0,1-1.473,1.166.673.673,0,0,1-.086.006H1.625Zm.033-1.448ZM1.6,15.976Zm-.035,0Zm.128-.007Zm-.059-.016c.419,0,.839,0,1.258,0h9.489l.042-.011.037-.022.027-.028.022-.038.009-.032c0-.068,0-.137,0-.206V14.7a7.354,7.354,0,0,0-.027-.748,4.4,4.4,0,0,0-.241-.886,4.346,4.346,0,0,0-.472-.808,4.373,4.373,0,0,0-.626-.624,4.34,4.34,0,0,0-.809-.472,4.311,4.311,0,0,0-.892-.239c-.27-.027-.54-.025-.811-.025H5.261c-.24,0-.477,0-.716.025a4.364,4.364,0,0,0-.9.243,4.355,4.355,0,0,0-.806.472,4.344,4.344,0,0,0-.63.632,4.421,4.421,0,0,0-.464.8,4.283,4.283,0,0,0-.243.9,4.575,4.575,0,0,0-.025.49v.79c0,.183-.014.373,0,.557q.006.026.013.052l.024.041.026.026.037.022.038.01Zm-.116-.005Zm10.948,0h.012Zm.012,0,.019,0-.019,0ZM1.485,15.928l0-.02h0Zm0-.02,0-.021,0,.021Zm11.026-1.849q0-.035-.01-.069C12.5,14.013,12.506,14.036,12.509,14.059Zm-.02-.142q0-.027-.006-.054Q12.486,13.889,12.489,13.917Zm-.208-.784ZM1.768,13l.021-.049Zm10.45-.025-.01-.024Zm-.372-.639Zm-.619-.653Zm-.765-.479-.072-.03Zm-6.928,0,.07-.029Zm6.021-.275Zm-5.114,0,.061-.007ZM7.382,9.3a3.753,3.753,0,0,0,.742-.2A3.733,3.733,0,0,0,8.8,8.705a3.764,3.764,0,0,0,.512-.512A3.724,3.724,0,0,0,9.7,7.533a3.81,3.81,0,0,0,.2-.746A3.846,3.846,0,0,0,9.921,6.4c0-.131-.008-.261-.021-.391a3.81,3.81,0,0,0-.2-.743A3.8,3.8,0,0,0,9.306,4.6a3.766,3.766,0,0,0-.521-.518,3.69,3.69,0,0,0-.66-.384,3.753,3.753,0,0,0-.754-.2,3.728,3.728,0,0,0-.743,0,3.77,3.77,0,0,0-.754.2,3.76,3.76,0,0,0-.671.392,3.758,3.758,0,0,0-.515.516,3.689,3.689,0,0,0-.389.666,3.809,3.809,0,0,0-.2.742,3.737,3.737,0,0,0,0,.769,3.809,3.809,0,0,0,.2.741,3.762,3.762,0,0,0,.393.672A3.758,3.758,0,0,0,5.2,8.7a3.654,3.654,0,0,0,.674.4,3.769,3.769,0,0,0,.744.2A3.651,3.651,0,0,0,7.382,9.3Zm-.673.014Zm.738-.021.038,0ZM5.954,9.134Zm-.667-.36ZM4.74,8.26Zm-.4-.639-.016-.04ZM4.11,6.884c0-.021,0-.042-.008-.064Q4.106,6.852,4.11,6.884Zm5.805-.776-.008-.053Zm-.021-.156,0-.04Zm-.158-.6ZM4.321,5.215l.016-.04Zm5.054-.529Zm-.513-.547Zm-.64-.4Zm-.737-.228Zm-.971,0L6.588,3.5Z" transform="translate(5 2)"/></svg>