<?xml version="1.0" encoding="UTF-8"?>
<svg xmlns="http://www.w3.org/2000/svg" xmlns:xlink="http://www.w3.org/1999/xlink" width="18pt" height="18pt" viewBox="0 0 18 18" version="1.1">
<g id="surface1">
<path style=" stroke:none;fill-rule:nonzero;fill:rgb(0%,43.921569%,87.843137%);fill-opacity:1;" d="M 4.96875 14.574219 C 4.742188 14.574219 4.515625 14.507812 4.324219 14.386719 C 4.089844 14.234375 3.914062 14.007812 3.816406 13.746094 C 3.753906 13.535156 3.734375 13.3125 3.75 13.089844 C 3.730469 12.613281 3.75 12.136719 3.808594 11.664062 C 4.0625 10.226562 5.128906 9.070312 6.539062 8.691406 C 6.585938 8.679688 6.636719 8.667969 6.6875 8.65625 C 6.488281 8.460938 6.316406 8.238281 6.167969 8 C 5.644531 7.125 5.554688 6.058594 5.925781 5.105469 C 5.992188 4.9375 6.070312 4.773438 6.160156 4.613281 C 6.257812 4.457031 6.363281 4.308594 6.480469 4.167969 C 7.367188 3.125 8.800781 2.738281 10.089844 3.1875 C 10.398438 3.296875 10.691406 3.449219 10.957031 3.648438 C 11.101562 3.753906 11.238281 3.871094 11.363281 4 C 11.488281 4.128906 11.601562 4.269531 11.707031 4.414062 C 12.09375 4.96875 12.300781 5.625 12.300781 6.300781 C 12.300781 6.320312 12.300781 6.34375 12.300781 6.363281 C 12.292969 6.535156 12.277344 6.703125 12.25 6.871094 C 12.136719 7.554688 11.808594 8.179688 11.308594 8.65625 L 11.414062 8.679688 C 12.832031 9.035156 13.914062 10.183594 14.1875 11.621094 C 14.25 12.097656 14.269531 12.578125 14.25 13.058594 C 14.265625 13.273438 14.25 13.484375 14.203125 13.695312 C 14.050781 14.1875 13.609375 14.535156 13.097656 14.570312 C 13.074219 14.570312 13.054688 14.574219 13.03125 14.574219 Z M 4.992188 13.488281 Z M 4.949219 13.480469 Z M 4.921875 13.480469 Z M 5.019531 13.476562 Z M 4.976562 13.464844 C 5.289062 13.464844 5.605469 13.464844 5.917969 13.464844 L 13.035156 13.464844 L 13.066406 13.457031 L 13.09375 13.441406 L 13.117188 13.417969 L 13.132812 13.390625 L 13.136719 13.367188 C 13.136719 13.316406 13.136719 13.265625 13.136719 13.210938 L 13.136719 12.523438 C 13.140625 12.335938 13.132812 12.152344 13.117188 11.964844 C 13.082031 11.738281 13.019531 11.515625 12.9375 11.300781 C 12.839844 11.085938 12.722656 10.882812 12.582031 10.695312 C 12.441406 10.523438 12.285156 10.367188 12.113281 10.226562 C 11.925781 10.085938 11.722656 9.96875 11.507812 9.871094 C 11.292969 9.789062 11.066406 9.726562 10.839844 9.691406 C 10.636719 9.671875 10.433594 9.671875 10.230469 9.671875 L 7.695312 9.671875 C 7.515625 9.671875 7.339844 9.671875 7.160156 9.691406 C 6.929688 9.730469 6.703125 9.789062 6.484375 9.875 C 6.269531 9.96875 6.066406 10.089844 5.878906 10.226562 C 5.707031 10.371094 5.546875 10.527344 5.40625 10.703125 C 5.269531 10.890625 5.152344 11.089844 5.058594 11.300781 C 4.972656 11.519531 4.914062 11.746094 4.875 11.976562 C 4.863281 12.097656 4.859375 12.222656 4.859375 12.34375 L 4.859375 12.9375 C 4.859375 13.074219 4.847656 13.21875 4.859375 13.355469 C 4.859375 13.367188 4.863281 13.382812 4.867188 13.394531 L 4.886719 13.425781 L 4.90625 13.445312 L 4.933594 13.460938 L 4.960938 13.46875 Z M 4.886719 13.460938 Z M 13.097656 13.460938 L 13.109375 13.460938 Z M 13.109375 13.460938 L 13.121094 13.460938 Z M 4.863281 13.445312 L 4.863281 13.429688 Z M 4.863281 13.429688 L 4.863281 13.414062 Z M 13.132812 12.042969 C 13.132812 12.027344 13.128906 12.007812 13.125 11.992188 C 13.125 12.007812 13.128906 12.027344 13.132812 12.042969 Z M 13.117188 11.9375 C 13.117188 11.925781 13.117188 11.910156 13.113281 11.898438 C 13.113281 11.910156 13.117188 11.921875 13.117188 11.9375 Z M 12.960938 11.351562 Z M 5.074219 11.25 L 5.089844 11.214844 Z M 12.914062 11.230469 L 12.90625 11.214844 Z M 12.632812 10.753906 Z M 12.171875 10.261719 Z M 11.597656 9.902344 L 11.542969 9.878906 Z M 6.402344 9.902344 L 6.453125 9.882812 Z M 10.917969 9.695312 Z M 7.082031 9.695312 L 7.125 9.691406 Z M 9.285156 8.476562 C 9.476562 8.445312 9.664062 8.394531 9.84375 8.324219 C 10.023438 8.246094 10.191406 8.144531 10.351562 8.027344 C 10.488281 7.914062 10.617188 7.785156 10.734375 7.644531 C 10.847656 7.488281 10.945312 7.324219 11.023438 7.148438 C 11.09375 6.96875 11.144531 6.78125 11.175781 6.589844 C 11.183594 6.492188 11.191406 6.398438 11.191406 6.300781 C 11.191406 6.203125 11.183594 6.105469 11.175781 6.007812 C 11.144531 5.816406 11.09375 5.628906 11.023438 5.449219 C 10.945312 5.273438 10.84375 5.105469 10.730469 4.949219 C 10.613281 4.808594 10.480469 4.679688 10.339844 4.5625 C 10.183594 4.449219 10.019531 4.351562 9.84375 4.273438 C 9.660156 4.203125 9.472656 4.152344 9.277344 4.125 C 9.09375 4.105469 8.90625 4.105469 8.722656 4.125 C 8.527344 4.152344 8.339844 4.203125 8.15625 4.273438 C 7.976562 4.355469 7.808594 4.453125 7.652344 4.566406 C 7.511719 4.683594 7.382812 4.8125 7.265625 4.953125 C 7.152344 5.109375 7.054688 5.277344 6.972656 5.453125 C 6.90625 5.632812 6.855469 5.820312 6.824219 6.011719 C 6.804688 6.203125 6.804688 6.394531 6.824219 6.585938 C 6.855469 6.777344 6.90625 6.964844 6.972656 7.144531 C 7.054688 7.320312 7.152344 7.488281 7.269531 7.648438 C 7.382812 7.785156 7.511719 7.910156 7.648438 8.023438 C 7.808594 8.144531 7.976562 8.242188 8.15625 8.324219 C 8.335938 8.394531 8.523438 8.445312 8.714844 8.476562 C 8.902344 8.496094 9.097656 8.496094 9.285156 8.476562 Z M 8.78125 8.484375 Z M 9.335938 8.46875 L 9.363281 8.46875 Z M 8.214844 8.351562 Z M 7.714844 8.082031 Z M 7.304688 7.695312 Z M 7.003906 7.214844 L 6.992188 7.1875 Z M 6.832031 6.664062 C 6.832031 6.648438 6.832031 6.632812 6.828125 6.613281 C 6.828125 6.632812 6.832031 6.648438 6.832031 6.664062 Z M 11.1875 6.082031 L 11.179688 6.042969 Z M 11.171875 5.964844 L 11.171875 5.933594 Z M 11.050781 5.515625 Z M 6.992188 5.410156 L 7.003906 5.382812 Z M 10.78125 5.015625 Z M 10.398438 4.605469 Z M 9.917969 4.304688 Z M 9.363281 4.132812 Z M 8.636719 4.132812 L 8.691406 4.125 Z M 8.636719 4.132812 "/>
</g>
</svg>
