<?xml version="1.0" encoding="UTF-8"?>
<svg xmlns="http://www.w3.org/2000/svg" xmlns:xlink="http://www.w3.org/1999/xlink" width="18pt" height="18pt" viewBox="0 0 18 18" version="1.1">
<g id="surface1">
<path style=" stroke:none;fill-rule:nonzero;fill:rgb(0%,43.921569%,87.843137%);fill-opacity:1;" d="M 1.976562 15.128906 C 1.714844 15.121094 1.503906 14.910156 1.5 14.648438 C 1.507812 14.386719 1.714844 14.175781 1.976562 14.167969 L 2.457031 14.167969 L 2.457031 4.433594 C 2.457031 4.054688 2.605469 3.6875 2.875 3.417969 C 3.144531 3.148438 3.511719 3 3.894531 3 L 9.636719 3 C 10.019531 3 10.382812 3.148438 10.65625 3.417969 C 10.925781 3.6875 11.074219 4.054688 11.074219 4.433594 L 11.074219 7.246094 C 11.226562 7.183594 11.386719 7.148438 11.550781 7.148438 L 14.101562 7.148438 C 14.484375 7.148438 14.847656 7.296875 15.117188 7.566406 C 15.386719 7.835938 15.539062 8.203125 15.539062 8.585938 L 15.539062 14.171875 L 16.015625 14.171875 C 16.277344 14.175781 16.488281 14.386719 16.496094 14.648438 C 16.488281 14.910156 16.277344 15.121094 16.015625 15.128906 Z M 11.074219 8.585938 L 11.074219 14.167969 L 14.585938 14.167969 L 14.585938 8.585938 C 14.578125 8.324219 14.367188 8.113281 14.105469 8.105469 L 11.554688 8.105469 C 11.292969 8.109375 11.082031 8.320312 11.074219 8.585938 Z M 3.414062 4.433594 L 3.414062 14.167969 L 10.117188 14.167969 L 10.117188 4.433594 C 10.109375 4.175781 9.898438 3.964844 9.636719 3.957031 L 3.894531 3.957031 C 3.632812 3.964844 3.421875 4.175781 3.414062 4.433594 Z M 7.371094 11.777344 C 7.371094 11.335938 7.730469 10.980469 8.167969 10.976562 C 8.609375 10.976562 8.96875 11.335938 8.96875 11.777344 C 8.96875 11.988281 8.882812 12.191406 8.734375 12.339844 C 8.585938 12.492188 8.382812 12.574219 8.167969 12.574219 C 7.957031 12.574219 7.753906 12.488281 7.605469 12.339844 C 7.457031 12.191406 7.371094 11.988281 7.371094 11.773438 Z M 4.5625 11.777344 C 4.5625 11.335938 4.921875 10.980469 5.359375 10.976562 C 5.800781 10.976562 6.160156 11.335938 6.160156 11.777344 C 6.160156 11.988281 6.074219 12.191406 5.925781 12.339844 C 5.777344 12.492188 5.574219 12.574219 5.359375 12.574219 C 5.148438 12.574219 4.945312 12.488281 4.796875 12.339844 C 4.648438 12.191406 4.5625 11.988281 4.5625 11.773438 Z M 7.371094 9.09375 C 7.371094 8.65625 7.730469 8.296875 8.167969 8.296875 C 8.609375 8.296875 8.96875 8.65625 8.96875 9.09375 C 8.96875 9.308594 8.882812 9.511719 8.734375 9.660156 C 8.585938 9.808594 8.382812 9.894531 8.167969 9.894531 C 7.730469 9.894531 7.371094 9.535156 7.371094 9.09375 Z M 4.5625 9.09375 C 4.5625 8.65625 4.921875 8.296875 5.359375 8.296875 C 5.800781 8.296875 6.160156 8.65625 6.160156 9.09375 C 6.160156 9.308594 6.074219 9.511719 5.925781 9.660156 C 5.777344 9.808594 5.574219 9.894531 5.359375 9.894531 C 4.921875 9.894531 4.5625 9.535156 4.5625 9.09375 Z M 7.371094 6.414062 C 7.371094 5.972656 7.730469 5.617188 8.167969 5.617188 C 8.609375 5.617188 8.96875 5.972656 8.96875 6.414062 C 8.96875 6.855469 8.609375 7.210938 8.167969 7.210938 C 7.730469 7.210938 7.371094 6.855469 7.371094 6.414062 Z M 4.5625 6.414062 C 4.5625 5.972656 4.921875 5.617188 5.359375 5.617188 C 5.800781 5.617188 6.160156 5.972656 6.160156 6.414062 C 6.160156 6.625 6.074219 6.828125 5.925781 6.980469 C 5.777344 7.128906 5.574219 7.214844 5.359375 7.210938 C 4.921875 7.210938 4.5625 6.855469 4.5625 6.414062 Z M 4.5625 6.414062 "/>
</g>
</svg>
