<svg id="Netbanking_Icons_Credit_Card" data-name="Netbanking Icons_Credit Card" xmlns="http://www.w3.org/2000/svg" width="48" height="48" viewBox="0 0 48 48">
  <path id="Path_917" data-name="Path 917" d="M50.328,33.467a2.41,2.41,0,0,0-2.4-2.4L9.461,31a2.426,2.426,0,0,0-2.426,2.406L7,55.614a2.416,2.416,0,0,0,2.406,2.4l38.461.054a2.422,2.422,0,0,0,2.426-2.4Z" transform="translate(-4.76 -21.08)" fill="#cad7db"/>
  <path id="Path_918" data-name="Path 918" d="M52.419,33.467a2.406,2.406,0,0,0-2.394-2.4L11.728,31a2.416,2.416,0,0,0-2.413,2.406L9.28,55.6a2.41,2.41,0,0,0,2.4,2.4l38.294.054a2.413,2.413,0,0,0,2.413-2.4Z" transform="translate(-6.31 -21.08)" fill="#eaf2f5"/>
  <rect id="Rectangle_193" data-name="Rectangle 193" width="48" height="48" fill="none"/>
  <rect id="Rectangle_194" data-name="Rectangle 194" width="9.875" height="6.739" rx="2.29" transform="translate(32.886 20.842)" fill="#cad7db"/>
  <rect id="Rectangle_195" data-name="Rectangle 195" width="8.672" height="1.914" rx="0.957" transform="translate(5.002 31.347)" fill="#df0f1b"/>
  <rect id="Rectangle_196" data-name="Rectangle 196" width="8.672" height="1.914" rx="0.957" transform="translate(14.701 31.347)" fill="#df0f1b"/>
  <rect id="Rectangle_197" data-name="Rectangle 197" width="8.672" height="1.914" rx="0.957" transform="translate(24.384 31.347)" fill="#df0f1b"/>
  <rect id="Rectangle_198" data-name="Rectangle 198" width="8.672" height="1.914" rx="0.957" transform="translate(34.09 31.347)" fill="#df0f1b"/>
  <rect id="Rectangle_199" data-name="Rectangle 199" width="12.931" height="4.17" rx="2.085" transform="translate(5.322 13.437)" fill="#cad7db"/>
  <path id="Path_919" data-name="Path 919" d="M111.6,45.214a1.7,1.7,0,0,1-.269.88,1.619,1.619,0,0,1-.688.592,2.352,2.352,0,0,1-1.018.211,1.869,1.869,0,0,1-1.482-.614,2.528,2.528,0,0,1-.544-1.731v-.237a2.88,2.88,0,0,1,.246-1.229,1.827,1.827,0,0,1,.7-.813,1.958,1.958,0,0,1,1.062-.288,2.067,2.067,0,0,1,1.4.458,1.821,1.821,0,0,1,.6,1.261h-1.149a.864.864,0,0,0-.221-.64.915.915,0,0,0-.64-.189.688.688,0,0,0-.64.32,2.058,2.058,0,0,0-.208,1.027v.339a2.278,2.278,0,0,0,.192,1.091.694.694,0,0,0,.659.32.886.886,0,0,0,.608-.189.787.787,0,0,0,.224-.592Z" transform="translate(-73.164 -28.548)" fill="#e0121b"/>
  <path id="Path_920" data-name="Path 920" d="M124.981,45.207a1.731,1.731,0,0,1-.272.88,1.619,1.619,0,0,1-.688.592A2.352,2.352,0,0,1,123,46.89a1.872,1.872,0,0,1-1.482-.614,2.528,2.528,0,0,1-.534-1.734V44.3a2.88,2.88,0,0,1,.243-1.229,1.827,1.827,0,0,1,.7-.813A1.958,1.958,0,0,1,123,41.975a2.067,2.067,0,0,1,1.4.458,1.808,1.808,0,0,1,.6,1.261h-1.149a.864.864,0,0,0-.221-.64.915.915,0,0,0-.64-.189.691.691,0,0,0-.64.32,2.093,2.093,0,0,0-.208,1.027v.339a2.278,2.278,0,0,0,.192,1.091.7.7,0,0,0,.659.32.886.886,0,0,0,.608-.189.787.787,0,0,0,.224-.592Z" transform="translate(-82.267 -28.541)" fill="#e0121b"/>
</svg>
