<svg xmlns="http://www.w3.org/2000/svg" width="22" height="22" viewBox="0 0 22 22"><defs><style>.a{fill:#ececec;}.b{fill:#939393;}</style></defs><g transform="translate(-374 -309)"><circle class="a" cx="11" cy="11" r="11" transform="translate(374 309)"/><path class="b" d="M9.364,3.538A.542.542,0,0,1,9.909,3h2.182a.539.539,0,1,1,0,1.077H9.909A.542.542,0,0,1,9.364,3.538ZM17,5.154a.542.542,0,0,1-.545.538h-.545v9.692A1.628,1.628,0,0,1,14.273,17H7.727a1.628,1.628,0,0,1-1.636-1.615V5.692H5.545a.539.539,0,1,1,0-1.077H16.455A.542.542,0,0,1,17,5.154Zm-2.182.538H7.182v9.692a.542.542,0,0,0,.545.538h6.545a.542.542,0,0,0,.545-.538ZM9.364,14.308a.542.542,0,0,0,.545-.538V7.846a.545.545,0,0,0-1.091,0v5.923A.542.542,0,0,0,9.364,14.308Zm3.273,0a.542.542,0,0,0,.545-.538V7.846a.546.546,0,0,0-1.091,0v5.923A.542.542,0,0,0,12.636,14.308Z" transform="translate(374.059 309.8)"/></g></svg>