<svg xmlns="http://www.w3.org/2000/svg" width="48" height="48" viewBox="0 0 48 48">
  <g id="Group_22852" data-name="Group 22852" transform="translate(-322.083 -2273.974)">
    <g id="Group_176" data-name="Group 176" transform="translate(327.899 2278.326)">
      <path id="Path_467" data-name="Path 467" d="M345.855,2312.638l-4.032-12.032a1.516,1.516,0,0,1,.96-1.92l28.352-9.472a1.516,1.516,0,0,1,1.92.96l4.032,12.032a1.516,1.516,0,0,1-.96,1.92l-28.352,9.472a1.516,1.516,0,0,1-1.92-.96Z" transform="translate(-341.272 -2288.638)" fill="#d8e7eb"/>
      <path id="Path_468" data-name="Path 468" d="M344.843,2311.574l.448-.16-4.032-12.032a1.139,1.139,0,0,1-.064-.32,1.039,1.039,0,0,1,.7-.992l28.384-9.472a1.137,1.137,0,0,1,.32-.064,1.07,1.07,0,0,1,.992.7l4,12.032a1.136,1.136,0,0,1,.064.32,1.07,1.07,0,0,1-.7.992l-28.352,9.472a1.138,1.138,0,0,1-.32.064,1.07,1.07,0,0,1-.992-.7l-.448.16-.48.128a2,2,0,0,0,1.92,1.376,2.064,2.064,0,0,0,.64-.1l28.352-9.472a1.988,1.988,0,0,0,1.376-1.888,2.063,2.063,0,0,0-.1-.64l-4.032-12.032a2.028,2.028,0,0,0-1.92-1.376,2.064,2.064,0,0,0-.64.1l-28.32,9.472a2,2,0,0,0-1.28,2.528h0l4,12.032Z" transform="translate(-340.26 -2287.574)" fill="#c1cfd4"/>
      <path id="Path_469" data-name="Path 469" d="M359.687,2317.83l-6.88,2.3a1.235,1.235,0,0,0,.8,2.336l6.88-2.3a1.239,1.239,0,0,0,.768-1.568A1.214,1.214,0,0,0,359.687,2317.83Z" transform="translate(-348.224 -2308.102)" fill="#c1cfd4"/>
      <path id="Path_470" data-name="Path 470" d="M419.251,2300.23l-3.744,1.248a1.235,1.235,0,1,0,.8,2.336l3.744-1.248a1.227,1.227,0,0,0,.768-1.568h0a1.24,1.24,0,0,0-1.568-.768Z" transform="translate(-390.86 -2296.134)" fill="#c1cfd4"/>
      <path id="Path_471" data-name="Path 471" d="M370.763,2336.73l-10.336,3.456a1.231,1.231,0,0,0,.768,2.336l10.336-3.456a1.24,1.24,0,0,0,.768-1.568A1.205,1.205,0,0,0,370.763,2336.73Z" transform="translate(-353.444 -2320.954)" fill="#c1cfd4"/>
      <path id="Path_472" data-name="Path 472" d="M412.691,2323.53l-9.184,3.072a1.235,1.235,0,1,0,.8,2.336l9.184-3.072a1.235,1.235,0,0,0-.8-2.336Z" transform="translate(-382.7 -2311.978)" fill="#d60013"/>
      <path id="Path_473" data-name="Path 473" d="M380.507,2311.13l-24,8a1.235,1.235,0,0,0,.8,2.336l24-8a1.235,1.235,0,0,0-.8-2.336Z" transform="translate(-350.74 -2303.546)" fill="#c1cfd4"/>
      <path id="Path_474" data-name="Path 474" d="M386.747,2336.392v-.832s6.656-4.768,7.264-9.216c.16-1.216.608-2.688.032-3.872-.64-1.248-2.3-2.3-3.392-3.168-.128-.1-1.728-1.312-1.856-1.088-.9,1.856-1.44,4.1,1.312,5.184a.831.831,0,0,1,.064,1.568s-18.784,5.5-20.512,7.616l-.576,5.408H387Z" transform="translate(-359.86 -2308.392)" fill="#e6f0f4"/>
      <path id="Path_475" data-name="Path 475" d="M385.8,2335.362h.48v-.832h-.48l.288.384a34.234,34.234,0,0,0,3.488-2.976,20.885,20.885,0,0,0,2.528-3.04,8.786,8.786,0,0,0,1.472-3.52,16.962,16.962,0,0,0,.32-2.56,3.53,3.53,0,0,0-.352-1.6,6.268,6.268,0,0,0-1.664-1.888c-.64-.544-1.344-1.024-1.856-1.44l-.1-.064c-.192-.128-.544-.384-.9-.64a4.821,4.821,0,0,0-.544-.32c-.1-.032-.16-.1-.256-.128a1.138,1.138,0,0,0-.32-.064.754.754,0,0,0-.256.064.654.654,0,0,0-.256.256,7.1,7.1,0,0,0-.768,2.784,3.1,3.1,0,0,0,.544,1.76,3.886,3.886,0,0,0,1.824,1.28.574.574,0,0,1,.224.16.346.346,0,0,1,.1.224.192.192,0,0,1-.032.128.574.574,0,0,1-.224.16l.224.416-.1-.416s-4.7,1.376-9.632,3.008c-2.464.832-4.992,1.728-7.008,2.56q-1.536.624-2.592,1.152a5.151,5.151,0,0,0-.9.544,2.473,2.473,0,0,0-.608.544l-.1.1-.672,6.08h19.008l-.352-2.176-.544.064-.48.1.16,1.056h-16.8l.512-4.864-.48-.064.384.288a2.212,2.212,0,0,1,.416-.352,19.338,19.338,0,0,1,1.792-.96c2.72-1.216,7.232-2.784,11.072-4,1.92-.608,3.68-1.152,4.96-1.536l1.5-.448.544-.16h.032l.032-.032a1.41,1.41,0,0,0,.576-.48,1.153,1.153,0,0,0,.192-.64,1.229,1.229,0,0,0-.288-.8,1.362,1.362,0,0,0-.64-.48,2.994,2.994,0,0,1-1.376-.96,1.978,1.978,0,0,1-.352-1.184,6.263,6.263,0,0,1,.672-2.4l-.384-.192.192.384a.373.373,0,0,0,.192-.192l-.384-.192.192.384-.16-.352v.416a.24.24,0,0,0,.16-.032l-.16-.352v.192l-.064.192h.064v-.192l-.064.192c.032,0,.064.032.1.032.288.16.576.352.864.544a2,2,0,0,1,.384.288l.192.128c.576.448,1.248.928,1.856,1.44a5.072,5.072,0,0,1,1.408,1.568,2.877,2.877,0,0,1,.256,1.152,19.665,19.665,0,0,1-.32,2.4,7.42,7.42,0,0,1-1.312,3.1,23.17,23.17,0,0,1-3.648,4.064c-.608.512-1.12.96-1.5,1.248l-.448.352-.128.1-.032.032-.192.16v1.152Z" transform="translate(-358.908 -2307.362)" fill="#c1cfd4"/>
      <path id="Path_476" data-name="Path 476" d="M386.807,2373.5v9.664a1.011,1.011,0,0,1-1.024,1.024H368.407a1.011,1.011,0,0,1-1.024-1.024h0V2373.5a1.011,1.011,0,0,1,1.024-1.024h17.376A1.011,1.011,0,0,1,386.807,2373.5Z" transform="translate(-358.704 -2345.306)" fill="#d60013"/>
      <path id="Path_477" data-name="Path 477" d="M374.683,2385.538a2.448,2.448,0,1,0,2.432-2.464,2.418,2.418,0,0,0-2.432,2.464Z" transform="translate(-363.668 -2352.514)" fill="#fff"/>
      <path id="Path_478" data-name="Path 478" d="M412.724,2345.574a3.905,3.905,0,0,0-1.248,3.264" transform="translate(-388.652 -2327.014)" fill="#e6f0f4"/>
      <path id="Path_479" data-name="Path 479" d="M411.355,2344.256a4.779,4.779,0,0,0-.736.864,4.138,4.138,0,0,0-.736,2.208,4.337,4.337,0,0,0,.064.64.527.527,0,0,0,.576.384h0a.477.477,0,0,0,.352-.576,2.113,2.113,0,0,1-.032-.448,3.066,3.066,0,0,1,.576-1.664c.128-.192.256-.352.384-.512l.128-.128.032-.032a.464.464,0,0,0,0-.672.419.419,0,0,0-.608-.064Z" transform="translate(-387.604 -2326.048)" fill="#c1cfd4"/>
    </g>
    <rect id="Rectangle_69" data-name="Rectangle 69" width="48" height="48" transform="translate(322.083 2273.974)" fill="none"/>
  </g>
</svg>
