<svg id="DEMAT" xmlns="http://www.w3.org/2000/svg" width="150" height="150" viewBox="0 0 150 150">
  <path id="Path_1123" data-name="Path 1123" d="M1.5,0h147A1.538,1.538,0,0,1,150,1.5v147a1.538,1.538,0,0,1-1.5,1.5H1.5A1.538,1.538,0,0,1,0,148.5V1.5A1.538,1.538,0,0,1,1.5,0Z" fill="none"/>
  <g id="Group_67231" data-name="Group 67231" transform="translate(2.043 11)">
    <g id="Group_382" data-name="Group 382" transform="translate(-0.042 -23)">
      <path id="Path_1124" data-name="Path 1124" d="M52.3,82.9H64.8a4.268,4.268,0,0,1,4.3,4.3v40.6a4.268,4.268,0,0,1-4.3,4.3H52.3a4.268,4.268,0,0,1-4.3-4.3V87.2A4.268,4.268,0,0,1,52.3,82.9Z" fill="#ccd9dd"/>
      <path id="Path_1125" data-name="Path 1125" d="M81,66.2H94a4.012,4.012,0,0,1,4,4V128a4.012,4.012,0,0,1-4,4H81a4.012,4.012,0,0,1-4-4V70.2A4.012,4.012,0,0,1,81,66.2Z" fill="#ccd9dd"/>
      <path id="Path_1126" data-name="Path 1126" d="M110,49.1h13a4.012,4.012,0,0,1,4,4V128a4.012,4.012,0,0,1-4,4H110a4.012,4.012,0,0,1-4-4V53.2A4.034,4.034,0,0,1,110,49.1Z" fill="#ccd9dd"/>
      <path id="Path_1127" data-name="Path 1127" d="M24.1,99.1H36.8a4.055,4.055,0,0,1,4.1,4.1v24.6a4.055,4.055,0,0,1-4.1,4.1H24.1a4.055,4.055,0,0,1-4.1-4.1V103.2A4.118,4.118,0,0,1,24.1,99.1Z" fill="#ccd9dd"/>
      <path id="Path_1128" data-name="Path 1128" d="M55.3,78.9H67.8a4.268,4.268,0,0,1,4.3,4.3v44.6a4.268,4.268,0,0,1-4.3,4.3H55.3a4.268,4.268,0,0,1-4.3-4.3V83.2A4.268,4.268,0,0,1,55.3,78.9Z" fill="#ebf3f6"/>
      <path id="Path_1129" data-name="Path 1129" d="M84,63.1H97a4.012,4.012,0,0,1,4,4V128a4.012,4.012,0,0,1-4,4H84a4.012,4.012,0,0,1-4-4V67.1A4.012,4.012,0,0,1,84,63.1Z" fill="#ebf3f6"/>
      <path id="Path_1130" data-name="Path 1130" d="M113,46h13a4.012,4.012,0,0,1,4,4v78a4.012,4.012,0,0,1-4,4H113a4.012,4.012,0,0,1-4-4V50A4.012,4.012,0,0,1,113,46Z" fill="#ebf3f6"/>
      <path id="Path_1131" data-name="Path 1131" d="M27.1,95H39.8a4.055,4.055,0,0,1,4.1,4.1v28.8a4.055,4.055,0,0,1-4.1,4.1H27.1a4.055,4.055,0,0,1-4.1-4.1V99.1A4.118,4.118,0,0,1,27.1,95Z" fill="#ebf3f6"/>
    </g>
    <path id="Union_1" data-name="Union 1" d="M4027.343,24.2a2.051,2.051,0,0,1,.5-2.8l58.5-42a2.005,2.005,0,0,1,2.7.3l5.1,5.6L4133.36-45h-5.518a2.006,2.006,0,0,1-2-2,2.006,2.006,0,0,1,2-2h11a1.975,1.975,0,0,1,1.4.6,1.973,1.973,0,0,1,.6,1.4v12a2.006,2.006,0,0,1-2,2,2.006,2.006,0,0,1-2-2v-7.634l-41.8,32.334a1.908,1.908,0,0,1-2.7-.2l-5.2-5.7-57,40.9a2.079,2.079,0,0,1-1.152.343A1.962,1.962,0,0,1,4027.343,24.2Z" transform="translate(-4011.043 46)" fill="#e0121b"/>
    <g id="Group_67232" data-name="Group 67232" transform="translate(204.208 54.445)">
      <path id="Path_76" data-name="Path 76" d="M-155.25,75.777V64.709h3.617a5.95,5.95,0,0,1,2.631.656,4.458,4.458,0,0,1,1.808,1.886,6.241,6.241,0,0,1,.658,2.705v.492a5.082,5.082,0,0,1-.658,2.705A4.458,4.458,0,0,1-149,75.039a5.021,5.021,0,0,1-2.631.656h-3.617Zm2.713-9.018v6.969h.9a2.223,2.223,0,0,0,1.809-.82,4.262,4.262,0,0,0,.657-2.459v-.492a3.5,3.5,0,0,0-.657-2.378,2.118,2.118,0,0,0-1.809-.82Z" transform="translate(0 -0.072)" fill="#d60013"/>
      <path id="Path_77" data-name="Path 77" d="M-129.36,71.022h-4.193v2.706h4.933v2.049h-7.646V64.709h7.646v2.05h-4.933v2.3h4.193Z" transform="translate(-8.872 -0.072)" fill="#d60013"/>
      <path id="Path_78" data-name="Path 78" d="M-116.371,64.709l2.466,7.625,2.466-7.625h3.535V75.777h-2.631V73.153l.247-5.329L-113,75.777h-1.809l-2.631-7.953.247,5.329v2.624h-2.713V64.709Z" transform="translate(-16.517 -0.072)" fill="#d60013"/>
      <path id="Path_79" data-name="Path 79" d="M-88.439,73.573h-3.7l-.658,2.05h-2.877l4.111-11.068h2.548L-84.9,75.623h-2.877Zm-3.042-2.049H-89.1L-90.33,67.67Z" transform="translate(-27.841 0)" fill="#d60013"/>
      <path id="Path_80" data-name="Path 80" d="M-67.4,66.759h-3.289v9.018H-73.4V66.759H-76.69v-2.05h9.29Z" transform="translate(-36.713 -0.072)" fill="#d60013"/>
    </g>
  </g>
</svg>
