<svg id="deposit_advice" xmlns="http://www.w3.org/2000/svg" width="150" height="150" viewBox="0 0 150 150">
  <rect id="Rectangle_38" data-name="Rectangle 38" width="150" height="150" transform="translate(0)" fill="none"/>
  <g id="Group_67331" data-name="Group 67331">
    <g id="Group_67329" data-name="Group 67329">
      <g id="Group_67328" data-name="Group 67328">
        <rect id="Rectangle_32" data-name="Rectangle 32" width="80.769" height="52.534" transform="translate(22.585 55.181)" fill="#c1cfd4"/>
        <rect id="Rectangle_33" data-name="Rectangle 33" width="13.604" height="53.133" transform="translate(42.949 55.095)" fill="#d8e6e9"/>
        <rect id="Rectangle_34" data-name="Rectangle 34" width="13.604" height="53.133" transform="translate(67.761 55.095)" fill="#d8e6e9"/>
        <rect id="Rectangle_35" data-name="Rectangle 35" width="13.604" height="53.133" transform="translate(92.574 55.095)" fill="#d8e6e9"/>
        <rect id="Rectangle_36" data-name="Rectangle 36" width="13.604" height="53.133" transform="translate(18.222 55.095)" fill="#d8e6e9"/>
        <path id="Path_227" data-name="Path 227" d="M9.665,107.715H114.477a3.158,3.158,0,0,1,3.166,3.151V126.2a3.159,3.159,0,0,1-3.152,3.166H9.665a3.157,3.157,0,0,1-3.165-3.15V110.881a3.106,3.106,0,0,1,3.045-3.166Z" fill="#e6f0f4"/>
        <path id="Path_228" data-name="Path 228" d="M118.5,52.015,60.146,11.288a1.674,1.674,0,0,0-2.053.086L8.125,50.047,5.473,52.1a1.751,1.751,0,0,0-.342,2.4,1.784,1.784,0,0,0,1.369.684H117.557a1.717,1.717,0,0,0,1.712-1.711A1.685,1.685,0,0,0,118.5,52.015Z" fill="#e6f0f4"/>
        <path id="Path_235" data-name="Path 235" d="M95.4,44.486,60.061,19.844a1.169,1.169,0,0,0-1.284,0l-30.2,23.444-1.625,1.2a1.016,1.016,0,0,0-.273,1.412.9.9,0,0,0,.1.128,1.055,1.055,0,0,0,.855.428H94.8a1.01,1.01,0,0,0,1.027-1.112A1.05,1.05,0,0,0,95.4,44.486Z" fill="#c1cfd4"/>
      </g>
    </g>
    <g id="Group_67330" data-name="Group 67330">
      <path id="Path_3368" data-name="Path 3368" d="M133.227,94.292a4.324,4.324,0,0,1-.256-1.384,2.406,2.406,0,0,1,.207-1.017,2.115,2.115,0,0,1,.374-.539,2.38,2.38,0,0,1,.879-.568,3.2,3.2,0,0,1,1.169-.214,3.593,3.593,0,0,1,1.93.56,3.367,3.367,0,0,1,.8.692,3.855,3.855,0,0,1,.6,1.038,1.773,1.773,0,0,1,.138.63.575.575,0,0,1-.041.242.222.222,0,0,1-.056.083.488.488,0,0,1-.179.11.967.967,0,0,1-.333.056,1.226,1.226,0,0,1-.415-.069,1.279,1.279,0,0,1-.269-.153.916.916,0,0,1-.3-.366,1.439,1.439,0,0,1-.138-.692,3.7,3.7,0,0,1,.269-1.28,6.087,6.087,0,0,1,.692-1.308,3.374,3.374,0,0,1,1.107-1.065,2.138,2.138,0,0,1,1.08-.3,2.34,2.34,0,0,1,1.169.332,3.108,3.108,0,0,1,1.038,1.024,1.252,1.252,0,0,0,2.075-1.383A5.644,5.644,0,0,0,142.9,86.9a4.835,4.835,0,0,0-2.442-.692,4.561,4.561,0,0,0-1.564.277,5.2,5.2,0,0,0-2.075,1.439,7.815,7.815,0,0,0-1.516,2.574,6.047,6.047,0,0,0-.428,2.158,4.153,4.153,0,0,0,.3,1.6,3.571,3.571,0,0,0,1.868,1.875,3.759,3.759,0,0,0,1.446.29,3.47,3.47,0,0,0,1.093-.173,3.055,3.055,0,0,0,.768-.38,2.836,2.836,0,0,0,.914-1.017,2.981,2.981,0,0,0,.262-1.329,4.28,4.28,0,0,0-.3-1.536,6.227,6.227,0,0,0-1-1.716,5.863,5.863,0,0,0-2.152-1.646,6.094,6.094,0,0,0-2.5-.533,5.812,5.812,0,0,0-1.854.3,5.309,5.309,0,0,0-1.266.63A4.513,4.513,0,0,0,131,90.632a4.794,4.794,0,0,0-.554,2.29,6.788,6.788,0,0,0,.388,2.173,1.263,1.263,0,0,0,2.394-.8Z" fill="#cad7db"/>
      <path id="Path_3369" data-name="Path 3369" d="M84.5,77.908c4.076,4.588,3.259,6.871-4.386,9.687-4.151,1.543-2.456-2.3-3.792-6.137s-5.424-4.989-3.258-6.366c2.58-1.639,9.05.125,11.436,2.8" fill="#cad7db"/>
      <path id="Path_3370" data-name="Path 3370" d="M84.5,77.908l-.235.208a13.922,13.922,0,0,1,1.765,2.394,3.934,3.934,0,0,1,.581,1.882,2.364,2.364,0,0,1-.36,1.245,5.841,5.841,0,0,1-2.076,1.834,27.065,27.065,0,0,1-4.151,1.875,4.325,4.325,0,0,1-1.439.332,1.15,1.15,0,0,1-.519-.111.768.768,0,0,1-.284-.256,2.367,2.367,0,0,1-.318-.9c-.111-.588-.152-1.384-.249-2.235a12.4,12.4,0,0,0-.574-2.768,9.731,9.731,0,0,0-2.436-3.667c-.422-.429-.8-.8-1.065-1.114a2.346,2.346,0,0,1-.3-.415.693.693,0,0,1-.09-.29.345.345,0,0,1,0-.111.528.528,0,0,1,.132-.194,1.4,1.4,0,0,1,.325-.263h0a3.572,3.572,0,0,1,1.121-.442,6.813,6.813,0,0,1,1.467-.132,13.515,13.515,0,0,1,4.7.962,13.25,13.25,0,0,1,2.152,1.065,7.487,7.487,0,0,1,1.6,1.308l.236-.208.235-.207a7.853,7.853,0,0,0-1.744-1.384,14.46,14.46,0,0,0-3.459-1.543,13.482,13.482,0,0,0-3.722-.616,7.278,7.278,0,0,0-1.592.16,4.129,4.129,0,0,0-1.321.525h0a1.987,1.987,0,0,0-.561.492,1.051,1.051,0,0,0-.207.6,1.3,1.3,0,0,0,.159.581,4.516,4.516,0,0,0,.754.934c.471.484,1.052,1.031,1.605,1.7a8.119,8.119,0,0,1,1.384,2.414,11.154,11.154,0,0,1,.5,2.318c.069.568.111,1.1.159,1.6.035.374.076.692.139,1.045a3.842,3.842,0,0,0,.186.692,1.918,1.918,0,0,0,.222.429,1.375,1.375,0,0,0,.546.477,1.732,1.732,0,0,0,.775.167,4.978,4.978,0,0,0,1.654-.367,21.278,21.278,0,0,0,5.279-2.574,5.149,5.149,0,0,0,1.321-1.384,3,3,0,0,0,.45-1.57,4.571,4.571,0,0,0-.692-2.187,14.94,14.94,0,0,0-1.84-2.477l-.235.208" fill="#cad7db"/>
      <path id="Path_3371" data-name="Path 3371" d="M135.932,105.079a33.524,33.524,0,0,0-5.653-18.169c-6.566-9.86-20.2-11.8-30.691-11.389a60.53,60.53,0,0,0-8.621.928A9.7,9.7,0,0,0,88.7,72.235c-2.366-3-9.133-5.279-11.976-3.7-2.387,1.329,1.889,2.809,3.065,6.968a18.669,18.669,0,0,1,.484,4.469A24.154,24.154,0,0,0,67.415,96.838H62.731a3.156,3.156,0,0,0-3.155,3.155V117.1a3.161,3.161,0,0,0,3.155,3.161H70.66a24.055,24.055,0,0,0,10.959,9.687c.187.083.388.152.582.235l-.879,4.843a2.374,2.374,0,0,0,2.145,2.532l6.095,1.107a2.369,2.369,0,0,0,2.892-1.612l.734-4.013a68.43,68.43,0,0,0,16.093.125l.692,3.888a2.373,2.373,0,0,0,2.9,1.612l6.088-1.107a2.375,2.375,0,0,0,2.145-2.532l-.692-3.978c10.074-3.584,15.381-14.876,15.512-25.925" fill="#cad7db"/>
      <path id="Path_3372" data-name="Path 3372" d="M135.932,105.079h.311v-.312a33.941,33.941,0,0,0-5.714-18.03,21.5,21.5,0,0,0-5.605-5.687,31.232,31.232,0,0,0-10.98-4.65,52.981,52.981,0,0,0-11.762-1.245c-.879,0-1.743,0-2.581.055a61.375,61.375,0,0,0-8.669.927l.055.312.305-.049a6.169,6.169,0,0,0-.734-2.027,16.8,16.8,0,0,0-1.612-2.332,8.661,8.661,0,0,0-1.882-1.7,15.657,15.657,0,0,0-3.853-1.9,13.187,13.187,0,0,0-4.069-.74,5.382,5.382,0,0,0-2.573.554h0a2.148,2.148,0,0,0-.644.512,1.2,1.2,0,0,0-.173.318.928.928,0,0,0-.055.339,1.434,1.434,0,0,0,.152.6,5.256,5.256,0,0,0,.74,1.024c.464.539,1.045,1.155,1.578,1.9a8.348,8.348,0,0,1,1.321,2.629,11.58,11.58,0,0,1,.381,2.311c.055.747.062,1.452.09,2.075h.311l-.145-.277a24.925,24.925,0,0,0-8.476,7.078,25.876,25.876,0,0,0-4.545,10l.311.069v-.311H62.731a3.459,3.459,0,0,0-3.459,3.459V117.1a3.459,3.459,0,0,0,3.459,3.459h7.611a2.855,2.855,0,0,0,.346,0v-.311l-.27.159a24.424,24.424,0,0,0,11.07,9.824h0c.207.09.4.16.588.229l.118-.284-.312-.055-.872,4.843a1.732,1.732,0,0,0,0,.367,2.365,2.365,0,0,0,.692,1.626,3.193,3.193,0,0,0,1.73.9l6.089,1.107a3.1,3.1,0,0,0,.615.055,2.966,2.966,0,0,0,1.716-.519,2.188,2.188,0,0,0,.934-1.383l.727-4.013-.305-.056-.041.312a63.815,63.815,0,0,0,8.392.539,73.729,73.729,0,0,0,7.777-.415v-.311l-.311.055.692,3.889a2.154,2.154,0,0,0,.927,1.383,2.966,2.966,0,0,0,1.716.519,3.093,3.093,0,0,0,.615-.055l6.089-1.107a3.173,3.173,0,0,0,1.73-.9,2.33,2.33,0,0,0,.692-1.626,2.248,2.248,0,0,0,0-.367l-.692-3.978-.305.055.1.3a20.048,20.048,0,0,0,6.76-4.075,26.058,26.058,0,0,0,6.566-9.963,34.8,34.8,0,0,0,2.331-12.225h-.622a33.225,33.225,0,0,1-3.992,15.615,23.609,23.609,0,0,1-4.761,6.075,19.529,19.529,0,0,1-6.552,3.951.312.312,0,0,0-.207.346l.692,3.978a1.821,1.821,0,0,1,0,.256,1.722,1.722,0,0,1-.526,1.19,2.506,2.506,0,0,1-1.384.692l-6.089,1.107a2.513,2.513,0,0,1-.5.048,2.341,2.341,0,0,1-1.383-.408,1.565,1.565,0,0,1-.692-1l-.692-3.882a.313.313,0,0,0-.339-.256,74.334,74.334,0,0,1-7.708.416,62.8,62.8,0,0,1-8.3-.54.318.318,0,0,0-.353.256l-.727,4.006a1.552,1.552,0,0,1-.692,1,2.364,2.364,0,0,1-1.383.408,2.454,2.454,0,0,1-.5-.048l-6.095-1.107a2.556,2.556,0,0,1-1.384-.692,1.722,1.722,0,0,1-.526-1.19,1.217,1.217,0,0,1,0-.256L82.4,130.2a.31.31,0,0,0-.187-.346c-.2-.083-.4-.152-.574-.228h0a23.843,23.843,0,0,1-10.683-9.562.319.319,0,0,0-.3-.146,1.683,1.683,0,0,1-.284,0h-7.61a2.836,2.836,0,0,1-2.878-2.794V100a2.843,2.843,0,0,1,2.837-2.85h4.691a.311.311,0,0,0,.3-.243,25.085,25.085,0,0,1,4.394-9.755,24.27,24.27,0,0,1,8.3-6.919.3.3,0,0,0,.167-.29c0-.623-.035-1.343-.09-2.111a12.178,12.178,0,0,0-.4-2.428,10.324,10.324,0,0,0-2.3-3.944c-.422-.484-.8-.9-1.072-1.252a3.16,3.16,0,0,1-.305-.471.8.8,0,0,1-.089-.325.36.36,0,0,1,0-.131.571.571,0,0,1,.152-.215,1.779,1.779,0,0,1,.38-.277h0a4.688,4.688,0,0,1,2.27-.47A13.478,13.478,0,0,1,84.3,69.53a13.743,13.743,0,0,1,2.415,1.294A8.119,8.119,0,0,1,88.462,72.4a16.207,16.207,0,0,1,1.529,2.242,5.478,5.478,0,0,1,.692,1.819.321.321,0,0,0,.131.208.283.283,0,0,0,.236.055,60.99,60.99,0,0,1,8.579-.92c.837-.035,1.688-.048,2.56-.048a48.21,48.21,0,0,1,15.464,2.311,27.677,27.677,0,0,1,6.918,3.459,20.913,20.913,0,0,1,5.446,5.535,33.272,33.272,0,0,1,5.6,17.678v.3h.311" fill="#cad7db"/>
      <path id="Path_3373" data-name="Path 3373" d="M76.4,69.191a.421.421,0,0,0-.07.166.411.411,0,0,0,0,.131.9.9,0,0,0,.083.263,1.174,1.174,0,0,0,.07.125,8.483,8.483,0,0,0,.927,1.162l.422.484a10.845,10.845,0,0,1,2.075,3.363c.063.173.118.353.173.533a14.116,14.116,0,0,1,.45,3.265v1.135a.794.794,0,0,1,0,.138.3.3,0,0,1-.166.291,24.076,24.076,0,0,0-12.648,16.66v.077a.362.362,0,0,1-.138.131.321.321,0,0,1-.138,0H62.731a2.851,2.851,0,0,0-2.844,2.857V117.1a2.843,2.843,0,0,0,2.844,2.843h.394c-2.145-.892-2.345-9.271-2.041-12.391.229-2.332,0-4.629.5-6.919.346-1.633,1.626-1.868,3.065-1.868h1.806a4.163,4.163,0,0,0,2.021-.381c1.418-.809,1.044-2.989,1.667-4.421a34,34,0,0,1,3.28-5.833,20.168,20.168,0,0,1,7.064-6.178c3.75-2.242-.1-9.942-4.082-12.821" fill="#cad7db"/>
      <path id="Path_3374" data-name="Path 3374" d="M67.692,96.984a.372.372,0,0,1-.139.131.372.372,0,0,0,.139-.131m12.89-17.3h0m0-.983v.623h0V78.69m-2.747-7.175a10.925,10.925,0,0,1,2.075,3.363,10.845,10.845,0,0,0-2.075-3.363m-1.5-2.034a1.069,1.069,0,0,0,.153.388,1.174,1.174,0,0,1-.07-.125.887.887,0,0,1-.083-.263" fill="#cad7db"/>
      <path id="Path_3375" data-name="Path 3375" d="M102.168,75.784h0c-.872,0-1.723,0-2.56.049l-.823.041a60.344,60.344,0,0,0-7.209.789,2.4,2.4,0,0,1-.326.048l-.228.042h0a.058.058,0,0,0-.041,0c2.857-.152,5.784-.284,8.724-.284,10.586,0,21.393,1.716,30.277,10.5-6.49-9.617-19.843-11.174-27.468-11.215H102.2" fill="#cad7db"/>
      <path id="Path_3376" data-name="Path 3376" d="M91.25,76.711a.975.975,0,0,0-.256.049h0l.229-.042m10.938-.934c-.844,0-1.7,0-2.56.049l-.823.041.823-.041c.838-.035,1.689-.049,2.56-.049h0" fill="#cad7db"/>
      <path id="Path_3377" data-name="Path 3377" d="M79.08,92.583c0,2.975-4.622,3.031-4.622,0A2.311,2.311,0,0,1,79.08,92.583Z" fill="#cad7db"/>
      <path id="Path_3378" data-name="Path 3378" d="M135.614,104.359a27.726,27.726,0,0,1-2.339,9.147c-1.736,3.978-3.722,8.461-7.1,11.354a33.539,33.539,0,0,1-5.418,3.86c-1.335.741-2.228,1.024-1.757,2.768.193.692.214,1.591.4,2.311.6,2.276-2.767,3.258-5.238,3.258a6.349,6.349,0,0,1-1.612-.179c-1.176-.326-1.01-1.751-1.293-2.941-.443-1.861-1.384-2.283-2.6-2.283-.906,0-1.993.235-3.176.283-1.335.063-2.691.146-4.04.146a21.757,21.757,0,0,1-3.072-.194,28.408,28.408,0,0,0-4.186-.692,2.227,2.227,0,0,0-2.484,1.661c-.692,2.643-1.059,3.985-3.39,3.985a10.585,10.585,0,0,1-1.758-.18c-2.214-.387-4.22-.643-4.635-3.079l-.145.817-.118.691a1.1,1.1,0,0,0,0,.256,1.716,1.716,0,0,0,.526,1.191,2.508,2.508,0,0,0,.837.56,2.816,2.816,0,0,0,.553.159l6.1,1.107a2.827,2.827,0,0,0,.477.049,2.008,2.008,0,0,0,2.076-1.343V137L92.945,133a.313.313,0,0,1,.305-.256H93.3l.533.069a62.816,62.816,0,0,0,7.791.464c2.158,0,4.372-.1,6.586-.3l1.107-.11h0a.3.3,0,0,1,.305.256l.415,2.269.291,1.612a.515.515,0,0,0,0,.111,1.984,1.984,0,0,0,2.006,1.3,2.443,2.443,0,0,0,.5-.048l6.089-1.107a3.253,3.253,0,0,0,.519-.145,2.338,2.338,0,0,0,.871-.575,1.712,1.712,0,0,0,.526-1.19h0a1.166,1.166,0,0,0,0-.221l-.692-3.978a.322.322,0,0,1,.111-.3.438.438,0,0,1,.1-.048,19.334,19.334,0,0,0,3.286-1.543h0c8-4.726,11.762-14.82,12-23.683v-.415h0v-.713" fill="#cad7db"/>
      <path id="Path_3379" data-name="Path 3379" d="M110.021,135.335l.291,1.612a.506.506,0,0,0,0,.11.506.506,0,0,1,0-.11l-.291-1.612m10.835-.07h0a1.712,1.712,0,0,1-.526,1.19,2.334,2.334,0,0,1-.872.575,2.014,2.014,0,0,0,1.384-1.792m0,0h0m-39.084-.879-.118.692a1.916,1.916,0,0,0,1.335,2.006,2.493,2.493,0,0,1-.837-.56,1.722,1.722,0,0,1-.526-1.19,1.217,1.217,0,0,1,0-.256l.118-.692m27.509-1.57h0l-1.107.11,1.107-.11h0m-16.079-.125a.31.31,0,0,0-.3.256l-.727,4.006h0l.727-4.006a.311.311,0,0,1,.311-.256h.041l.533.069-.533-.069H93.16m30.4-3.515a19.259,19.259,0,0,1-3.286,1.543.4.4,0,0,0-.1.049.4.4,0,0,1,.1-.049,18.818,18.818,0,0,0,3.286-1.543m0,0h0m12.06-24.077h0m0-.1v.1h0v-.1" fill="#cad7db"/>
      <path id="Path_3380" data-name="Path 3380" d="M96.626,80.046a29.281,29.281,0,0,1,6.158-.615,37.843,37.843,0,0,1,9.133,1.127.935.935,0,1,0,.463-1.812,39.749,39.749,0,0,0-9.6-1.19,30.709,30.709,0,0,0-6.573.691.935.935,0,0,0,.4,1.827h0Z" fill="#cad7db"/>
      <path id="Path_3381" data-name="Path 3381" d="M133.386,92.908a4.32,4.32,0,0,1-.249-1.383,2.31,2.31,0,0,1,.207-1.017,1.858,1.858,0,0,1,.367-.547,2.463,2.463,0,0,1,.879-.567,3.374,3.374,0,0,1,1.176-.208,3.642,3.642,0,0,1,1.93.56,3.463,3.463,0,0,1,.8.692,3.832,3.832,0,0,1,.6,1.031,1.841,1.841,0,0,1,.145.637.513.513,0,0,1-.041.235.255.255,0,0,1-.062.083.426.426,0,0,1-.18.118.9.9,0,0,1-.332.055,1.24,1.24,0,0,1-.409-.076.959.959,0,0,1-.276-.145,1.05,1.05,0,0,1-.3-.367,1.543,1.543,0,0,1-.138-.692,3.729,3.729,0,0,1,.27-1.28,6.221,6.221,0,0,1,.691-1.308,3.365,3.365,0,0,1,1.1-1.065,2.13,2.13,0,0,1,1.079-.291,2.356,2.356,0,0,1,1.176.332,3.193,3.193,0,0,1,1.031,1.018,1.253,1.253,0,0,0,2.2-1.2,1.309,1.309,0,0,0-.124-.186,5.652,5.652,0,0,0-1.868-1.82,4.851,4.851,0,0,0-2.443-.692,4.7,4.7,0,0,0-1.563.27,5.334,5.334,0,0,0-2.076,1.439,7.885,7.885,0,0,0-1.515,2.574,6.209,6.209,0,0,0-.429,2.159,3.994,3.994,0,0,0,.276,1.695,3.472,3.472,0,0,0,1.862,1.875,3.669,3.669,0,0,0,1.446.3,3.442,3.442,0,0,0,1.093-.173,3.117,3.117,0,0,0,.775-.38,2.875,2.875,0,0,0,.906-1.017,3.06,3.06,0,0,0,.339-1.419,4.288,4.288,0,0,0-.311-1.536,6.259,6.259,0,0,0-1-1.716,5.966,5.966,0,0,0-2.166-1.646,6.09,6.09,0,0,0-2.491-.533,5.726,5.726,0,0,0-1.854.3,5.024,5.024,0,0,0-1.266.629,4.619,4.619,0,0,0-1.46,1.612,4.844,4.844,0,0,0-.547,2.3,6.79,6.79,0,0,0,.381,2.173,1.252,1.252,0,0,0,2.366-.8Z" fill="#eaf2f5"/>
      <path id="Path_3382" data-name="Path 3382" d="M84.311,76.525c4.075,4.58,3.252,6.863-4.394,9.686-4.151,1.543-2.449-2.3-3.784-6.144s-5.425-4.988-3.259-6.365c2.581-1.64,9.05.131,11.437,2.809" fill="#eaf2f5"/>
      <path id="Path_3383" data-name="Path 3383" d="M84.311,76.525l-.235.207a13.969,13.969,0,0,1,1.764,2.394A3.882,3.882,0,0,1,86.414,81a2.375,2.375,0,0,1-.353,1.252,5.872,5.872,0,0,1-2.075,1.827,26.688,26.688,0,0,1-4.152,1.882,4.474,4.474,0,0,1-1.439.325,1.1,1.1,0,0,1-.526-.111.719.719,0,0,1-.276-.249,2.177,2.177,0,0,1-.319-.9c-.11-.6-.152-1.384-.249-2.235a12.868,12.868,0,0,0-.574-2.767,9.86,9.86,0,0,0-2.435-3.667c-.422-.436-.8-.8-1.073-1.114a2.64,2.64,0,0,1-.29-.415.683.683,0,0,1-.09-.291.26.26,0,0,1,0-.111.535.535,0,0,1,.131-.2,1.783,1.783,0,0,1,.325-.263h0a3.489,3.489,0,0,1,1.121-.436,6.759,6.759,0,0,1,1.453-.146,13.582,13.582,0,0,1,4.7.962,12.709,12.709,0,0,1,2.152,1.066A7.267,7.267,0,0,1,84.1,76.732l.235-.207.229-.208a8.038,8.038,0,0,0-1.737-1.425,14.629,14.629,0,0,0-3.459-1.536,13.383,13.383,0,0,0-3.695-.581,7.267,7.267,0,0,0-1.591.159,4.131,4.131,0,0,0-1.315.519h0a1.893,1.893,0,0,0-.56.5.977.977,0,0,0-.159.29.947.947,0,0,0-.049.312,1.22,1.22,0,0,0,.159.581,4.521,4.521,0,0,0,.741.934c.463.484,1.051,1.031,1.6,1.7a7.76,7.76,0,0,1,1.384,2.415A11.21,11.21,0,0,1,76.4,82.5c.069.561.11,1.1.159,1.6a5.593,5.593,0,0,0,.138,1.038,3.923,3.923,0,0,0,.18.691,1.983,1.983,0,0,0,.228.429,1.391,1.391,0,0,0,.54.478,1.775,1.775,0,0,0,.782.166,5,5,0,0,0,1.653-.374,20.993,20.993,0,0,0,5.2-2.56,5.163,5.163,0,0,0,1.322-1.383,3.025,3.025,0,0,0,.45-1.578,4.584,4.584,0,0,0-.692-2.179A14.6,14.6,0,0,0,84.5,76.352l-.228.207" fill="#eaf2f5"/>
      <path id="Path_3384" data-name="Path 3384" d="M135.738,103.688a33.558,33.558,0,0,0-5.659-18.162c-6.539-9.859-20.2-11.81-30.685-11.388a61.7,61.7,0,0,0-8.628.92,9.757,9.757,0,0,0-2.256-4.214c-2.331-3-9.132-5.279-11.976-3.694-2.394,1.321,1.882,2.767,3.065,6.967a18.674,18.674,0,0,1,.484,4.469A24.13,24.13,0,0,0,67.214,95.455H62.537a3.162,3.162,0,0,0-3.162,3.155v17.11a3.163,3.163,0,0,0,3.162,3.155h7.922a24.115,24.115,0,0,0,10.967,9.686c.186.083.387.152.574.228l-.872,4.844a2.365,2.365,0,0,0,2.145,2.525l6.089,1.107a2.366,2.366,0,0,0,2.9-1.612l.692-4.006a68.868,68.868,0,0,0,16.1.124l.692,3.882a2.357,2.357,0,0,0,2.892,1.612l6.1-1.107a2.37,2.37,0,0,0,2.145-2.525l-.692-3.979c10.081-3.584,15.38-14.875,15.519-25.931" fill="#eaf2f5"/>
      <path id="Path_3385" data-name="Path 3385" d="M135.738,103.688h.312v-.311a33.939,33.939,0,0,0-5.708-18.031,21.525,21.525,0,0,0-5.611-5.687,31.1,31.1,0,0,0-10.974-4.65A53.1,53.1,0,0,0,102,73.764c-.878,0-1.743,0-2.587.055a61.388,61.388,0,0,0-8.67.927l.056.305.311-.042a6.317,6.317,0,0,0-.775-2.027,16.972,16.972,0,0,0-1.591-2.325,8.667,8.667,0,0,0-1.868-1.708,15.842,15.842,0,0,0-3.854-1.9,13.179,13.179,0,0,0-4.068-.734,5.3,5.3,0,0,0-2.574.554h0a2.078,2.078,0,0,0-.644.512,1.077,1.077,0,0,0-.235.65,1.389,1.389,0,0,0,.159.609,5.373,5.373,0,0,0,.734,1.024c.47.54,1.044,1.156,1.584,1.9A8.411,8.411,0,0,1,79.288,74.2a11.59,11.59,0,0,1,.387,2.311c.056.74.062,1.446.09,2.075h.311l-.145-.276a24.943,24.943,0,0,0-8.517,7.078,25.811,25.811,0,0,0-4.5,10l.3.07v-.312H62.537a3.46,3.46,0,0,0-3.459,3.46V115.72a3.459,3.459,0,0,0,3.459,3.459h7.611a3.33,3.33,0,0,0,.346,0l-.035-.311-.263.159a24.347,24.347,0,0,0,11.07,9.818h0c.2.09.4.159.582.235l.117-.291-.3-.055-.879,4.843a2.25,2.25,0,0,0,0,.367,2.325,2.325,0,0,0,.692,1.626,3.223,3.223,0,0,0,1.73.9l6.088,1.107a3.659,3.659,0,0,0,.609.056,3.02,3.02,0,0,0,1.723-.519,2.173,2.173,0,0,0,.927-1.384l.733-4.006-.311-.055-.041.3a63.061,63.061,0,0,0,8.4.54,73.867,73.867,0,0,0,7.77-.415v-.3l-.311.056.691,3.881a2.2,2.2,0,0,0,.928,1.384,3.019,3.019,0,0,0,1.722.519,3.65,3.65,0,0,0,.609-.056l6.1-1.107a3.283,3.283,0,0,0,1.729-.9,2.357,2.357,0,0,0,.692-1.626,2.046,2.046,0,0,0,0-.367l-.692-3.978-.311.055.1.3a20.106,20.106,0,0,0,6.766-4.075,26.3,26.3,0,0,0,6.629-9.922,35.04,35.04,0,0,0,2.331-12.226h-.622a33.215,33.215,0,0,1-3.993,15.616,23.887,23.887,0,0,1-4.767,6.075,19.36,19.36,0,0,1-6.552,3.944.31.31,0,0,0-.2.353l.692,3.978a1.1,1.1,0,0,1,0,.256,1.722,1.722,0,0,1-.526,1.19,2.615,2.615,0,0,1-1.384.692l-6.1,1.107a3.071,3.071,0,0,1-.5.041,2.3,2.3,0,0,1-1.383-.4,1.577,1.577,0,0,1-.692-1l-.692-3.882a.305.305,0,0,0-.339-.256,74.894,74.894,0,0,1-7.708.409,62.8,62.8,0,0,1-8.3-.533.311.311,0,0,0-.346.256l-.734,4.006a1.549,1.549,0,0,1-.692,1,2.3,2.3,0,0,1-1.383.4,3.092,3.092,0,0,1-.5-.041l-6.088-1.107a2.563,2.563,0,0,1-1.384-.692,1.718,1.718,0,0,1-.526-1.19,1.562,1.562,0,0,1,0-.256l.879-4.843a.3.3,0,0,0-.187-.339c-.207-.09-.4-.153-.581-.229h0a23.786,23.786,0,0,1-10.731-9.6.3.3,0,0,0-.3-.145H62.558a2.844,2.844,0,0,1-2.851-2.837V98.61a2.844,2.844,0,0,1,2.844-2.844h4.684a.311.311,0,0,0,.263-.242,25.217,25.217,0,0,1,4.393-9.763,24.346,24.346,0,0,1,8.3-6.919.322.322,0,0,0,.166-.29,17.694,17.694,0,0,0-.09-2.11,12.568,12.568,0,0,0-.408-2.429,10.246,10.246,0,0,0-2.3-3.944c-.415-.491-.8-.906-1.066-1.252a3.144,3.144,0,0,1-.3-.47.76.76,0,0,1-.09-.333.43.43,0,0,1,0-.124.53.53,0,0,1,.145-.221,2.027,2.027,0,0,1,.388-.27h0a4.737,4.737,0,0,1,2.269-.478,13.724,13.724,0,0,1,5.182,1.211,14.3,14.3,0,0,1,2.443,1.308,8.3,8.3,0,0,1,1.729,1.6,16.874,16.874,0,0,1,1.523,2.242,5.812,5.812,0,0,1,.692,1.826.309.309,0,0,0,.124.208.33.33,0,0,0,.242.055,61.02,61.02,0,0,1,8.58-.92c.837-.035,1.688-.055,2.56-.055a48.313,48.313,0,0,1,15.449,2.311,27.667,27.667,0,0,1,6.919,3.459,20.8,20.8,0,0,1,5.452,5.535,33.417,33.417,0,0,1,5.6,17.684v.305h.312" fill="#eaf2f5"/>
      <path id="Path_3386" data-name="Path 3386" d="M76.209,67.807a.568.568,0,0,0-.076.166.369.369,0,0,0,0,.124,1.152,1.152,0,0,0,.159.395,8.364,8.364,0,0,0,.927,1.162l.415.478A10.845,10.845,0,0,1,79.71,73.5c.062.173.117.346.166.533a13.736,13.736,0,0,1,.45,3.259v.982a1.4,1.4,0,0,1,0,.159v.139a.318.318,0,0,1-.167.29A24.1,24.1,0,0,0,67.5,95.524a.266.266,0,0,1,0,.069.279.279,0,0,1-.131.138.327.327,0,0,1-.146,0H62.537a2.85,2.85,0,0,0-2.85,2.844V115.72a2.85,2.85,0,0,0,2.85,2.843h.4c-2.152-.892-2.353-9.278-2.041-12.4.221-2.325,0-4.622.5-6.919.346-1.626,1.626-1.861,3.058-1.861H66.26A4.15,4.15,0,0,0,68.28,97c1.384-.816,1.038-2.989,1.667-4.428a34.136,34.136,0,0,1,3.273-5.825,20.122,20.122,0,0,1,7.071-6.179c3.75-2.242-.1-9.949-4.082-12.82" fill="#eaf2f5"/>
      <path id="Path_3387" data-name="Path 3387" d="M67.5,95.593a.279.279,0,0,1-.131.138.279.279,0,0,0,.131-.138m12.89-17.3a1.406,1.406,0,0,1,0,.159,1.406,1.406,0,0,0,0-.159m0-.983v.623h0v-.643m-2.754-7.161A10.925,10.925,0,0,1,79.71,73.5a10.845,10.845,0,0,0-2.076-3.369m-1.5-2.035a1,1,0,0,0,.159.395,1.152,1.152,0,0,1-.159-.395" fill="#eaf2f5"/>
      <path id="Path_3388" data-name="Path 3388" d="M78.886,91.193c0,2.982-4.621,3.03-4.621,0A2.311,2.311,0,0,1,78.886,91.193Z" fill="#eaf2f5"/>
      <path id="Path_3389" data-name="Path 3389" d="M135.42,102.975a27.7,27.7,0,0,1-2.338,9.14c-1.737,3.985-3.723,8.462-7.1,11.361a33.836,33.836,0,0,1-5.425,3.854c-1.328.74-2.22,1.024-1.75,2.767.194.692.208,1.591.4,2.3.6,2.283-2.767,3.259-5.244,3.259a6.285,6.285,0,0,1-1.6-.18c-1.177-.318-1.01-1.744-1.294-2.934-.443-1.861-1.384-2.283-2.6-2.283-.913,0-1.992.228-3.175.284-1.336.062-2.692.145-4.041.145a20.5,20.5,0,0,1-3.072-.2,28.338,28.338,0,0,0-4.193-.691,2.223,2.223,0,0,0-2.477,1.66c-.692,2.643-1.058,3.978-3.4,3.978a10.472,10.472,0,0,1-1.757-.173c-2.214-.387-4.214-.643-4.629-3.078l-.152.816-.118.692a1.562,1.562,0,0,0,0,.256,1.718,1.718,0,0,0,.526,1.19,2.48,2.48,0,0,0,.83.56,2.873,2.873,0,0,0,.561.159l6.088,1.107a2.74,2.74,0,0,0,.478.042,2.013,2.013,0,0,0,2.075-1.342V135.6l.734-4.006a.311.311,0,0,1,.3-.256h.042l.533.07a62.98,62.98,0,0,0,7.79.463c2.166,0,4.373-.1,6.594-.3l1.107-.1h0a.318.318,0,0,1,.3.256l.415,2.276.291,1.612v.111a1.992,1.992,0,0,0,2.013,1.294,2.963,2.963,0,0,0,.5-.042l6.1-1.107a2.846,2.846,0,0,0,.512-.145,2.494,2.494,0,0,0,.879-.574,1.717,1.717,0,0,0,.525-1.19v-.035h0V133.7l-.691-3.979a.3.3,0,0,1,.11-.3.418.418,0,0,1,.09-.055,18.652,18.652,0,0,0,3.294-1.536h0c8-4.726,11.762-14.821,12.011-23.684v-.415h0v-.712" fill="#eaf2f5"/>
      <path id="Path_3390" data-name="Path 3390" d="M109.827,133.951l.291,1.612h0l-.291-1.612m10.835-.076v.034a1.712,1.712,0,0,1-.526,1.19,2.484,2.484,0,0,1-.878.575,2.016,2.016,0,0,0,1.384-1.8m0,0h0M81.55,133l-.117.692a1.928,1.928,0,0,0,1.335,2.006,2.47,2.47,0,0,1-.83-.56,1.714,1.714,0,0,1-.526-1.19,1.562,1.562,0,0,1,0-.256l.117-.692m27.517-1.571h0l-1.107.1,1.107-.1h0m-16.08-.124a.31.31,0,0,0-.3.256l-.734,4.006h0l.734-4.006a.31.31,0,0,1,.3-.256h.042l.532.069-.532-.069h-.042m30.4-3.515a18.544,18.544,0,0,1-3.294,1.536.422.422,0,0,0-.09.056.422.422,0,0,1,.09-.056,18.863,18.863,0,0,0,3.294-1.536m0,0h0m12.059-24.1h0m0-.1v.1h0v-.1" fill="#eaf2f5"/>
      <path id="Path_3391" data-name="Path 3391" d="M110.346,96.07h-3.881a5.364,5.364,0,0,0-1.017-2.456h0c-.049-.069-.111-.131-.159-.194h5.057a1.328,1.328,0,0,0,.192-2.65,1.538,1.538,0,0,0-.192,0H93.838a1.328,1.328,0,0,0-.192,2.65,1.229,1.229,0,0,0,.192,0h4.414a9.89,9.89,0,0,1,2.961.416,4.148,4.148,0,0,1,2.118,1.383h0a2.8,2.8,0,0,1,.429.865H93.838a1.328,1.328,0,0,0-.192,2.65,1.231,1.231,0,0,0,.192,0h9.686a5.7,5.7,0,0,1-.92,1.536,5.053,5.053,0,0,1-2.491,1.543,11.95,11.95,0,0,1-3.341.394h-.831a1.321,1.321,0,0,0-1.079,2.145l10,12.579a1.325,1.325,0,1,0,2.1-1.611l-.029-.036L98.584,104.76a12.394,12.394,0,0,0,2.277-.422,7.614,7.614,0,0,0,3.75-2.38,8.218,8.218,0,0,0,1.688-3.252h4.047a1.328,1.328,0,0,0,.192-2.65,1.538,1.538,0,0,0-.192,0Z" fill="#df0f1b"/>
      <path id="Path_3392" data-name="Path 3392" d="M93.741,80.766h0a28.122,28.122,0,0,1,7.216-.837,33.858,33.858,0,0,1,9.493,1.383,1.5,1.5,0,1,0,.823-2.878h0a36.78,36.78,0,0,0-10.316-1.467,30.885,30.885,0,0,0-8.053.955,1.474,1.474,0,0,0,.837,2.823Z" fill="#cad7db"/>
    </g>
  </g>
</svg>
