<svg xmlns="http://www.w3.org/2000/svg" width="48" height="48" viewBox="0 0 48 48">
  <g id="Group_22882" data-name="Group 22882" transform="translate(-968 -5374)">
    <g id="Group_238" data-name="Group 238" transform="translate(970.56 5377.84)">
      <path id="Path_697" data-name="Path 697" d="M391.992,3665.266H352.344a1.715,1.715,0,0,1-1.7-1.729v-33.216a1.714,1.714,0,0,1,1.7-1.728h39.648a1.715,1.715,0,0,1,1.7,1.728v33.216A1.715,1.715,0,0,1,391.992,3665.266Z" transform="translate(-350.648 -3625.009)" fill="#c1cfd4"/>
      <path id="Rectangle_131" data-name="Rectangle 131" d="M5.3,0H36.812a5.3,5.3,0,0,1,5.3,5.3V32.012a5.3,5.3,0,0,1-5.3,5.3H5.3a5.3,5.3,0,0,1-5.3-5.3V5.3A5.3,5.3,0,0,1,5.3,0Z" transform="translate(1.12 2.944)" fill="#e6f0f4"/>
      <path id="Path_698" data-name="Path 698" d="M398.339,3676.145h-34.3a1.079,1.079,0,0,1-1.088-1.088v-25.376a1.079,1.079,0,0,1,1.088-1.088h34.3a1.079,1.079,0,0,1,1.088,1.088v25.376A1.1,1.1,0,0,1,398.339,3676.145Z" transform="translate(-359.011 -3638.609)" fill="#c1cfd4"/>
      <path id="Rectangle_132" data-name="Rectangle 132" d="M2.9,0H6.892a2.9,2.9,0,0,1,2.9,2.9V6.988a2.9,2.9,0,0,1-2.9,2.9H2.9A2.9,2.9,0,0,1,0,6.988V2.9A2.9,2.9,0,0,1,2.9,0Z" transform="translate(28.256 14.016)" fill="#e6f0f4"/>
      <path id="Rectangle_133" data-name="Rectangle 133" d="M2.9,0H6.988a2.9,2.9,0,0,1,2.9,2.9V6.988a2.9,2.9,0,0,1-2.9,2.9H2.9A2.9,2.9,0,0,1,0,6.988V2.9A2.9,2.9,0,0,1,2.9,0Z" transform="translate(17.12 14.016)" fill="#e6f0f4"/>
      <rect id="Rectangle_134" data-name="Rectangle 134" width="9.888" height="9.792" rx="2.9" transform="translate(28.16 25.184)" fill="#d60013"/>
      <rect id="Rectangle_135" data-name="Rectangle 135" width="9.888" height="9.792" rx="2.9" transform="translate(17.12 25.184)" fill="#e6f0f4"/>
      <path id="Path_699" data-name="Path 699" d="M378.375,3705.949h-8a.929.929,0,0,1-.928-.928v-8a.929.929,0,0,1,.928-.928h8.032a.929.929,0,0,1,.928.928v8.032A.974.974,0,0,1,378.375,3705.949Z" transform="translate(-363.431 -3670.909)" fill="#e6f0f4"/>
      <path id="Path_700" data-name="Path 700" d="M364.131,3638.062a1.184,1.184,0,1,1,1.184-1.184A1.161,1.161,0,0,1,364.131,3638.062Z" transform="translate(-359.011 -3629.838)" fill="#98a9ad"/>
      <path id="Path_701" data-name="Path 701" d="M378.9,3625.617h0a1.147,1.147,0,0,1-1.152-1.152v-5.92a1.152,1.152,0,1,1,2.3,0v5.92A1.147,1.147,0,0,1,378.9,3625.617Z" transform="translate(-369.075 -3617.393)" fill="#d60013"/>
      <path id="Path_702" data-name="Path 702" d="M470.732,3638.062a1.184,1.184,0,1,0-1.184-1.184A1.181,1.181,0,0,0,470.732,3638.062Z" transform="translate(-431.5 -3629.838)" fill="#98a9ad"/>
      <path id="Path_703" data-name="Path 703" d="M456.1,3625.617h0a1.147,1.147,0,0,0,1.152-1.152v-5.92a1.152,1.152,0,1,0-2.3,0v5.92A1.147,1.147,0,0,0,456.1,3625.617Z" transform="translate(-421.571 -3617.393)" fill="#d60013"/>
      <path id="Path_704" data-name="Path 704" d="M450.8,3701.833h-1.088a1.393,1.393,0,0,0-.288-.672c0-.032-.032-.032-.064-.064h1.44a.384.384,0,0,0,.384-.352.363.363,0,0,0-.384-.352h-4.672a.384.384,0,0,0-.384.352.363.363,0,0,0,.384.352h1.248a2.386,2.386,0,0,1,.832.128,1.173,1.173,0,0,1,.608.384.788.788,0,0,1,.128.224h-2.816a.384.384,0,0,0-.384.352.363.363,0,0,0,.384.352h2.752a1.319,1.319,0,0,1-.256.416,1.23,1.23,0,0,1-.7.416,3.061,3.061,0,0,1-.96.1h-.224a.368.368,0,0,0-.352.192.336.336,0,0,0,.032.384l2.848,3.488a.365.365,0,0,0,.576-.448l-2.368-2.912a4.519,4.519,0,0,0,.64-.128,2.145,2.145,0,0,0,1.056-.64,2.42,2.42,0,0,0,.48-.9H450.8a.384.384,0,0,0,.384-.352A.36.36,0,0,0,450.8,3701.833Z" transform="translate(-415.315 -3673.833)" fill="#e6f0f4"/>
    </g>
    <rect id="Rectangle_434" data-name="Rectangle 434" width="48" height="48" rx="1.5" transform="translate(968 5374)" fill="none"/>
  </g>
</svg>
