<svg xmlns="http://www.w3.org/2000/svg" xmlns:xlink="http://www.w3.org/1999/xlink" width="48" height="48" viewBox="0 0 48 48">
  <defs>
    <clipPath id="clip-path">
      <path id="Path_22929" data-name="Path 22929" d="M-178.928,41.4h40.672a.963.963,0,0,1,.96.96V61.816a.963.963,0,0,1-.96.96h-40.672a.963.963,0,0,1-.96-.96V42.36A.963.963,0,0,1-178.928,41.4Z" transform="translate(179.888 -41.4)" fill="none"/>
    </clipPath>
  </defs>
  <g id="Group_68021" data-name="Group 68021" transform="translate(189.688)">
    <rect id="Rectangle_192" data-name="Rectangle 192" width="48" height="48" transform="translate(-189.688)" fill="none"/>
    <rect id="Rectangle_57" data-name="Rectangle 57" width="48" height="48" transform="translate(-189.688)" fill="none"/>
    <path id="Path_378" data-name="Path 378" d="M-181.628,41.4h40.672a.963.963,0,0,1,.96.96V61.815a.963.963,0,0,1-.96.96h-40.672a.962.962,0,0,1-.96-.96V42.359a.943.943,0,0,1,.925-.96Z" transform="translate(-4.828 -28.152)" fill="#c1cfd4"/>
    <g id="Group_149" data-name="Group 149" transform="translate(-186.552 13.248)">
      <g id="Group_148" data-name="Group 148">
        <g id="Group_67192" data-name="Group 67192">
          <g id="Group_67191" data-name="Group 67191" clip-path="url(#clip-path)">
            <g id="Group_147" data-name="Group 147">
              <path id="Path_379" data-name="Path 379" d="M-178.928,41.4h40.672a.963.963,0,0,1,.96.96V61.816a.963.963,0,0,1-.96.96h-40.672a.963.963,0,0,1-.96-.96V42.36A.963.963,0,0,1-178.928,41.4Z" transform="translate(179.888 -41.4)" fill="#e7f1f5"/>
            </g>
          </g>
        </g>
      </g>
    </g>
    <path id="Path_381" data-name="Path 381" d="M-161.229,92.7h13.5a.943.943,0,0,1,.96.925c0,.012,0,.023,0,.035v.192a.943.943,0,0,1-.925.96h-13.539a.943.943,0,0,1-.96-.925c0-.012,0-.023,0-.035v-.192a.943.943,0,0,1,.925-.96Z" transform="translate(-18.7 -63.036)" fill="#c1cfd4"/>
    <path id="Path_382" data-name="Path 382" d="M-161.229,79h13.5a.943.943,0,0,1,.96.925c0,.012,0,.023,0,.035v.192a.943.943,0,0,1-.925.96h-13.539a.943.943,0,0,1-.96-.925c0-.012,0-.023,0-.035v-.192a.943.943,0,0,1,.925-.96Z" transform="translate(-18.7 -53.72)" fill="#d8e6e9"/>
    <path id="Path_383" data-name="Path 383" d="M-161.229,67h13.5a.943.943,0,0,1,.96.925c0,.012,0,.023,0,.035v.192a.943.943,0,0,1-.925.96h-13.539a.943.943,0,0,1-.96-.925c0-.012,0-.023,0-.035v-.192a.943.943,0,0,1,.925-.96Z" transform="translate(-18.7 -45.56)" fill="#d8e6e9"/>
    <path id="Path_384" data-name="Path 384" d="M-160.78,50.3h10.208a1.42,1.42,0,0,1,1.408,1.408v.7a1.42,1.42,0,0,1-1.408,1.408H-160.78a1.42,1.42,0,0,1-1.408-1.408v-.7A1.42,1.42,0,0,1-160.78,50.3Z" transform="translate(-18.7 -34.204)" fill="#d8e6e9"/>
    <g id="Group_152" data-name="Group 152" transform="translate(-186.552 13.248)">
      <g id="Group_151" data-name="Group 151">
        <g id="Group_67194" data-name="Group 67194">
          <g id="Group_67193" data-name="Group 67193" clip-path="url(#clip-path)">
            <g id="Group_150" data-name="Group 150" transform="translate(-4.192 -3.2)">
              <rect id="Rectangle_58" data-name="Rectangle 58" width="7.616" height="26.848" fill="#d60013"/>
            </g>
          </g>
        </g>
      </g>
    </g>
    <rect id="Rectangle_59" data-name="Rectangle 59" width="48" height="48" transform="translate(-189.688)" fill="none"/>
    <path id="Path_22931" data-name="Path 22931" d="M-84.97,65.8a.656.656,0,0,0-.927.028l-4.55,4.837-1.061-1.682a.656.656,0,0,0-.9-.208.657.657,0,0,0-.208.9l1.512,2.4a.654.654,0,0,0,.9.21.651.651,0,0,0,.132-.108l5.134-5.454A.656.656,0,0,0-84.97,65.8Z" transform="translate(-65.937 -44.626)" fill="#df0f1b"/>
    <path id="Path_22932" data-name="Path 22932" d="M-96.323,52.6h-.013a7.552,7.552,0,0,0-7.552,7.552A7.552,7.552,0,0,0-96.336,67.7a7.552,7.552,0,0,0,7.552-7.552A7.545,7.545,0,0,0-96.323,52.6Zm-.013,13.877a6.326,6.326,0,0,1-6.326-6.325,6.326,6.326,0,0,1,6.326-6.326,6.326,6.326,0,0,1,6.325,6.326A6.325,6.325,0,0,1-96.336,66.477Z" transform="translate(-58.344 -35.768)" fill="#d60013"/>
  </g>
</svg>
