<svg id="Netbanking_Icons_Request_Cheque_copy_18" data-name="Netbanking Icons_Request Cheque copy 18" xmlns="http://www.w3.org/2000/svg" xmlns:xlink="http://www.w3.org/1999/xlink" width="150" height="150" viewBox="0 0 150 150">
  <defs>
    <clipPath id="clip-path">
      <path id="Path_1247" data-name="Path 1247" d="M106.1,12.01l4.975,5.186v.846l-5.049-.225Z" transform="translate(-106.03 -12.01)" fill="none"/>
    </clipPath>
  </defs>
  <path id="Path_3393" data-name="Path 3393" d="M118.47,62.92a6.22,6.22,0,0,1-.36-2,3.49,3.49,0,0,1,.29-1.47,3,3,0,0,1,.54-.78,3.44,3.44,0,0,1,1.27-.82,4.62,4.62,0,0,1,1.69-.31,5.26,5.26,0,0,1,2.8.81,5,5,0,0,1,1.15,1,5.56,5.56,0,0,1,.86,1.5,2.64,2.64,0,0,1,.21.91,1.409,1.409,0,0,1-.06.35.54.54,0,0,1-.09.12.73.73,0,0,1-.26.16,1.38,1.38,0,0,1-.48.08,1.74,1.74,0,0,1-.59-.1,1.71,1.71,0,0,1-.4-.22,1.34,1.34,0,0,1-.43-.53,2.21,2.21,0,0,1-.2-1,5.35,5.35,0,0,1,.39-1.85,8.73,8.73,0,0,1,1-1.89,4.76,4.76,0,0,1,1.59-1.54,3.09,3.09,0,0,1,1.56-.43,3.4,3.4,0,0,1,1.7.48,4.56,4.56,0,0,1,1.49,1.48,1.81,1.81,0,0,0,3-2,8.1,8.1,0,0,0-2.7-2.64,7,7,0,0,0-3.53-1,6.57,6.57,0,0,0-2.26.4,7.61,7.61,0,0,0-3,2.08,11.3,11.3,0,0,0-2.19,3.72,8.73,8.73,0,0,0-.62,3.12,5.84,5.84,0,0,0,.45,2.31,4.87,4.87,0,0,0,.86,1.38,5.09,5.09,0,0,0,1.83,1.33,5.42,5.42,0,0,0,2.09.42,5,5,0,0,0,1.58-.25,4.42,4.42,0,0,0,1.11-.55A4.08,4.08,0,0,0,130,63.85a4.43,4.43,0,0,0,.49-2.05,6.24,6.24,0,0,0-.45-2.22,9.28,9.28,0,0,0-1.44-2.48,8.6,8.6,0,0,0-3.13-2.38A8.81,8.81,0,0,0,121.9,54a8.4,8.4,0,0,0-2.68.43,7.38,7.38,0,0,0-1.82.91,6.63,6.63,0,0,0-2.11,2.34,7,7,0,0,0-.8,3.31,9.78,9.78,0,0,0,.56,3.14,1.81,1.81,0,1,0,3.42-1.16Z" fill="#cad7db"/>
  <path id="Path_3394" data-name="Path 3394" d="M48.1,39.24c5.89,6.63,4.71,9.93-6.34,14-6,2.23-3.54-3.33-5.47-8.87s-7.85-7.21-4.72-9.2c3.73-2.37,13.09.18,16.53,4.05" fill="#cad7db"/>
  <path id="Path_3395" data-name="Path 3395" d="M48.1,39.24l-.33.3A20,20,0,0,1,50.31,43a5.67,5.67,0,0,1,.84,2.72,3.41,3.41,0,0,1-.52,1.8,8.43,8.43,0,0,1-3,2.65,38.63,38.63,0,0,1-6,2.71,6.23,6.23,0,0,1-2.07.48,1.66,1.66,0,0,1-.76-.16,1.19,1.19,0,0,1-.41-.37,3.4,3.4,0,0,1-.46-1.3c-.16-.85-.22-2-.35-3.23a17.94,17.94,0,0,0-.84-4A14.17,14.17,0,0,0,33.23,39c-.61-.62-1.17-1.16-1.55-1.61a3.46,3.46,0,0,1-.43-.6.93.93,0,0,1-.12-.42,1,1,0,0,1,0-.16.92.92,0,0,1,.19-.28,2.05,2.05,0,0,1,.48-.38h0a5.08,5.08,0,0,1,1.62-.64,9.76,9.76,0,0,1,2.1-.21,19.56,19.56,0,0,1,6.79,1.39,19.17,19.17,0,0,1,3.11,1.54,11.13,11.13,0,0,1,2.33,1.89l.33-.3.34-.3a11.37,11.37,0,0,0-2.52-2,20.74,20.74,0,0,0-5-2.23,19.43,19.43,0,0,0-5.34-.84,10.49,10.49,0,0,0-2.3.23,6,6,0,0,0-1.91.76h0a2.87,2.87,0,0,0-.81.71,1.68,1.68,0,0,0-.22.42,1.42,1.42,0,0,0-.08.45,1.89,1.89,0,0,0,.23.84,6.94,6.94,0,0,0,1.08,1.35c.67.7,1.51,1.49,2.31,2.46a11.52,11.52,0,0,1,2,3.49,16.14,16.14,0,0,1,.73,3.35c.1.82.16,1.59.23,2.31.06.54.11,1,.2,1.51a5.5,5.5,0,0,0,.27,1,2.8,2.8,0,0,0,.32.62,2,2,0,0,0,.79.69,2.51,2.51,0,0,0,1.13.24,7.28,7.28,0,0,0,2.39-.53A30.6,30.6,0,0,0,49.49,50a7.46,7.46,0,0,0,1.91-2,4.26,4.26,0,0,0,.65-2.27,6.61,6.61,0,0,0-.95-3.16,21,21,0,0,0-2.66-3.58l-.34.3" fill="#cad7db"/>
  <path id="Path_3396" data-name="Path 3396" d="M122.43,78.51c.12-9.08-3.26-18.89-8.17-26.26C104.77,38,85.07,35.19,69.91,35.79a87.59,87.59,0,0,0-12.47,1.34c-.25-1.71-1.37-3.69-3.26-6.09C50.75,26.7,41,23.41,36.86,25.69c-3.45,1.92,2.73,4.06,4.43,10.07a26.51,26.51,0,0,1,.7,6.46C31.92,47.48,25.83,55.78,23.4,66.6H16.63a4.56,4.56,0,0,0-4.56,4.57V95.89a4.57,4.57,0,0,0,4.56,4.57H28.08a34.82,34.82,0,0,0,15.84,14l.84.34-1.27,7c-.3,1.65,1.09,3.29,3.1,3.66l8.81,1.6c2,.36,3.88-.68,4.18-2.33l1.06-5.8a98.94,98.94,0,0,0,23.26.18l1,5.62c.3,1.65,2.18,2.69,4.19,2.33l8.8-1.6c2-.37,3.4-2,3.1-3.66L100,116c14.57-5.18,22.23-21.5,22.42-37.47" fill="#cad7db"/>
  <path id="Path_3397" data-name="Path 3397" d="M122.43,78.51h.46v-.45c0-9.07-3.38-18.74-8.26-26.06a31.07,31.07,0,0,0-8.1-8.22,45.15,45.15,0,0,0-15.87-6.72,76.581,76.581,0,0,0-17-1.8c-1.27,0-2.51,0-3.73.08A88.64,88.64,0,0,0,57.4,36.68l.08.45.45-.07a9,9,0,0,0-1.07-2.93,24.31,24.31,0,0,0-2.29-3.37,12.48,12.48,0,0,0-2.71-2.46,22.64,22.64,0,0,0-5.58-2.74,19,19,0,0,0-5.87-1.07,7.81,7.81,0,0,0-3.73.8h0a3.08,3.08,0,0,0-.92.74,1.75,1.75,0,0,0-.26.46,1.57,1.57,0,0,0-.08.49,2.07,2.07,0,0,0,.22.87,7.57,7.57,0,0,0,1.07,1.48c.67.78,1.51,1.67,2.28,2.75a11.9,11.9,0,0,1,1.91,3.8,16.74,16.74,0,0,1,.55,3.34c.08,1.08.09,2.1.13,3h.45l-.2-.4A36.08,36.08,0,0,0,29.47,52.05,37.22,37.22,0,0,0,23,66.5l.44.1v-.45H16.63a5,5,0,0,0-5,5V95.89a5,5,0,0,0,5,5h11a4.16,4.16,0,0,0,.49,0v-.45l-.39.23a35.36,35.36,0,0,0,16.05,14.2h0c.3.13.59.23.85.33l.17-.41-.44-.08-1.27,7a3.27,3.27,0,0,0-.05.53,3.41,3.41,0,0,0,1,2.35,4.61,4.61,0,0,0,2.5,1.3l8.81,1.6a4.59,4.59,0,0,0,3.37-.67,3.15,3.15,0,0,0,1.34-2l1-5.8-.44-.08-.06.45a92.428,92.428,0,0,0,12.13.78,106.9,106.9,0,0,0,11.24-.6v-.45l-.44.08,1,5.62a3.12,3.12,0,0,0,1.34,2,4.36,4.36,0,0,0,2.49.75,4.43,4.43,0,0,0,.88-.08l8.8-1.6a4.54,4.54,0,0,0,2.5-1.3,3.37,3.37,0,0,0,1-2.35,3.271,3.271,0,0,0,0-.53l-1-5.75-.5.04.15.43a29,29,0,0,0,9.77-5.89A37.65,37.65,0,0,0,119.5,96.2a50.57,50.57,0,0,0,3.38-17.67H122a47.92,47.92,0,0,1-5.76,22.57,34.39,34.39,0,0,1-6.89,8.78,28.23,28.23,0,0,1-9.47,5.71.46.46,0,0,0-.3.5l1,5.75a2.4,2.4,0,0,1,0,.37,2.51,2.51,0,0,1-.75,1.72,3.7,3.7,0,0,1-2,1l-8.8,1.6a3.649,3.649,0,0,1-.72.07,3.4,3.4,0,0,1-2-.59,2.22,2.22,0,0,1-1-1.45l-1-5.61a.47.47,0,0,0-.5-.37,107.571,107.571,0,0,1-11.14.6,90.608,90.608,0,0,1-12-.78.46.46,0,0,0-.51.37l-1,5.79a2.25,2.25,0,0,1-1,1.45,3.4,3.4,0,0,1-2,.59,3.51,3.51,0,0,1-.72-.07l-8.81-1.6a3.7,3.7,0,0,1-2-1,2.48,2.48,0,0,1-.76-1.72,1.61,1.61,0,0,1,0-.37l1.26-7a.45.45,0,0,0-.27-.5c-.29-.12-.58-.22-.83-.33h0A34.45,34.45,0,0,1,28.5,100.17a.45.45,0,0,0-.43-.21,2.51,2.51,0,0,1-.4,0h-11a4.1,4.1,0,0,1-4.11-4.11V71.17a4.11,4.11,0,0,1,4.11-4.12H23.4a.45.45,0,0,0,.44-.35,36.24,36.24,0,0,1,6.35-14.1,35.15,35.15,0,0,1,12-10,.47.47,0,0,0,.25-.42c-.05-.9-.05-1.94-.14-3.05a17.59,17.59,0,0,0-.58-3.51,14.92,14.92,0,0,0-3.33-5.7c-.6-.7-1.16-1.3-1.55-1.81a3.71,3.71,0,0,1-.43-.68,1,1,0,0,1-.14-.47.58.58,0,0,1,0-.19,1,1,0,0,1,.22-.31,2.53,2.53,0,0,1,.55-.4h0a6.78,6.78,0,0,1,3.29-.68,19.51,19.51,0,0,1,7.49,1.75A20.18,20.18,0,0,1,51.3,29a11.29,11.29,0,0,1,2.52,2.28A22.6,22.6,0,0,1,56,34.56a7.94,7.94,0,0,1,1,2.63.46.46,0,0,0,.19.3.42.42,0,0,0,.34.08,88.09,88.09,0,0,1,12.4-1.33c1.21-.05,2.45-.07,3.7-.07A69.69,69.69,0,0,1,96,39.51a39.8,39.8,0,0,1,10,5,30.23,30.23,0,0,1,7.87,8c4.79,7.17,8.11,16.71,8.11,25.55v.44h.45" fill="#cad7db"/>
  <path id="Path_3398" data-name="Path 3398" d="M36.4,26.64a.52.52,0,0,0-.11.24.6.6,0,0,0,0,.19,1.07,1.07,0,0,0,.13.38,1.51,1.51,0,0,0,.09.18,12.34,12.34,0,0,0,1.34,1.68l.61.7a15.48,15.48,0,0,1,3,4.86c.09.25.17.51.25.77a19.87,19.87,0,0,1,.65,4.72v1.42a1.62,1.62,0,0,0,0,.22,1.34,1.34,0,0,0,0,.2.47.47,0,0,1-.25.42C32.47,47.7,26.29,55.8,23.84,66.7a.49.49,0,0,1,0,.11.41.41,0,0,1-.2.19.46.46,0,0,1-.2,0H16.63a4.12,4.12,0,0,0-4.11,4.12V95.89A4.12,4.12,0,0,0,16.63,100h.57c-3.1-1.29-3.39-13.4-2.95-17.91.33-3.37,0-6.69.73-10,.49-2.36,2.35-2.7,4.42-2.7h2.61a5.94,5.94,0,0,0,2.92-.55c2.05-1.17,1.51-4.32,2.41-6.39a49.12,49.12,0,0,1,4.74-8.43c3.08-4.28,5.72-6.25,10.22-8.93,5.41-3.24-.16-14.37-5.9-18.53" fill="#cad7db"/>
  <path id="Path_3399" data-name="Path 3399" d="M23.8,66.81a.41.41,0,0,1-.2.19.41.41,0,0,0,.2-.19m18.63-25a1.62,1.62,0,0,0,0,.22,1.62,1.62,0,0,1,0-.22m0-1.42v.9h0v-.92M38.46,30a15.42,15.42,0,0,1,3,4.86,15.48,15.48,0,0,0-3-4.86m-2.17-2.94a1.54,1.54,0,0,0,.22.56,1.51,1.51,0,0,1-.09-.18,1.07,1.07,0,0,1-.13-.38" fill="#cad7db"/>
  <path id="Path_3400" data-name="Path 3400" d="M73.63,36.17h0c-1.25,0-2.49,0-3.7.07l-1.18.06a86.79,86.79,0,0,0-10.41,1.14,3.7,3.7,0,0,1-.48.07l-.33.06h0a.09.09,0,0,0-.06,0c4.14-.22,8.36-.41,12.61-.41,15.31,0,30.92,2.48,43.76,15.17-9.38-13.9-28.67-16.15-39.69-16.21h-.47" fill="#cad7db"/>
  <path id="Path_3401" data-name="Path 3401" d="M57.85,37.51a1.43,1.43,0,0,0-.37.07h0l.33-.06m15.77-1.34c-1.22,0-2.46,0-3.7.07a7.777,7.777,0,0,0-1.18.06l1.18-.06c1.21-.05,2.45-.07,3.7-.07h0" fill="#cad7db"/>
  <path id="Path_3402" data-name="Path 3402" d="M40.27,60.45c0,4.3-6.69,4.38-6.69,0S40.24,55.94,40.27,60.45Z" fill="#cad7db"/>
  <path id="Path_3403" data-name="Path 3403" d="M122,77.47a40.33,40.33,0,0,1-3.39,13.22c-2.5,5.75-5.38,12.23-10.26,16.41a48.4,48.4,0,0,1-7.83,5.58c-1.92,1.07-3.21,1.48-2.54,4,.28,1,.31,2.3.58,3.34.88,3.29-4,4.71-7.57,4.71a9.14,9.14,0,0,1-2.33-.26c-1.69-.47-1.45-2.53-1.87-4.25-.64-2.69-2-3.3-3.75-3.3-1.32,0-2.88.34-4.6.41-1.92.09-3.88.21-5.84.21a31.331,31.331,0,0,1-4.44-.28c-1.63-.24-4-1-6-1-1.69,0-3.11.54-3.58,2.4-1,3.82-1.54,5.76-4.91,5.76a15.369,15.369,0,0,1-2.54-.26c-3.2-.56-6.1-.93-6.69-4.45l-.22,1.18-.17,1a1.61,1.61,0,0,0,0,.37,2.48,2.48,0,0,0,.76,1.72,3.62,3.62,0,0,0,1.21.81,4.11,4.11,0,0,0,.8.23l8.81,1.6a4,4,0,0,0,.69.07,2.9,2.9,0,0,0,2.95-1.94v-.1l1-5.79a.45.45,0,0,1,.45-.37h.06l.77.1a91,91,0,0,0,11.26.67c3.13,0,6.32-.14,9.52-.43l1.6-.16h0a.45.45,0,0,1,.45.37l.59,3.28.43,2.33v.16a2.87,2.87,0,0,0,2.91,1.88,3.51,3.51,0,0,0,.72-.07l8.8-1.6a4.608,4.608,0,0,0,.75-.21,3.5,3.5,0,0,0,1.27-.83,2.51,2.51,0,0,0,.75-1.72h0a1.821,1.821,0,0,0,0-.32l-1-5.75a.45.45,0,0,1,.17-.43.4.4,0,0,1,.13-.07,27.52,27.52,0,0,0,4.75-2.23h0c11.56-6.83,17-21.42,17.35-34.23v-.6h0V77.6" fill="#cad7db"/>
  <path id="Path_3404" data-name="Path 3404" d="M85,122.24l.43,2.33v0L85,122.24m15.66-.1h0a2.51,2.51,0,0,1-.75,1.72,3.5,3.5,0,0,1-1.27.83,2.88,2.88,0,0,0,2-2.59m0,0h0m-56.49-1.27-.17,1a2.77,2.77,0,0,0,1.93,2.9,3.62,3.62,0,0,1-1.21-.81,2.48,2.48,0,0,1-.76-1.72,1.61,1.61,0,0,1,0-.37l.17-1m39.77-2.27h0l-1.6.16,1.6-.16h0m-23.24-.18a.45.45,0,0,0-.45.37l-1,5.79v0l1-5.79a.45.45,0,0,1,.45-.37h.06l.77.1-.77-.1h-.06m43.93-5.08a27.52,27.52,0,0,1-4.75,2.23.4.4,0,0,0-.13.07.4.4,0,0,1,.13-.07,26.84,26.84,0,0,0,4.75-2.23m0,0h0M122,78.5v0h0m0-.14v.14h0v-.14" fill="#cad7db"/>
  <path id="Path_3405" data-name="Path 3405" d="M65.62,42.33a42.45,42.45,0,0,1,8.92-.89,54.73,54.73,0,0,1,13.18,1.63,1.352,1.352,0,0,0,.67-2.62,57.37,57.37,0,0,0-13.85-1.72,44.3,44.3,0,0,0-9.49,1,1.35,1.35,0,0,0,.57,2.64Z" fill="#cad7db"/>
  <path id="Path_3406" data-name="Path 3406" d="M121.43,60.92a6,6,0,0,1-.37-2,3.49,3.49,0,0,1,.3-1.47,2.91,2.91,0,0,1,.54-.79,3.62,3.62,0,0,1,1.26-.82,4.89,4.89,0,0,1,1.7-.3,5.22,5.22,0,0,1,2.79.81,5,5,0,0,1,1.15,1,5.52,5.52,0,0,1,.87,1.49,2.61,2.61,0,0,1,.2.92.75.75,0,0,1-.06.34.36.36,0,0,1-.08.12.69.69,0,0,1-.26.17,1.4,1.4,0,0,1-.49.08,1.76,1.76,0,0,1-.59-.11,1.33,1.33,0,0,1-.39-.21,1.54,1.54,0,0,1-.44-.53,2.25,2.25,0,0,1-.19-1,5.17,5.17,0,0,1,.39-1.85,9,9,0,0,1,1-1.89,5.06,5.06,0,0,1,1.59-1.54,3.11,3.11,0,0,1,1.56-.42,3.38,3.38,0,0,1,1.7.48,4.65,4.65,0,0,1,1.5,1.47,1.81,1.81,0,1,0,3-2,8.19,8.19,0,0,0-2.71-2.63,6.92,6.92,0,0,0-3.53-1,6.85,6.85,0,0,0-2.26.39,7.61,7.61,0,0,0-3,2.08,11.41,11.41,0,0,0-2.19,3.72,8.84,8.84,0,0,0-.63,3.12A6,6,0,0,0,124.2,61a5.42,5.42,0,0,0,.86,1.39,5.282,5.282,0,0,0,3.92,1.75,5.08,5.08,0,0,0,1.59-.25,4.59,4.59,0,0,0,1.11-.55A4.06,4.06,0,0,0,133,61.85a4.31,4.31,0,0,0,.49-2.05,6,6,0,0,0-.45-2.22,8.77,8.77,0,0,0-1.44-2.48,8.56,8.56,0,0,0-3.12-2.38,8.85,8.85,0,0,0-3.61-.77,8.36,8.36,0,0,0-2.68.43,7.63,7.63,0,0,0-1.83.91,6.56,6.56,0,0,0-2.1,2.33,7,7,0,0,0-.8,3.32,9.56,9.56,0,0,0,.56,3.14,1.81,1.81,0,0,0,3.42-1.16Z" fill="#eaf2f5"/>
  <path id="Path_3407" data-name="Path 3407" d="M50.49,37.24c5.89,6.62,4.71,9.92-6.34,14-6,2.23-3.55-3.33-5.48-8.88s-7.84-7.21-4.71-9.2c3.73-2.37,13.08.19,16.53,4.06" fill="#eaf2f5"/>
  <path id="Path_3408" data-name="Path 3408" d="M50.49,37.24l-.34.3A19.61,19.61,0,0,1,52.7,41a5.63,5.63,0,0,1,.84,2.71A3.44,3.44,0,0,1,53,45.48a8.32,8.32,0,0,1-3,2.64,37.63,37.63,0,0,1-6,2.72,6.41,6.41,0,0,1-2.08.47,1.52,1.52,0,0,1-.75-.16,1.16,1.16,0,0,1-.41-.36,3.46,3.46,0,0,1-.46-1.3c-.16-.86-.22-2-.35-3.23a18.13,18.13,0,0,0-.84-4A14.13,14.13,0,0,0,35.62,37c-.62-.63-1.17-1.16-1.55-1.61a3.88,3.88,0,0,1-.43-.6,1,1,0,0,1-.12-.42.41.41,0,0,1,0-.16.79.79,0,0,1,.19-.29,2.41,2.41,0,0,1,.48-.38h0a5.07,5.07,0,0,1,1.62-.63,9.76,9.76,0,0,1,2.1-.21,19.56,19.56,0,0,1,6.79,1.39,18.39,18.39,0,0,1,3.11,1.54,10.52,10.52,0,0,1,2.32,1.89l.34-.3.34-.3a11.69,11.69,0,0,0-2.52-2.06,21.11,21.11,0,0,0-5-2.22,19.43,19.43,0,0,0-5.34-.84,10.49,10.49,0,0,0-2.3.23,6,6,0,0,0-1.91.75h0a2.74,2.74,0,0,0-.81.72,1.41,1.41,0,0,0-.22.42,1.38,1.38,0,0,0-.08.45,1.89,1.89,0,0,0,.23.84,6.86,6.86,0,0,0,1.07,1.35c.68.7,1.52,1.49,2.32,2.46a11.4,11.4,0,0,1,2,3.49A16.14,16.14,0,0,1,39,45.88c.1.81.16,1.59.23,2.31.06.54.11,1,.2,1.5a5.61,5.61,0,0,0,.27,1,2.8,2.8,0,0,0,.32.62,2,2,0,0,0,.79.69,2.49,2.49,0,0,0,1.12.24,7.33,7.33,0,0,0,2.4-.54A30.47,30.47,0,0,0,51.88,48a7.46,7.46,0,0,0,1.91-2,4.36,4.36,0,0,0,.65-2.28,6.61,6.61,0,0,0-.95-3.15,21,21,0,0,0-2.66-3.58l-.34.3" fill="#eaf2f5"/>
  <path id="Path_3409" data-name="Path 3409" d="M124.82,76.5c.12-9.08-3.26-18.89-8.17-26.25C107.16,36,87.45,33.18,72.3,33.79a89,89,0,0,0-12.47,1.33c-.25-1.71-1.37-3.69-3.27-6.09-3.42-4.33-13.2-7.63-17.31-5.34-3.45,1.91,2.73,4,4.43,10.07a26.51,26.51,0,0,1,.7,6.46C34.3,45.48,28.22,53.78,25.79,64.6H19a4.56,4.56,0,0,0-4.56,4.56V93.89A4.56,4.56,0,0,0,19,98.45H30.46a34.88,34.88,0,0,0,15.84,14c.27.12.56.22.84.33l-1.27,7c-.3,1.65,1.09,3.29,3.1,3.65l8.81,1.6c2,.37,3.88-.67,4.18-2.33l1.06-5.79a99.48,99.48,0,0,0,23.26.18l1,5.61c.3,1.66,2.18,2.7,4.19,2.33l8.8-1.6c2-.36,3.4-2,3.1-3.65l-1-5.75c14.57-5.18,22.23-21.5,22.42-37.48" transform="translate(-0.44 0.059)" fill="#eaf2f5"/>
  <path id="Path_3410" data-name="Path 3410" d="M124.82,76.5h.45v-.45C125.27,67,121.9,57.32,117,50a31.07,31.07,0,0,0-8.1-8.22,45,45,0,0,0-15.87-6.72,76.58,76.58,0,0,0-17-1.8c-1.27,0-2.51,0-3.73.08a88.64,88.64,0,0,0-12.53,1.34l.08.44.45-.06a9.17,9.17,0,0,0-1.07-2.94,24.261,24.261,0,0,0-2.29-3.36,12.52,12.52,0,0,0-2.71-2.47,23.18,23.18,0,0,0-5.58-2.74,19,19,0,0,0-5.87-1.06,7.69,7.69,0,0,0-3.73.8h0a3,3,0,0,0-.93.74,2,2,0,0,0-.25.45,1.4,1.4,0,0,0-.08.49,2.08,2.08,0,0,0,.22.88,7.88,7.88,0,0,0,1.07,1.48c.67.78,1.51,1.67,2.28,2.74a12,12,0,0,1,1.91,3.81,16.74,16.74,0,0,1,.55,3.34c.08,1.07.09,2.09.13,3h.45l-.21-.4A36,36,0,0,0,31.86,50.05,37.16,37.16,0,0,0,25.35,64.5l.44.1v-.45H19a5,5,0,0,0-5,5V93.89a5,5,0,0,0,5,5H30a4.579,4.579,0,0,0,.5,0v-.45l-.39.23a35.23,35.23,0,0,0,16.05,14.19h0l.85.34.17-.42-.44-.08-1.27,7a3.07,3.07,0,0,0,0,.53,3.41,3.41,0,0,0,1,2.35,4.75,4.75,0,0,0,2.5,1.3l8.81,1.6a5.239,5.239,0,0,0,.88.08,4.3,4.3,0,0,0,2.48-.75,3.19,3.19,0,0,0,1.35-2l1-5.79-.44-.08-.06.44a90.742,90.742,0,0,0,12.13.78,106.9,106.9,0,0,0,11.24-.6v-.44l-.44.08,1,5.61a3.14,3.14,0,0,0,1.34,2,4.35,4.35,0,0,0,2.48.75,5.45,5.45,0,0,0,.89-.08l8.8-1.6a4.67,4.67,0,0,0,2.5-1.3,3.36,3.36,0,0,0,1-2.35,3.08,3.08,0,0,0,0-.53l-1-5.75-.44.08.15.43a29.12,29.12,0,0,0,9.77-5.89,37.72,37.72,0,0,0,9.58-14.34,50.42,50.42,0,0,0,3.37-17.67h-.9a47.92,47.92,0,0,1-5.76,22.57,34.56,34.56,0,0,1-6.89,8.78,28,28,0,0,1-9.47,5.7.46.46,0,0,0-.3.51l1,5.75a2.312,2.312,0,0,1,0,.37,2.48,2.48,0,0,1-.76,1.72,3.7,3.7,0,0,1-2,1l-8.8,1.6a4.591,4.591,0,0,1-.73.06,3.32,3.32,0,0,1-2-.58,2.29,2.29,0,0,1-1-1.45l-1-5.61a.44.44,0,0,0-.49-.37,107.591,107.591,0,0,1-11.14.59,90.61,90.61,0,0,1-12-.77.46.46,0,0,0-.51.37l-1,5.79a2.28,2.28,0,0,1-1,1.45,3.33,3.33,0,0,1-2,.58,4.369,4.369,0,0,1-.72-.06l-8.81-1.6a3.77,3.77,0,0,1-2-1,2.48,2.48,0,0,1-.76-1.72,1.55,1.55,0,0,1,0-.37l1.26-7a.43.43,0,0,0-.27-.49c-.29-.13-.58-.22-.83-.33h0A34.45,34.45,0,0,1,30.89,98.17a.43.43,0,0,0-.43-.21H19a4.1,4.1,0,0,1-4.11-4.11V69.16A4.1,4.1,0,0,1,19,65.05h6.77a.46.46,0,0,0,.44-.35,36.29,36.29,0,0,1,6.35-14.11,35.13,35.13,0,0,1,12-10,.45.45,0,0,0,.24-.42,25.637,25.637,0,0,0-.13-3.05,17.48,17.48,0,0,0-.58-3.51,14.92,14.92,0,0,0-3.33-5.7c-.61-.71-1.16-1.31-1.55-1.81a4.5,4.5,0,0,1-.44-.68,1.23,1.23,0,0,1-.13-.48.57.57,0,0,1,0-.18.92.92,0,0,1,.22-.32,2.54,2.54,0,0,1,.55-.39h0a6.89,6.89,0,0,1,3.29-.69A21.33,21.33,0,0,1,53.69,27a11.75,11.75,0,0,1,2.52,2.27,23.771,23.771,0,0,1,2.21,3.24,8.06,8.06,0,0,1,1,2.64.466.466,0,0,0,.53.38,88.087,88.087,0,0,1,12.4-1.33c1.21-.05,2.45-.08,3.7-.08A70,70,0,0,1,98.36,37.5a40.16,40.16,0,0,1,10,5,30.19,30.19,0,0,1,7.87,8c4.79,7.17,8.11,16.72,8.1,25.56v.44h.45" fill="#eaf2f5"/>
  <path id="Path_3411" data-name="Path 3411" d="M38.79,24.64a.52.52,0,0,0-.11.24.54.54,0,0,0,0,.18,1.21,1.21,0,0,0,.12.39l.1.18a13,13,0,0,0,1.34,1.68l.61.69a15.84,15.84,0,0,1,3,4.87c.09.25.17.5.25.77a19.86,19.86,0,0,1,.65,4.71v1.42a1.689,1.689,0,0,0,0,.23v.2a.44.44,0,0,1-.24.42C34.86,45.69,28.68,53.8,26.23,64.7v.1a.43.43,0,0,1-.2.2.46.46,0,0,1-.2,0H19a4.11,4.11,0,0,0-4.11,4.11V93.89A4.12,4.12,0,0,0,19,98h.57c-3.1-1.29-3.39-13.41-2.95-17.92.33-3.36,0-6.68.72-10,.5-2.35,2.35-2.69,4.43-2.69h2.61a5.94,5.94,0,0,0,2.92-.55c2.05-1.18,1.51-4.32,2.41-6.4a49.409,49.409,0,0,1,4.74-8.42c3.08-4.28,5.72-6.25,10.21-8.93,5.42-3.24-.15-14.38-5.89-18.53" fill="#eaf2f5"/>
  <path id="Path_3412" data-name="Path 3412" d="M26.19,64.8a.43.43,0,0,1-.2.2.43.43,0,0,0,.2-.2m18.63-25a1.689,1.689,0,0,0,0,.23,1.689,1.689,0,0,1,0-.23m0-1.42v.9h0v-.93M40.85,28a16,16,0,0,1,3,4.87,15.84,15.84,0,0,0-3-4.87m-2.17-2.94a1.58,1.58,0,0,0,.22.57l-.1-.18a1.21,1.21,0,0,1-.12-.39" fill="#eaf2f5"/>
  <path id="Path_3413" data-name="Path 3413" d="M42.66,58.44c0,4.31-6.69,4.38-6.69,0S42.63,53.94,42.66,58.44Z" fill="#eaf2f5"/>
  <path id="Path_3414" data-name="Path 3414" d="M124.36,75.47A40,40,0,0,1,121,88.68c-2.51,5.76-5.38,12.23-10.26,16.42a48.351,48.351,0,0,1-7.83,5.57c-1.93,1.07-3.21,1.48-2.54,4,.28,1,.31,2.3.58,3.33.88,3.3-4,4.71-7.57,4.71a9.14,9.14,0,0,1-2.33-.26c-1.69-.46-1.45-2.52-1.87-4.24-.64-2.69-2-3.3-3.75-3.3-1.32,0-2.89.33-4.6.41-1.93.09-3.89.21-5.84.21a29.921,29.921,0,0,1-4.44-.29c-1.63-.24-4-1-6-1-1.69,0-3.11.54-3.59,2.4-1,3.82-1.53,5.75-4.9,5.75a15.229,15.229,0,0,1-2.54-.25c-3.2-.56-6.1-.93-6.7-4.45l-.21,1.18-.17,1a1.55,1.55,0,0,0,0,.37,2.48,2.48,0,0,0,.76,1.72,3.62,3.62,0,0,0,1.21.81,4.11,4.11,0,0,0,.8.23l8.81,1.6a4,4,0,0,0,.69.06,2.89,2.89,0,0,0,2.95-1.94s0-.06,0-.09l1-5.79a.45.45,0,0,1,.45-.37h.06l.77.1a91,91,0,0,0,11.26.67c3.13,0,6.32-.15,9.52-.44.54,0,1.07-.1,1.6-.15h0a.45.45,0,0,1,.44.37l.6,3.29.42,2.33v.16a2.88,2.88,0,0,0,2.91,1.87,4.459,4.459,0,0,0,.72-.06l8.8-1.6a4.609,4.609,0,0,0,.75-.21,3.64,3.64,0,0,0,1.26-.83,2.48,2.48,0,0,0,.76-1.72v-.05h0a1.728,1.728,0,0,0,0-.32l-1-5.75a.44.44,0,0,1,.17-.43.41.41,0,0,1,.13-.08,26.771,26.771,0,0,0,4.75-2.22h0c11.56-6.83,17-21.42,17.35-34.23v-.6h0V75.54" fill="#eaf2f5"/>
  <path id="Path_3415" data-name="Path 3415" d="M87.37,120.24l.42,2.33v0l-.42-2.33m15.66-.11v.05a2.48,2.48,0,0,1-.76,1.72,3.64,3.64,0,0,1-1.26.83,2.9,2.9,0,0,0,2-2.6m0,0h0m-56.49-1.27-.17,1a2.77,2.77,0,0,0,1.93,2.9,3.62,3.62,0,0,1-1.21-.81,2.48,2.48,0,0,1-.76-1.72,1.55,1.55,0,0,1,0-.37l.17-1m39.76-2.27h0c-.53,0-1.06.11-1.6.15.54,0,1.07-.1,1.6-.15h0m-23.23-.18a.45.45,0,0,0-.45.37l-1,5.79v0l1-5.79a.45.45,0,0,1,.45-.37h.06l.77.1-.77-.1h-.06M107,111.33a26.77,26.77,0,0,1-4.75,2.22.41.41,0,0,0-.13.08.41.41,0,0,1,.13-.08,27.15,27.15,0,0,0,4.75-2.22m0,0h0M124.37,76.5v0h0m0-.14v.14h0v-.14" fill="#eaf2f5"/>
  <path id="Path_3416" data-name="Path 3416" d="M54.61,34.08a1.71,1.71,0,0,0-.41.07h0l.36-.06m17.26-1.47c-1.34,0-2.7,0-4.05.08l-1.3.06,1.3-.06c1.32,0,2.67-.08,4.05-.08h0" fill="#eaf2f5"/>
  <path id="Path_3417" data-name="Path 3417" d="M66.85,43.37v0h0v0a40.71,40.71,0,0,1,10.43-1.21,48.92,48.92,0,0,1,13.72,2A2.163,2.163,0,1,0,92.19,40a53.17,53.17,0,0,0-14.91-2.12,44.57,44.57,0,0,0-11.64,1.38,2.13,2.13,0,0,0,1.21,4.08Z" fill="#cad7db"/>
  <rect id="Rectangle_1565" data-name="Rectangle 1565" width="150" height="150" fill="none"/>
  <g id="Netbanking_Icons-30" data-name="Netbanking Icons-30" transform="translate(51 51.001)">
    <rect id="Rectangle_478" data-name="Rectangle 478" width="55" height="55" transform="translate(0 -0.001)" fill="none"/>
    <path id="Path_1246" data-name="Path 1246" d="M33.47,13.747V55.329a1.743,1.743,0,0,0,1.743,1.732H63.868a1.743,1.743,0,0,0,1.747-1.743l-.3-33.578v-4.6l-1.581-.321c0-.964-.488-.517-1.452-.517l.565-.643L60.341,12H35.224a1.743,1.743,0,0,0-1.754,1.747Z" transform="translate(-21.108 -7.568)" fill="#df0f1b"/>
    <rect id="Rectangle_479" data-name="Rectangle 479" width="25.5" height="2.571" rx="1.285" transform="translate(15.701 15.972)" fill="#dee9ec"/>
    <rect id="Rectangle_480" data-name="Rectangle 480" width="25.5" height="2.571" rx="1.285" transform="translate(15.701 21.143)" fill="#dee9ec"/>
    <g id="Group_21451" data-name="Group 21451" transform="translate(39.163 4.436)" clip-path="url(#clip-path)">
      <rect id="Rectangle_481" data-name="Rectangle 481" width="6.711" height="6.896" rx="3.356" transform="translate(0.007 -1.681)" fill="#cbd8dc"/>
    </g>
    <rect id="Rectangle_482" data-name="Rectangle 482" width="55" height="55" transform="translate(0 -0.001)" fill="none"/>
    <rect id="Rectangle_21302" data-name="Rectangle 21302" width="14.5" height="2.571" rx="1.285" transform="translate(15.701 26.314)" fill="#dee9ec"/>
  </g>
</svg>
