<svg xmlns="http://www.w3.org/2000/svg" width="16" height="15.999" viewBox="0 0 16 15.999"><defs><style>.a{fill:#0070e0;}</style></defs><g transform="translate(0)"><path class="a" d="M.8,16a.726.726,0,0,1-.56-.24A.726.726,0,0,1,0,15.2V10.88a.861.861,0,0,1,.8-.8.8.8,0,0,1,.8.8V14.4H14.4V10.88a.756.756,0,0,1,.8-.8.8.8,0,0,1,.8.8V15.2a.756.756,0,0,1-.8.8ZM7.68,13.28l-2.4-2.32a.431.431,0,0,1,.32-.72H7.12V.88a.88.88,0,0,1,1.76,0v9.36H10.4a.431.431,0,0,1,.319.72l-2.4,2.32a.64.64,0,0,1-.35.12A.4.4,0,0,1,7.68,13.28Z" transform="translate(0)"/></g></svg>