<svg xmlns="http://www.w3.org/2000/svg" width="24" height="24" viewBox="0 0 24 24"><defs><style>.a{fill:rgba(21,165,82,0.2);}.b{fill:#16a652;}</style></defs><g transform="translate(-7010 -1875)"><circle class="a" cx="12" cy="12" r="12" transform="translate(7010 1875)"/><path class="b" d="M-2267-2370a12.011,12.011,0,0,1,12-12,12.01,12.01,0,0,1,12,12,12.01,12.01,0,0,1-12,12A12.01,12.01,0,0,1-2267-2370Zm1.456,0A10.534,10.534,0,0,0-2255-2359.456,10.534,10.534,0,0,0-2244.456-2370,10.534,10.534,0,0,0-2255-2380.544,10.534,10.534,0,0,0-2265.544-2370Zm4.211,2.35a1.148,1.148,0,0,1-.066-.392,1.011,1.011,0,0,1,1-1.017h10.8a1.011,1.011,0,0,1,1,1.017,1.16,1.16,0,0,1-.067.392,6.669,6.669,0,0,1-6.333,4.583A6.67,6.67,0,0,1-2261.333-2367.65Zm6.333,3.142a5.222,5.222,0,0,0,4.767-3.092h-9.533A5.223,5.223,0,0,0-2255-2364.509Zm2.533-9.158a1.277,1.277,0,0,1,1.267-1.267,1.277,1.277,0,0,1,1.266,1.267,1.277,1.277,0,0,1-1.266,1.266A1.277,1.277,0,0,1-2252.467-2373.667Zm-7.6,0a1.277,1.277,0,0,1,1.267-1.267,1.277,1.277,0,0,1,1.267,1.267,1.277,1.277,0,0,1-1.267,1.266A1.277,1.277,0,0,1-2260.067-2373.667Z" transform="translate(9277 4257)"/></g></svg>