<svg xmlns="http://www.w3.org/2000/svg" width="87" height="87" viewBox="0 0 87 87"><defs><style>.a{fill:none;}.b{fill:#c69294;}.c{fill:#f6dadb;}.d{fill:#edb5b8;}.e{fill:#bf171f;}</style></defs><g transform="translate(-831.874 -3613.777)"><rect class="a" width="87" height="87" transform="translate(831.874 3613.777)"/><g transform="translate(826.874 3613.777)"><path class="b" d="M911.674,3656.377a42,42,0,1,1-42-42A41.977,41.977,0,0,1,911.674,3656.377Z" transform="translate(-819.674 -3611.377)"/><path class="c" d="M916.274,3656.377a42,42,0,1,1-42-42A41.977,41.977,0,0,1,916.274,3656.377Z" transform="translate(-827.274 -3614.377)"/><path class="d" d="M908.174,3657.777a32.5,32.5,0,1,1-32.5-32.5A32.5,32.5,0,0,1,908.174,3657.777Z" transform="translate(-828.174 -3616.277)"/><path class="e" d="M0,35a3.034,3.034,0,0,1,3-3,2.992,2.992,0,0,1,3,3,3.035,3.035,0,0,1-3,3A3.035,3.035,0,0,1,0,35Zm0-8.1V6.03A2.841,2.841,0,0,1,3,3.464,2.841,2.841,0,0,1,6,6.03V26.9a2.842,2.842,0,0,1-3,2.567A2.842,2.842,0,0,1,0,26.9Z" transform="translate(45 20.536)"/></g></g></svg>