<svg xmlns="http://www.w3.org/2000/svg" width="18" height="18" viewBox="0 0 18 18">
  <defs>
    <style>
      .cls-1 {
        fill: #0070e0;
      }

      .cls-2 {
        fill: none;
      }
    </style>
  </defs>
  <g id="Group_22068" data-name="Group 22068" transform="translate(-940.558 -53.682)">
    <path id="Path_21529" data-name="Path 21529" class="cls-1" d="M962.846,76.136h5.41v1.546h-5.41Zm0-3.091h7.728V74.59h-7.728Zm0-3.091h7.728V71.5h-7.728Zm9.274-3.091h-3.23a2.309,2.309,0,0,0-4.359,0H961.3a1.355,1.355,0,0,0-.309.031,1.561,1.561,0,0,0-1.113.92,1.484,1.484,0,0,0-.124.6v10.82a1.582,1.582,0,0,0,.124.6,1.634,1.634,0,0,0,.332.495,1.552,1.552,0,0,0,.781.425,1.99,1.99,0,0,0,.309.023h10.82a1.55,1.55,0,0,0,1.546-1.546V68.407A1.55,1.55,0,0,0,972.12,66.862Zm-5.41-.193a.58.58,0,1,1-.58.58A.584.584,0,0,1,966.71,66.668Zm5.41,12.558H961.3V68.407h10.82Z" transform="translate(-17.153 -10.41)"/>
    <rect id="Rectangle_5248" data-name="Rectangle 5248" class="cls-2" width="18" height="18" transform="translate(940.558 53.682)"/>
  </g>
</svg>
