<svg xmlns="http://www.w3.org/2000/svg" width="14" height="14" viewBox="0 0 14 14"><defs><style>.a{fill:#0070e0;}</style></defs><path class="a" d="M24.11,9.9a2.283,2.283,0,0,0-2.253,1.711H12.865a.437.437,0,1,0,0,.873h8.992a2.268,2.268,0,0,0,2.253,1.711,2.22,2.22,0,0,0,2.29-2.147A2.22,2.22,0,0,0,24.11,9.9Zm0,3.421a1.277,1.277,0,1,1,1.359-1.274A1.326,1.326,0,0,1,24.11,13.321Zm-7.168,3.125a2.268,2.268,0,0,0-2.253-1.711,2.152,2.152,0,1,0,0,4.294,2.283,2.283,0,0,0,2.253-1.711h8.992a.437.437,0,1,0,0-.873ZM14.69,18.157a1.277,1.277,0,1,1,1.359-1.274A1.326,1.326,0,0,1,14.69,18.157Zm-1.824,4.032h8.992A2.268,2.268,0,0,0,24.11,23.9a2.152,2.152,0,1,0,0-4.294,2.283,2.283,0,0,0-2.253,1.711H12.865a.437.437,0,1,0,0,.873ZM24.11,20.479a1.277,1.277,0,1,1-1.359,1.274A1.326,1.326,0,0,1,24.11,20.479Z" transform="translate(-12.4 -9.9)"/></svg>