<svg xmlns="http://www.w3.org/2000/svg" xmlns:xlink="http://www.w3.org/1999/xlink" width="150" height="150" viewBox="0 0 150 150">
  <defs>
    <clipPath id="clip-path">
      <path id="Path_2325" data-name="Path 2325" d="M106.23,12.01,119.7,26.05v2.29l-13.67-.61Z" fill="none"/>
    </clipPath>
  </defs>
  <g id="Group_68006" data-name="Group 68006" transform="translate(-8636 -2710)">
    <g id="Netbanking_Icons_NACH_Cancellation" data-name="Netbanking Icons_NACH Cancellation" transform="translate(8636 2710)">
      <path id="Path_2323" data-name="Path 2323" d="M115.56,23.27a.32.32,0,0,1-.08-.09q-3.06-3-6.1-6.1a.53.53,0,0,1-.1-.06c-.33-.35-.68-.67-1-1H34.78a5.27,5.27,0,0,0-5.28,5.27V132.72A5.27,5.27,0,0,0,34.78,138h76.48a5.27,5.27,0,0,0,5.27-5.27V24.07a12.491,12.491,0,0,0-.97-.8Z" fill="#cbd8dc"/>
      <path id="Path_2324" data-name="Path 2324" d="M33.47,16.73V129.31A4.72,4.72,0,0,0,38.19,134h77.58a4.72,4.72,0,0,0,4.73-4.72l-.82-90.91V25.92l-4.28-.87c0-2.61-1.32-1.4-3.93-1.4L113,21.91,106.22,12h-68a4.72,4.72,0,0,0-4.75,4.73Z" fill="#eaf2f5"/>
      <rect id="Rectangle_1082" data-name="Rectangle 1082" width="69.04" height="6.96" rx="3.48" transform="translate(42.51 100.1)" fill="#dee9ec"/>
      <rect id="Rectangle_1083" data-name="Rectangle 1083" width="69.04" height="6.96" rx="3.48" transform="translate(42.51 114.1)" fill="#dee9ec"/>
      <g id="Group_21577" data-name="Group 21577" clip-path="url(#clip-path)">
        <rect id="Rectangle_1084" data-name="Rectangle 1084" width="18.17" height="18.67" rx="5.2" transform="translate(106.05 7.46)" fill="#cbd8dc"/>
      </g>
      <circle id="Ellipse_1833" data-name="Ellipse 1833" cx="32.88" cy="32.88" r="32.88" transform="translate(44.1 24.9)" fill="#dee9ec"/>
      <circle id="Ellipse_1834" data-name="Ellipse 1834" cx="32.88" cy="32.88" r="32.88" transform="translate(42.1 26.08)" fill="#dee9ec"/>
      <rect id="Rectangle_1085" data-name="Rectangle 1085" width="150" height="150" fill="none"/>
      <g id="Layer_2" data-name="Layer 2" transform="translate(61.292 37.085)">
        <path id="Path_23812" data-name="Path 23812" d="M27.45,69.387C23.82,74.2,15.643,74.351,14.873,74.356c-.662,0-9.078-.044-12.833-4.969-4.363-5.716-1.925-17.327,8.626-25.8a1.3,1.3,0,0,1,.819-.282H17.75a1.3,1.3,0,0,1,.816.282C29.205,52.109,31.744,63.694,27.45,69.387Z" transform="translate(0 -31.989)" fill="#e0121b"/>
        <path id="Path_23813" data-name="Path 23813" d="M36.928.5a.67.67,0,0,1,.326.909A21.024,21.024,0,0,1,34.2,6a20.744,20.744,0,0,1-3.534,3.213.675.675,0,0,1-.393.126H23.286a.662.662,0,0,1-.39-.126A20.654,20.654,0,0,1,19.357,6a20.949,20.949,0,0,1-2.911-4.309.672.672,0,0,1,.562-.978A10.634,10.634,0,0,1,18.987.8c2.472.352,2.936,1.33,4.453,1.114,1.874-.272,2.12-1.928,3.711-1.856,1.383.064,1.5,1.332,2.967,1.484C31.692,1.7,32.29.323,34.2.059A5.069,5.069,0,0,1,36.928.5Z" transform="translate(-12.184 -1)" fill="#e0121b"/>
        <path id="Path_1273" data-name="Path 1273" d="M73.243,50.045H70.908a3.218,3.218,0,0,0-.592-1.475h0c-.028-.041-.065-.077-.1-.118h3.044a.811.811,0,0,0,0-1.593H63.324a.811.811,0,1,0,0,1.593h2.651a6.044,6.044,0,0,1,1.775.247,2.505,2.505,0,0,1,1.277.811h0a1.524,1.524,0,0,1,.259.519H63.324a.811.811,0,1,0,0,1.589h5.817a3.368,3.368,0,0,1-.559.924,2.979,2.979,0,0,1-1.508.94,7.191,7.191,0,0,1-2.027.239h-.5a.811.811,0,0,0-.612,1.293l6.027,7.56a.8.8,0,0,0,1.244-.993l-5.03-6.319a7.35,7.35,0,0,0,1.366-.247A4.621,4.621,0,0,0,69.8,53.592a4.937,4.937,0,0,0,1.009-1.954h2.432a.811.811,0,1,0,0-1.589Z" transform="translate(-53.572 -27.23)" fill="#fff"/>
      </g>
    </g>
  </g>
</svg>
