<svg xmlns="http://www.w3.org/2000/svg" width="20" height="20" viewBox="0 0 20 20">
  <g id="Group_67481" data-name="Group 67481" transform="translate(-3468 -126)">
    <g id="Icon_ionic-ios-chatboxes" data-name="Icon ionic-ios-chatboxes" transform="translate(3458.314 116.019)">
      <path id="Path_23160" data-name="Path 23160" d="M25.86,11.981H13.765a2.082,2.082,0,0,0-2.079,2.079v8.421a2.078,2.078,0,0,0,2.079,2.074h6.921a.6.6,0,0,1,.415.175L24.539,27.9c.191.186.508.109.508-.158V24.982c0-.327.207-.431.535-.431h.055a2.272,2.272,0,0,0,2.3-2.074V14.061A2.071,2.071,0,0,0,25.86,11.981Z" fill="#6b8199"/>
    </g>
    <path id="Path_23155" data-name="Path 23155" d="M0,0H20V20H0Z" transform="translate(3468 126)" fill="none"/>
    <text id="आ" transform="translate(3473 137)" fill="#fff" font-size="8" font-family="NirmalaUI-Bold, Nirmala UI" font-weight="700"><tspan x="0" y="0">आ</tspan></text>
  </g>
</svg>
