<svg id="baseline-add_box-24px" xmlns="http://www.w3.org/2000/svg" width="20" height="20" viewBox="0 0 20 20">
  <path id="Path_21891" data-name="Path 21891" d="M0,0H20V20H0Z" fill="none"/>
  <path id="ic_favorite_bg" d="M14.123,17.7a1.128,1.128,0,0,1-.564-.13L10.173,15.69,6.788,17.569a1.224,1.224,0,0,1-.564.135A1.128,1.128,0,0,1,5.1,16.576a1.236,1.236,0,0,1,0-.2L5.75,12.39,2.957,9.569a1.146,1.146,0,0,1,.649-1.935l3.837-.564L9.135,3.481a1.137,1.137,0,0,1,2.088-.039L12.916,7.03l3.837.564A1.141,1.141,0,0,1,17.4,9.529L14.574,12.35l.677,3.995A1.168,1.168,0,0,1,14.123,17.7Z" transform="translate(-0.18 -0.237)" fill="#ee1c25"/>
</svg>
