<svg id="Image_card" xmlns="http://www.w3.org/2000/svg" width="48" height="48" viewBox="0 0 48 48">
  <rect id="Rectangle_81" data-name="Rectangle 81" width="48" height="48" transform="translate(0)" fill="none"/>
  <path id="Path_555" data-name="Path 555" d="M50.328,33.464a2.417,2.417,0,0,0-2.4-2.4L9.464,31a2.445,2.445,0,0,0-2.432,2.4L7,55.608a2.417,2.417,0,0,0,2.4,2.4l38.464.064a2.424,2.424,0,0,0,2.432-2.4Z" transform="translate(-4.76 -21.08)" fill="#c1cfd4"/>
  <path id="Path_556" data-name="Path 556" d="M52.436,33.464a2.4,2.4,0,0,0-2.394-2.4h-.006L11.732,31a2.4,2.4,0,0,0-2.4,2.394V33.4L9.3,55.608a2.417,2.417,0,0,0,2.4,2.4l38.3.064a2.4,2.4,0,0,0,2.4-2.394v-.006Z" transform="translate(-6.324 -21.08)" fill="#e6f0f4"/>
  <path id="Path_557" data-name="Path 557" d="M16.559,98h6.752a.96.96,0,1,1,0,1.92H16.559a.943.943,0,0,1-.96-.925c0-.012,0-.023,0-.035A.963.963,0,0,1,16.559,98Z" transform="translate(-10.607 -66.64)" fill="#d60013"/>
  <path id="Path_558" data-name="Path 558" d="M46.859,98h6.752a.96.96,0,0,1,0,1.92H46.859a.943.943,0,0,1-.96-.925c0-.012,0-.023,0-.035A.963.963,0,0,1,46.859,98Z" transform="translate(-31.211 -66.64)" fill="#d60013"/>
  <path id="Path_559" data-name="Path 559" d="M77.16,98h6.752a.96.96,0,0,1,0,1.92H77.16a.96.96,0,0,1,0-1.92Z" transform="translate(-51.816 -66.64)" fill="#d60013"/>
  <path id="Path_560" data-name="Path 560" d="M107.459,98h6.752a.96.96,0,0,1,0,1.92h-6.752a.943.943,0,0,1-.96-.925c0-.012,0-.023,0-.035A.963.963,0,0,1,107.459,98Z" transform="translate(-72.419 -66.64)" fill="#d60013"/>
  <path id="Path_561" data-name="Path 561" d="M17.755,42H28.539a1.065,1.065,0,0,1,1.056,1.056V45.1a1.065,1.065,0,0,1-1.056,1.056H17.755A1.065,1.065,0,0,1,16.7,45.1V43.055A1.024,1.024,0,0,1,17.69,42Z" transform="translate(-11.355 -28.559)" fill="#c1cfd4"/>
  <path id="Path_562" data-name="Path 562" d="M92.576,42.107a7.84,7.84,0,1,1-7.84,7.84h0A7.853,7.853,0,0,1,92.576,42.107Z" transform="translate(-57.62 -28.633)" fill="#d8e6e9"/>
  <g id="Group_67159" data-name="Group 67159" transform="translate(30.029 16.388)">
    <circle id="Ellipse_1990" data-name="Ellipse 1990" cx="0.739" cy="0.739" r="0.739" transform="translate(3.448 1.97)" fill="#d60013"/>
    <path id="Path_22909" data-name="Path 22909" d="M102.709,51.212H94.826a.985.985,0,0,0-.985.985V60.08a.985.985,0,0,0,.285.694h0a.987.987,0,0,0,.7.291h7.882a.985.985,0,0,0,.985-.985V52.2A.985.985,0,0,0,102.709,51.212Zm0,.985v4.212L100.95,54.66a.985.985,0,0,0-1.394,0h0l-1.773,1.759-.8-.813a.985.985,0,0,0-.675-.291h0a.985.985,0,0,0-.7.291l-.778.759V52.2Zm-7.882,5.562L96.3,56.281l.793.843-2.271,2.261Zm.694,2.32,4.724-4.73,2.463,2.463V60.08Z" transform="translate(-93.841 -51.212)" fill="#d60013"/>
  </g>
  <g id="Group_67251" data-name="Group 67251" transform="translate(5.76 20.151)">
    <path id="Path_923" data-name="Path 923" d="M108,46.977V42.2h1.536a2.259,2.259,0,0,1,1.139.288,2.006,2.006,0,0,1,.79.81,2.474,2.474,0,0,1,.288,1.174V44.7a2.448,2.448,0,0,1-.278,1.174,2.038,2.038,0,0,1-.781.816,2.2,2.2,0,0,1-1.123.294Zm1.162-3.882v3h.4a.886.886,0,0,0,.758-.352,1.706,1.706,0,0,0,.266-1.046v-.208a1.7,1.7,0,0,0-.266-1.043.912.912,0,0,0-.774-.352Z" transform="translate(-108 -42.127)" fill="#e0121b"/>
    <path id="Path_924" data-name="Path 924" d="M124.759,45.207a1.76,1.76,0,0,1-.269.88,1.6,1.6,0,0,1-.691.592,2.336,2.336,0,0,1-1.014.211,1.882,1.882,0,0,1-1.485-.614,2.528,2.528,0,0,1-.541-1.734V44.3A2.88,2.88,0,0,1,121,43.076a1.821,1.821,0,0,1,.7-.813,1.968,1.968,0,0,1,1.066-.288,2.058,2.058,0,0,1,1.4.458,1.8,1.8,0,0,1,.6,1.261h-1.149a.848.848,0,0,0-.218-.64.922.922,0,0,0-.64-.189.685.685,0,0,0-.64.32,2.054,2.054,0,0,0-.211,1.027v.339a2.278,2.278,0,0,0,.192,1.091.7.7,0,0,0,.662.32.877.877,0,0,0,.6-.189.787.787,0,0,0,.224-.592Z" transform="translate(-116.672 -41.973)" fill="#e0121b"/>
  </g>
</svg>
