<svg id="Netbanking_Icons-29" data-name="Netbanking Icons-29" xmlns="http://www.w3.org/2000/svg" xmlns:xlink="http://www.w3.org/1999/xlink" width="48" height="48" viewBox="0 0 48 48">
  <defs>
    <clipPath id="clip-path">
      <path id="Path_1243" data-name="Path 1243" d="M106.094,12.01,110.4,16.5v.733l-4.374-.2Z" transform="translate(-106.03 -12.01)" fill="none"/>
    </clipPath>
  </defs>
  <rect id="Rectangle_473" data-name="Rectangle 473" width="48" height="48" fill="none"/>
  <path id="Path_1241" data-name="Path 1241" d="M57.039,18.34a.1.1,0,0,1-.026-.029q-.979-.96-1.952-1.952a.169.169,0,0,1-.032-.019c-.106-.112-.218-.214-.32-.32H31.19a1.686,1.686,0,0,0-1.69,1.686V53.364a1.686,1.686,0,0,0,1.69,1.69H55.663a1.686,1.686,0,0,0,1.686-1.686V18.6A4,4,0,0,0,57.039,18.34Z" transform="translate(-20.06 -10.894)" fill="#cbd8dc"/>
  <path id="Path_1242" data-name="Path 1242" d="M33.47,13.514V49.539a1.51,1.51,0,0,0,1.51,1.5H59.806a1.51,1.51,0,0,0,1.514-1.51l-.262-29.091V16.454l-1.37-.278c0-.835-.422-.448-1.258-.448l.49-.557L56.75,12H34.99a1.51,1.51,0,0,0-1.52,1.514Z" transform="translate(-22.76 -8.16)" fill="#eaf2f5"/>
  <rect id="Rectangle_474" data-name="Rectangle 474" width="22.093" height="2.227" rx="1.114" transform="translate(13.603 32.032)" fill="#dee9ec"/>
  <rect id="Rectangle_475" data-name="Rectangle 475" width="22.093" height="2.227" rx="1.114" transform="translate(13.603 36.512)" fill="#dee9ec"/>
  <g id="Group_21450" data-name="Group 21450" transform="translate(33.93 3.843)" clip-path="url(#clip-path)">
    <rect id="Rectangle_476" data-name="Rectangle 476" width="5.814" height="5.974" rx="2.907" transform="translate(0.006 -1.456)" fill="#cbd8dc"/>
  </g>
  <circle id="Ellipse_1610" data-name="Ellipse 1610" cx="10.522" cy="10.522" r="10.522" transform="translate(14.112 7.968)" fill="#dee9ec"/>
  <path id="Path_1244" data-name="Path 1244" d="M58.83,43.63V43.6a2.569,2.569,0,0,1,2.579-2.7,2.539,2.539,0,0,1,2.56,2.672V43.6a2.578,2.578,0,0,1-2.579,2.7A2.539,2.539,0,0,1,58.83,43.63Zm3.546,0V43.6c0-.71-.394-1.328-1-1.328s-.96.6-.96,1.3V43.6c0,.707.39,1.328,1,1.328S62.376,44.308,62.376,43.63Zm-1.69,6.851,6.742-9.229a.768.768,0,0,1,.621-.32.707.707,0,0,1,.707.71.749.749,0,0,1-.166.483l-6.742,9.229a.771.771,0,0,1-.621.32.707.707,0,0,1-.707-.71A.842.842,0,0,1,60.686,50.481Zm4.63-1.45V49A2.569,2.569,0,0,1,67.9,46.3a2.536,2.536,0,0,1,2.56,2.669V49a2.576,2.576,0,0,1-2.579,2.7A2.536,2.536,0,0,1,65.316,49.031Zm3.546,0V49c0-.71-.394-1.328-1-1.328s-.96.6-.96,1.3V49c0,.707.394,1.328,1,1.328S68.862,49.71,68.862,49.031Z" transform="translate(-40.004 -27.812)" fill="#df0f1b"/>
  <rect id="Rectangle_477" data-name="Rectangle 477" width="48" height="48" fill="none"/>
</svg>
