<svg id="Group_67201" data-name="Group 67201" xmlns="http://www.w3.org/2000/svg" xmlns:xlink="http://www.w3.org/1999/xlink" width="48" height="48" viewBox="0 0 48 48">
  <defs>
    <clipPath id="clip-path">
      <path id="Path_22933" data-name="Path 22933" d="M10.76,41.4H51.432a.963.963,0,0,1,.96.96V61.816a.962.962,0,0,1-.96.96H10.76a.963.963,0,0,1-.96-.96V42.36A.963.963,0,0,1,10.76,41.4Z" transform="translate(-9.8 -41.4)" fill="none"/>
    </clipPath>
  </defs>
  <rect id="Rectangle_192" data-name="Rectangle 192" width="48" height="48" fill="none"/>
  <rect id="Rectangle_57" data-name="Rectangle 57" width="48" height="48" fill="none"/>
  <rect id="Rectangle_59" data-name="Rectangle 59" width="48" height="48" fill="none"/>
  <g id="Group_67200" data-name="Group 67200" transform="translate(2.272 13.248)">
    <path id="Path_378" data-name="Path 378" d="M8.06,41.4H48.732a.963.963,0,0,1,.96.96V61.815a.962.962,0,0,1-.96.96H8.06a.962.962,0,0,1-.96-.96V42.359a.943.943,0,0,1,.925-.96Z" transform="translate(-7.099 -41.399)" fill="#c1cfd4"/>
    <g id="Group_149" data-name="Group 149" transform="translate(0.864 0)">
      <g id="Group_148" data-name="Group 148">
        <g id="Group_67197" data-name="Group 67197">
          <g id="Group_67196" data-name="Group 67196" clip-path="url(#clip-path)">
            <g id="Group_147" data-name="Group 147">
              <path id="Path_379" data-name="Path 379" d="M10.76,41.4H51.432a.963.963,0,0,1,.96.96V61.816a.962.962,0,0,1-.96.96H10.76a.963.963,0,0,1-.96-.96V42.36A.963.963,0,0,1,10.76,41.4Z" transform="translate(-9.8 -41.4)" fill="#e7f1f5"/>
            </g>
          </g>
        </g>
      </g>
    </g>
    <path id="Path_381" data-name="Path 381" d="M28.459,92.7h13.5a.943.943,0,0,1,.96.925c0,.012,0,.023,0,.035v.192a.943.943,0,0,1-.925.96H28.459a.943.943,0,0,1-.96-.925c0-.012,0-.023,0-.035v-.192a.943.943,0,0,1,.925-.96Z" transform="translate(-20.971 -76.283)" fill="#c1cfd4"/>
    <path id="Path_382" data-name="Path 382" d="M28.459,79h13.5a.943.943,0,0,1,.96.925c0,.012,0,.023,0,.035v.192a.943.943,0,0,1-.925.96H28.459a.943.943,0,0,1-.96-.925c0-.012,0-.023,0-.035v-.192a.943.943,0,0,1,.925-.96Z" transform="translate(-20.971 -66.967)" fill="#d8e6e9"/>
    <path id="Path_383" data-name="Path 383" d="M28.459,67h13.5a.943.943,0,0,1,.96.925c0,.012,0,.023,0,.035v.192a.943.943,0,0,1-.925.96H28.459a.943.943,0,0,1-.96-.925c0-.012,0-.023,0-.035v-.192a.943.943,0,0,1,.925-.96Z" transform="translate(-20.971 -58.807)" fill="#d8e6e9"/>
    <path id="Path_384" data-name="Path 384" d="M28.908,50.3H39.116a1.421,1.421,0,0,1,1.408,1.408v.7a1.421,1.421,0,0,1-1.408,1.408H28.908A1.421,1.421,0,0,1,27.5,52.412v-.7A1.421,1.421,0,0,1,28.908,50.3Z" transform="translate(-20.972 -47.452)" fill="#d8e6e9"/>
    <g id="Group_152" data-name="Group 152" transform="translate(0.864 0)">
      <g id="Group_151" data-name="Group 151">
        <g id="Group_67199" data-name="Group 67199">
          <g id="Group_67198" data-name="Group 67198" clip-path="url(#clip-path)">
            <g id="Group_150" data-name="Group 150" transform="translate(-4.192 -3.2)">
              <rect id="Rectangle_58" data-name="Rectangle 58" width="7.616" height="26.848" transform="translate(0)" fill="#d60013"/>
            </g>
          </g>
        </g>
      </g>
    </g>
    <path id="Path_22935" data-name="Path 22935" d="M110.4,71.031a.561.561,0,0,1-.363-.134l-2.163-2.162a.556.556,0,0,1-.165-.394V64.89a.559.559,0,1,1,1.118,0v3.217l1.991,1.993a.559.559,0,0,1-.418.93Z" transform="translate(-75.511 -56.993)" fill="#d60013"/>
    <path id="Path_22936" data-name="Path 22936" d="M89.906,66.4V62.389l-1.6,1.6a6.351,6.351,0,0,1,5.109-10.124v-1.17a7.518,7.518,0,0,0-5.943,12.128L85.894,66.4Z" transform="translate(-60.68 -49.08)" fill="#d60013"/>
    <path id="Path_22937" data-name="Path 22937" d="M112.418,54.152l.29-1.133a7.519,7.519,0,0,0-1.069-.192l-.124,1.164A6.341,6.341,0,0,1,112.418,54.152Z" transform="translate(-78.103 -49.169)" fill="#d60013"/>
    <path id="Path_22938" data-name="Path 22938" d="M129.436,69.074l-1.115.355a6.313,6.313,0,0,1,.213.891l1.155-.189A7.483,7.483,0,0,0,129.436,69.074Z" transform="translate(-89.53 -60.218)" fill="#d60013"/>
    <path id="Path_22939" data-name="Path 22939" d="M109.4,97.081A7.572,7.572,0,0,0,110.483,97l-.168-1.158a6.439,6.439,0,0,1-.915.065Z" transform="translate(-76.664 -78.422)" fill="#d60013"/>
    <path id="Path_22940" data-name="Path 22940" d="M122.692,57.991l-.74.906a6.4,6.4,0,0,1,.667.63l.863-.791A7.626,7.626,0,0,0,122.692,57.991Z" transform="translate(-85.199 -52.682)" fill="#d60013"/>
    <path id="Path_22941" data-name="Path 22941" d="M125.817,63.641a6.325,6.325,0,0,1,.46.794l1.052-.513a7.511,7.511,0,0,0-.545-.94Z" transform="translate(-87.827 -56.076)" fill="#d60013"/>
    <path id="Path_22942" data-name="Path 22942" d="M117.5,54.506l-.451,1.08a6.354,6.354,0,0,1,.817.414l.6-1A7.451,7.451,0,0,0,117.5,54.506Z" transform="translate(-81.868 -50.312)" fill="#d60013"/>
    <path id="Path_22943" data-name="Path 22943" d="M127.881,81.5a6.344,6.344,0,0,1-.308.864l1.071.472a7.5,7.5,0,0,0,.365-1.024Z" transform="translate(-89.021 -68.666)" fill="#d60013"/>
    <path id="Path_22944" data-name="Path 22944" d="M129.143,75.778c0,.04,0,.08,0,.12a6.436,6.436,0,0,1-.049.8l1.161.145a7.6,7.6,0,0,0,.059-.942c0-.047,0-.1,0-.142Z" transform="translate(-90.056 -64.762)" fill="#d60013"/>
    <path id="Path_22945" data-name="Path 22945" d="M126.07,87.348l-.991-.621a6.352,6.352,0,0,1-.542.74l.892.757A7.611,7.611,0,0,0,126.07,87.348Z" transform="translate(-86.957 -72.222)" fill="#d60013"/>
    <path id="Path_22946" data-name="Path 22946" d="M115.06,94.542l.333,1.122a7.5,7.5,0,0,0,1.017-.384l-.492-1.061A6.353,6.353,0,0,1,115.06,94.542Z" transform="translate(-80.513 -77.316)" fill="#d60013"/>
    <path id="Path_22947" data-name="Path 22947" d="M121.752,91.964l-.775-.877a6.343,6.343,0,0,1-.73.556l.64.98A7.6,7.6,0,0,0,121.752,91.964Z" transform="translate(-84.04 -75.187)" fill="#d60013"/>
  </g>
</svg>
