<svg id="Group_67265" data-name="Group 67265" xmlns="http://www.w3.org/2000/svg" width="48" height="48" viewBox="0 0 48 48">
  <rect id="Rectangle_38" data-name="Rectangle 38" width="48" height="48" fill="none"/>
  <g id="Group_67264" data-name="Group 67264" transform="translate(3.744 5.058)">
    <g id="Group_67261" data-name="Group 67261">
      <g id="Group_67259" data-name="Group 67259">
        <rect id="Rectangle_32" data-name="Rectangle 32" width="25.846" height="16.811" transform="translate(5.69 14.145)" fill="#c1cfd4"/>
        <rect id="Rectangle_33" data-name="Rectangle 33" width="4.353" height="17.003" transform="translate(12.206 14.118)" fill="#d8e6e9"/>
        <rect id="Rectangle_34" data-name="Rectangle 34" width="4.353" height="17.003" transform="translate(20.146 14.118)" fill="#d8e6e9"/>
        <rect id="Rectangle_35" data-name="Rectangle 35" width="4.353" height="17.003" transform="translate(28.086 14.118)" fill="#d8e6e9"/>
        <rect id="Rectangle_36" data-name="Rectangle 36" width="4.353" height="17.003" transform="translate(4.294 14.118)" fill="#d8e6e9"/>
        <path id="Path_227" data-name="Path 227" d="M14.41,112.545h33.54a1.01,1.01,0,0,1,1.013,1.008v4.906a1.01,1.01,0,0,1-1.009,1.013H14.41a1.01,1.01,0,0,1-1.013-1.008v-4.906a.994.994,0,0,1,.974-1.013Z" transform="translate(-12.854 -81.589)" fill="#e6f0f4"/>
        <path id="Path_228" data-name="Path 228" d="M48.083,28.94,29.41,15.907a.535.535,0,0,0-.657.027L12.764,28.31l-.849.657a.561.561,0,0,0-.109.767.571.571,0,0,0,.438.219H47.782a.549.549,0,0,0,.548-.548A.538.538,0,0,0,48.083,28.94Z" transform="translate(-11.701 -15.808)" fill="#e6f0f4"/>
        <path id="Path_235" data-name="Path 235" d="M55.445,32.429,44.137,24.544a.373.373,0,0,0-.411,0l-9.665,7.5-.52.383a.325.325,0,0,0-.087.452.284.284,0,0,0,.033.041.336.336,0,0,0,.274.137H55.253a.323.323,0,0,0,.329-.356A.337.337,0,0,0,55.445,32.429Z" transform="translate(-26.455 -21.706)" fill="#c1cfd4"/>
      </g>
      <g id="Group_67260" data-name="Group 67260" transform="translate(6.437 32.457)">
        <path id="Path_22999" data-name="Path 22999" d="M34.167,120.361h-1.2l-.21.68h-.937l1.335-3.64h.825l1.345,3.64h-.943Zm-.992-.677h.782l-.393-1.263Z" transform="translate(-31.817 -117.349)" fill="#d60013"/>
        <path id="Path_23000" data-name="Path 23000" d="M46.161,119.7a1.327,1.327,0,0,1-.205.671,1.236,1.236,0,0,1-.526.451,1.793,1.793,0,0,1-.774.16,1.43,1.43,0,0,1-1.13-.468,1.93,1.93,0,0,1-.412-1.32v-.18a2.208,2.208,0,0,1,.186-.936,1.412,1.412,0,0,1,.536-.62,1.5,1.5,0,0,1,.81-.219,1.569,1.569,0,0,1,1.065.349,1.377,1.377,0,0,1,.457.961h-.875a.651.651,0,0,0-.168-.478.69.69,0,0,0-.48-.145.524.524,0,0,0-.48.245,1.578,1.578,0,0,0-.16.782v.258a1.738,1.738,0,0,0,.147.832.535.535,0,0,0,.5.25.673.673,0,0,0,.462-.143.6.6,0,0,0,.17-.452Z" transform="translate(-39.498 -117.237)" fill="#d60013"/>
        <path id="Path_23001" data-name="Path 23001" d="M56.661,119.7a1.327,1.327,0,0,1-.205.671,1.236,1.236,0,0,1-.526.451,1.793,1.793,0,0,1-.774.16,1.43,1.43,0,0,1-1.13-.468,1.93,1.93,0,0,1-.412-1.32v-.18a2.208,2.208,0,0,1,.186-.936,1.412,1.412,0,0,1,.536-.62,1.5,1.5,0,0,1,.81-.219,1.569,1.569,0,0,1,1.065.349,1.377,1.377,0,0,1,.457.961h-.875a.652.652,0,0,0-.168-.478.69.69,0,0,0-.48-.145.524.524,0,0,0-.48.245,1.578,1.578,0,0,0-.16.782v.258a1.738,1.738,0,0,0,.147.832.535.535,0,0,0,.5.25.673.673,0,0,0,.462-.143.6.6,0,0,0,.17-.452Z" transform="translate(-46.638 -117.237)" fill="#d60013"/>
        <path id="Path_23002" data-name="Path 23002" d="M67.3,119.19a2.148,2.148,0,0,1-.2.942,1.457,1.457,0,0,1-.561.631,1.562,1.562,0,0,1-.828.221,1.587,1.587,0,0,1-.825-.214,1.456,1.456,0,0,1-.561-.611,2.086,2.086,0,0,1-.212-.913v-.2a2.155,2.155,0,0,1,.2-.944,1.457,1.457,0,0,1,.563-.631,1.666,1.666,0,0,1,1.659,0,1.481,1.481,0,0,1,.564.626,2.1,2.1,0,0,1,.2.931Zm-.893-.153a1.53,1.53,0,0,0-.181-.824.581.581,0,0,0-.519-.281q-.66,0-.7.99l0,.268a1.574,1.574,0,0,0,.178.822.58.58,0,0,0,.528.287.573.573,0,0,0,.512-.282,1.528,1.528,0,0,0,.182-.812Z" transform="translate(-53.778 -117.242)" fill="#d60013"/>
        <path id="Path_23003" data-name="Path 23003" d="M78.309,117.4v2.382a1.368,1.368,0,0,1-.172.7,1.12,1.12,0,0,1-.495.451,1.743,1.743,0,0,1-.763.155,1.506,1.506,0,0,1-1.048-.345,1.23,1.23,0,0,1-.39-.945v-2.4h.882v2.418q.015.6.555.6a.538.538,0,0,0,.412-.15.7.7,0,0,0,.14-.487V117.4Z" transform="translate(-61.482 -117.349)" fill="#d60013"/>
        <path id="Path_23004" data-name="Path 23004" d="M89.153,121.041h-.872l-1.29-2.265v2.265h-.878V117.4h.878l1.287,2.265V117.4h.875Z" transform="translate(-68.738 -117.349)" fill="#d60013"/>
        <path id="Path_23005" data-name="Path 23005" d="M99.586,118.078H98.493v2.963h-.877v-2.963H96.543V117.4h3.043Z" transform="translate(-75.831 -117.349)" fill="#d60013"/>
      </g>
    </g>
    <g id="Group_67263" data-name="Group 67263" transform="translate(17.072 2.996)">
      <g id="Group_67262" data-name="Group 67262">
        <path id="Path_1452" data-name="Path 1452" d="M87.816,36.551a11.383,11.383,0,1,1-11.388-11.38,11.383,11.383,0,0,1,11.388,11.38Z" transform="translate(-65.05 -25.171)" fill="#cad7db"/>
        <path id="Path_1453" data-name="Path 1453" d="M89.921,36.551a11.383,11.383,0,1,1-11.386-11.38h.01A11.383,11.383,0,0,1,89.921,36.551Z" transform="translate(-66.481 -25.171)" fill="#eaf2f5"/>
        <path id="Path_1454" data-name="Path 1454" d="M92.021,40.513A9.517,9.517,0,1,1,82.5,31h.009A9.517,9.517,0,0,1,92.021,40.513Z" transform="translate(-70.447 -29.133)" fill="#dee9ec"/>
      </g>
      <path id="Path_23006" data-name="Path 23006" d="M94.809,47.7l-2.1,1.894a3.009,3.009,0,0,1-4.244-.219l-.237-.263a.53.53,0,0,1,.788-.71l.236.263A1.947,1.947,0,0,0,92,48.81l2.1-1.894a1.945,1.945,0,1,0-2.6-2.888l-1.838,1.658a.53.53,0,1,1-.71-.788l1.838-1.658A3.005,3.005,0,0,1,94.809,47.7ZM90.384,50.98a.531.531,0,0,0-.749-.039L87.8,52.6a1.945,1.945,0,0,1-2.6-2.888l2.1-1.894a1.947,1.947,0,0,1,2.747.142l.237.262a.53.53,0,1,0,.788-.71l-.237-.262a3.009,3.009,0,0,0-4.244-.219l-2.1,1.894a3.005,3.005,0,0,0,4.025,4.464l1.838-1.658A.531.531,0,0,0,90.384,50.98Z" transform="translate(-77.589 -36.932)" fill="#d60013"/>
    </g>
  </g>
</svg>
