<svg id="link_debit_card" xmlns="http://www.w3.org/2000/svg" width="48" height="48" viewBox="0 0 48 48">
  <rect id="Rectangle_81" data-name="Rectangle 81" width="48" height="48" transform="translate(0)" fill="none"/>
  <g id="Group_67321" data-name="Group 67321" transform="translate(2.24 9.92)">
    <path id="Path_555" data-name="Path 555" d="M50.328,33.464a2.417,2.417,0,0,0-2.4-2.4L9.464,31a2.445,2.445,0,0,0-2.432,2.4L7,55.608a2.417,2.417,0,0,0,2.4,2.4l38.464.064a2.424,2.424,0,0,0,2.432-2.4Z" transform="translate(-7 -31)" fill="#c1cfd4"/>
    <path id="Path_556" data-name="Path 556" d="M52.436,33.464a2.4,2.4,0,0,0-2.394-2.4h-.006L11.732,31a2.4,2.4,0,0,0-2.4,2.394V33.4L9.3,55.608a2.417,2.417,0,0,0,2.4,2.4l38.3.064a2.4,2.4,0,0,0,2.4-2.394v-.006Z" transform="translate(-8.564 -31)" fill="#e6f0f4"/>
    <path id="Path_557" data-name="Path 557" d="M16.559,98h6.752a.96.96,0,1,1,0,1.92H16.559a.943.943,0,0,1-.96-.925c0-.012,0-.023,0-.035A.963.963,0,0,1,16.559,98Z" transform="translate(-12.847 -76.56)" fill="#d60013"/>
    <path id="Path_558" data-name="Path 558" d="M46.859,98h6.752a.96.96,0,0,1,0,1.92H46.859a.943.943,0,0,1-.96-.925c0-.012,0-.023,0-.035A.963.963,0,0,1,46.859,98Z" transform="translate(-33.451 -76.56)" fill="#d60013"/>
    <path id="Path_559" data-name="Path 559" d="M77.16,98h6.752a.96.96,0,0,1,0,1.92H77.16a.96.96,0,0,1,0-1.92Z" transform="translate(-54.056 -76.56)" fill="#d60013"/>
    <path id="Path_560" data-name="Path 560" d="M107.459,98h6.752a.96.96,0,0,1,0,1.92h-6.752a.943.943,0,0,1-.96-.925c0-.012,0-.023,0-.035A.963.963,0,0,1,107.459,98Z" transform="translate(-74.659 -76.56)" fill="#d60013"/>
    <path id="Path_561" data-name="Path 561" d="M17.755,42H28.539a1.065,1.065,0,0,1,1.056,1.056V45.1a1.065,1.065,0,0,1-1.056,1.056H17.755A1.065,1.065,0,0,1,16.7,45.1V43.055A1.024,1.024,0,0,1,17.69,42Z" transform="translate(-13.595 -38.479)" fill="#c1cfd4"/>
    <path id="Path_562" data-name="Path 562" d="M92.54,42a7.84,7.84,0,1,1-7.84,7.84h0A7.853,7.853,0,0,1,92.54,42Z" transform="translate(-59.836 -38.48)" fill="#d8e6e9"/>
    <path id="Path_23041" data-name="Path 23041" d="M102.82,56l-1.692,1.526a2.424,2.424,0,0,1-3.42-.176l-.191-.212a.427.427,0,0,1,.635-.572l.191.212a1.569,1.569,0,0,0,2.213.114l1.692-1.526a1.567,1.567,0,0,0-2.1-2.327l-1.481,1.336a.427.427,0,1,1-.572-.635L99.577,52.4A2.422,2.422,0,0,1,102.82,56Zm-3.565,2.64a.427.427,0,0,0-.6-.031l-1.481,1.336a1.567,1.567,0,0,1-2.1-2.327l1.692-1.526a1.569,1.569,0,0,1,2.213.114l.191.212a.427.427,0,1,0,.635-.572l-.191-.212a2.424,2.424,0,0,0-3.42-.176L94.5,56.98a2.422,2.422,0,0,0,3.244,3.6l1.481-1.336A.428.428,0,0,0,99.255,58.638Z" transform="translate(-65.956 -45.129)" fill="#d60013"/>
    <g id="Group_67320" data-name="Group 67320" transform="translate(3.307 10.148)">
      <path id="Path_923" data-name="Path 923" d="M17.334,67.717V62.939H18.87a2.26,2.26,0,0,1,1.139.288,2.007,2.007,0,0,1,.79.81,2.474,2.474,0,0,1,.288,1.174v.224a2.446,2.446,0,0,1-.278,1.174,2.038,2.038,0,0,1-.781.816,2.2,2.2,0,0,1-1.123.294ZM18.5,63.835v3h.4a.887.887,0,0,0,.758-.352,1.706,1.706,0,0,0,.266-1.046v-.208a1.7,1.7,0,0,0-.266-1.043.912.912,0,0,0-.774-.352Z" transform="translate(-17.334 -62.867)" fill="#e0121b"/>
      <path id="Path_924" data-name="Path 924" d="M34.092,65.947a1.759,1.759,0,0,1-.269.88,1.6,1.6,0,0,1-.691.592,2.334,2.334,0,0,1-1.014.211,1.881,1.881,0,0,1-1.485-.614,2.527,2.527,0,0,1-.541-1.734v-.237a2.879,2.879,0,0,1,.246-1.229,1.821,1.821,0,0,1,.7-.813,1.969,1.969,0,0,1,1.066-.288,2.057,2.057,0,0,1,1.4.458,1.8,1.8,0,0,1,.6,1.261H32.953a.849.849,0,0,0-.218-.64.923.923,0,0,0-.64-.189.685.685,0,0,0-.64.32,2.052,2.052,0,0,0-.211,1.027v.339a2.275,2.275,0,0,0,.192,1.091.7.7,0,0,0,.662.32.878.878,0,0,0,.6-.189.786.786,0,0,0,.224-.592Z" transform="translate(-26.006 -62.713)" fill="#e0121b"/>
    </g>
  </g>
</svg>
