<svg xmlns="http://www.w3.org/2000/svg" width="14" height="14" viewBox="0 0 14 14"><defs><style>.a{fill:none;}.b{fill:#949494;}</style></defs><path class="a" d="M0,0H14V14H0Z"/><path class="b" d="M5.589,5,6.916,6.326a.417.417,0,0,1-.589.589L5,5.589,3.674,6.916a.417.417,0,0,1-.589-.589L4.411,5,3.084,3.674a.417.417,0,0,1,.589-.589L5,4.411,6.326,3.084a.417.417,0,0,1,.589.589ZM5,10a5,5,0,1,1,5-5A5,5,0,0,1,5,10Zm0-.833A4.167,4.167,0,1,0,.833,5,4.167,4.167,0,0,0,5,9.167Z" transform="translate(2 2)"/></svg>