<svg xmlns="http://www.w3.org/2000/svg" xmlns:xlink="http://www.w3.org/1999/xlink" width="150" height="150" viewBox="0 0 150 150">
  <defs>
    <clipPath id="clip-path">
      <path id="Path_23036" data-name="Path 23036" d="M53.046,51.706c-.4,0-1.9,2.9-2.1,3.2-6.6,10.1-13.1,20.2-20.5,29.8-7.2,9.4-9.6,25-2.5,35.1,5.7,8.1,15.1,12.8,24.7,14.3a43.659,43.659,0,0,0,15.7-.4c5-1.1,9.8-3.7,15-3.6,6.6.1,12.4,3.7,19.2,3.3a20.7,20.7,0,0,0,10.3-3.4c8.7-6,9.8-17.9,9.1-27.6a69.977,69.977,0,0,0-11.7-34,99.837,99.837,0,0,0-9.6-11.9,20.974,20.974,0,0,0-4.1-3.8c-3.2-1.9-8.4-.9-12.1-.9Z" fill="none"/>
    </clipPath>
    <clipPath id="clip-path-3">
      <path id="Path_23038" data-name="Path 23038" d="M57.146,51.906c-.4,0-1.9,2.9-2.1,3.2-6.5,10.2-13,20.3-20.4,29.8-7.2,9.4-9.6,25-2.5,35.1,5.7,8.1,15.1,12.8,24.7,14.3a43.659,43.659,0,0,0,15.7-.4c5-1.1,9.8-3.8,15-3.6,6.6.2,12.4,3.7,19.2,3.4a20.176,20.176,0,0,0,10.3-3.5c8.7-6,9.8-17.9,9.1-27.6a69.977,69.977,0,0,0-11.7-34,99.837,99.837,0,0,0-9.6-11.9,20.974,20.974,0,0,0-4.1-3.8c-3.2-1.9-8.4-.9-12.1-.9Z" fill="none"/>
    </clipPath>
    <clipPath id="clip-path-5">
      <path id="Path_1247" data-name="Path 1247" d="M106.1,12.01l4.975,5.186v.846l-5.049-.225Z" transform="translate(-106.03 -12.01)" fill="none"/>
    </clipPath>
  </defs>
  <g id="loan_against_security" transform="translate(-953 -255)">
    <path id="Path_1068" data-name="Path 1068" d="M54.946,39.306h37.2a3.478,3.478,0,0,1,3.5,3.456.323.323,0,0,1,0,.044h0a3.477,3.477,0,0,1-3.455,3.5H54.946a3.479,3.479,0,0,1-3.5-3.456v-.044h0a3.419,3.419,0,0,1,3.334-3.5C54.836,39.3,54.891,39.3,54.946,39.306Z" transform="translate(953 255)" fill="#cad7db"/>
    <path id="Path_1069" data-name="Path 1069" d="M55.246,46.206h37.2a3.478,3.478,0,0,1,3.5,3.456.323.323,0,0,1,0,.044h0a3.477,3.477,0,0,1-3.455,3.5H55.246a3.479,3.479,0,0,1-3.5-3.456v-.044h0A3.613,3.613,0,0,1,55.246,46.206Z" transform="translate(953 255)" fill="#cad7db"/>
    <path id="Path_1070" data-name="Path 1070" d="M57.546,41.206c.7,0-.2-5.7-.3-6.1a11.854,11.854,0,0,0-4.2-6.1c-3-2.2-9.1-5.5-5.3-9.9,2-2.3,5.5-3.1,8.4-3.6a15.038,15.038,0,0,1,8.4.6,11.117,11.117,0,0,1,3.8,2.2c1.1,1,1.8,2.3,3,3.1,0,0,4.8,3.5,7.8.9,5.9-5,21.2-8.5,21.1,3.5a6.288,6.288,0,0,1-.9,3.3c-1,1.5-2.5,1.5-3.9,2.3-2.7,1.5-6.1,4.1-5.4,7.7Z" transform="translate(953 255)" fill="#cad7db"/>
    <path id="Path_1071" data-name="Path 1071" d="M53.046,51.706c-.4,0-1.9,2.9-2.1,3.2-6.6,10.1-13.1,20.2-20.5,29.8-7.2,9.4-9.6,25-2.5,35.1,5.7,8.1,15.1,12.8,24.7,14.3a43.659,43.659,0,0,0,15.7-.4c5-1.1,9.8-3.7,15-3.6,6.6.1,12.4,3.7,19.2,3.3a20.7,20.7,0,0,0,10.3-3.4c8.7-6,9.8-17.9,9.1-27.6a69.977,69.977,0,0,0-11.7-34,99.837,99.837,0,0,0-9.6-11.9,20.974,20.974,0,0,0-4.1-3.8c-3.2-1.9-8.4-.9-12.1-.9Z" transform="translate(953 255)" fill="#cad7db"/>
    <path id="Path_1076" data-name="Path 1076" d="M61.746,41.406c.7,0-.2-5.7-.3-6.1a11.111,11.111,0,0,0-4.3-6.1c-3-2.2-9.1-5.5-5.3-10,2-2.3,5.5-3.1,8.4-3.6a15.038,15.038,0,0,1,8.4.6,11.117,11.117,0,0,1,3.8,2.2c1.1,1,1.8,2.3,3,3.1,0,0,4.8,3.5,7.8.9,5.9-5,21.2-8.5,21.1,3.5a6.547,6.547,0,0,1-.9,3.3c-1,1.5-2.5,1.6-3.9,2.4-2.7,1.5-6.1,4.1-5.4,7.7Z" transform="translate(953 255)" fill="#ebf3f6"/>
    <path id="Path_1077" data-name="Path 1077" d="M58.946,39.306h37.2a3.478,3.478,0,0,1,3.5,3.456.323.323,0,0,1,0,.044h0a3.477,3.477,0,0,1-3.455,3.5H58.946a3.479,3.479,0,0,1-3.5-3.456v-.044h0a3.419,3.419,0,0,1,3.334-3.5C58.836,39.3,58.891,39.3,58.946,39.306Z" transform="translate(953 255)" fill="#dee9ec"/>
    <path id="Path_1078" data-name="Path 1078" d="M59.246,46.206h37.2a3.478,3.478,0,0,1,3.5,3.456.323.323,0,0,1,0,.044h0a3.477,3.477,0,0,1-3.455,3.5H59.246a3.479,3.479,0,0,1-3.5-3.456v-.044h0A3.613,3.613,0,0,1,59.246,46.206Z" transform="translate(953 255)" fill="#dee9ec"/>
    <g id="Group_363" data-name="Group 363" transform="translate(953 255)">
      <g id="Group_67313" data-name="Group 67313">
        <g id="Group_67312" data-name="Group 67312" clip-path="url(#clip-path)">
          <g id="Group_361" data-name="Group 361">
            <path id="Path_1072" data-name="Path 1072" d="M53.046,51.706c-.4,0-1.9,2.9-2.1,3.2-6.7,10.4-14.6,20-22.1,30-3.7,4.8-6.8,8.8-7.8,14.9a39.952,39.952,0,0,0,.8,16.5,21,21,0,0,0,13.7,14.9c5,1.8,10.5,2.3,15.8,2.7,5.4.4,11.4,1.2,16.8-.1,5.1-1.2,10-3.9,15.4-3.8,6.6.1,12.4,3.7,19.2,3.3a21.018,21.018,0,0,0,10.3-3.4c8.7-6,9.8-17.9,9.1-27.6a69.977,69.977,0,0,0-11.7-34,99.837,99.837,0,0,0-9.6-11.9,20.974,20.974,0,0,0-4.1-3.8c-3.2-1.9-8.4-.9-12.1-.9Z" fill="#cad7db"/>
          </g>
        </g>
      </g>
      <g id="Group_67315" data-name="Group 67315">
        <g id="Group_67314" data-name="Group 67314" clip-path="url(#clip-path)">
          <g id="Group_362" data-name="Group 362">
            <path id="Path_1074" data-name="Path 1074" d="M59.946,51.406s-49.6,70.1,23.5,78.6c0,0-66.1,28.9-71.9-10.9C11.546,119.206,18.246,49.306,59.946,51.406Z" fill="#cad7db"/>
          </g>
        </g>
      </g>
    </g>
    <g id="Group_67317" data-name="Group 67317" transform="translate(953.121 255)">
      <g id="Group_67316" data-name="Group 67316" clip-path="url(#clip-path-3)">
        <g id="Group_364" data-name="Group 364">
          <path id="Path_1079" data-name="Path 1079" d="M57.146,51.906c-.4,0-1.9,2.9-2.1,3.2-6.8,10.4-14.6,20-22.1,30-3.5,4.9-6.7,8.9-7.7,14.9a40.431,40.431,0,0,0,.8,16.6,21,21,0,0,0,13.7,14.9c5,1.8,10.5,2.3,15.8,2.7s11.4,1.2,16.8-.1c5.1-1.2,10-3.9,15.4-3.8,6.6.2,12.4,3.7,19.2,3.4a20.176,20.176,0,0,0,10.3-3.5c8.7-6,9.8-17.9,9.1-27.6a69.977,69.977,0,0,0-11.7-34,99.838,99.838,0,0,0-9.6-11.9,20.974,20.974,0,0,0-4.1-3.8c-3.3-1.9-8.6-.9-12.2-.9Z" fill="#ebf3f6"/>
        </g>
      </g>
    </g>
    <g id="Group_67319" data-name="Group 67319" transform="translate(953 255)">
      <g id="Group_67318" data-name="Group 67318" clip-path="url(#clip-path-3)">
        <g id="Group_365" data-name="Group 365">
          <path id="Path_1081" data-name="Path 1081" d="M64.146,51.706s-49.6,70.1,23.5,78.6c0,0-66.1,28.9-71.9-10.9C15.746,119.406,22.446,49.606,64.146,51.706Z" fill="#dee9ec"/>
        </g>
      </g>
    </g>
    <rect id="Rectangle_450" data-name="Rectangle 450" width="150" height="150" transform="translate(953 255)" fill="none"/>
    <g id="Netbanking_Icons-30" data-name="Netbanking Icons-30" transform="translate(1001 317.001)">
      <rect id="Rectangle_478" data-name="Rectangle 478" width="55" height="55" transform="translate(0 -0.001)" fill="none"/>
      <path id="Path_1246" data-name="Path 1246" d="M33.47,13.747V55.329a1.743,1.743,0,0,0,1.743,1.732H63.868a1.743,1.743,0,0,0,1.747-1.743l-.3-33.578v-4.6l-1.581-.321c0-.964-.488-.517-1.452-.517l.565-.643L60.341,12H35.224a1.743,1.743,0,0,0-1.754,1.747Z" transform="translate(-21.108 -7.568)" fill="#df0f1b"/>
      <rect id="Rectangle_479" data-name="Rectangle 479" width="25.5" height="2.571" rx="1.285" transform="translate(15.701 15.972)" fill="#dee9ec"/>
      <rect id="Rectangle_480" data-name="Rectangle 480" width="25.5" height="2.571" rx="1.285" transform="translate(15.701 21.143)" fill="#dee9ec"/>
      <g id="Group_21451" data-name="Group 21451" transform="translate(39.163 4.436)" clip-path="url(#clip-path-5)">
        <rect id="Rectangle_481" data-name="Rectangle 481" width="6.711" height="6.896" rx="3.356" transform="translate(0.007 -1.681)" fill="#cbd8dc"/>
      </g>
      <rect id="Rectangle_482" data-name="Rectangle 482" width="55" height="55" transform="translate(0 -0.001)" fill="none"/>
      <rect id="Rectangle_21302" data-name="Rectangle 21302" width="14.5" height="2.571" rx="1.285" transform="translate(15.701 26.314)" fill="#dee9ec"/>
    </g>
  </g>
</svg>
