<svg id="nach_cancellation" xmlns="http://www.w3.org/2000/svg" xmlns:xlink="http://www.w3.org/1999/xlink" width="48" height="48" viewBox="0 0 48 48">
  <defs>
    <clipPath id="clip-path">
      <path id="Path_23062" data-name="Path 23062" d="M87.813,12.01,92.1,16.478v.729l-4.35-.194Z" transform="translate(-87.75 -12.01)" fill="none"/>
    </clipPath>
  </defs>
  <rect id="Rectangle_192" data-name="Rectangle 192" width="48" height="48" fill="none"/>
  <path id="Path_2323" data-name="Path 2323" d="M38.607,18.327a.1.1,0,0,1-.025-.029q-.974-.955-1.941-1.941a.154.154,0,0,1-.032-.019c-.105-.111-.216-.213-.318-.318H12.9a1.677,1.677,0,0,0-1.68,1.674V53.157a1.677,1.677,0,0,0,1.674,1.68H37.238a1.677,1.677,0,0,0,1.677-1.677h0V18.582A4,4,0,0,0,38.607,18.327Z" transform="translate(-7.649 -10.922)" fill="#cbd8dc"/>
  <path id="Path_2324" data-name="Path 2324" d="M15.19,13.505V49.331a1.5,1.5,0,0,0,1.5,1.492H41.38a1.5,1.5,0,0,0,1.505-1.5v0l-.261-28.93V16.43l-1.362-.277c0-.831-.42-.446-1.251-.446l.487-.554L38.341,12H16.7a1.5,1.5,0,0,0-1.512,1.492Z" transform="translate(-10.356 -8.181)" fill="#eaf2f5"/>
  <path id="Rectangle_1082" data-name="Rectangle 1082" d="M25.337,100.1H45.093a1.107,1.107,0,0,1,1.107,1.107h0a1.107,1.107,0,0,1-1.107,1.107H25.337a1.107,1.107,0,0,1-1.107-1.107h0A1.107,1.107,0,0,1,25.337,100.1Z" transform="translate(-16.519 -68.245)" fill="#dee9ec"/>
  <path id="Rectangle_1083" data-name="Rectangle 1083" d="M25.337,114.1H45.093a1.107,1.107,0,0,1,1.107,1.107h0a1.107,1.107,0,0,1-1.107,1.107H25.337a1.107,1.107,0,0,1-1.107-1.107h0A1.107,1.107,0,0,1,25.337,114.1Z" transform="translate(-16.519 -77.79)" fill="#dee9ec"/>
  <g id="Group_67350" data-name="Group 67350" transform="translate(27.924 3.822)">
    <g id="Group_67349" data-name="Group 67349" clip-path="url(#clip-path)">
      <g id="Group_21577" data-name="Group 21577" transform="translate(0.006 -1.448)">
        <rect id="Rectangle_1084" data-name="Rectangle 1084" width="5.782" height="5.941" rx="2.891" fill="#cbd8dc"/>
      </g>
    </g>
  </g>
  <circle id="Ellipse_1834" data-name="Ellipse 1834" cx="10.463" cy="10.463" r="10.463" transform="translate(8.218 8.299)" fill="#dee9ec"/>
  <circle id="Ellipse_2" data-name="Ellipse 2" cx="10.449" cy="10.449" r="10.449" transform="translate(22.971 20.345)" fill="none"/>
  <path id="Path_1452" data-name="Path 1452" d="M88.172,78.173A11.32,11.32,0,1,1,76.847,66.856,11.32,11.32,0,0,1,88.172,78.173Z" transform="translate(-44.678 -45.58)" fill="#cad7db"/>
  <path id="Path_1453" data-name="Path 1453" d="M90.276,78.173A11.32,11.32,0,1,1,78.953,66.856h.01A11.32,11.32,0,0,1,90.276,78.173Z" transform="translate(-46.112 -45.58)" fill="#eaf2f5"/>
  <path id="Path_1454" data-name="Path 1454" d="M92.4,82.145a9.464,9.464,0,1,1-9.466-9.462h.009A9.464,9.464,0,0,1,92.4,82.145Z" transform="translate(-50.089 -49.553)" fill="#dee9ec"/>
  <path id="Path_23063" data-name="Path 23063" d="M97.754,97.707a.737.737,0,0,1-.524-.217l-2.86-2.862L91.509,97.49a.741.741,0,1,1-1.049-1.048l2.861-2.862-2.861-2.862a.741.741,0,1,1,1.049-1.048l2.861,2.862,2.86-2.862a.741.741,0,0,1,1.049,1.048L95.418,93.58l2.861,2.862a.741.741,0,0,1-.524,1.265Z" transform="translate(-61.526 -60.986)" fill="#e0121b"/>
  <path id="Path_23064" data-name="Path 23064" d="M42.657,51.739a6.28,6.28,0,0,1-4.469-1.85.635.635,0,0,1-.159-.47.633.633,0,0,1,1.043-.432,5.056,5.056,0,1,0-1.47-3.674l.341-.34a.633.633,0,0,1,.9.061.63.63,0,0,1,0,.824l-1.43,1.431a.578.578,0,0,1-.1.081.307.307,0,0,1-.061.033l-.032.018-.076.026-.041.012a.595.595,0,0,1-.262,0l-.1-.03-.074-.035a.3.3,0,0,1-.059-.034.538.538,0,0,1-.092-.075L35.1,45.866a.633.633,0,0,1,.885-.9l.352.35a6.321,6.321,0,1,1,6.323,6.424Z" transform="translate(-23.821 -26.655)" fill="#c1cfd4"/>
</svg>
