<svg id="Netbanking_Icons-37" data-name="Netbanking Icons-37" xmlns="http://www.w3.org/2000/svg" xmlns:xlink="http://www.w3.org/1999/xlink" width="48" height="48" viewBox="0 0 48 48">
  <defs>
    <clipPath id="clip-path">
      <path id="Path_1280" data-name="Path 1280" d="M106.094,12.01,110.4,16.5v.733l-4.374-.2Z" transform="translate(-106.03 -12.01)" fill="none"/>
    </clipPath>
    <clipPath id="clip-path-2">
      <circle id="Ellipse_1787" data-name="Ellipse 1787" cx="10.522" cy="10.522" r="10.522" transform="translate(0)" fill="none"/>
    </clipPath>
  </defs>
  <rect id="Rectangle_521" data-name="Rectangle 521" width="48" height="48" fill="none"/>
  <path id="Path_1278" data-name="Path 1278" d="M57.039,18.34a.1.1,0,0,1-.026-.029q-.979-.96-1.952-1.952a.169.169,0,0,1-.032-.019c-.106-.112-.218-.214-.32-.32H31.19a1.686,1.686,0,0,0-1.69,1.686V53.364a1.686,1.686,0,0,0,1.69,1.69H55.663a1.686,1.686,0,0,0,1.686-1.686V18.6a4,4,0,0,0-.31-.256Z" transform="translate(-20.06 -10.894)" fill="#cbd8dc"/>
  <path id="Path_1279" data-name="Path 1279" d="M33.47,13.514V49.539a1.51,1.51,0,0,0,1.51,1.5H59.806a1.51,1.51,0,0,0,1.514-1.51l-.262-29.091V16.454l-1.37-.278c0-.835-.422-.448-1.258-.448l.49-.557L56.75,12H34.99a1.51,1.51,0,0,0-1.52,1.514Z" transform="translate(-22.76 -8.16)" fill="#eaf2f5"/>
  <rect id="Rectangle_522" data-name="Rectangle 522" width="22.093" height="2.227" rx="1.114" transform="translate(13.603 32.032)" fill="#dee9ec"/>
  <rect id="Rectangle_523" data-name="Rectangle 523" width="22.093" height="2.227" rx="1.114" transform="translate(13.603 36.512)" fill="#dee9ec"/>
  <g id="Group_21457" data-name="Group 21457" transform="translate(33.93 3.843)" clip-path="url(#clip-path)">
    <rect id="Rectangle_524" data-name="Rectangle 524" width="5.814" height="5.974" rx="2.907" transform="translate(0.006 -1.456)" fill="#cbd8dc"/>
  </g>
  <rect id="Rectangle_525" data-name="Rectangle 525" width="48" height="48" fill="none"/>
  <g id="Group_21550" data-name="Group 21550" transform="translate(14.112 8.342)" clip-path="url(#clip-path-2)">
    <circle id="Ellipse_1785" data-name="Ellipse 1785" cx="10.522" cy="10.522" r="10.522" transform="translate(0)" fill="#dee9ec"/>
    <circle id="Ellipse_1786" data-name="Ellipse 1786" cx="3.965" cy="3.965" r="3.965" transform="translate(6.563 5.232)" fill="#e0121b"/>
    <path id="Path_2051" data-name="Path 2051" d="M746.71,467.29a9.12,9.12,0,0,0-18.24,0Z" transform="translate(-727.072 -445.469)" fill="#e0121b"/>
  </g>
</svg>
