<svg xmlns="http://www.w3.org/2000/svg" width="24" height="24" viewBox="0 0 24 24"><defs><style>.a{fill:rgba(147,147,147,0.2);}.b{fill:#939393;}</style></defs><g transform="translate(-6866 -1875)"><circle class="a" cx="12" cy="12" r="12" transform="translate(6866 1875)"/><path class="b" d="M-1952-2370a12.01,12.01,0,0,1,12-12,12.01,12.01,0,0,1,12,12,12.01,12.01,0,0,1-12,12A12.01,12.01,0,0,1-1952-2370Zm1.467,0A10.516,10.516,0,0,0-1940-2359.467,10.515,10.515,0,0,0-1929.467-2370,10.515,10.515,0,0,0-1940-2380.533,10.515,10.515,0,0,0-1950.534-2370Zm7.162,4.257a.8.8,0,0,1,.677-.923l5.172-.679a.8.8,0,0,1,.892.717.8.8,0,0,1-.677.923q-2.587.337-5.172.678a.774.774,0,0,1-.1.007A.8.8,0,0,1-1943.371-2365.743Zm5.9-7.524a1.277,1.277,0,0,1,1.266-1.267,1.277,1.277,0,0,1,1.267,1.267A1.277,1.277,0,0,1-1936.2-2372,1.277,1.277,0,0,1-1937.467-2373.267Zm-7.6,0a1.277,1.277,0,0,1,1.267-1.267,1.277,1.277,0,0,1,1.267,1.267A1.277,1.277,0,0,1-1943.8-2372,1.277,1.277,0,0,1-1945.067-2373.267Z" transform="translate(8818 4257)"/></g></svg>