<svg id="Netbanking_Icons_Add_on_Card_copy_2" data-name="Netbanking Icons_Add on Card copy 2" xmlns="http://www.w3.org/2000/svg" width="48" height="48" viewBox="0 0 48 48">
  <rect id="Rectangle_158" data-name="Rectangle 158" width="28.612" height="21.019" rx="5.84" transform="translate(3.906 24.365)" fill="#cad7db"/>
  <path id="Path_881" data-name="Path 881" d="M53.777,44.208,34.627,55.5,15.477,44.208a.109.109,0,0,1,0-.032,31.8,31.8,0,0,1,2.683-2.252l.045-.035c5.289-4.308,16.422-13.1,16.422-13.1s11.129,8.79,16.409,13.085c1.634,1.329,2.712,2.226,2.728,2.3A.11.11,0,0,1,53.777,44.208Z" transform="translate(-10.497 -19.527)" fill="#cad7db"/>
  <path id="Path_882" data-name="Path 882" d="M52.287,8.94H33.471a3.121,3.121,0,0,0-2.921,3.286V44.117A3.123,3.123,0,0,0,33.471,47.4H57.045a3.122,3.122,0,0,0,2.925-3.286V17.555Z" transform="translate(-20.721 -6.064)" fill="#eaf2f5"/>
  <path id="Path_883" data-name="Path 883" d="M98.11,14.168a3.082,3.082,0,0,0,2.921,3.217H105.8L98.11,8.94Z" transform="translate(-66.544 -6.064)" fill="#cad7db"/>
  <path id="Path_884" data-name="Path 884" d="M53.78,76.7V95.074a2.339,2.339,0,0,1-2.333,2.333H17.809a2.336,2.336,0,0,1-2.329-2.333V76.7L34.63,87.993Z" transform="translate(-10.499 -52.023)" fill="#dee9ec"/>
  <path id="Path_885" data-name="Path 885" d="M54.5,112.8,42.171,100.473l-6.177,3.642-6.177-3.645L17.49,112.8a2.3,2.3,0,0,0,1.683.734H52.81A2.323,2.323,0,0,0,54.5,112.8Z" transform="translate(-11.863 -68.145)" fill="#cad7db"/>
  <circle id="Ellipse_36" data-name="Ellipse 36" cx="1.728" cy="1.728" r="1.728" transform="translate(14.498 20.492)" fill="#df0f1b"/>
  <circle id="Ellipse_37" data-name="Ellipse 37" cx="1.728" cy="1.728" r="1.728" transform="translate(20.006 20.492)" fill="#df0f1b"/>
  <circle id="Ellipse_38" data-name="Ellipse 38" cx="1.728" cy="1.728" r="1.728" transform="translate(25.517 20.492)" fill="#df0f1b"/>
  <circle id="Ellipse_39" data-name="Ellipse 39" cx="1.728" cy="1.728" r="1.728" transform="translate(31.025 20.492)" fill="#df0f1b"/>
  <line id="Line_9" data-name="Line 9" x2="4.408" transform="translate(13.909 25.659)" fill="none" stroke="#cad7db" stroke-linecap="round" stroke-linejoin="round" stroke-width="2"/>
  <line id="Line_10" data-name="Line 10" x2="4.408" transform="translate(19.53 25.659)" fill="none" stroke="#cad7db" stroke-linecap="round" stroke-linejoin="round" stroke-width="2"/>
  <line id="Line_11" data-name="Line 11" x2="4.408" transform="translate(25.189 25.659)" fill="none" stroke="#cad7db" stroke-linecap="round" stroke-linejoin="round" stroke-width="2"/>
  <line id="Line_12" data-name="Line 12" x2="4.408" transform="translate(30.697 25.659)" fill="none" stroke="#cad7db" stroke-linecap="round" stroke-linejoin="round" stroke-width="2"/>
  <text id="DC" transform="translate(19.787 15.746)" fill="#e0121b" font-size="5" font-family="Roboto" font-weight="800"><tspan x="0" y="0">DC</tspan></text>
  <rect id="Rectangle_159" data-name="Rectangle 159" width="48" height="48" fill="none"/>
</svg>
