<svg id="Netbanking_Icons_NACH_Cancellation" data-name="Netbanking Icons_NACH Cancellation" xmlns="http://www.w3.org/2000/svg" xmlns:xlink="http://www.w3.org/1999/xlink" width="150" height="150" viewBox="0 0 150 150">
  <defs>
    <clipPath id="clip-path">
      <path id="Path_2325" data-name="Path 2325" d="M106.23,12.01,119.7,26.05v2.29l-13.67-.61Z" fill="none"/>
    </clipPath>
  </defs>
  <path id="Path_2323" data-name="Path 2323" d="M115.56,23.27a.32.32,0,0,1-.08-.09q-3.06-3-6.1-6.1a.53.53,0,0,1-.1-.06c-.33-.35-.68-.67-1-1H34.78a5.27,5.27,0,0,0-5.28,5.27V132.72A5.27,5.27,0,0,0,34.78,138h76.48a5.27,5.27,0,0,0,5.27-5.27V24.07a12.491,12.491,0,0,0-.97-.8Z" fill="#cbd8dc"/>
  <path id="Path_2324" data-name="Path 2324" d="M33.47,16.73V129.31A4.72,4.72,0,0,0,38.19,134h77.58a4.72,4.72,0,0,0,4.73-4.72l-.82-90.91V25.92l-4.28-.87c0-2.61-1.32-1.4-3.93-1.4L113,21.91,106.22,12h-68a4.72,4.72,0,0,0-4.75,4.73Z" fill="#eaf2f5"/>
  <rect id="Rectangle_1082" data-name="Rectangle 1082" width="69.04" height="6.96" rx="3.48" transform="translate(42.51 100.1)" fill="#dee9ec"/>
  <rect id="Rectangle_1083" data-name="Rectangle 1083" width="69.04" height="6.96" rx="3.48" transform="translate(42.51 114.1)" fill="#dee9ec"/>
  <g id="Group_21577" data-name="Group 21577" clip-path="url(#clip-path)">
    <rect id="Rectangle_1084" data-name="Rectangle 1084" width="18.17" height="18.67" rx="5.2" transform="translate(106.05 7.46)" fill="#cbd8dc"/>
  </g>
  <circle id="Ellipse_1833" data-name="Ellipse 1833" cx="32.88" cy="32.88" r="32.88" transform="translate(44.1 24.9)" fill="#dee9ec"/>
  <circle id="Ellipse_1834" data-name="Ellipse 1834" cx="32.88" cy="32.88" r="32.88" transform="translate(42.1 26.08)" fill="#dee9ec"/>
  <rect id="Rectangle_1085" data-name="Rectangle 1085" width="150" height="150" fill="none"/>
  <g id="Layer_2" data-name="Layer 2" transform="translate(60.104 33.374)">
    <g id="Layer_1" data-name="Layer 1" transform="translate(0 0.014)">
      <path id="Path_23818" data-name="Path 23818" d="M9.2,48.129q.037-2.027.08-4.057a5.84,5.84,0,0,0-.469-2.109c-.72-1.641-1.83-2.17-2.812-3.281a8.13,8.13,0,0,1-1.875-4.687L4.01,25.206a3.047,3.047,0,0,1,5.859,0V12.2a2.983,2.983,0,0,1,3.164-2.578A2.967,2.967,0,0,1,15.611,12.2V6.337a3,3,0,0,1,5.859,0V10.79a3,3,0,0,1,5.859,0v5.156a3,3,0,0,1,5.859,0q.056,9.548.117,19.1a6.665,6.665,0,0,1-.7,3.047c-.623,1.207-1.334,1.563-1.875,2.812a5.932,5.932,0,0,0-.469,2.578q-.061,2.4-.117,4.79a1.875,1.875,0,0,1-1.889,1.875l-17.167-.1A1.891,1.891,0,0,1,9.2,48.129Z" transform="translate(-3.07 -3.059)" fill="#e0121b"/>
      <path id="Path_23819" data-name="Path 23819" d="M25.192,48.056h-.016l-17.165-.1A2.829,2.829,0,0,1,5.2,45.075l.077-4.029A4.884,4.884,0,0,0,4.887,39.3a5.436,5.436,0,0,0-1.605-2.009,12.174,12.174,0,0,1-1.05-1.024A9.185,9.185,0,0,1,.122,31.062v-.091L0,22.041l.035-.129a3.984,3.984,0,0,1,5.824-2.379V9.015a3.938,3.938,0,0,1,4.183-3.373,3.656,3.656,0,0,1,1.549.523V3.184l.026-.105a3.94,3.94,0,0,1,7.683,0l.026.108v1.84a3.855,3.855,0,0,1,2.47-.562,4.024,4.024,0,0,1,3.382,3.047l.028.112v2.559a3.855,3.855,0,0,1,2.449-.562,4.024,4.024,0,0,1,3.382,3.047l.026.11.12,19.218a7.7,7.7,0,0,1-.809,3.483,8,8,0,0,1-1.008,1.474,4.687,4.687,0,0,0-1.242,3.459v.026l-.117,4.819a2.812,2.812,0,0,1-2.812,2.791ZM7.071,45.1a.952.952,0,0,0,.937.973l17.167.1h0a.937.937,0,0,0,.937-.937l.115-4.788a6.562,6.562,0,0,1,1.655-4.687,6.189,6.189,0,0,0,.795-1.146,5.859,5.859,0,0,0,.619-2.618l-.117-18.963a2.126,2.126,0,0,0-1.746-1.537A2.156,2.156,0,0,0,25.2,13.042v9.7H23.322V7.874a2.128,2.128,0,0,0-1.748-1.535,2.156,2.156,0,0,0-2.236,1.547V22.744H17.463V3.414a2.062,2.062,0,0,0-3.984,0v19.33H11.6V9.224A2.025,2.025,0,0,0,9.869,7.511a2.044,2.044,0,0,0-2.133,1.72V28.369H5.859V22.3a2.109,2.109,0,0,0-3.984,0l.115,8.6A7.378,7.378,0,0,0,3.63,35.02a10.545,10.545,0,0,0,.9.872A7.3,7.3,0,0,1,6.6,38.548,6.7,6.7,0,0,1,7.146,41v.028Z" transform="translate(0 -0.014)" fill="#dee9ec"/>
    </g>
  </g>
</svg>
