<svg xmlns="http://www.w3.org/2000/svg" width="24" height="24" viewBox="0 0 24 24"><defs><style>.a{fill:rgba(238,28,37,0.2);}.b{fill:#d31820;}</style></defs><g transform="translate(-6818 -1875)"><circle class="a" cx="12" cy="12" r="12" transform="translate(6818 1875)"/><path class="b" d="M-1847-2370a12.01,12.01,0,0,1,12-12,12.01,12.01,0,0,1,12,12,12.01,12.01,0,0,1-12,12A12.01,12.01,0,0,1-1847-2370Zm1.456,0A10.534,10.534,0,0,0-1835-2359.456,10.534,10.534,0,0,0-1824.456-2370,10.534,10.534,0,0,0-1835-2380.544,10.534,10.534,0,0,0-1845.544-2370Zm4.952,5.953a.775.775,0,0,1-.15-1.112,6.77,6.77,0,0,1,5.742-3.05,6.74,6.74,0,0,1,5.742,3.041.784.784,0,0,1-.15,1.12.787.787,0,0,1-1.058-.308A5.331,5.331,0,0,0-1835-2366.7a5.36,5.36,0,0,0-4.533,2.356.835.835,0,0,1-.688.4A.744.744,0,0,1-1840.592-2364.048Zm8.045-9.192a1.3,1.3,0,0,1,1.293-1.293,1.3,1.3,0,0,1,1.293,1.293,1.3,1.3,0,0,1-1.293,1.293A1.3,1.3,0,0,1-1832.547-2373.24Zm-7.493,0a1.3,1.3,0,0,1,1.293-1.293,1.3,1.3,0,0,1,1.293,1.293,1.3,1.3,0,0,1-1.293,1.293A1.3,1.3,0,0,1-1840.04-2373.24Z" transform="translate(8665 4257)"/></g></svg>