<svg xmlns="http://www.w3.org/2000/svg" xmlns:xlink="http://www.w3.org/1999/xlink" width="24" height="24" viewBox="0 0 24 24"><defs><style>.a{fill:#0070e0;}.b{clip-path:url(#a);}</style><clipPath id="a"><path class="a" d="M7.5-7.5V0H0V-7.5Zm6,0V-3h3v1.5h-3V0H9V-1.5h3V-6H9V-7.5Zm9,3V-3h-3V0H18V-4.5Zm1.5,3V0H21V-1.5ZM6-6H1.5v4.5H6ZM4.5-4.5V-3H3V-4.5Zm6,0V-3H9V-4.5Zm6-3v3H15v-3Zm7.5,0V-6H22.5V-7.5Zm-4.5-3V-6H18V-9H16.5v-1.5ZM1.5-15v3H3v1.5H1.5V-9H0v-6Zm6,0v3h3v1.5H12V-9H9v-1.5H6V-9H4.5v-3H6v-3ZM15-12v3H13.5v-3Zm9,1.5V-9H21v-1.5ZM19.5-15v1.5H21V-15h3v1.5H22.5V-12h-6v-1.5H18V-15ZM15-16.5v3H9V-15h4.5v-1.5ZM4.5-15v1.5H3V-15Zm3-9v7.5H0V-24ZM24-24v7.5H16.5V-24ZM10.5-18v1.5H9V-18ZM6-22.5H1.5V-18H6Zm16.5,0H18V-18h4.5Zm-12,0V-21H15v1.5H13.5V-18H12v-1.5H9v-3ZM4.5-21v1.5H3V-21ZM21-21v1.5H19.5V-21Zm-6-3v1.5H12V-24Z"/></clipPath></defs><g transform="translate(0 24)"><g class="b"><path class="a" d="M-5-29H29V5H-5Z"/></g></g></svg>