<svg xmlns="http://www.w3.org/2000/svg" width="48" height="48" viewBox="0 0 48 48">
  <g id="Group_22856" data-name="Group 22856" transform="translate(-81.24 -2757.876)">
    <rect id="Rectangle_81" data-name="Rectangle 81" width="48" height="48" transform="translate(81.24 2757.876)" fill="none"/>
    <g id="Group_203" data-name="Group 203" transform="translate(83.48 2767.796)">
      <path id="Path_555" data-name="Path 555" d="M131.568,2791.34a2.418,2.418,0,0,0-2.4-2.4l-38.464-.064a2.445,2.445,0,0,0-2.432,2.4l-.032,22.208a2.418,2.418,0,0,0,2.4,2.4l38.464.064a2.424,2.424,0,0,0,2.432-2.4Z" transform="translate(-88.24 -2788.876)" fill="#c1cfd4"/>
      <path id="Path_556" data-name="Path 556" d="M133.676,2791.34a2.4,2.4,0,0,0-2.4-2.4l-38.3-.064a2.4,2.4,0,0,0-2.4,2.4l-.032,22.208a2.418,2.418,0,0,0,2.4,2.4l38.3.064a2.4,2.4,0,0,0,2.4-2.4Z" transform="translate(-89.804 -2788.876)" fill="#e6f0f4"/>
      <path id="Path_557" data-name="Path 557" d="M97.8,2855.876h6.752a.96.96,0,1,1,0,1.92H97.8a.943.943,0,0,1-.96-.96A.963.963,0,0,1,97.8,2855.876Z" transform="translate(-94.088 -2834.436)" fill="#d60013"/>
      <path id="Path_558" data-name="Path 558" d="M128.1,2855.876h6.752a.96.96,0,1,1,0,1.92H128.1a.943.943,0,0,1-.96-.96A.963.963,0,0,1,128.1,2855.876Z" transform="translate(-114.692 -2834.436)" fill="#d60013"/>
      <path id="Path_559" data-name="Path 559" d="M158.4,2855.876h6.752a.96.96,0,1,1,0,1.92H158.4a.96.96,0,1,1,0-1.92Z" transform="translate(-135.296 -2834.436)" fill="#d60013"/>
      <path id="Path_560" data-name="Path 560" d="M188.7,2855.876h6.752a.96.96,0,1,1,0,1.92H188.7a.943.943,0,0,1-.96-.96A.963.963,0,0,1,188.7,2855.876Z" transform="translate(-155.9 -2834.436)" fill="#d60013"/>
      <path id="Path_561" data-name="Path 561" d="M98.993,2799.876h10.784a1.065,1.065,0,0,1,1.056,1.056v2.048a1.065,1.065,0,0,1-1.056,1.056H98.993a1.065,1.065,0,0,1-1.056-1.056v-2.048A1.026,1.026,0,0,1,98.993,2799.876Z" transform="translate(-94.833 -2796.356)" fill="#c1cfd4"/>
      <path id="Path_562" data-name="Path 562" d="M173.78,2799.876a7.84,7.84,0,1,1-7.84,7.84A7.853,7.853,0,0,1,173.78,2799.876Z" transform="translate(-141.076 -2796.356)" fill="#d8e6e9"/>
      <path id="Path_563" data-name="Path 563" d="M177.421,2810.733a3.715,3.715,0,0,0-3.712,3.712,3.479,3.479,0,0,0,.032.576l1.376-1.376a.43.43,0,1,1,.608.608l-1.92,1.92-.032.032-.032.032h-.032c-.064.032-.1.064-.16.064h-.128a.346.346,0,0,1-.224-.1l-2.112-2.112a.445.445,0,0,1,0-.608h0a.445.445,0,0,1,.608,0l1.12,1.12v-.128a4.578,4.578,0,1,1,9.152-.256v.256a4.575,4.575,0,0,1-4.576,4.576h-.352a.336.336,0,0,1-.288-.16.386.386,0,0,1-.1-.32.336.336,0,0,1,.16-.288.307.307,0,0,1,.32-.1h.288a3.625,3.625,0,0,0,2.624-1.088,3.728,3.728,0,0,0,0-5.248A3.417,3.417,0,0,0,177.421,2810.733Z" transform="translate(-144.493 -2803.085)" fill="#d60013"/>
    </g>
  </g>
</svg>
