<svg id="Group_68023" data-name="Group 68023" xmlns="http://www.w3.org/2000/svg" xmlns:xlink="http://www.w3.org/1999/xlink" width="48" height="48" viewBox="0 0 48 48">
  <defs>
    <clipPath id="clip-path">
      <path id="Path_22974" data-name="Path 22974" d="M10.76,41.4H51.432a.963.963,0,0,1,.96.96V61.816a.962.962,0,0,1-.96.96H10.76a.963.963,0,0,1-.96-.96V42.36A.963.963,0,0,1,10.76,41.4Z" transform="translate(-9.8 -41.4)" fill="none"/>
    </clipPath>
  </defs>
  <rect id="Rectangle_192" data-name="Rectangle 192" width="48" height="48" fill="none"/>
  <rect id="Rectangle_57" data-name="Rectangle 57" width="48" height="48" fill="none"/>
  <rect id="Rectangle_59" data-name="Rectangle 59" width="48" height="48" fill="none"/>
  <g id="Group_67247" data-name="Group 67247" transform="translate(2.272 13.248)">
    <path id="Path_378" data-name="Path 378" d="M8.06,41.4H48.732a.963.963,0,0,1,.96.96V61.815a.962.962,0,0,1-.96.96H8.06a.962.962,0,0,1-.96-.96V42.359a.943.943,0,0,1,.925-.96Z" transform="translate(-7.099 -41.399)" fill="#c1cfd4"/>
    <g id="Group_149" data-name="Group 149" transform="translate(0.864 0)">
      <g id="Group_148" data-name="Group 148">
        <g id="Group_67244" data-name="Group 67244">
          <g id="Group_67243" data-name="Group 67243" clip-path="url(#clip-path)">
            <g id="Group_147" data-name="Group 147">
              <path id="Path_379" data-name="Path 379" d="M10.76,41.4H51.432a.963.963,0,0,1,.96.96V61.816a.962.962,0,0,1-.96.96H10.76a.963.963,0,0,1-.96-.96V42.36A.963.963,0,0,1,10.76,41.4Z" transform="translate(-9.8 -41.4)" fill="#e7f1f5"/>
            </g>
          </g>
        </g>
      </g>
    </g>
    <path id="Path_381" data-name="Path 381" d="M28.459,92.7h13.5a.943.943,0,0,1,.96.925c0,.012,0,.023,0,.035v.192a.943.943,0,0,1-.925.96H28.459a.943.943,0,0,1-.96-.925c0-.012,0-.023,0-.035v-.192a.943.943,0,0,1,.925-.96Z" transform="translate(-20.971 -76.283)" fill="#c1cfd4"/>
    <path id="Path_382" data-name="Path 382" d="M28.459,79h13.5a.943.943,0,0,1,.96.925c0,.012,0,.023,0,.035v.192a.943.943,0,0,1-.925.96H28.459a.943.943,0,0,1-.96-.925c0-.012,0-.023,0-.035v-.192a.943.943,0,0,1,.925-.96Z" transform="translate(-20.971 -66.967)" fill="#d8e6e9"/>
    <path id="Path_383" data-name="Path 383" d="M28.459,67h13.5a.943.943,0,0,1,.96.925c0,.012,0,.023,0,.035v.192a.943.943,0,0,1-.925.96H28.459a.943.943,0,0,1-.96-.925c0-.012,0-.023,0-.035v-.192a.943.943,0,0,1,.925-.96Z" transform="translate(-20.971 -58.807)" fill="#d8e6e9"/>
    <path id="Path_384" data-name="Path 384" d="M28.908,50.3H39.116a1.421,1.421,0,0,1,1.408,1.408v.7a1.421,1.421,0,0,1-1.408,1.408H28.908A1.421,1.421,0,0,1,27.5,52.412v-.7A1.421,1.421,0,0,1,28.908,50.3Z" transform="translate(-20.972 -47.452)" fill="#d8e6e9"/>
    <g id="Group_152" data-name="Group 152" transform="translate(0.864 0)">
      <g id="Group_151" data-name="Group 151">
        <g id="Group_67246" data-name="Group 67246">
          <g id="Group_67245" data-name="Group 67245" clip-path="url(#clip-path)">
            <g id="Group_150" data-name="Group 150" transform="translate(-4.192 -3.2)">
              <rect id="Rectangle_58" data-name="Rectangle 58" width="7.616" height="26.848" transform="translate(0)" fill="#d60013"/>
            </g>
          </g>
        </g>
      </g>
    </g>
    <path id="Path_22976" data-name="Path 22976" d="M93.365,52.6h-.013a7.545,7.545,0,1,0,.013,0Zm-.013,13.877a6.326,6.326,0,1,1,6.325-6.325A6.325,6.325,0,0,1,93.352,66.477Z" transform="translate(-60.616 -49.016)" fill="#d60013"/>
    <path id="Path_22977" data-name="Path 22977" d="M100.579,71.508a.593.593,0,0,1-.543-.63V67.916H96.965a.606.606,0,0,1-.6-.613.549.549,0,0,1,.589-.544h3.08v-2.9c0-.641.424-.69.554-.69a.588.588,0,0,1,.434.166.645.645,0,0,1,.17.447v2.979l2.916,0a.605.605,0,0,1,.6.613.568.568,0,0,1-.615.543h-2.9V70.91a.607.607,0,0,1-.6.6Z" transform="translate(-67.801 -56.201)" fill="#e0121b"/>
  </g>
</svg>
