<svg id="Netbanking_Icons_Request_Cheque_copy_22" data-name="Netbanking Icons_Request Cheque copy 22" xmlns="http://www.w3.org/2000/svg" width="48" height="48" viewBox="0 0 48 48">
  <rect id="Rectangle_1574" data-name="Rectangle 1574" width="48" height="48" fill="none"/>
  <path id="Path_3507" data-name="Path 3507" d="M116.327,54.971a1.92,1.92,0,0,1-.118-.64,1.117,1.117,0,0,1,.1-.47.96.96,0,0,1,.173-.25,1.117,1.117,0,0,1,.4-.262,1.507,1.507,0,0,1,.544-.1,1.67,1.67,0,0,1,.893.259,1.542,1.542,0,0,1,.368.32,1.706,1.706,0,0,1,.278.48.823.823,0,0,1,.064.291.269.269,0,0,1-.019.112.16.16,0,0,1-.026.038.234.234,0,0,1-.083.051.442.442,0,0,1-.154.026.563.563,0,0,1-.192-.032.6.6,0,0,1-.125-.07.467.467,0,0,1-.141-.17.714.714,0,0,1-.061-.32,1.712,1.712,0,0,1,.125-.592,2.8,2.8,0,0,1,.3-.6,1.558,1.558,0,0,1,.512-.493.982.982,0,0,1,.5-.138,1.078,1.078,0,0,1,.541.154,1.437,1.437,0,0,1,.48.474.579.579,0,0,0,.96-.64,2.621,2.621,0,0,0-.864-.845,2.24,2.24,0,0,0-1.13-.32,2.09,2.09,0,0,0-.723.128,2.413,2.413,0,0,0-.96.666,3.616,3.616,0,0,0-.685,1.232,2.794,2.794,0,0,0-.2,1,1.866,1.866,0,0,0,.141.739,1.651,1.651,0,0,0,.864.867,1.734,1.734,0,0,0,.669.134,1.619,1.619,0,0,0,.506-.08,1.415,1.415,0,0,0,.355-.176,1.3,1.3,0,0,0,.419-.47,1.344,1.344,0,0,0,.157-.656,1.92,1.92,0,0,0-.144-.71,2.806,2.806,0,0,0-.461-.794,2.739,2.739,0,0,0-1-.762,2.819,2.819,0,0,0-1.155-.246,2.688,2.688,0,0,0-.858.138,2.442,2.442,0,0,0-.586.291,2.083,2.083,0,0,0-.672.749,2.214,2.214,0,0,0-.256,1.059,3.13,3.13,0,0,0,.179,1,.579.579,0,0,0,1.078-.371Z" transform="translate(-78.247 -34.836)" fill="#cad7db"/>
  <path id="Path_3508" data-name="Path 3508" d="M36.25,35.85c1.885,2.122,1.507,3.178-2.029,4.48-1.92.714-1.133-1.066-1.75-2.838s-2.512-2.307-1.51-2.944c1.194-.758,4.189.058,5.29,1.3" transform="translate(-20.858 -23.294)" fill="#cad7db"/>
  <path id="Path_3509" data-name="Path 3509" d="M35.955,35.574l-.106.1a6.4,6.4,0,0,1,.813,1.107,1.814,1.814,0,0,1,.269.87,1.091,1.091,0,0,1-.166.576,2.7,2.7,0,0,1-.96.848,12.362,12.362,0,0,1-1.92.867,1.994,1.994,0,0,1-.662.154.531.531,0,0,1-.243-.051.381.381,0,0,1-.131-.118,1.088,1.088,0,0,1-.147-.416c-.051-.272-.07-.64-.112-1.034a5.741,5.741,0,0,0-.269-1.28A4.534,4.534,0,0,0,31.2,35.5c-.2-.2-.374-.371-.5-.515a1.107,1.107,0,0,1-.138-.192.3.3,0,0,1-.038-.134.32.32,0,0,1,0-.051.294.294,0,0,1,.061-.09.656.656,0,0,1,.154-.122h0a1.626,1.626,0,0,1,.518-.2,3.123,3.123,0,0,1,.672-.067,6.259,6.259,0,0,1,2.173.445,6.134,6.134,0,0,1,1,.493,3.562,3.562,0,0,1,.746.6l.106-.1.109-.1a3.638,3.638,0,0,0-.806-.64,6.637,6.637,0,0,0-1.6-.714,6.218,6.218,0,0,0-1.709-.269,3.357,3.357,0,0,0-.736.074,1.92,1.92,0,0,0-.611.243h0a.918.918,0,0,0-.259.227.537.537,0,0,0-.07.134.454.454,0,0,0-.026.144.6.6,0,0,0,.074.269,2.221,2.221,0,0,0,.346.432c.214.224.483.477.739.787a3.686,3.686,0,0,1,.64,1.117,5.165,5.165,0,0,1,.234,1.072c.032.262.051.509.074.739.019.173.035.32.064.483a1.76,1.76,0,0,0,.086.32.9.9,0,0,0,.1.2.64.64,0,0,0,.253.221.8.8,0,0,0,.362.077,2.33,2.33,0,0,0,.765-.17,9.792,9.792,0,0,0,2.422-1.2,2.387,2.387,0,0,0,.611-.64,1.363,1.363,0,0,0,.208-.726,2.115,2.115,0,0,0-.3-1.011,6.72,6.72,0,0,0-.851-1.146l-.109.1" transform="translate(-20.563 -23.018)" fill="#cad7db"/>
  <path id="Path_3510" data-name="Path 3510" d="M47.385,42.086a15.509,15.509,0,0,0-2.614-8.4c-3.037-4.56-9.341-5.459-14.192-5.267a28.029,28.029,0,0,0-3.99.429A4.511,4.511,0,0,0,25.545,26.9c-1.1-1.389-4.218-2.442-5.542-1.712-1.1.614.874,1.3,1.418,3.222a8.483,8.483,0,0,1,.224,2.067,11.18,11.18,0,0,0-5.949,7.8H13.529a1.459,1.459,0,0,0-1.459,1.462v7.91a1.462,1.462,0,0,0,1.459,1.462h3.664a11.142,11.142,0,0,0,5.069,4.48l.269.109-.406,2.24a1.1,1.1,0,0,0,.992,1.171l2.819.512a1.1,1.1,0,0,0,1.338-.746l.339-1.856a31.661,31.661,0,0,0,7.443.058l.32,1.8a1.1,1.1,0,0,0,1.341.746l2.816-.512a1.1,1.1,0,0,0,.992-1.171l-.317-1.856c4.662-1.658,7.114-6.88,7.174-11.99" transform="translate(-8.208 -16.963)" fill="#cad7db"/>
  <path id="Path_3511" data-name="Path 3511" d="M47.086,41.773h.147v-.144A15.7,15.7,0,0,0,44.59,33.29,9.942,9.942,0,0,0,42,30.659a14.448,14.448,0,0,0-5.078-2.15,24.506,24.506,0,0,0-5.44-.576c-.406,0-.8,0-1.194.026a28.365,28.365,0,0,0-4.01.429l.026.144.144-.022a2.88,2.88,0,0,0-.342-.938,7.779,7.779,0,0,0-.733-1.078,3.994,3.994,0,0,0-.867-.787,7.245,7.245,0,0,0-1.786-.877,6.08,6.08,0,0,0-1.878-.342,2.5,2.5,0,0,0-1.194.256h0a.986.986,0,0,0-.294.237.56.56,0,0,0-.083.147.5.5,0,0,0-.026.157.662.662,0,0,0,.07.278,2.422,2.422,0,0,0,.342.474c.214.25.483.534.73.88A3.808,3.808,0,0,1,21,28.131a5.357,5.357,0,0,1,.176,1.069c.026.346.029.672.042.96h.144l-.064-.128a11.546,11.546,0,0,0-3.955,3.274,11.91,11.91,0,0,0-2.07,4.624l.141.032v-.144H13.23a1.6,1.6,0,0,0-1.6,1.6v7.917a1.6,1.6,0,0,0,1.6,1.6h3.52a1.331,1.331,0,0,0,.157,0v-.144l-.125.074a11.315,11.315,0,0,0,5.136,4.544h0c.1.042.189.074.272.106l.054-.131-.141-.026L21.7,55.6a1.046,1.046,0,0,0-.016.17,1.091,1.091,0,0,0,.32.752,1.475,1.475,0,0,0,.8.416l2.819.512a1.469,1.469,0,0,0,1.078-.214,1.008,1.008,0,0,0,.429-.64l.32-1.856-.141-.026-.019.144a29.578,29.578,0,0,0,3.882.25,34.208,34.208,0,0,0,3.6-.192v-.144l-.141.026.32,1.8a1,1,0,0,0,.429.64,1.4,1.4,0,0,0,.8.24,1.418,1.418,0,0,0,.282-.026l2.816-.512a1.453,1.453,0,0,0,.8-.416,1.078,1.078,0,0,0,.32-.752,1.046,1.046,0,0,0,0-.17l-.32-1.84-.16.013.048.138a9.28,9.28,0,0,0,3.126-1.885,12.048,12.048,0,0,0,3.066-4.589,16.182,16.182,0,0,0,1.082-5.654h-.282A15.334,15.334,0,0,1,45.105,49a11,11,0,0,1-2.2,2.81,9.034,9.034,0,0,1-3.03,1.827.147.147,0,0,0-.1.16l.32,1.84a.767.767,0,0,1,0,.118.8.8,0,0,1-.24.55,1.184,1.184,0,0,1-.64.32l-2.816.512a1.168,1.168,0,0,1-.23.022,1.088,1.088,0,0,1-.64-.189.71.71,0,0,1-.32-.464l-.32-1.8a.15.15,0,0,0-.16-.118,34.422,34.422,0,0,1-3.565.192,29,29,0,0,1-3.84-.25.147.147,0,0,0-.163.118l-.32,1.853a.72.72,0,0,1-.32.464,1.088,1.088,0,0,1-.64.189,1.123,1.123,0,0,1-.23-.022l-2.819-.512a1.184,1.184,0,0,1-.64-.32.794.794,0,0,1-.243-.55.515.515,0,0,1,0-.118l.4-2.24a.144.144,0,0,0-.086-.16c-.093-.038-.186-.07-.266-.106h0a11.024,11.024,0,0,1-4.97-4.429.144.144,0,0,0-.138-.067.8.8,0,0,1-.128,0h-3.52a1.312,1.312,0,0,1-1.315-1.315v-7.9a1.315,1.315,0,0,1,1.315-1.318H15.4a.144.144,0,0,0,.141-.112,11.6,11.6,0,0,1,2.032-4.512,11.248,11.248,0,0,1,3.84-3.2.15.15,0,0,0,.08-.134c-.016-.288-.016-.621-.045-.976a5.629,5.629,0,0,0-.186-1.123,4.774,4.774,0,0,0-1.066-1.824c-.192-.224-.371-.416-.5-.579a1.187,1.187,0,0,1-.138-.218.32.32,0,0,1-.045-.15.186.186,0,0,1,0-.061.32.32,0,0,1,.07-.1.809.809,0,0,1,.176-.128h0a2.17,2.17,0,0,1,1.053-.218,6.243,6.243,0,0,1,2.4.56,6.458,6.458,0,0,1,1.114.6,3.613,3.613,0,0,1,.806.73,7.232,7.232,0,0,1,.7,1.05,2.541,2.541,0,0,1,.32.842.147.147,0,0,0,.061.1.134.134,0,0,0,.109.026,28.188,28.188,0,0,1,3.968-.426c.387-.016.784-.022,1.184-.022a22.3,22.3,0,0,1,7.158,1.069,12.736,12.736,0,0,1,3.2,1.6,9.674,9.674,0,0,1,2.518,2.56,15.42,15.42,0,0,1,2.6,8.176v.141h.144" transform="translate(-7.908 -16.65)" fill="#cad7db"/>
  <path id="Path_3512" data-name="Path 3512" d="M20.162,26.586a.166.166,0,0,0-.035.077.192.192,0,0,0,0,.061.342.342,0,0,0,.042.122.483.483,0,0,0,.029.058,3.949,3.949,0,0,0,.429.538l.2.224a4.954,4.954,0,0,1,.96,1.555c.029.08.054.163.08.246a6.358,6.358,0,0,1,.208,1.51v.454a.518.518,0,0,0,0,.07.429.429,0,0,0,0,.064.15.15,0,0,1-.08.134A11.1,11.1,0,0,0,16.142,39.4a.157.157,0,0,1,0,.035.131.131,0,0,1-.064.061.147.147,0,0,1-.064,0H13.835a1.318,1.318,0,0,0-1.315,1.318v7.926a1.318,1.318,0,0,0,1.315,1.315h.182c-.992-.413-1.085-4.288-.944-5.731a26.613,26.613,0,0,1,.234-3.2c.157-.755.752-.864,1.414-.864h.835a1.9,1.9,0,0,0,.934-.176c.656-.374.483-1.382.771-2.045a15.719,15.719,0,0,1,1.517-2.7,9.313,9.313,0,0,1,3.27-2.858c1.731-1.037-.051-4.6-1.888-5.93" transform="translate(-8.514 -18.061)" fill="#cad7db"/>
  <path id="Path_3513" data-name="Path 3513" d="M23.664,39.78a.131.131,0,0,1-.064.061.131.131,0,0,0,.064-.061m5.962-8a.518.518,0,0,0,0,.07.518.518,0,0,1,0-.07m0-.454v.288h0v-.294M28.355,28a4.934,4.934,0,0,1,.96,1.555A4.954,4.954,0,0,0,28.355,28m-.694-.941a.493.493,0,0,0,.07.179.483.483,0,0,1-.029-.058.342.342,0,0,1-.042-.122" transform="translate(-16.048 -18.401)" fill="#cad7db"/>
  <path id="Path_3514" data-name="Path 3514" d="M62.641,36.136h0c-.4,0-.8,0-1.184.022l-.378.019a27.773,27.773,0,0,0-3.331.365,1.184,1.184,0,0,1-.154.022l-.106.019h0a.029.029,0,0,0-.019,0c1.325-.07,2.675-.131,4.035-.131,4.9,0,9.894.794,14,4.854-3-4.448-9.174-5.168-12.7-5.187h-.15" transform="translate(-39.08 -24.562)" fill="#cad7db"/>
  <path id="Path_3515" data-name="Path 3515" d="M57.6,36.606a.458.458,0,0,0-.118.022h0l.106-.019m5.046-.429c-.39,0-.787,0-1.184.022a2.489,2.489,0,0,0-.378.019l.378-.019c.387-.016.784-.022,1.184-.022h0" transform="translate(-39.086 -24.602)" fill="#cad7db"/>
  <path id="Path_3516" data-name="Path 3516" d="M35.721,58.183a1.071,1.071,0,0,1-2.141,0A1.071,1.071,0,0,1,35.721,58.183Z" transform="translate(-22.834 -38.839)" fill="#cad7db"/>
  <path id="Path_3517" data-name="Path 3517" d="M68.987,77.47A12.906,12.906,0,0,1,67.9,81.7a14.188,14.188,0,0,1-3.283,5.251,15.488,15.488,0,0,1-2.506,1.786c-.614.342-1.027.474-.813,1.28.09.32.1.736.186,1.069.282,1.053-1.28,1.507-2.422,1.507a2.925,2.925,0,0,1-.746-.083c-.541-.15-.464-.81-.6-1.36-.2-.861-.64-1.056-1.2-1.056-.422,0-.922.109-1.472.131-.614.029-1.242.067-1.869.067a10.028,10.028,0,0,1-1.421-.09,13.259,13.259,0,0,0-1.92-.32,1.024,1.024,0,0,0-1.146.768c-.32,1.222-.493,1.843-1.571,1.843a4.918,4.918,0,0,1-.813-.083c-1.024-.179-1.952-.3-2.141-1.424l-.07.378-.054.32a.515.515,0,0,0,0,.118.794.794,0,0,0,.243.55,1.158,1.158,0,0,0,.387.259,1.315,1.315,0,0,0,.256.074l2.819.512a1.278,1.278,0,0,0,.221.022.928.928,0,0,0,.944-.621v-.032l.32-1.853a.144.144,0,0,1,.144-.118H49.4l.246.032a29.119,29.119,0,0,0,3.6.214c1,0,2.022-.045,3.046-.138l.512-.051h0a.144.144,0,0,1,.144.118l.189,1.05.138.746v.051a.918.918,0,0,0,.931.6,1.123,1.123,0,0,0,.23-.022l2.816-.512a1.476,1.476,0,0,0,.24-.067,1.12,1.12,0,0,0,.406-.266.8.8,0,0,0,.24-.55h0a.582.582,0,0,0,0-.1l-.32-1.84a.144.144,0,0,1,.054-.138.128.128,0,0,1,.042-.022,8.806,8.806,0,0,0,1.52-.714h0c3.7-2.186,5.44-6.854,5.552-10.954v-.192h0v-.33" transform="translate(-29.947 -52.68)" fill="#cad7db"/>
  <path id="Path_3518" data-name="Path 3518" d="M57.072,92.4l.138.746v0l-.138-.746m5.011-.032h0a.8.8,0,0,1-.24.55,1.12,1.12,0,0,1-.406.266.922.922,0,0,0,.64-.829m0,0h0M44,91.95l-.054.32a.886.886,0,0,0,.618.928,1.158,1.158,0,0,1-.387-.259.794.794,0,0,1-.243-.55.515.515,0,0,1,0-.118l.054-.32m12.726-.726h0l-.512.051.512-.051h0m-7.437-.058a.144.144,0,0,0-.144.118l-.32,1.853v0l.32-1.853a.144.144,0,0,1,.144-.118H49.3l.246.032-.246-.032h-.019m14.058-1.626a8.806,8.806,0,0,1-1.52.714.128.128,0,0,0-.042.022.128.128,0,0,1,.042-.022,8.589,8.589,0,0,0,1.52-.714m0,0h0M68.912,78.4v0h0m0-.045V78.4h0V78.36" transform="translate(-29.872 -53.285)" fill="#cad7db"/>
  <path id="Path_3519" data-name="Path 3519" d="M64.508,39.882a13.584,13.584,0,0,1,2.854-.285,17.514,17.514,0,0,1,4.218.522.433.433,0,0,0,.214-.838,18.358,18.358,0,0,0-4.432-.55,14.176,14.176,0,0,0-3.037.32.432.432,0,0,0,.182.845Z" transform="translate(-43.509 -26.336)" fill="#cad7db"/>
  <path id="Path_3520" data-name="Path 3520" d="M118.73,52.978a1.92,1.92,0,0,1-.118-.64,1.117,1.117,0,0,1,.1-.47.931.931,0,0,1,.173-.253,1.159,1.159,0,0,1,.4-.262,1.565,1.565,0,0,1,.544-.1,1.67,1.67,0,0,1,.893.259,1.6,1.6,0,0,1,.368.32,1.766,1.766,0,0,1,.278.477.835.835,0,0,1,.064.294.24.24,0,0,1-.019.109.115.115,0,0,1-.026.038.221.221,0,0,1-.083.054.448.448,0,0,1-.157.026.563.563,0,0,1-.189-.035.426.426,0,0,1-.125-.067.493.493,0,0,1-.141-.17.72.72,0,0,1-.061-.32,1.655,1.655,0,0,1,.125-.592,2.88,2.88,0,0,1,.32-.6,1.619,1.619,0,0,1,.509-.493,1,1,0,0,1,.5-.134,1.082,1.082,0,0,1,.544.154,1.488,1.488,0,0,1,.48.47.579.579,0,1,0,.96-.64,2.621,2.621,0,0,0-.867-.842,2.214,2.214,0,0,0-1.13-.32,2.192,2.192,0,0,0-.723.125,2.435,2.435,0,0,0-.96.666,3.651,3.651,0,0,0-.7,1.19,2.829,2.829,0,0,0-.2,1,1.92,1.92,0,0,0,.131.784,1.734,1.734,0,0,0,.275.445,1.69,1.69,0,0,0,1.254.56,1.626,1.626,0,0,0,.509-.08,1.469,1.469,0,0,0,.355-.176,1.3,1.3,0,0,0,.422-.477,1.379,1.379,0,0,0,.157-.656,1.92,1.92,0,0,0-.144-.71,2.806,2.806,0,0,0-.461-.794,2.739,2.739,0,0,0-1-.762,2.832,2.832,0,0,0-1.155-.246,2.675,2.675,0,0,0-.858.138,2.442,2.442,0,0,0-.586.291,2.1,2.1,0,0,0-.672.746,2.24,2.24,0,0,0-.256,1.062,3.059,3.059,0,0,0,.179,1,.579.579,0,0,0,1.094-.371Z" transform="translate(-79.873 -33.483)" fill="#eaf2f5"/>
  <path id="Path_3521" data-name="Path 3521" d="M38.639,33.845c1.885,2.118,1.507,3.174-2.029,4.48-1.92.714-1.136-1.066-1.754-2.842s-2.509-2.307-1.507-2.944c1.194-.758,4.186.061,5.29,1.3" transform="translate(-22.483 -21.928)" fill="#eaf2f5"/>
  <path id="Path_3522" data-name="Path 3522" d="M38.345,33.54l-.109.1a6.275,6.275,0,0,1,.816,1.107,1.8,1.8,0,0,1,.269.867,1.1,1.1,0,0,1-.173.566,2.662,2.662,0,0,1-.96.845,12.042,12.042,0,0,1-1.92.87,2.051,2.051,0,0,1-.666.15.486.486,0,0,1-.24-.051.371.371,0,0,1-.131-.115,1.107,1.107,0,0,1-.147-.416c-.051-.275-.07-.64-.112-1.034a5.8,5.8,0,0,0-.269-1.28,4.522,4.522,0,0,0-1.117-1.683c-.2-.2-.374-.371-.5-.515a1.242,1.242,0,0,1-.138-.192.32.32,0,0,1-.038-.134.131.131,0,0,1,0-.051.253.253,0,0,1,.061-.093.771.771,0,0,1,.154-.122h0a1.622,1.622,0,0,1,.518-.2,3.123,3.123,0,0,1,.672-.067,6.259,6.259,0,0,1,2.173.445,5.885,5.885,0,0,1,1,.493,3.366,3.366,0,0,1,.742.6l.109-.1.109-.1a3.741,3.741,0,0,0-.806-.659,6.755,6.755,0,0,0-1.6-.71,6.218,6.218,0,0,0-1.709-.269,3.357,3.357,0,0,0-.736.074,1.92,1.92,0,0,0-.611.24h0a.877.877,0,0,0-.259.23.451.451,0,0,0-.07.134.442.442,0,0,0-.026.144.6.6,0,0,0,.074.269,2.2,2.2,0,0,0,.342.432c.218.224.486.477.742.787a3.648,3.648,0,0,1,.64,1.117,5.165,5.165,0,0,1,.24,1.078c.032.259.051.509.074.739.019.173.035.32.064.48a1.8,1.8,0,0,0,.086.32.9.9,0,0,0,.1.2.64.64,0,0,0,.253.221.8.8,0,0,0,.358.077,2.346,2.346,0,0,0,.768-.173,9.75,9.75,0,0,0,2.416-1.184,2.387,2.387,0,0,0,.611-.64,1.4,1.4,0,0,0,.208-.73,2.115,2.115,0,0,0-.3-1.008,6.72,6.72,0,0,0-.851-1.146l-.109.1" transform="translate(-22.188 -21.624)" fill="#eaf2f5"/>
  <path id="Path_3523" data-name="Path 3523" d="M49.762,40.08a15.49,15.49,0,0,0-2.614-8.4c-3.037-4.56-9.344-5.462-14.192-5.267a28.48,28.48,0,0,0-3.99.426,4.489,4.489,0,0,0-1.046-1.949c-1.094-1.386-4.224-2.442-5.539-1.709-1.1.611.874,1.28,1.418,3.222a8.483,8.483,0,0,1,.224,2.067,11.172,11.172,0,0,0-5.949,7.8H15.9a1.459,1.459,0,0,0-1.459,1.459v7.914A1.459,1.459,0,0,0,15.9,47.1h3.667a11.162,11.162,0,0,0,5.069,4.48c.086.038.179.07.269.106L24.5,53.93A1.094,1.094,0,0,0,25.49,55.1l2.819.512a1.091,1.091,0,0,0,1.338-.746l.339-1.853a31.834,31.834,0,0,0,7.443.058l.32,1.8a1.093,1.093,0,0,0,1.341.746l2.816-.512A1.1,1.1,0,0,0,42.9,53.93l-.32-1.84c4.662-1.658,7.114-6.88,7.174-11.994" transform="translate(-9.819 -15.6)" fill="#eaf2f5"/>
  <path id="Path_3524" data-name="Path 3524" d="M49.462,39.769h.144v-.144a15.653,15.653,0,0,0-2.646-8.336,9.942,9.942,0,0,0-2.592-2.63,14.4,14.4,0,0,0-5.078-2.15,24.506,24.506,0,0,0-5.44-.576c-.406,0-.8,0-1.194.026a28.365,28.365,0,0,0-4.01.429l.026.141.144-.019a2.934,2.934,0,0,0-.342-.941,7.763,7.763,0,0,0-.733-1.075,4.006,4.006,0,0,0-.867-.79,7.418,7.418,0,0,0-1.786-.877,6.08,6.08,0,0,0-1.878-.339,2.461,2.461,0,0,0-1.194.256h0a.96.96,0,0,0-.3.237.64.64,0,0,0-.08.144.448.448,0,0,0-.026.157.666.666,0,0,0,.07.282,2.522,2.522,0,0,0,.342.474c.214.25.483.534.73.877a3.84,3.84,0,0,1,.611,1.219,5.357,5.357,0,0,1,.176,1.069c.026.342.029.669.042.96h.144l-.067-.128a11.52,11.52,0,0,0-3.946,3.274,11.891,11.891,0,0,0-2.083,4.624l.141.032v-.144H15.6a1.6,1.6,0,0,0-1.6,1.6v7.917a1.6,1.6,0,0,0,1.6,1.6h3.52a1.466,1.466,0,0,0,.16,0V46.79l-.125.074A11.274,11.274,0,0,0,24.291,51.4h0l.272.109.054-.134-.141-.026-.406,2.24a.982.982,0,0,0,0,.17,1.091,1.091,0,0,0,.32.752,1.52,1.52,0,0,0,.8.416l2.819.512a1.676,1.676,0,0,0,.282.026,1.376,1.376,0,0,0,.794-.24,1.021,1.021,0,0,0,.432-.64l.32-1.853L29.7,52.71l-.019.141a29.038,29.038,0,0,0,3.882.25,34.209,34.209,0,0,0,3.6-.192v-.141l-.141.026.32,1.8a1,1,0,0,0,.429.64,1.392,1.392,0,0,0,.794.24,1.744,1.744,0,0,0,.285-.026l2.816-.512a1.494,1.494,0,0,0,.8-.416,1.075,1.075,0,0,0,.32-.752.985.985,0,0,0,0-.17l-.32-1.84-.141.026.048.138a9.318,9.318,0,0,0,3.126-1.885,12.07,12.07,0,0,0,3.066-4.589,16.134,16.134,0,0,0,1.078-5.654h-.288A15.334,15.334,0,0,1,47.5,47.011a11.059,11.059,0,0,1-2.2,2.81,8.96,8.96,0,0,1-3.03,1.824.147.147,0,0,0-.1.163l.32,1.84a.74.74,0,0,1,0,.118.794.794,0,0,1-.243.55,1.184,1.184,0,0,1-.64.32l-2.816.512a1.469,1.469,0,0,1-.234.019,1.062,1.062,0,0,1-.64-.186.733.733,0,0,1-.32-.464l-.32-1.8a.141.141,0,0,0-.157-.118,34.43,34.43,0,0,1-3.565.189,29,29,0,0,1-3.84-.246.147.147,0,0,0-.163.118l-.32,1.853a.73.73,0,0,1-.32.464,1.066,1.066,0,0,1-.64.186,1.4,1.4,0,0,1-.23-.019l-2.819-.512a1.206,1.206,0,0,1-.64-.32.794.794,0,0,1-.243-.55.5.5,0,0,1,0-.118l.4-2.24a.138.138,0,0,0-.086-.157c-.093-.042-.186-.07-.266-.106h0A11.024,11.024,0,0,1,19.4,46.7a.138.138,0,0,0-.138-.067H15.6a1.312,1.312,0,0,1-1.315-1.315v-7.9A1.312,1.312,0,0,1,15.6,36.105h2.166a.147.147,0,0,0,.141-.112,11.613,11.613,0,0,1,2.032-4.515,11.242,11.242,0,0,1,3.84-3.2.144.144,0,0,0,.077-.134,8.2,8.2,0,0,0-.042-.976,5.593,5.593,0,0,0-.186-1.123,4.774,4.774,0,0,0-1.066-1.824c-.2-.227-.371-.419-.5-.579a1.44,1.44,0,0,1-.141-.218.394.394,0,0,1-.042-.154.182.182,0,0,1,0-.058.294.294,0,0,1,.07-.1.813.813,0,0,1,.176-.125h0a2.2,2.2,0,0,1,1.053-.221A6.826,6.826,0,0,1,26.7,23.929a3.76,3.76,0,0,1,.806.726,7.607,7.607,0,0,1,.707,1.037,2.579,2.579,0,0,1,.32.845.149.149,0,0,0,.17.122,28.188,28.188,0,0,1,3.968-.426c.387-.016.784-.026,1.184-.026A22.4,22.4,0,0,1,41,27.289a12.851,12.851,0,0,1,3.2,1.6,9.661,9.661,0,0,1,2.518,2.56,15.4,15.4,0,0,1,2.592,8.179v.141h.144" transform="translate(-9.52 -15.289)" fill="#eaf2f5"/>
  <path id="Path_3525" data-name="Path 3525" d="M22.538,24.586a.166.166,0,0,0-.035.077.173.173,0,0,0,0,.058.387.387,0,0,0,.038.125l.032.058A4.16,4.16,0,0,0,23,25.44l.2.221a5.069,5.069,0,0,1,.96,1.558c.029.08.054.16.08.246a6.355,6.355,0,0,1,.208,1.507v.454a.541.541,0,0,0,0,.074v.064a.141.141,0,0,1-.077.134,11.084,11.084,0,0,0-5.85,7.706v.032a.138.138,0,0,1-.064.064.147.147,0,0,1-.064,0H16.205a1.315,1.315,0,0,0-1.315,1.315v7.93a1.318,1.318,0,0,0,1.315,1.315h.182c-.992-.413-1.085-4.291-.944-5.734a27.385,27.385,0,0,1,.23-3.2c.16-.752.752-.861,1.418-.861h.835a1.9,1.9,0,0,0,.934-.176c.656-.378.483-1.382.771-2.048a15.811,15.811,0,0,1,1.517-2.694,9.331,9.331,0,0,1,3.267-2.858c1.734-1.037-.048-4.6-1.885-5.93" transform="translate(-10.125 -16.701)" fill="#eaf2f5"/>
  <path id="Path_3526" data-name="Path 3526" d="M26.054,37.777a.138.138,0,0,1-.064.064.138.138,0,0,0,.064-.064m5.962-8a.54.54,0,0,0,0,.074.54.54,0,0,1,0-.074m0-.454v.288h0v-.3M30.745,26a5.12,5.12,0,0,1,.96,1.558A5.069,5.069,0,0,0,30.745,26m-.694-.941a.506.506,0,0,0,.07.182l-.032-.058a.387.387,0,0,1-.038-.125" transform="translate(-17.673 -17.041)" fill="#eaf2f5"/>
  <path id="Path_3527" data-name="Path 3527" d="M38.111,56.175a1.071,1.071,0,0,1-2.141,0A1.071,1.071,0,0,1,38.111,56.175Z" transform="translate(-24.46 -37.475)" fill="#eaf2f5"/>
  <path id="Path_3528" data-name="Path 3528" d="M71.367,75.47A12.8,12.8,0,0,1,70.292,79.7a14.241,14.241,0,0,1-3.283,5.254A15.472,15.472,0,0,1,64.5,86.734c-.618.342-1.027.474-.813,1.28.09.32.1.736.186,1.066.282,1.056-1.28,1.507-2.422,1.507a2.925,2.925,0,0,1-.746-.083c-.541-.147-.464-.806-.6-1.357-.2-.861-.64-1.056-1.2-1.056-.422,0-.925.106-1.472.131-.618.029-1.245.067-1.869.067a9.576,9.576,0,0,1-1.421-.093,13.26,13.26,0,0,0-1.92-.32,1.03,1.03,0,0,0-1.149.768c-.32,1.222-.49,1.84-1.568,1.84a4.873,4.873,0,0,1-.813-.08c-1.024-.179-1.952-.3-2.144-1.424l-.067.378-.054.32a.5.5,0,0,0,0,.118.794.794,0,0,0,.243.55,1.159,1.159,0,0,0,.387.259,1.316,1.316,0,0,0,.256.074l2.819.512a1.28,1.28,0,0,0,.221.019.925.925,0,0,0,.944-.621s0-.019,0-.029l.32-1.853a.144.144,0,0,1,.144-.118h.019l.246.032a29.116,29.116,0,0,0,3.6.214c1,0,2.022-.048,3.046-.141.173,0,.342-.032.512-.048h0a.144.144,0,0,1,.141.118l.192,1.053.134.746v.051a.922.922,0,0,0,.931.6,1.427,1.427,0,0,0,.23-.019l2.816-.512a1.475,1.475,0,0,0,.24-.067,1.165,1.165,0,0,0,.4-.266.794.794,0,0,0,.243-.55v-.016h0a.553.553,0,0,0,0-.1l-.32-1.84a.141.141,0,0,1,.054-.138.131.131,0,0,1,.042-.026,8.567,8.567,0,0,0,1.52-.71h0c3.7-2.186,5.44-6.854,5.552-10.954v-.192h0v-.33" transform="translate(-31.572 -51.32)" fill="#eaf2f5"/>
  <path id="Path_3529" data-name="Path 3529" d="M59.442,90.4l.134.746v0l-.134-.746m5.011-.035v.016a.794.794,0,0,1-.243.55,1.165,1.165,0,0,1-.4.266.928.928,0,0,0,.64-.832m0,0h0M46.37,89.96l-.054.32a.886.886,0,0,0,.618.928,1.158,1.158,0,0,1-.387-.259.794.794,0,0,1-.243-.55.5.5,0,0,1,0-.118l.054-.32m12.723-.726h0c-.17,0-.339.035-.512.048.173,0,.342-.032.512-.048h0m-7.434-.058a.144.144,0,0,0-.144.118l-.32,1.853v0l.32-1.853a.144.144,0,0,1,.144-.118h.019l.246.032-.246-.032h-.019M65.723,87.55a8.567,8.567,0,0,1-1.52.71.131.131,0,0,0-.042.026.131.131,0,0,1,.042-.026,8.688,8.688,0,0,0,1.52-.71m0,0h0M71.282,76.4v0h0m0-.045V76.4h0V76.36" transform="translate(-31.483 -51.925)" fill="#eaf2f5"/>
  <path id="Path_3530" data-name="Path 3530" d="M65.053,39.634v0h0v0a13.027,13.027,0,0,1,3.338-.387,15.654,15.654,0,0,1,4.39.64.692.692,0,1,0,.381-1.331,17.014,17.014,0,0,0-4.771-.678,14.262,14.262,0,0,0-3.725.442.682.682,0,0,0,.387,1.306Z" transform="translate(-43.661 -25.755)" fill="#cad7db"/>
  <g id="Group_67412" data-name="Group 67412" transform="translate(24.44 16.594)">
    <path id="Path_1452" data-name="Path 1452" d="M88.3,78.236A11.383,11.383,0,1,1,76.91,66.856,11.383,11.383,0,0,1,88.3,78.236Z" transform="translate(-65.532 -66.856)" fill="#cad7db"/>
    <path id="Path_1453" data-name="Path 1453" d="M90.4,78.236a11.383,11.383,0,1,1-11.386-11.38h.01A11.383,11.383,0,0,1,90.4,78.236Z" transform="translate(-66.963 -66.856)" fill="#eaf2f5"/>
    <path id="Path_1454" data-name="Path 1454" d="M92.5,82.2a9.517,9.517,0,1,1-9.518-9.515h.009A9.517,9.517,0,0,1,92.5,82.2Z" transform="translate(-70.929 -70.818)" fill="#dee9ec"/>
    <path id="Path_23063" data-name="Path 23063" d="M97.8,97.753a.741.741,0,0,1-.527-.218l-2.876-2.878-2.876,2.878a.745.745,0,1,1-1.054-1.054L93.339,93.6l-2.877-2.878a.745.745,0,1,1,1.054-1.054l2.876,2.877,2.876-2.877a.745.745,0,0,1,1.055,1.054L95.446,93.6l2.877,2.878a.745.745,0,0,1-.527,1.272Z" transform="translate(-82.336 -82.221)" fill="#e0121b"/>
  </g>
</svg>
