<svg xmlns="http://www.w3.org/2000/svg" width="24" height="24" viewBox="0 0 24 24"><defs><style>.a{fill:#939393;}</style></defs><path class="a" d="M-2162-2370a12.01,12.01,0,0,1,12-12,12.01,12.01,0,0,1,12,12,12.01,12.01,0,0,1-12,12A12.01,12.01,0,0,1-2162-2370Zm1.467,0A10.516,10.516,0,0,0-2150-2359.467,10.516,10.516,0,0,0-2139.466-2370,10.516,10.516,0,0,0-2150-2380.533,10.515,10.515,0,0,0-2160.533-2370Zm4.792,3.833a.727.727,0,0,1,.592-1.192.815.815,0,0,1,.616.392,5.388,5.388,0,0,0,4.533,2.3,5.388,5.388,0,0,0,4.533-2.3.815.815,0,0,1,.616-.392.727.727,0,0,1,.592,1.192A6.788,6.788,0,0,1-2150-2363.2,6.789,6.789,0,0,1-2155.741-2366.167Zm8.275-7.233a1.277,1.277,0,0,1,1.267-1.267,1.277,1.277,0,0,1,1.267,1.267,1.277,1.277,0,0,1-1.267,1.267A1.277,1.277,0,0,1-2147.467-2373.4Zm-7.6,0a1.277,1.277,0,0,1,1.267-1.267,1.277,1.277,0,0,1,1.267,1.267,1.277,1.277,0,0,1-1.267,1.267A1.277,1.277,0,0,1-2155.066-2373.4Z" transform="translate(2162 2382)"/></svg>