<svg xmlns="http://www.w3.org/2000/svg" xmlns:xlink="http://www.w3.org/1999/xlink" width="48" height="48" viewBox="0 0 48 48">
  <defs>
    <clipPath id="clip-path">
      <path id="Path_2325" data-name="Path 2325" d="M106.094,12.01,110.4,16.5v.733l-4.374-.2Z" transform="translate(-106.03 -12.01)" fill="none"/>
    </clipPath>
  </defs>
  <g id="Group_22900" data-name="Group 22900" transform="translate(-8636 -2710)">
    <g id="Netbanking_Icons_NACH_Cancellation" data-name="Netbanking Icons_NACH Cancellation" transform="translate(8636 2710)">
      <path id="Path_2323" data-name="Path 2323" d="M57.039,18.34a.1.1,0,0,1-.026-.029q-.979-.96-1.952-1.952a.169.169,0,0,1-.032-.019c-.106-.112-.218-.214-.32-.32H31.19a1.686,1.686,0,0,0-1.69,1.686V53.364a1.686,1.686,0,0,0,1.69,1.69H55.663a1.686,1.686,0,0,0,1.686-1.686V18.6a4,4,0,0,0-.31-.256Z" transform="translate(-20.06 -10.894)" fill="#cbd8dc"/>
      <path id="Path_2324" data-name="Path 2324" d="M33.47,13.514V49.539a1.51,1.51,0,0,0,1.51,1.5H59.806a1.51,1.51,0,0,0,1.514-1.51l-.262-29.091V16.454l-1.37-.278c0-.835-.422-.448-1.258-.448l.49-.557L56.75,12H34.99a1.51,1.51,0,0,0-1.52,1.514Z" transform="translate(-22.76 -8.16)" fill="#eaf2f5"/>
      <rect id="Rectangle_1082" data-name="Rectangle 1082" width="22.093" height="2.227" rx="1.114" transform="translate(13.603 32.032)" fill="#dee9ec"/>
      <rect id="Rectangle_1083" data-name="Rectangle 1083" width="22.093" height="2.227" rx="1.114" transform="translate(13.603 36.512)" fill="#dee9ec"/>
      <g id="Group_21577" data-name="Group 21577" transform="translate(33.93 3.843)" clip-path="url(#clip-path)">
        <rect id="Rectangle_1084" data-name="Rectangle 1084" width="5.814" height="5.974" rx="2.907" transform="translate(0.006 -1.456)" fill="#cbd8dc"/>
      </g>
      <circle id="Ellipse_1833" data-name="Ellipse 1833" cx="10.522" cy="10.522" r="10.522" transform="translate(14.112 7.968)" fill="#dee9ec"/>
      <circle id="Ellipse_1834" data-name="Ellipse 1834" cx="10.522" cy="10.522" r="10.522" transform="translate(13.472 8.346)" fill="#dee9ec"/>
      <line id="Line_1005" data-name="Line 1005" x1="6.259" y1="6.262" transform="translate(20.864 15.734)" fill="none" stroke="#e0121b" stroke-linecap="round" stroke-linejoin="round" stroke-width="2"/>
      <line id="Line_1006" data-name="Line 1006" x1="6.259" y2="6.262" transform="translate(20.864 15.734)" fill="none" stroke="#e0121b" stroke-linecap="round" stroke-linejoin="round" stroke-width="2"/>
      <rect id="Rectangle_1085" data-name="Rectangle 1085" width="48" height="48" fill="none"/>
    </g>
  </g>
</svg>
