<svg xmlns="http://www.w3.org/2000/svg" xmlns:xlink="http://www.w3.org/1999/xlink" width="48" height="48" viewBox="0 0 48 48">
  <defs>
    <clipPath id="clip-path">
      <path id="Path_2213" data-name="Path 2213" d="M106.094,11.73l4.31,4.493v.733l-4.374-.2Z" transform="translate(-106.03 -11.73)" fill="none"/>
    </clipPath>
  </defs>
  <g id="Netbanking_Icons-64" data-name="Netbanking Icons-64" transform="translate(0 0.28)">
    <rect id="Rectangle_990" data-name="Rectangle 990" width="48" height="48" transform="translate(0 -0.28)" fill="none"/>
    <path id="Path_2211" data-name="Path 2211" d="M57.039,18.07a.1.1,0,0,1-.026-.029q-.979-.96-1.952-1.952a.169.169,0,0,1-.032-.019c-.106-.112-.218-.214-.32-.32H31.19a1.686,1.686,0,0,0-1.69,1.68V53.091a1.686,1.686,0,0,0,1.69,1.686H55.663a1.686,1.686,0,0,0,1.686-1.686V18.323a4,4,0,0,0-.31-.253Z" transform="translate(-20.06 -10.9)" fill="#cbd8dc"/>
    <path id="Path_2212" data-name="Path 2212" d="M33.47,13.24V49.256a1.51,1.51,0,0,0,1.51,1.51H59.806a1.51,1.51,0,0,0,1.514-1.51l-.262-29.088V16.184l-1.37-.282c0-.835-.422-.448-1.258-.448l.49-.557L56.74,11.73H34.98a1.51,1.51,0,0,0-1.51,1.51Z" transform="translate(-22.76 -8.167)" fill="#eaf2f5"/>
    <rect id="Rectangle_991" data-name="Rectangle 991" width="22.093" height="2.227" rx="1.114" transform="translate(13.603 31.752)" fill="#dee9ec"/>
    <rect id="Rectangle_992" data-name="Rectangle 992" width="22.093" height="2.227" rx="1.114" transform="translate(13.603 36.232)" fill="#dee9ec"/>
    <g id="Group_21568" data-name="Group 21568" transform="translate(33.93 3.563)" clip-path="url(#clip-path)">
      <rect id="Rectangle_993" data-name="Rectangle 993" width="5.814" height="5.974" rx="2.907" transform="translate(0.006 -1.456)" fill="#cbd8dc"/>
    </g>
    <circle id="Ellipse_1818" data-name="Ellipse 1818" cx="10.522" cy="10.522" r="10.522" transform="translate(14.112 7.688)" fill="#dee9ec"/>
    <path id="Path_2214" data-name="Path 2214" d="M57.643,46.181l3.84,4.966a.96.96,0,0,0,1.523,0l6.72-8.7A.963.963,0,1,0,68.2,41.265l-5.955,7.718L59.17,45a.964.964,0,0,0-1.526,1.178Z" transform="translate(-39.061 -27.997)" fill="#df0f1b"/>
    <rect id="Rectangle_994" data-name="Rectangle 994" width="48" height="48" transform="translate(0 -0.28)" fill="none"/>
  </g>
</svg>
