<svg xmlns="http://www.w3.org/2000/svg" width="87" height="87" viewBox="0 0 87 87"><defs><style>.a{fill:none;}.b{fill:#add0bc;}.c{fill:#dcf2e5;}.d{fill:#b8e6cb;}.e{fill:#15a552;}</style></defs><g transform="translate(-831.874 -3613.777)"><rect class="a" width="87" height="87" transform="translate(831.874 3613.777)"/><g transform="translate(826.874 3613.777)"><path class="b" d="M911.674,3656.377a42,42,0,1,1-42-42A41.977,41.977,0,0,1,911.674,3656.377Z" transform="translate(-819.674 -3611.377)"/><path class="c" d="M916.274,3656.377a42,42,0,1,1-42-42A41.977,41.977,0,0,1,916.274,3656.377Z" transform="translate(-827.274 -3614.377)"/><path class="d" d="M908.174,3657.777a32.5,32.5,0,1,1-32.5-32.5A32.5,32.5,0,0,1,908.174,3657.777Z" transform="translate(-828.174 -3616.277)"/><path class="e" d="M55.568,76l9.577,9.061a2.9,2.9,0,0,0,4.558,0L90.014,58.668a2.928,2.928,0,0,0-.654-3.882,2.89,2.89,0,0,0-3.9.307L67.423,78.479l-7.26-6.052a2.9,2.9,0,0,0-4.075-.523,2.931,2.931,0,0,0-.52,4.1Z" transform="translate(-23.961 -28.169)"/></g></g></svg>