<svg id="tax_credit_statement" xmlns="http://www.w3.org/2000/svg" xmlns:xlink="http://www.w3.org/1999/xlink" width="150" height="150" viewBox="0 0 150 150">
  <defs>
    <clipPath id="clip-path">
      <path id="Path_23046" data-name="Path 23046" d="M106.23,12.01,119.7,26.05v2.29l-13.67-.61Z" fill="none"/>
    </clipPath>
  </defs>
  <rect id="Rectangle_489" data-name="Rectangle 489" width="150" height="150" fill="none"/>
  <path id="Path_1259" data-name="Path 1259" d="M115.56,23.27a.328.328,0,0,1-.08-.09q-3.06-3-6.1-6.1a.51.51,0,0,1-.1-.06c-.33-.35-.68-.67-1-1H34.78a5.269,5.269,0,0,0-5.28,5.26V132.72A5.269,5.269,0,0,0,34.76,138h76.5a5.269,5.269,0,0,0,5.27-5.27h0V24.07A12.366,12.366,0,0,0,115.56,23.27Z" fill="#cbd8dc"/>
  <path id="Path_1260" data-name="Path 1260" d="M33.47,16.73V129.31A4.72,4.72,0,0,0,38.19,134h77.58a4.72,4.72,0,0,0,4.73-4.71v-.01l-.82-90.91V25.92l-4.28-.87c0-2.61-1.32-1.4-3.93-1.4L113,21.91,106.22,12h-68a4.72,4.72,0,0,0-4.75,4.69Z" fill="#eaf2f5"/>
  <path id="Rectangle_490" data-name="Rectangle 490" d="M45.99,100.1h62.08a3.48,3.48,0,0,1,3.48,3.48h0a3.48,3.48,0,0,1-3.48,3.48H45.99a3.48,3.48,0,0,1-3.48-3.48h0A3.48,3.48,0,0,1,45.99,100.1Z" fill="#dee9ec"/>
  <path id="Rectangle_491" data-name="Rectangle 491" d="M45.99,114.1h62.08a3.48,3.48,0,0,1,3.48,3.48h0a3.48,3.48,0,0,1-3.48,3.48H45.99a3.48,3.48,0,0,1-3.48-3.48h0A3.48,3.48,0,0,1,45.99,114.1Z" fill="#dee9ec"/>
  <g id="Group_67337" data-name="Group 67337">
    <g id="Group_67336" data-name="Group 67336" clip-path="url(#clip-path)">
      <g id="Group_21453" data-name="Group 21453">
        <rect id="Rectangle_492" data-name="Rectangle 492" width="18.17" height="18.67" rx="5.2" transform="translate(106.05 7.46)" fill="#cbd8dc"/>
      </g>
    </g>
  </g>
  <circle id="Ellipse_1613" data-name="Ellipse 1613" cx="32.88" cy="32.88" r="32.88" transform="translate(44.1 24.9)" fill="#dee9ec"/>
  <rect id="Rectangle_493" data-name="Rectangle 493" width="150" height="150" fill="none"/>
  <g id="Group_67338" data-name="Group 67338">
    <path id="Path_23047" data-name="Path 23047" d="M63.923,64.507H54.542V62.475l4.322-4.543a5.157,5.157,0,0,0,1.6-2.89,2.022,2.022,0,0,0-.377-1.321,1.473,1.473,0,0,0-2.253.153,2.483,2.483,0,0,0-.444,1.51H54.265a4.424,4.424,0,0,1,.618-2.286A4.343,4.343,0,0,1,56.6,51.46a5.1,5.1,0,0,1,2.456-.591,5.022,5.022,0,0,1,3.357,1.006,3.592,3.592,0,0,1,1.177,2.89,4.178,4.178,0,0,1-.3,1.547,6.758,6.758,0,0,1-.919,1.578A23.013,23.013,0,0,1,60.369,60.1l-1.737,2h5.291Z" fill="#e0121b"/>
    <path id="Path_23048" data-name="Path 23048" d="M73.009,50.869v2.446h-.138A4.676,4.676,0,0,0,70,54.151a3.523,3.523,0,0,0-1.379,2.322,3.637,3.637,0,0,1,2.659-1.034,3.393,3.393,0,0,1,2.779,1.275A5.139,5.139,0,0,1,75.1,60.056a4.719,4.719,0,0,1-.6,2.355A4.325,4.325,0,0,1,72.8,64.087a4.85,4.85,0,0,1-2.4.6,5.029,5.029,0,0,1-2.558-.65,4.477,4.477,0,0,1-1.754-1.862,6.122,6.122,0,0,1-.646-2.788V58.144a7.755,7.755,0,0,1,.891-3.734,6.449,6.449,0,0,1,2.544-2.6,7.27,7.27,0,0,1,3.666-.941ZM70.2,57.84a1.788,1.788,0,0,0-1.035.285,1.817,1.817,0,0,0-.619.7v.929q0,2.538,1.764,2.538a1.435,1.435,0,0,0,1.187-.635,2.578,2.578,0,0,0,.475-1.591,2.53,2.53,0,0,0-.484-1.6A1.554,1.554,0,0,0,70.2,57.84Z" fill="#e0121b"/>
    <path id="Path_23049" data-name="Path 23049" d="M84.275,61.995H79.834l-.777,2.512H75.6l4.931-13.445h3.047l4.968,13.445H85.059Zm-3.666-2.5H83.5l-1.45-4.663Z" fill="#e0121b"/>
    <path id="Path_23050" data-name="Path 23050" d="M96.454,60.933a1.334,1.334,0,0,0-.5-1.108A6.263,6.263,0,0,0,94.182,59a16.945,16.945,0,0,1-2.068-.823Q89.5,56.9,89.5,54.654a3.159,3.159,0,0,1,.651-1.971,4.216,4.216,0,0,1,1.842-1.33,7.185,7.185,0,0,1,2.677-.475,6.286,6.286,0,0,1,2.6.517,4.113,4.113,0,0,1,1.786,1.473,3.844,3.844,0,0,1,.638,2.183H96.462a1.625,1.625,0,0,0-.5-1.274,1.958,1.958,0,0,0-1.362-.452,2.217,2.217,0,0,0-1.371.383,1.128,1.128,0,0,0,.051,1.911,6.972,6.972,0,0,0,1.948.868,11.93,11.93,0,0,1,2.29.965,3.849,3.849,0,0,1,2.18,3.463,3.281,3.281,0,0,1-1.33,2.769,5.911,5.911,0,0,1-3.648,1.007,7.233,7.233,0,0,1-2.959-.586A4.464,4.464,0,0,1,89.764,62.5a4.187,4.187,0,0,1-.67-2.35h3.25a2.063,2.063,0,0,0,.559,1.593,2.639,2.639,0,0,0,1.814.513,2.085,2.085,0,0,0,1.27-.347A1.142,1.142,0,0,0,96.454,60.933Z" fill="#e0121b"/>
  </g>
</svg>
