<svg id="TDS_enquiry" xmlns="http://www.w3.org/2000/svg" xmlns:xlink="http://www.w3.org/1999/xlink" width="48" height="48" viewBox="0 0 48 48">
  <defs>
    <clipPath id="clip-path">
      <path id="Path_23045" data-name="Path 23045" d="M106.094,12.01,110.4,16.5v.733l-4.374-.2Z" transform="translate(-106.03 -12.01)" fill="none"/>
    </clipPath>
  </defs>
  <rect id="Rectangle_489" data-name="Rectangle 489" width="48" height="48" transform="translate(0)" fill="none"/>
  <path id="Path_1259" data-name="Path 1259" d="M57.039,18.34a.1.1,0,0,1-.026-.029q-.979-.96-1.952-1.952a.163.163,0,0,1-.032-.019c-.106-.112-.218-.214-.32-.32H31.19A1.686,1.686,0,0,0,29.5,17.7V53.364a1.686,1.686,0,0,0,1.683,1.69h24.48a1.686,1.686,0,0,0,1.686-1.686h0V18.6A3.958,3.958,0,0,0,57.039,18.34Z" transform="translate(-20.06 -10.894)" fill="#cbd8dc"/>
  <path id="Path_1260" data-name="Path 1260" d="M33.47,13.514V49.539a1.51,1.51,0,0,0,1.51,1.5H59.806a1.51,1.51,0,0,0,1.514-1.507v0l-.262-29.091V16.454l-1.37-.278c0-.835-.422-.448-1.258-.448l.49-.557L56.75,12H34.99a1.51,1.51,0,0,0-1.52,1.5Z" transform="translate(-22.76 -8.16)" fill="#eaf2f5"/>
  <path id="Rectangle_490" data-name="Rectangle 490" d="M43.624,100.1H63.489a1.114,1.114,0,0,1,1.114,1.114h0a1.114,1.114,0,0,1-1.114,1.114H43.624a1.114,1.114,0,0,1-1.114-1.114h0A1.114,1.114,0,0,1,43.624,100.1Z" transform="translate(-28.907 -68.068)" fill="#dee9ec"/>
  <path id="Rectangle_491" data-name="Rectangle 491" d="M43.624,114.1H63.489a1.114,1.114,0,0,1,1.114,1.114h0a1.114,1.114,0,0,1-1.114,1.114H43.624a1.114,1.114,0,0,1-1.114-1.114h0A1.114,1.114,0,0,1,43.624,114.1Z" transform="translate(-28.907 -77.588)" fill="#dee9ec"/>
  <g id="Group_67334" data-name="Group 67334" transform="translate(33.93 3.843)">
    <g id="Group_67333" data-name="Group 67333" clip-path="url(#clip-path)">
      <g id="Group_21453" data-name="Group 21453" transform="translate(0.006 -1.456)">
        <rect id="Rectangle_492" data-name="Rectangle 492" width="5.814" height="5.974" rx="2.907" fill="#cbd8dc"/>
      </g>
    </g>
  </g>
  <circle id="Ellipse_1613" data-name="Ellipse 1613" cx="10.522" cy="10.522" r="10.522" transform="translate(14.112 7.968)" fill="#dee9ec"/>
  <path id="Path_1262" data-name="Path 1262" d="M63.379,51.813h-1.3v3.52H61.04v-3.52H59.76V51h3.619Z" transform="translate(-40.637 -34.68)" fill="#e0121b"/>
  <path id="Path_1263" data-name="Path 1263" d="M72.06,55.329V51h1.392a2.021,2.021,0,0,1,1.03.262,1.808,1.808,0,0,1,.714.733,2.165,2.165,0,0,1,.259,1.059v.2a2.237,2.237,0,0,1-.25,1.062,1.819,1.819,0,0,1-.707.736,1.966,1.966,0,0,1-1.018.269Zm1.043-3.52v2.71h.362a.806.806,0,0,0,.688-.32,1.565,1.565,0,0,0,.24-.96v-.189a1.557,1.557,0,0,0-.24-.944.826.826,0,0,0-.7-.32Z" transform="translate(-49.001 -34.679)" fill="#e0121b"/>
  <path id="Path_1264" data-name="Path 1264" d="M85.884,54.058a.425.425,0,0,0-.163-.355,2,2,0,0,0-.566-.266,5.527,5.527,0,0,1-.666-.262,1.267,1.267,0,0,1-.842-1.136,1.008,1.008,0,0,1,.211-.64,1.344,1.344,0,0,1,.592-.426,2.294,2.294,0,0,1,.861-.154,2,2,0,0,1,.835.166,1.319,1.319,0,0,1,.576.474,1.252,1.252,0,0,1,.2.7h-1.04a.519.519,0,0,0-.163-.41.64.64,0,0,0-.435-.144.717.717,0,0,0-.442.122.362.362,0,0,0,0,.614,2.24,2.24,0,0,0,.64.278,4.243,4.243,0,0,1,.736.32,1.242,1.242,0,0,1,.7,1.114,1.062,1.062,0,0,1-.429.893,1.922,1.922,0,0,1-1.171.32,2.351,2.351,0,0,1-.96-.189,1.415,1.415,0,0,1-.64-.518,1.338,1.338,0,0,1-.214-.755h1.053a.662.662,0,0,0,.179.512.841.841,0,0,0,.586.166.671.671,0,0,0,.406-.112A.372.372,0,0,0,85.884,54.058Z" transform="translate(-56.786 -34.557)" fill="#e0121b"/>
  <rect id="Rectangle_493" data-name="Rectangle 493" width="48" height="48" transform="translate(0)" fill="none"/>
</svg>
