<svg xmlns="http://www.w3.org/2000/svg" width="48" height="48" viewBox="0 0 48 48">
  <g id="Group_67258" data-name="Group 67258" transform="translate(197.79)">
    <rect id="Rectangle_38" data-name="Rectangle 38" width="48" height="48" transform="translate(-197.79)" fill="none"/>
    <g id="Group_67257" data-name="Group 67257" transform="translate(-194.214 5.058)">
      <g id="Group_67254" data-name="Group 67254" transform="translate(0)">
        <g id="Group_67252" data-name="Group 67252">
          <rect id="Rectangle_32" data-name="Rectangle 32" width="25.846" height="16.811" transform="translate(5.69 14.145)" fill="#c1cfd4"/>
          <rect id="Rectangle_33" data-name="Rectangle 33" width="4.353" height="17.003" transform="translate(12.206 14.118)" fill="#d8e6e9"/>
          <rect id="Rectangle_34" data-name="Rectangle 34" width="4.353" height="17.003" transform="translate(20.146 14.118)" fill="#d8e6e9"/>
          <rect id="Rectangle_35" data-name="Rectangle 35" width="4.353" height="17.003" transform="translate(28.086 14.118)" fill="#d8e6e9"/>
          <rect id="Rectangle_36" data-name="Rectangle 36" width="4.353" height="17.003" transform="translate(4.294 14.118)" fill="#d8e6e9"/>
          <path id="Path_227" data-name="Path 227" d="M-183.907,112.545h33.54a1.011,1.011,0,0,1,1.013,1.008v4.906a1.011,1.011,0,0,1-1.009,1.013h-33.544a1.011,1.011,0,0,1-1.013-1.008v-4.906a.994.994,0,0,1,.974-1.013Z" transform="translate(185.463 -81.589)" fill="#e6f0f4"/>
          <path id="Path_228" data-name="Path 228" d="M-150.234,28.94l-18.673-13.033a.535.535,0,0,0-.657.027l-15.99,12.376-.849.657a.56.56,0,0,0-.109.767.571.571,0,0,0,.438.219h35.539a.549.549,0,0,0,.548-.548A.537.537,0,0,0-150.234,28.94Z" transform="translate(186.616 -15.808)" fill="#e6f0f4"/>
          <path id="Path_235" data-name="Path 235" d="M-142.871,32.429l-11.308-7.885a.372.372,0,0,0-.411,0l-9.665,7.5-.52.383a.326.326,0,0,0-.087.452.335.335,0,0,0,.033.041.337.337,0,0,0,.274.137h21.493a.323.323,0,0,0,.33-.316.323.323,0,0,0,0-.039A.339.339,0,0,0-142.871,32.429Z" transform="translate(171.861 -21.706)" fill="#c1cfd4"/>
        </g>
        <g id="Group_67253" data-name="Group 67253" transform="translate(6.437 32.457)">
          <path id="Path_22990" data-name="Path 22990" d="M-164.15,120.361h-1.2l-.21.68h-.938l1.335-3.64h.825l1.345,3.64h-.942Zm-.993-.677h.783l-.393-1.263Z" transform="translate(166.5 -117.349)" fill="#d60013"/>
          <path id="Path_22991" data-name="Path 22991" d="M-152.156,119.7a1.33,1.33,0,0,1-.2.671,1.239,1.239,0,0,1-.526.451,1.792,1.792,0,0,1-.774.16,1.429,1.429,0,0,1-1.13-.468,1.93,1.93,0,0,1-.412-1.32v-.18a2.2,2.2,0,0,1,.186-.936,1.41,1.41,0,0,1,.536-.62,1.5,1.5,0,0,1,.81-.219,1.569,1.569,0,0,1,1.065.349,1.376,1.376,0,0,1,.458.961h-.875a.652.652,0,0,0-.167-.478.69.69,0,0,0-.48-.145.523.523,0,0,0-.48.245,1.578,1.578,0,0,0-.16.782v.258a1.739,1.739,0,0,0,.146.832.535.535,0,0,0,.5.25.674.674,0,0,0,.463-.143.605.605,0,0,0,.17-.452Z" transform="translate(158.818 -117.237)" fill="#d60013"/>
          <path id="Path_22992" data-name="Path 22992" d="M-141.656,119.7a1.33,1.33,0,0,1-.2.671,1.239,1.239,0,0,1-.526.451,1.792,1.792,0,0,1-.774.16,1.429,1.429,0,0,1-1.13-.468,1.93,1.93,0,0,1-.412-1.32v-.18a2.2,2.2,0,0,1,.186-.936,1.41,1.41,0,0,1,.536-.62,1.5,1.5,0,0,1,.81-.219,1.569,1.569,0,0,1,1.065.349,1.376,1.376,0,0,1,.458.961h-.875a.652.652,0,0,0-.167-.478.69.69,0,0,0-.48-.145.523.523,0,0,0-.48.245,1.578,1.578,0,0,0-.16.782v.258a1.739,1.739,0,0,0,.146.832.535.535,0,0,0,.5.25.674.674,0,0,0,.463-.143.605.605,0,0,0,.17-.452Z" transform="translate(151.678 -117.237)" fill="#d60013"/>
          <path id="Path_22993" data-name="Path 22993" d="M-131.018,119.19a2.148,2.148,0,0,1-.2.942,1.457,1.457,0,0,1-.561.631,1.563,1.563,0,0,1-.829.221,1.586,1.586,0,0,1-.825-.214,1.456,1.456,0,0,1-.561-.611,2.086,2.086,0,0,1-.211-.913v-.2a2.155,2.155,0,0,1,.2-.944,1.457,1.457,0,0,1,.563-.631,1.573,1.573,0,0,1,.834-.222,1.559,1.559,0,0,1,.825.22,1.48,1.48,0,0,1,.564.626,2.1,2.1,0,0,1,.2.931Zm-.892-.153a1.53,1.53,0,0,0-.181-.824.582.582,0,0,0-.519-.281q-.66,0-.7.99l0,.268a1.574,1.574,0,0,0,.178.822.58.58,0,0,0,.527.287.573.573,0,0,0,.513-.282,1.531,1.531,0,0,0,.182-.812Z" transform="translate(144.538 -117.242)" fill="#d60013"/>
          <path id="Path_22994" data-name="Path 22994" d="M-120.007,117.4v2.382a1.372,1.372,0,0,1-.172.7,1.119,1.119,0,0,1-.5.451,1.744,1.744,0,0,1-.763.155,1.506,1.506,0,0,1-1.047-.345,1.231,1.231,0,0,1-.39-.945v-2.4h.883v2.418q.015.6.555.6a.538.538,0,0,0,.412-.15.7.7,0,0,0,.14-.487V117.4Z" transform="translate(136.835 -117.349)" fill="#d60013"/>
          <path id="Path_22995" data-name="Path 22995" d="M-109.163,121.041h-.873l-1.29-2.265v2.265h-.877V117.4h.877l1.288,2.265V117.4h.875Z" transform="translate(129.578 -117.349)" fill="#d60013"/>
          <path id="Path_22996" data-name="Path 22996" d="M-98.731,118.078h-1.092v2.963h-.877v-2.963h-1.072V117.4h3.042Z" transform="translate(122.486 -117.349)" fill="#d60013"/>
        </g>
      </g>
      <g id="Group_67256" data-name="Group 67256" transform="translate(17.409 2.996)">
        <circle id="Ellipse_1997" data-name="Ellipse 1997" cx="10.507" cy="10.507" r="10.507" transform="translate(2.129 1.401)" fill="none"/>
        <path id="Path_1452" data-name="Path 1452" d="M-109.448,36.551a11.383,11.383,0,0,1-11.38,11.387,11.383,11.383,0,0,1-11.387-11.38,11.383,11.383,0,0,1,11.378-11.387,11.383,11.383,0,0,1,11.388,11.378Z" transform="translate(132.214 -25.171)" fill="#cad7db"/>
        <path id="Path_1453" data-name="Path 1453" d="M-107.343,36.551a11.383,11.383,0,0,1-11.38,11.387,11.383,11.383,0,0,1-11.387-11.38,11.383,11.383,0,0,1,11.38-11.387h.011A11.383,11.383,0,0,1-107.343,36.551Z" transform="translate(130.783 -25.171)" fill="#eaf2f5"/>
        <path id="Path_1454" data-name="Path 1454" d="M-105.243,40.513a9.517,9.517,0,0,1-9.515,9.519,9.517,9.517,0,0,1-9.519-9.515A9.517,9.517,0,0,1-114.762,31h.009A9.517,9.517,0,0,1-105.243,40.513Z" transform="translate(126.817 -29.133)" fill="#dee9ec"/>
        <g id="Group_67255" data-name="Group 67255" transform="translate(5.158 5.185)">
          <path id="Path_22997" data-name="Path 22997" d="M-115.98,47.908a.477.477,0,0,1,.052-.672.476.476,0,0,1,.62,0l.617.615v-.279a6.2,6.2,0,0,1,6.194-6.2,6.2,6.2,0,0,1,6.2,6.195,6.2,6.2,0,0,1-6.194,6.2,6.2,6.2,0,0,1-4.383-1.814.477.477,0,0,1,.052-.672.476.476,0,0,1,.62,0,5.243,5.243,0,0,0,7.415,0,5.243,5.243,0,0,0,0-7.415,5.243,5.243,0,0,0-7.415,0,5.241,5.241,0,0,0-1.537,3.707v.279l.617-.615a.477.477,0,0,1,.672.052.476.476,0,0,1,0,.62l-1.43,1.43a.415.415,0,0,1-.074.06.193.193,0,0,1-.038.021l-.045.024-.048.014-.041.012a.455.455,0,0,1-.186,0l-.04-.012-.048-.014-.045-.024a.194.194,0,0,1-.038-.021.427.427,0,0,1-.074-.06Z" transform="translate(116.095 -41.373)" fill="#d60013"/>
          <path id="Path_22998" data-name="Path 22998" d="M-93.356,47.339a.477.477,0,0,0-.477.476v3.813a.477.477,0,0,0,.141.336l2.383,2.383a.477.477,0,0,0,.672-.052.477.477,0,0,0,0-.62l-2.243-2.245V47.815A.476.476,0,0,0-93.356,47.339Z" transform="translate(100.957 -45.43)" fill="#d60013"/>
        </g>
      </g>
    </g>
  </g>
</svg>
