<svg xmlns="http://www.w3.org/2000/svg" width="48" height="48" viewBox="0 0 48 48">
  <g id="Group_67982" data-name="Group 67982" transform="translate(-584.63 -314.549)">
    <rect id="Rectangle_38" data-name="Rectangle 38" width="48" height="48" transform="translate(584.63 314.549)" fill="none"/>
    <g id="Group_67218" data-name="Group 67218" transform="translate(588.944 318.196)">
      <g id="Group_67216" data-name="Group 67216" transform="translate(0 0)">
        <rect id="Rectangle_32" data-name="Rectangle 32" width="25.623" height="16.666" transform="translate(5.641 14.023)" fill="#c1cfd4"/>
        <rect id="Rectangle_33" data-name="Rectangle 33" width="4.316" height="16.856" transform="translate(12.101 13.996)" fill="#d8e6e9"/>
        <rect id="Rectangle_34" data-name="Rectangle 34" width="4.316" height="16.856" transform="translate(19.973 13.996)" fill="#d8e6e9"/>
        <rect id="Rectangle_35" data-name="Rectangle 35" width="4.316" height="16.856" transform="translate(27.844 13.996)" fill="#d8e6e9"/>
        <rect id="Rectangle_36" data-name="Rectangle 36" width="4.316" height="16.856" transform="translate(4.257 13.996)" fill="#d8e6e9"/>
        <path id="Path_227" data-name="Path 227" d="M600.929,422.783H634.18a1,1,0,0,1,1,1v4.864a1,1,0,0,1-1,1H600.929a1,1,0,0,1-1-1v-4.864a.986.986,0,0,1,.966-1Z" transform="translate(-599.387 -392.094)" fill="#e6f0f4"/>
        <path id="Path_228" data-name="Path 228" d="M634.3,339.065l-18.512-12.92a.531.531,0,0,0-.652.027L599.283,338.44l-.841.651a.555.555,0,0,0-.109.76.567.567,0,0,0,.434.217H634a.544.544,0,0,0,.543-.543A.532.532,0,0,0,634.3,339.065Z" transform="translate(-598.229 -326.046)" fill="#e6f0f4"/>
        <path id="Path_235" data-name="Path 235" d="M641.783,342.6l-11.21-7.817a.369.369,0,0,0-.407,0l-9.582,7.437-.516.38a.323.323,0,0,0-.087.448.42.42,0,0,0,.3.176h21.308a.323.323,0,0,0,.326-.353A.335.335,0,0,0,641.783,342.6Z" transform="translate(-613.043 -331.968)" fill="#c1cfd4"/>
      </g>
      <g id="Group_67217" data-name="Group 67217" transform="translate(6.382 32.178)">
        <path id="Path_22966" data-name="Path 22966" d="M620.675,430.573h-1.192l-.208.674h-.93l1.324-3.609h.818l1.333,3.609h-.934Zm-.984-.672h.776l-.389-1.252Z" transform="translate(-618.345 -427.587)" fill="#d60013"/>
        <path id="Path_22967" data-name="Path 22967" d="M632.663,429.914a1.318,1.318,0,0,1-.2.666,1.228,1.228,0,0,1-.522.447,1.778,1.778,0,0,1-.767.159,1.417,1.417,0,0,1-1.12-.463,1.915,1.915,0,0,1-.409-1.309v-.178a2.184,2.184,0,0,1,.185-.928,1.4,1.4,0,0,1,.532-.615,1.482,1.482,0,0,1,.8-.217,1.555,1.555,0,0,1,1.056.346,1.364,1.364,0,0,1,.454.953H631.8a.646.646,0,0,0-.166-.473.684.684,0,0,0-.476-.144.519.519,0,0,0-.476.243,1.565,1.565,0,0,0-.159.776v.255a1.723,1.723,0,0,0,.145.825.531.531,0,0,0,.5.248.669.669,0,0,0,.459-.142.6.6,0,0,0,.168-.449Z" transform="translate(-626.058 -427.475)" fill="#d60013"/>
        <path id="Path_22968" data-name="Path 22968" d="M643.163,429.914a1.319,1.319,0,0,1-.2.666,1.228,1.228,0,0,1-.522.447,1.778,1.778,0,0,1-.767.159,1.416,1.416,0,0,1-1.12-.463,1.914,1.914,0,0,1-.409-1.309v-.178a2.185,2.185,0,0,1,.185-.928,1.4,1.4,0,0,1,.532-.615,1.482,1.482,0,0,1,.8-.217,1.555,1.555,0,0,1,1.056.346,1.364,1.364,0,0,1,.454.953H642.3a.646.646,0,0,0-.166-.473.685.685,0,0,0-.476-.144.519.519,0,0,0-.476.243,1.564,1.564,0,0,0-.159.776v.255a1.724,1.724,0,0,0,.145.825.531.531,0,0,0,.5.248.668.668,0,0,0,.459-.142.6.6,0,0,0,.168-.449Z" transform="translate(-633.227 -427.475)" fill="#d60013"/>
        <path id="Path_22969" data-name="Path 22969" d="M653.8,429.411a2.131,2.131,0,0,1-.2.934,1.447,1.447,0,0,1-.556.626,1.549,1.549,0,0,1-.822.219,1.572,1.572,0,0,1-.818-.212,1.444,1.444,0,0,1-.556-.606,2.063,2.063,0,0,1-.209-.9v-.2a2.136,2.136,0,0,1,.194-.936,1.444,1.444,0,0,1,.558-.626,1.652,1.652,0,0,1,1.645,0,1.469,1.469,0,0,1,.559.621,2.076,2.076,0,0,1,.2.923Zm-.885-.151a1.516,1.516,0,0,0-.18-.817.577.577,0,0,0-.515-.279q-.654,0-.691.982l0,.265a1.559,1.559,0,0,0,.176.815.575.575,0,0,0,.523.285.569.569,0,0,0,.508-.28,1.517,1.517,0,0,0,.181-.805Z" transform="translate(-640.396 -427.48)" fill="#d60013"/>
        <path id="Path_22970" data-name="Path 22970" d="M664.813,427.639V430a1.36,1.36,0,0,1-.171.7,1.109,1.109,0,0,1-.491.447,1.728,1.728,0,0,1-.756.154,1.493,1.493,0,0,1-1.038-.342,1.221,1.221,0,0,1-.387-.937v-2.379h.875v2.4q.015.593.55.593a.533.533,0,0,0,.409-.149.7.7,0,0,0,.139-.483v-2.357Z" transform="translate(-648.13 -427.587)" fill="#d60013"/>
        <path id="Path_22971" data-name="Path 22971" d="M675.656,431.248h-.865L673.512,429v2.245h-.87v-3.609h.87l1.277,2.245v-2.245h.867Z" transform="translate(-655.417 -427.587)" fill="#d60013"/>
        <path id="Path_22972" data-name="Path 22972" d="M686.088,428.311H685v2.937h-.87v-2.937h-1.063v-.672h3.016Z" transform="translate(-662.538 -427.587)" fill="#d60013"/>
      </g>
    </g>
    <g id="Group_67220" data-name="Group 67220" transform="translate(606.05 321.166)">
      <path id="Path_1452" data-name="Path 1452" d="M674.721,346.69a11.285,11.285,0,1,1-11.29-11.281,11.285,11.285,0,0,1,11.29,11.281Z" transform="translate(-652.151 -335.409)" fill="#cad7db"/>
      <path id="Path_1453" data-name="Path 1453" d="M676.825,346.69a11.285,11.285,0,1,1-11.288-11.281h.01A11.285,11.285,0,0,1,676.825,346.69Z" transform="translate(-653.588 -335.409)" fill="#eaf2f5"/>
      <path id="Path_1454" data-name="Path 1454" d="M678.957,350.669a9.435,9.435,0,1,1-9.436-9.433h.009A9.435,9.435,0,0,1,678.957,350.669Z" transform="translate(-657.57 -339.387)" fill="#dee9ec"/>
      <g id="Group_67219" data-name="Group 67219" transform="translate(7.729 5.735)">
        <path id="Path_22973" data-name="Path 22973" d="M681.371,363.984v-8.475l2.567,2.524a.6.6,0,1,0,.85-.844l-3.581-3.553h0a.658.658,0,0,0-.09-.075H681.1a.479.479,0,0,0-.087-.045h-.021a.5.5,0,0,1-.09-.027.5.5,0,0,0-.12,0h-.03a.79.79,0,0,0-.087,0l-.072.021h-.042l-.078.033-.03.018-.087.069h0l-3.685,3.671a.6.6,0,0,0,.844.847l2.659-2.647v8.484a.6.6,0,0,0,1.2,0Z" transform="translate(-676.515 -353.486)" fill="#d60013"/>
      </g>
    </g>
  </g>
</svg>
