<svg xmlns="http://www.w3.org/2000/svg" width="40" height="40" viewBox="0 0 40 40"><defs><style>.a{fill:none;}.b{fill:#6f6f6f;}</style></defs><rect class="a" width="40" height="40"/><path class="b" d="M-1375.421,692.507a12,12,0,0,1-10.013-9.911,12,12,0,0,1,6.308-12.6l.853,1.6A10.2,10.2,0,0,0-1383.5,683.1a10.194,10.194,0,0,0,9.982,7.749,10.194,10.194,0,0,0,9.851-7.916,10.194,10.194,0,0,0-5.418-11.416l.827-1.651a11.833,11.833,0,0,1,3.146,2.289,12,12,0,0,1,2.223,13.912,12,12,0,0,1-10.7,6.577A12.038,12.038,0,0,1-1375.421,692.507Zm-.685-7.939h-.9v-1.162h1.234a2.474,2.474,0,0,0,2.308-1.27h-3.435v-1.161h3.435a2.477,2.477,0,0,0-2.308-1.266h-1.234v-1.162h6.629v1.162h-2.247a2.65,2.65,0,0,1,.752,1.266h1.495v1.161h-1.495a3.372,3.372,0,0,1-2.391,2.208l3.727,2.935-1.111.817Zm2.417-7.406-.05.045-3.267-3.267,1.2-1.2,1.315,1.315v-7.294h1.693v7.21l1.229-1.23,1.2,1.2-3.267,3.267Z" transform="translate(1394 -659.76)"/></svg>