<svg xmlns="http://www.w3.org/2000/svg" width="40" height="40" viewBox="0 0 40 40"><defs><style>.a{fill:none;}.b{fill:#6f6f6f;stroke:#6f6f6f;stroke-miterlimit:10;stroke-width:0.5px;}</style></defs><g transform="translate(-6 2)"><rect class="a" width="40" height="40" transform="translate(6 -2)"/><path class="b" d="M-1628-988a2.006,2.006,0,0,1-2-2v-28a2.006,2.006,0,0,1,2-2h20a2.006,2.006,0,0,1,2,2v28a2.006,2.006,0,0,1-2,2Zm-1-29.929v27.858a1.089,1.089,0,0,0,1.1,1.071h19.8a1.089,1.089,0,0,0,1.1-1.071v-27.858a1.089,1.089,0,0,0-1.1-1.071h-19.8A1.089,1.089,0,0,0-1629-1017.929Zm4.5,24.929a.5.5,0,0,1-.5-.5.5.5,0,0,1,.5-.5h13a.5.5,0,0,1,.5.5.5.5,0,0,1-.5.5Zm0-3a.5.5,0,0,1-.5-.5.5.5,0,0,1,.5-.5h13a.5.5,0,0,1,.5.5.5.5,0,0,1-.5.5Zm0-3a.5.5,0,0,1-.5-.5.5.5,0,0,1,.5-.5h13a.5.5,0,0,1,.5.5.5.5,0,0,1-.5.5Zm12.5-4c0-2.76-2.69-5-6-5s-6,2.24-6,5h-1a6.16,6.16,0,0,1,4.766-5.683A4,4,0,0,1-1622-1012a4,4,0,0,1,4-4,4,4,0,0,1,4,4,4,4,0,0,1-1.765,3.317A6.16,6.16,0,0,1-1611-1003Zm-9-9a3.009,3.009,0,0,0,3,3,3.009,3.009,0,0,0,3-3,3.009,3.009,0,0,0-3-3A3.009,3.009,0,0,0-1621-1012Z" transform="translate(1644 1022)"/></g></svg>