<svg id="Virtual_Account_icon" data-name="Virtual Account icon" xmlns="http://www.w3.org/2000/svg" width="40" height="40" viewBox="0 0 40 40">
  <rect id="Rectangle_21429" data-name="Rectangle 21429" width="40" height="40" fill="none"/>
  <g id="Group_25069" data-name="Group 25069" transform="translate(-0.003)">
    <path id="Path_23731" data-name="Path 23731" d="M8.582,16.886,7.544,15.848,4.433,18.959a1.474,1.474,0,0,0,0,2.082l3.111,3.111,1.038-1.038L6.509,21.041a1.472,1.472,0,0,1,0-2.082Z" fill="#6f6f6f"/>
    <path id="Path_23732" data-name="Path 23732" d="M18.965,6.5a1.464,1.464,0,0,1,2.069,0l2.079,2.079,1.038-1.038L21.034,4.428a1.464,1.464,0,0,0-2.069,0L15.848,7.545l1.038,1.038Z" fill="#6f6f6f"/>
    <path id="Path_23733" data-name="Path 23733" d="M35.571,18.965l-3.116-3.117-1.038,1.038,2.078,2.079a1.464,1.464,0,0,1,0,2.071l-2.078,2.078,1.038,1.038,3.116-3.116A1.464,1.464,0,0,0,35.571,18.965Z" fill="#6f6f6f"/>
    <path id="Path_23734" data-name="Path 23734" d="M21.037,33.494a1.467,1.467,0,0,1-2.075,0l-2.076-2.077-1.038,1.038,3.114,3.115a1.467,1.467,0,0,0,2.075,0l3.114-3.115-1.038-1.038Z" fill="#6f6f6f"/>
    <path id="Path_23735" data-name="Path 23735" d="M20,11a4,4,0,1,0,4,4A4,4,0,0,0,20,11Zm0,7a3,3,0,1,1,3-3A3,3,0,0,1,20,18Z" transform="translate(0 1)" fill="#6f6f6f" stroke="#939393" stroke-width="0.5"/>
    <path id="Path_23736" data-name="Path 23736" d="M20,20a8,8,0,0,0-8,8H28A8,8,0,0,0,20,20Zm-6.93,7a7,7,0,0,1,13.86,0Z" fill="#6f6f6f" stroke="#939393" stroke-width="0.5"/>
  </g>
</svg>
