<svg xmlns="http://www.w3.org/2000/svg" xmlns:xlink="http://www.w3.org/1999/xlink" width="48" height="48" viewBox="0 0 48 48">
  <defs>
    <clipPath id="clip-path">
      <path id="Path_23009" data-name="Path 23009" d="M-1709.06-607.1l30.185,12.933a.779.779,0,0,1,.406,1.021l-6.209,14.491a.779.779,0,0,1-1.019.41l-30.185-12.933a.779.779,0,0,1-.406-1.02l6.209-14.491A.779.779,0,0,1-1709.06-607.1Z" transform="translate(1716.35 607.157)" fill="none"/>
    </clipPath>
  </defs>
  <g id="Group_67278" data-name="Group 67278" transform="translate(1733.857 631.063)">
    <rect id="Rectangle_192" data-name="Rectangle 192" width="48" height="48" transform="translate(-1733.857 -631.063)" fill="none"/>
    <rect id="Rectangle_191" data-name="Rectangle 191" width="28.458" height="20.906" rx="5.84" transform="translate(-1729.449 -610.545)" fill="#cad7db"/>
    <path id="Path_912" data-name="Path 912" d="M-1678.652-595.8l-19.047,10.775-19.046-10.775a.1.1,0,0,1,0-.031,31.371,31.371,0,0,1,2.669-2.149l.045-.034c5.261-4.111,16.333-12.5,16.333-12.5s11.069,8.387,16.32,12.485c1.626,1.268,2.7,2.125,2.714,2.2A.1.1,0,0,1-1678.652-595.8Z" transform="translate(-11.636 -13.975)" fill="#cad7db"/>
    <path id="Path_917" data-name="Path 917" d="M-1655.47-608.989a1.486,1.486,0,0,0-1.482-1.48l-23.726-.042a1.5,1.5,0,0,0-1.5,1.484l-.022,13.7a1.49,1.49,0,0,0,1.484,1.48l23.724.034a1.494,1.494,0,0,0,1.5-1.482Z" transform="translate(-35.13 -13.975)" fill="#cad7db"/>
    <path id="Path_918" data-name="Path 918" d="M-1654.18-608.989a1.484,1.484,0,0,0-1.476-1.48l-23.624-.042a1.491,1.491,0,0,0-1.488,1.484l-.022,13.693a1.487,1.487,0,0,0,1.479,1.481l23.621.034a1.488,1.488,0,0,0,1.488-1.483Z" transform="translate(-36.086 -13.975)" fill="#eaf2f5"/>
    <path id="Rectangle_194" data-name="Rectangle 194" d="M-1622.669-593.049h5.187a.41.41,0,0,1,.452.344v2.478a.409.409,0,0,1-.452.344h-5.187a.409.409,0,0,1-.452-.344V-592.7A.409.409,0,0,1-1622.669-593.049Z" transform="translate(-75.301 -25.849)" fill="#cad7db"/>
    <path id="Rectangle_195" data-name="Rectangle 195" d="M-1676.283-569.207h4.169a.59.59,0,0,1,.59.59h0a.59.59,0,0,1-.59.59h-4.169a.59.59,0,0,1-.59-.59h0A.59.59,0,0,1-1676.283-569.207Z" transform="translate(-38.749 -42.062)" fill="#df0f1b"/>
    <path id="Rectangle_196" data-name="Rectangle 196" d="M-1657.586-569.207h4.169a.59.59,0,0,1,.59.59h0a.59.59,0,0,1-.59.59h-4.169a.59.59,0,0,1-.59-.59h0A.59.59,0,0,1-1657.586-569.207Z" transform="translate(-51.463 -42.062)" fill="#df0f1b"/>
    <path id="Rectangle_197" data-name="Rectangle 197" d="M-1638.92-569.207h4.169a.59.59,0,0,1,.59.59h0a.59.59,0,0,1-.59.59h-4.169a.59.59,0,0,1-.59-.59h0A.59.59,0,0,1-1638.92-569.207Z" transform="translate(-64.156 -42.062)" fill="#df0f1b"/>
    <path id="Rectangle_198" data-name="Rectangle 198" d="M-1620.212-569.207h4.169a.59.59,0,0,1,.59.59h0a.59.59,0,0,1-.59.59h-4.169a.59.59,0,0,1-.59-.59h0A.59.59,0,0,1-1620.212-569.207Z" transform="translate(-76.878 -42.062)" fill="#df0f1b"/>
    <rect id="Rectangle_199" data-name="Rectangle 199" width="7.977" height="2.572" rx="1.286" transform="translate(-1715.425 -622.317)" fill="#cad7db"/>
    <rect id="Rectangle_20314" data-name="Rectangle 20314" width="3.136" height="3.136" rx="1.568" transform="translate(-1696.944 -622.88)" fill="#e0121b"/>
    <path id="Path_274" data-name="Path 274" d="M-1635.535-579.681h8.846a.74.74,0,0,1,.725.753.739.739,0,0,1-.725.753h-8.846a.739.739,0,0,1-.725-.753A.739.739,0,0,1-1635.535-579.681Z" transform="translate(-66.366 -34.939)" fill="#d8e6e9"/>
    <g id="Group_67277" data-name="Group 67277" transform="translate(-1728.896 -623.693)">
      <path id="Path_517" data-name="Path 517" d="M-1711.064-607.965l30.185,12.933a.779.779,0,0,1,.406,1.02l-6.209,14.491a.778.778,0,0,1-1.019.41l-30.185-12.933a.779.779,0,0,1-.406-1.021l6.209-14.491a.763.763,0,0,1,.993-.421Z" transform="translate(1718.354 608.032)" fill="#c1cfd4"/>
      <g id="Group_188" data-name="Group 188" transform="translate(0.641 0.28)">
        <g id="Group_187" data-name="Group 187">
          <g id="Group_67274" data-name="Group 67274">
            <g id="Group_67273" data-name="Group 67273" clip-path="url(#clip-path)">
              <g id="Group_186" data-name="Group 186">
                <path id="Path_518" data-name="Path 518" d="M-1709.06-607.1l30.185,12.933a.779.779,0,0,1,.406,1.021l-6.209,14.491a.779.779,0,0,1-1.019.41l-30.185-12.933a.779.779,0,0,1-.406-1.02l6.209-14.491A.779.779,0,0,1-1709.06-607.1Z" transform="translate(1716.35 607.157)" fill="#e7f1f5"/>
              </g>
            </g>
          </g>
        </g>
      </g>
      <path id="Path_520" data-name="Path 520" d="M-1698.57-564.819l10.022,4.294a.761.761,0,0,1,.418.992l-.011.026-.061.142a.761.761,0,0,1-.992.418l-.026-.011-10.022-4.294a.761.761,0,0,1-.418-.992l.011-.026.061-.142A.777.777,0,0,1-1698.57-564.819Z" transform="translate(1705.68 578.69)" fill="#c1cfd4"/>
      <path id="Path_521" data-name="Path 521" d="M-1694.246-574.912-1670.4-564.7a.761.761,0,0,1,.418.992l-.011.026-.061.142a.761.761,0,0,1-.992.418l-.026-.011-23.844-10.217a.762.762,0,0,1-.418-.992l.011-.026.061-.143A.777.777,0,0,1-1694.246-574.912Z" transform="translate(1702.74 585.553)" fill="#d8e6e9"/>
      <path id="Path_522" data-name="Path 522" d="M-1690.748-583.087l23.844,10.217a.761.761,0,0,1,.418.992l-.011.026-.061.142a.761.761,0,0,1-.992.419l-.026-.011-23.844-10.217a.761.761,0,0,1-.418-.992l.011-.026.061-.142a.761.761,0,0,1,.992-.419Z" transform="translate(1700.361 591.116)" fill="#d8e6e9"/>
      <path id="Path_523" data-name="Path 523" d="M-1685.481-595.824l7.576,3.246a1.147,1.147,0,0,1,.6,1.493l-.224.522a1.147,1.147,0,0,1-1.493.6l-7.576-3.246a1.147,1.147,0,0,1-.6-1.493l.224-.523A1.147,1.147,0,0,1-1685.481-595.824Z" transform="translate(1697.229 599.791)" fill="#d8e6e9"/>
      <g id="Group_191" data-name="Group 191" transform="translate(0.641 0.28)">
        <g id="Group_190" data-name="Group 190">
          <g id="Group_67276" data-name="Group 67276">
            <g id="Group_67275" data-name="Group 67275" clip-path="url(#clip-path)">
              <g id="Group_189" data-name="Group 189" transform="translate(-4.07 -3.984)">
                <rect id="Rectangle_75" data-name="Rectangle 75" width="21.755" height="6.149" transform="matrix(0.394, -0.919, 0.919, 0.394, 0, 19.997)" fill="#d60013"/>
              </g>
            </g>
          </g>
        </g>
      </g>
    </g>
    <path id="Path_915" data-name="Path 915" d="M-1678.649-565.975V-547.7a2.326,2.326,0,0,1-2.32,2.32h-33.456a2.323,2.323,0,0,1-2.317-2.32v-18.275l19.046,11.232Z" transform="translate(-11.639 -44.26)" fill="#dee9ec"/>
    <path id="Path_916" data-name="Path 916" d="M-1677.926-529.943l-12.259-12.259-6.144,3.622-6.144-3.626-12.259,12.259a2.288,2.288,0,0,0,1.674.73h33.456A2.309,2.309,0,0,0-1677.926-529.943Z" transform="translate(-13.005 -60.423)" fill="#cad7db"/>
  </g>
</svg>
