<svg xmlns="http://www.w3.org/2000/svg" width="22" height="23.23" viewBox="0 0 22 23.23">
  <g id="XLS_ICN" transform="translate(-279 -412)">
    <path id="Path_23545" data-name="Path 23545" d="M30.893,4.333H20.376a.507.507,0,0,0-.106.012l-.026.008a.483.483,0,0,0-.073.025c-.011,0-.021.011-.031.017a.534.534,0,0,0-.058.035c-.011.008-.021.017-.031.026A.5.5,0,0,0,20,4.5l-.013.013-4.2,4.942a.507.507,0,0,0-.121.328V25.789a1.776,1.776,0,0,0,1.774,1.774H30.893a1.776,1.776,0,0,0,1.774-1.774V6.107A1.776,1.776,0,0,0,30.893,4.333ZM19.869,6.218V9.285H17.261ZM31.654,25.789a.761.761,0,0,1-.76.76H17.441a.761.761,0,0,1-.76-.76V10.3h3.7a.507.507,0,0,0,.507-.507V5.347h10.01a.761.761,0,0,1,.76.76Z" transform="translate(268.333 407.667)" fill="#525252"/>
    <rect id="Rectangle_21224" data-name="Rectangle 21224" width="16" height="8" rx="2" transform="translate(279 422.588)" fill="#0070e0"/>
    <text id="XLS" transform="translate(281 428.588)" fill="#fafafa" font-size="6" font-family="Roboto-Medium, Roboto" font-weight="500"><tspan x="0" y="0">XLS</tspan></text>
  </g>
</svg>
